;TYPE=PLATED
;Layer: PTH_Through_Via
;EasyEDA Pro v3.2.80, 2026-01-29 23:02:21
;Gerber Generator version 0.3
M48
METRIC,LZ,0000.00000
;Hole size 1 = 0.30000 METRIC
T01C0.30000
;Hole size 2 = 0.30500 METRIC
T02C0.30500
;Hole size 3 = 0.40640 METRIC
T03C0.40640
%
G05
G90
T01
X16.3995Y35.49014
X17.3995Y35.49014
X16.3995Y34.49014
X17.3995Y34.49014
T02
X69.46562Y45.33417
X68.77403Y45.3348
X68.11546Y45.37305
X70.104Y45.339
X68.072Y48.006
X68.834Y48.006
X69.469Y48.006
X71.374Y49.276
X75.27981Y50.71026
X74.61125Y50.59671
X75.93502Y50.72088
X76.60698Y50.70266
X74.041Y46.101
X74.04298Y45.46786
X68.072Y48.641
X68.834Y48.641
X69.469Y48.641
X68.072Y49.276
X71.374Y49.911
X70.104Y49.911
X74.041Y48.006
X74.041Y48.641
X74.041Y49.276
X68.199Y44.196
X68.834Y44.196
X69.469Y44.196
X70.104Y44.196
X67.437Y44.196
X66.9753Y43.7687
X72.644Y48.006
X72.644Y48.641
X72.644Y49.276
X71.628Y44.45
X72.39Y43.942
X67.20144Y43.01611
X71.882Y43.307
X74.041Y44.069
X74.041Y43.434
X72.644Y45.466
X68.834Y49.276
X71.12Y52.197
X69.85Y52.197
X72.39Y52.197
X73.025Y43.307
X49.1494Y48.04616
X48.895Y50.292
X49.78932Y50.292
X48.895Y49.403
X49.78932Y49.403
X48.895Y41.402
X49.78932Y41.402
X48.895Y40.513
X49.78932Y40.513
X39.116Y46.30949
X70.739Y49.911
X70.739Y49.276
X65.532Y52.705
X66.167Y53.975
X66.929Y54.483
X68.326Y55.626
X69.215Y54.102
X69.088Y55.626
X69.723Y54.991
X80.391Y52.451
X78.994Y47.70018
X90.297Y49.0469
X77.978Y57.404
X77.47Y56.769
X78.486Y56.769
X80.899Y57.658
X82.423Y57.658
X84.074Y57.658
X85.344Y57.658
X85.344Y56.388
X85.344Y54.991
X85.344Y52.832
X84.074Y52.832
X82.423Y52.832
X71.363Y42.1738
X75.04963Y72.72539
X76.19263Y72.72539
X74.92263Y73.48739
X75.68463Y73.10639
X76.44663Y73.48739
X69.977Y66.421
X67.437Y75.565
X69.088Y80.77859
X83.058Y82.677
X72.898Y75.946
X78.867Y73.47138
X75.02906Y71.57734
X76.27391Y71.53105
X71.74578Y69.96854
X72.2812Y70.50396
X73.152Y70.485
X71.882Y69.088
X74.549Y70.993
X76.75603Y70.89519
X87.09812Y84.836
X67.183Y48.133
X78.105Y83.947
X75.08481Y83.947
X72.39Y74.295
X53.0249Y60.7973
X53.0249Y61.5545
X52.324Y61.976
X53.75072Y61.976
X53.721Y60.325
X52.324Y60.198
X57.912Y78.232
X58.166Y77.216
X58.293Y75.946
X58.293Y74.676
X58.293Y73.152
X58.801Y71.882
X64.77Y9.652
X64.008Y9.652
X64.262Y9.017
X65.659Y9.652
X62.992Y9.652
X62.01384Y23.73797
X60.706Y34.671
X60.198Y34.036
X62.484Y25.4
X59.563Y33.274
X62.484Y24.765
X63.119Y25.908
X61.976Y22.987
X59.944Y27.432
X62.357Y18.923
X66.167Y18.923
X72.70829Y8.636
X62.71819Y6.477
X65.71819Y6.477
X48.641Y3.937
X51.562Y3.937
X36.65713Y5.334
X35.687Y5.334
X77.978Y58.293
X35.052Y13.97
X39.497Y24.511
X40.386Y24.511
X41.275Y24.511
X42.164Y24.511
X39.497Y23.622
X40.386Y23.622
X41.275Y23.622
X42.164Y23.622
X28.74911Y33.79023
X29.63811Y33.79023
X30.52711Y33.79023
X31.41611Y33.79023
X28.74911Y32.90123
X29.63811Y32.90123
X30.52711Y32.90123
X31.41611Y32.90123
X27.1954Y7.874
X8.001Y7.874
X35.179Y46.228
X46.609Y45.593
X56.007Y81.02498
X56.007Y80.27099
X53.594Y82.804
X52.705Y82.804
X54.483Y82.804
X52.959Y63.627
X52.07Y63.627
X51.181Y63.627
X51.562Y84.074
X60.833Y87.10957
X57.404Y67.945
X57.531Y67.31
X55.88Y75.184
X55.88Y74.398
X55.88Y73.66
X55.88Y72.898
X56.007Y65.278
X32.004Y73.152
X33.26981Y72.263
X34.66681Y73.66
X39.29977Y71.374
X37.084Y76.073
X72.64772Y44.83591
X42.164Y10.414
X56.642Y12.446
X70.993Y12.446
X58.42Y54.229
X57.41163Y54.229
X59.42837Y54.229
X95.41348Y9.81548
X88.519Y61.341
X88.519Y60.33263
X88.519Y62.34937
X85.852Y72.898
X92.71Y49.09718
X64.897Y55.499
X65.405Y68.072
X65.532Y55.499
X65.405Y68.834
X88.011Y84.201
X86.233Y84.201
X87.122Y85.725
X55.88Y70.231
X55.88Y69.39801
X55.88Y68.58
X60.706Y66.14803
X77.597Y69.088
X77.597Y69.977
X76.75194Y76.073
X76.75194Y76.962
X77.343Y75.438
X77.343Y77.597
X76.2Y75.057
X76.192Y78.06407
X78.359Y68.58
X78.359Y70.358
X76.708Y69.596
X49.46798Y42.59986
X39.116Y44.831
X46.609Y32.27325
X46.609Y33.28163
X46.609Y34.29
X45.72Y32.27325
X45.72Y33.28163
X45.72Y34.29
X46.609Y56.388
X45.72Y56.388
X45.72Y57.39637
X46.609Y57.39637
X46.609Y58.40475
X45.72Y58.40475
X53.34Y54.737
X54.229Y54.737
X54.229Y53.72863
X53.34Y53.72863
X53.34Y52.72025
X54.229Y52.72025
X53.38115Y37.592
X54.27015Y37.592
X54.27015Y36.58363
X53.38115Y36.58363
X53.38115Y35.57525
X54.27015Y35.57525
X60.706Y36.068
X60.706Y37.338
X60.706Y38.608
X60.706Y39.878
X61.214Y42.164
X61.214Y43.942
X73.30808Y44.78546
X64.897Y40.259
X67.564Y40.259
X65.47686Y64.643
X88.84058Y85.725
X45.085Y26.289
X45.085Y27.94
X58.42Y21.85885
X32.004Y72.263
X33.274Y71.501
X32.004Y71.501
X38.227Y71.374
X29.59087Y28.06713
X40.33876Y18.78789
X73.66Y52.451
X66.83015Y40.259
X62.611Y43.942
X61.976Y43.942
X52.12094Y14.90966
X51.36374Y14.90966
X61.214Y43.053
X63.246Y44.196
X62.23Y43.053
X62.611Y41.148
X64.008Y41.148
X63.881Y43.561
X64.262Y42.164
X62.23Y42.164
X64.77Y42.926
X49.149Y8.509
X50.59094Y6.096
X48.641Y9.271
X49.784Y9.017
X48.26Y8.382
X50.038Y5.588
X51.054Y5.588
X50.673Y15.494
X52.832Y15.494
X52.832Y14.097
X50.673Y14.097
X53.086Y21.209
X53.086Y20.32
X53.086Y19.431
X53.086Y18.542
X53.086Y17.653
X53.086Y16.764
X50.673Y21.209
X50.673Y20.32
X50.673Y19.431
X50.673Y18.542
X50.673Y17.653
X50.673Y16.764
X61.976Y38.354
X61.976Y37.465
X61.976Y36.576
X61.976Y35.687
X61.976Y34.798
X61.976Y33.909
X64.516Y38.354
X64.516Y37.465
X64.516Y36.576
X64.516Y35.687
X64.516Y34.798
X64.516Y33.909
X31.115Y55.626
X30.353Y55.626
X29.591Y55.626
X28.829Y55.626
X20.447Y54.229
X20.447Y53.467
X20.447Y52.705
X16.69973Y40.259
X14.77491Y40.259
X14.71853Y39.37
X13.26084Y49.0831
X14.01804Y49.0831
X15.367Y52.451
X14.351Y52.451
X13.335Y51.689
X12.573Y50.673
X12.573Y49.657
X14.605Y49.657
X24.765Y78.486
X25.654Y78.486
X26.543Y78.486
X27.432Y78.486
X28.321Y78.486
X29.21Y78.486
X24.13Y69.469
X24.13Y68.58
X24.13Y67.691
X24.13Y66.802
X24.13Y65.913
X24.13Y65.024
X22.352Y69.469
X22.352Y68.58
X22.352Y67.691
X22.352Y66.802
X22.352Y65.913
X22.352Y65.024
X15.748Y72.898
X15.748Y72.009
X15.748Y71.12
X15.748Y70.231
X15.748Y69.342
X15.748Y68.453
X15.748Y67.564
X15.748Y66.675
X15.748Y65.786
X18.161Y72.898
X18.161Y72.009
X18.161Y71.12
X18.161Y70.231
X18.161Y69.342
X18.161Y68.453
X18.161Y67.564
X18.161Y66.675
X18.161Y65.786
X15.367Y50.673
X18.034Y50.419
X18.923Y50.419
X19.812Y50.419
X22.479Y50.419
X18.034Y52.451
X18.923Y52.451
X21.59Y52.451
X24.003Y52.324
X24.892Y52.324
X25.781Y52.324
X26.67Y52.324
X36.576Y54.737
X37.465Y54.737
X38.354Y54.737
X39.243Y54.737
X40.132Y54.737
X41.021Y54.737
X41.91Y54.737
X42.799Y54.737
X43.688Y54.737
X40.132Y62.23
X41.021Y62.23
X41.91Y62.23
X42.799Y62.23
X43.688Y62.23
X44.577Y62.23
X45.466Y62.23
X46.355Y62.23
X47.244Y62.23
X12.7Y35.2494
X11.938Y31.877
X12.319Y36.957
X21.209Y37.973
X13.843Y38.481
X20.828Y33.528
X21.59Y34.39032
X15.49958Y29.464
X15.89963Y30.607
X18.29967Y30.607
X17.09952Y29.464
X18.94787Y24.74704
X18.41245Y24.21162
X19.558Y39.37
X22.86Y34.925
X12.446Y56.388
X7.493Y12.192
X22.86Y38.608
X18.415Y55.499
X18.415Y61.722
X18.415Y60.833
X18.415Y59.944
X18.415Y59.055
X18.415Y58.166
X18.415Y57.277
X18.415Y56.388
X24.638Y62.484
X24.638Y61.595
X24.638Y60.706
X24.638Y59.817
X24.638Y58.928
X22.098Y62.484
X22.098Y61.595
X22.098Y60.706
X22.098Y59.817
X22.098Y58.928
X22.098Y58.039
X22.098Y57.15
X15.748Y61.722
X15.748Y60.833
X15.748Y59.944
X15.748Y59.055
X15.748Y58.166
X15.748Y57.277
X15.748Y56.388
X14.478Y46.99
X12.827Y46.99
X15.494Y44.704
X15.494Y46.99
X18.669Y45.085
X18.669Y46.99
X15.494Y45.974
X18.669Y45.974
X19.812Y25.019
X18.288Y23.241
X20.066Y23.241
X18.542Y26.543
X18.923Y25.781
X15.621Y26.797
X15.621Y25.527
X15.621Y24.257
X14.097Y26.797
X14.097Y25.527
X14.097Y24.257
X17.526Y24.003
X15.621Y23.114
X5.334Y36.195
X6.604Y36.195
X9.144Y36.195
X4.191Y36.195
X4.191Y34.544
X4.191Y32.385
X4.191Y30.988
X6.604Y30.988
X9.144Y30.734
X51.181Y64.643
X52.07Y64.643
X52.959Y64.643
X79.629Y51.435
X79.883Y49.149
X79.629Y52.451
X79.629Y53.594
X78.1046Y51.3725
X78.105Y52.324
X77.597Y46.99
X81.407Y45.466
X80.137Y44.577
X81.915Y44.577
X79.26067Y42.77277
X78.486Y43.94022
X77.724Y42.291
X76.454Y40.513
X74.31439Y40.11787
X75.057Y38.354
X75.65649Y37.719
X76.962Y39.624
X78.486Y37.719
X82.931Y43.48582
X87.503Y26.162
X87.21848Y37.24152
X86.487Y39.624
X85.77398Y39.624
X84.582Y38.608
X83.947Y37.719
X87.249Y40.64
X79.629Y34.671
X81.153Y32.385
X80.772Y36.322
X77.47Y36.449
X78.486Y32.131
X76.44441Y37.72333
X75.6156Y34.6204
X85.471Y26.162
X87.65786Y28.702
X83.16743Y28.81143
X84.18343Y28.81053
X82.677Y36.195
X81.788Y39.37
X79.883Y39.37
X88.88243Y42.418
X76.454Y25.96189
X80.01Y24.81889
X90.043Y32.512
X90.043Y35.179
X87.503Y30.226
X91.78188Y31.115
X91.13804Y41.783
X90.66004Y22.70813
X90.12462Y23.24355
X89.281Y22.86
X90.551Y21.971
X82.169Y26.162
X84.328Y33.909
X84.328Y33.147
X84.328Y34.671
X34.671Y16.002
X34.671Y17.272
X35.814Y17.272
X39.116Y16.002
X40.132Y16.002
X10.04499Y39.51735
X91.186Y43.561
X83.947Y41.021
X84.963Y40.259
X83.82Y38.608
X87.503Y39.624
X87.884Y41.55137
X89.281Y43.053
X85.471Y43.18
X84.328Y44.323
X82.042Y45.593
X79.756Y42.291
X78.486Y42.926
X75.819Y36.449
X75.057Y36.83
X74.295Y38.989
X75.311Y33.909
X75.819Y35.433
X86.741Y44.196
X85.725Y44.831
X87.757Y43.053
X91.186Y42.545
X85.09Y39.116
X88.392Y30.48
X89.027Y28.829
X88.265Y25.781
X86.741Y25.4
X84.582Y25.654
X81.74249Y25.654
X82.98804Y25.654
X79.502Y25.908
X84.836Y28.702
X91.821Y23.114
X93.472Y29.591
X93.472Y27.813
X93.472Y26.035
X93.472Y31.115
X94.869Y29.591
X94.869Y27.813
X94.869Y26.035
X94.488Y36.576
X94.869Y31.115
X84.582Y24.638
X86.487Y24.638
X82.804Y24.638
X41.402Y67.945
X43.18Y67.945
X38.735Y67.945
X37.846Y67.945
X39.624Y67.945
X42.291Y67.945
X40.513Y67.945
X40.005Y69.215
X41.783Y69.215
X43.561Y69.215
X37.338Y69.215
X36.449Y69.215
X38.227Y69.215
X42.672Y69.215
X40.894Y69.215
X39.116Y69.215
X45.466Y74.676
X47.244Y74.676
X49.022Y74.676
X42.799Y74.676
X41.91Y74.676
X43.688Y74.676
X48.133Y74.676
X46.355Y74.676
X44.577Y74.676
X94.361Y43.434
X94.361Y41.656
X94.361Y39.878
X94.361Y46.99
X94.361Y45.212
X93.218Y58.166
X94.996Y58.166
X96.774Y58.166
X90.551Y58.166
X89.662Y58.166
X91.44Y58.166
X95.885Y58.166
X94.107Y58.166
X92.329Y58.166
X86.614Y53.594
X86.614Y51.816
X86.614Y50.038
X86.614Y56.261
X86.614Y57.15
X86.614Y55.372
X86.614Y50.927
X86.614Y52.705
X86.614Y54.483
X69.596Y25.908
X69.596Y28.575
X69.596Y27.305
X71.12Y32.639
X71.12Y31.369
X66.294Y29.21
X66.294Y27.432
X66.294Y25.654
X66.294Y31.877
X66.294Y32.766
X66.294Y30.988
X66.294Y26.543
X66.294Y28.321
X66.294Y30.099
X49.276Y30.734
X51.054Y30.734
X52.832Y30.734
X46.609Y30.734
X45.72Y30.734
X47.498Y30.734
X51.943Y30.734
X50.165Y30.734
X48.387Y30.734
X37.465Y32.258
X37.465Y30.48
X37.465Y28.702
X37.465Y34.925
X37.465Y35.814
X37.465Y34.036
X37.465Y29.591
X37.465Y31.369
X37.465Y33.147
X27.305Y19.812
X27.305Y18.034
X27.305Y16.256
X27.305Y22.479
X27.305Y23.368
X27.305Y21.59
X27.305Y17.145
X27.305Y18.923
X27.305Y20.701
X29.591Y19.812
X29.591Y18.034
X29.591Y16.256
X29.591Y22.479
X29.591Y23.368
X29.591Y21.59
X29.591Y17.145
X29.591Y18.923
X29.591Y20.701
X63.373Y68.14802
X63.373Y69.64802
X63.373Y71.14802
X63.373Y72.64801
X63.373Y74.14801
X63.373Y75.64801
X63.627Y79.248
X64.135Y81.407
X63.754Y81.915
X49.32999Y45.36164
X79.121Y35.56
X73.11954Y33.02
X77.978Y35.814
X77.978Y36.83
X73.914Y33.401
X72.39Y33.401
X79.629Y36.449
X81.28Y42.291
X86.741Y41.91
X91.186Y44.577
X87.757Y44.196
X89.281Y44.196
X91.821Y26.416
X91.059Y24.638
X93.091Y24.384
X88.646Y36.576
X82.804Y44.323
X73.787Y29.083
X73.787Y27.94
X73.787Y26.543
X81.407Y22.352
X82.931Y73.787
X86.487Y75.184
X57.531Y69.469
X71.755Y30.226
T03
X11.049Y41.91
X7.62Y41.656
X7.112Y51.181
X7.112Y49.784
X10.541Y50.28254
X10.541Y49.13954
X70.866Y37.69512
M30