G04 Layer: BottomSilkscreenLayer*
G04 EasyEDA Pro v3.2.80, 2026-01-29 23:02:20*
G04 Gerber Generator version 0.3*
G04 Scale: 100 percent, Rotated: No, Reflected: No*
G04 Dimensions in millimeters*
G04 Leading zeros omitted, absolute positions, 4 integers and 5 decimals*
G04 Generated by one-click*
%FSLAX45Y45*%
%MOMM*%
%ADD10C,0.1524*%
%ADD11C,0.254*%
%ADD12C,0.2*%
%ADD13C,0.1*%
%ADD14C,0.15199*%
%ADD15C,0.1043*%
%ADD16C,0.1016*%
%ADD17C,0.3*%
%ADD18C,0.6*%
G75*


G04 Text Start*
G54D10*
G01X4060698Y1437640D02*
G01X4063746Y1443990D01*
G01X4070096Y1450086D01*
G01X4076192Y1453134D01*
G01X4088638Y1453134D01*
G01X4094734Y1450086D01*
G01X4101084Y1443990D01*
G01X4104132Y1437640D01*
G01X4107180Y1428496D01*
G01X4107180Y1413002D01*
G01X4104132Y1403604D01*
G01X4101084Y1397508D01*
G01X4094734Y1391158D01*
G01X4088638Y1388110D01*
G01X4076192Y1388110D01*
G01X4070096Y1391158D01*
G01X4063746Y1397508D01*
G01X4060698Y1403604D01*
G01X4030472Y1440688D02*
G01X4024376Y1443990D01*
G01X4015232Y1453134D01*
G01X4015232Y1388110D01*
G01X2104898Y5908040D02*
G01X2107946Y5914390D01*
G01X2114296Y5920486D01*
G01X2120392Y5923534D01*
G01X2132838Y5923534D01*
G01X2138934Y5920486D01*
G01X2145284Y5914390D01*
G01X2148332Y5908040D01*
G01X2151380Y5898896D01*
G01X2151380Y5883402D01*
G01X2148332Y5874004D01*
G01X2145284Y5867908D01*
G01X2138934Y5861558D01*
G01X2132838Y5858510D01*
G01X2120392Y5858510D01*
G01X2114296Y5861558D01*
G01X2107946Y5867908D01*
G01X2104898Y5874004D01*
G01X2074672Y5911088D02*
G01X2068576Y5914390D01*
G01X2059432Y5923534D01*
G01X2059432Y5858510D01*
G01X2029206Y5911088D02*
G01X2023110Y5914390D01*
G01X2013966Y5923534D01*
G01X2013966Y5858510D01*
G01X2666903Y5879269D02*
G01X2669951Y5885619D01*
G01X2676301Y5891715D01*
G01X2682397Y5894763D01*
G01X2694843Y5894763D01*
G01X2700939Y5891715D01*
G01X2707289Y5885619D01*
G01X2710337Y5879269D01*
G01X2713385Y5870125D01*
G01X2713385Y5854631D01*
G01X2710337Y5845233D01*
G01X2707289Y5839137D01*
G01X2700939Y5832787D01*
G01X2694843Y5829739D01*
G01X2682397Y5829739D01*
G01X2676301Y5832787D01*
G01X2669951Y5839137D01*
G01X2666903Y5845233D01*
G01X2636677Y5882317D02*
G01X2630581Y5885619D01*
G01X2621437Y5894763D01*
G01X2621437Y5829739D01*
G01X2585115Y5894763D02*
G01X2551079Y5894763D01*
G01X2569621Y5870125D01*
G01X2560477Y5870125D01*
G01X2554127Y5867077D01*
G01X2551079Y5863775D01*
G01X2548031Y5854631D01*
G01X2548031Y5848281D01*
G01X2551079Y5839137D01*
G01X2557175Y5832787D01*
G01X2566573Y5829739D01*
G01X2575971Y5829739D01*
G01X2585115Y5832787D01*
G01X2588163Y5836089D01*
G01X2591211Y5842185D01*
G01X479298Y6022340D02*
G01X482346Y6028690D01*
G01X488696Y6034786D01*
G01X494792Y6037834D01*
G01X507238Y6037834D01*
G01X513334Y6034786D01*
G01X519684Y6028690D01*
G01X522732Y6022340D01*
G01X525780Y6013196D01*
G01X525780Y5997702D01*
G01X522732Y5988304D01*
G01X519684Y5982208D01*
G01X513334Y5975858D01*
G01X507238Y5972810D01*
G01X494792Y5972810D01*
G01X488696Y5975858D01*
G01X482346Y5982208D01*
G01X479298Y5988304D01*
G01X449072Y6025388D02*
G01X442976Y6028690D01*
G01X433832Y6037834D01*
G01X433832Y5972810D01*
G01X372872Y6037834D02*
G01X403606Y5994654D01*
G01X357378Y5994654D01*
G01X372872Y6037834D02*
G01X372872Y5972810D01*
G01X479298Y5425440D02*
G01X482346Y5431790D01*
G01X488696Y5437886D01*
G01X494792Y5440934D01*
G01X507238Y5440934D01*
G01X513334Y5437886D01*
G01X519684Y5431790D01*
G01X522732Y5425440D01*
G01X525780Y5416296D01*
G01X525780Y5400802D01*
G01X522732Y5391404D01*
G01X519684Y5385308D01*
G01X513334Y5378958D01*
G01X507238Y5375910D01*
G01X494792Y5375910D01*
G01X488696Y5378958D01*
G01X482346Y5385308D01*
G01X479298Y5391404D01*
G01X449072Y5428488D02*
G01X442976Y5431790D01*
G01X433832Y5440934D01*
G01X433832Y5375910D01*
G01X366522Y5431790D02*
G01X369570Y5437886D01*
G01X378968Y5440934D01*
G01X385064Y5440934D01*
G01X394462Y5437886D01*
G01X400558Y5428488D01*
G01X403606Y5413248D01*
G01X403606Y5397754D01*
G01X400558Y5385308D01*
G01X394462Y5378958D01*
G01X385064Y5375910D01*
G01X382016Y5375910D01*
G01X372872Y5378958D01*
G01X366522Y5385308D01*
G01X363474Y5394452D01*
G01X363474Y5397754D01*
G01X366522Y5406898D01*
G01X372872Y5413248D01*
G01X382016Y5416296D01*
G01X385064Y5416296D01*
G01X394462Y5413248D01*
G01X400558Y5406898D01*
G01X403606Y5397754D01*
G01X487680Y5593334D02*
G01X487680Y5528310D01*
G01X487680Y5528310D02*
G01X450596Y5528310D01*
G01X420370Y5580888D02*
G01X414274Y5584190D01*
G01X405130Y5593334D01*
G01X405130Y5528310D01*
G01X4012438Y1135634D02*
G01X4018534Y1132586D01*
G01X4024884Y1126490D01*
G01X4027932Y1120140D01*
G01X4030980Y1110996D01*
G01X4030980Y1095502D01*
G01X4027932Y1086104D01*
G01X4024884Y1080008D01*
G01X4018534Y1073658D01*
G01X4012438Y1070610D01*
G01X3999992Y1070610D01*
G01X3993896Y1073658D01*
G01X3987546Y1080008D01*
G01X3984498Y1086104D01*
G01X3981450Y1095502D01*
G01X3981450Y1110996D01*
G01X3984498Y1120140D01*
G01X3987546Y1126490D01*
G01X3993896Y1132586D01*
G01X3999992Y1135634D01*
G01X4012438Y1135634D01*
G01X4003040Y1083056D02*
G01X3984498Y1064514D01*
G01X3951224Y1123188D02*
G01X3945128Y1126490D01*
G01X3935984Y1135634D01*
G01X3935984Y1070610D01*
G01X3802380Y1681734D02*
G01X3802380Y1616710D01*
G01X3802380Y1681734D02*
G01X3774440Y1681734D01*
G01X3765296Y1678686D01*
G01X3762248Y1675638D01*
G01X3758946Y1669288D01*
G01X3758946Y1663192D01*
G01X3762248Y1657096D01*
G01X3765296Y1654048D01*
G01X3774440Y1650746D01*
G01X3802380Y1650746D01*
G01X3780790Y1650746D02*
G01X3758946Y1616710D01*
G01X3728720Y1669288D02*
G01X3722624Y1672590D01*
G01X3713480Y1681734D01*
G01X3713480Y1616710D01*
G01X3294380Y1224534D02*
G01X3294380Y1159510D01*
G01X3294380Y1224534D02*
G01X3266440Y1224534D01*
G01X3257296Y1221486D01*
G01X3254248Y1218438D01*
G01X3250946Y1212088D01*
G01X3250946Y1205992D01*
G01X3254248Y1199896D01*
G01X3257296Y1196848D01*
G01X3266440Y1193546D01*
G01X3294380Y1193546D01*
G01X3272790Y1193546D02*
G01X3250946Y1159510D01*
G01X3217672Y1209040D02*
G01X3217672Y1212088D01*
G01X3214624Y1218438D01*
G01X3211576Y1221486D01*
G01X3205480Y1224534D01*
G01X3193034Y1224534D01*
G01X3186684Y1221486D01*
G01X3183636Y1218438D01*
G01X3180588Y1212088D01*
G01X3180588Y1205992D01*
G01X3183636Y1199896D01*
G01X3189986Y1190498D01*
G01X3220720Y1159510D01*
G01X3177540Y1159510D01*
G01X3967480Y894334D02*
G01X3967480Y829310D01*
G01X3967480Y894334D02*
G01X3939540Y894334D01*
G01X3930396Y891286D01*
G01X3927348Y888238D01*
G01X3924046Y881888D01*
G01X3924046Y875792D01*
G01X3927348Y869696D01*
G01X3930396Y866648D01*
G01X3939540Y863346D01*
G01X3967480Y863346D01*
G01X3945890Y863346D02*
G01X3924046Y829310D01*
G01X3887724Y894334D02*
G01X3853688Y894334D01*
G01X3872230Y869696D01*
G01X3863086Y869696D01*
G01X3856736Y866648D01*
G01X3853688Y863346D01*
G01X3850640Y854202D01*
G01X3850640Y847852D01*
G01X3853688Y838708D01*
G01X3859784Y832358D01*
G01X3869182Y829310D01*
G01X3878580Y829310D01*
G01X3887724Y832358D01*
G01X3890772Y835660D01*
G01X3893820Y841756D01*
G01X3243580Y919734D02*
G01X3243580Y854710D01*
G01X3243580Y919734D02*
G01X3215640Y919734D01*
G01X3206496Y916686D01*
G01X3203448Y913638D01*
G01X3200146Y907288D01*
G01X3200146Y901192D01*
G01X3203448Y895096D01*
G01X3206496Y892048D01*
G01X3215640Y888746D01*
G01X3243580Y888746D01*
G01X3221990Y888746D02*
G01X3200146Y854710D01*
G01X3139186Y919734D02*
G01X3169920Y876554D01*
G01X3123692Y876554D01*
G01X3139186Y919734D02*
G01X3139186Y854710D01*
G01X1465580Y6190234D02*
G01X1465580Y6125210D01*
G01X1465580Y6190234D02*
G01X1437640Y6190234D01*
G01X1428496Y6187186D01*
G01X1425448Y6184138D01*
G01X1422146Y6177788D01*
G01X1422146Y6171692D01*
G01X1425448Y6165596D01*
G01X1428496Y6162548D01*
G01X1437640Y6159246D01*
G01X1465580Y6159246D01*
G01X1443990Y6159246D02*
G01X1422146Y6125210D01*
G01X1391920Y6177788D02*
G01X1385824Y6181090D01*
G01X1376680Y6190234D01*
G01X1376680Y6125210D01*
G01X1327912Y6190234D02*
G01X1337310Y6187186D01*
G01X1343406Y6177788D01*
G01X1346454Y6162548D01*
G01X1346454Y6153150D01*
G01X1343406Y6137656D01*
G01X1337310Y6128258D01*
G01X1327912Y6125210D01*
G01X1321816Y6125210D01*
G01X1312418Y6128258D01*
G01X1306322Y6137656D01*
G01X1303274Y6153150D01*
G01X1303274Y6162548D01*
G01X1306322Y6177788D01*
G01X1312418Y6187186D01*
G01X1321816Y6190234D01*
G01X1327912Y6190234D01*
G01X1249680Y6190234D02*
G01X1249680Y6125210D01*
G01X1249680Y6190234D02*
G01X1221740Y6190234D01*
G01X1212596Y6187186D01*
G01X1209548Y6184138D01*
G01X1206246Y6177788D01*
G01X1206246Y6171692D01*
G01X1209548Y6165596D01*
G01X1212596Y6162548D01*
G01X1221740Y6159246D01*
G01X1249680Y6159246D01*
G01X1228090Y6159246D02*
G01X1206246Y6125210D01*
G01X1176020Y6177788D02*
G01X1169924Y6181090D01*
G01X1160780Y6190234D01*
G01X1160780Y6125210D01*
G01X1130554Y6177788D02*
G01X1124458Y6181090D01*
G01X1115314Y6190234D01*
G01X1115314Y6125210D01*
G01X4119880Y4259834D02*
G01X4119880Y4194810D01*
G01X4119880Y4259834D02*
G01X4091940Y4259834D01*
G01X4082796Y4256786D01*
G01X4079748Y4253738D01*
G01X4076446Y4247388D01*
G01X4076446Y4241292D01*
G01X4079748Y4235196D01*
G01X4082796Y4232148D01*
G01X4091940Y4228846D01*
G01X4119880Y4228846D01*
G01X4098290Y4228846D02*
G01X4076446Y4194810D01*
G01X4043172Y4244340D02*
G01X4043172Y4247388D01*
G01X4040124Y4253738D01*
G01X4037076Y4256786D01*
G01X4030980Y4259834D01*
G01X4018534Y4259834D01*
G01X4012184Y4256786D01*
G01X4009136Y4253738D01*
G01X4006088Y4247388D01*
G01X4006088Y4241292D01*
G01X4009136Y4235196D01*
G01X4015486Y4225798D01*
G01X4046220Y4194810D01*
G01X4003040Y4194810D01*
G01X3954272Y4259834D02*
G01X3963670Y4256786D01*
G01X3969766Y4247388D01*
G01X3972814Y4232148D01*
G01X3972814Y4222750D01*
G01X3969766Y4207256D01*
G01X3963670Y4197858D01*
G01X3954272Y4194810D01*
G01X3948176Y4194810D01*
G01X3938778Y4197858D01*
G01X3932682Y4207256D01*
G01X3929634Y4222750D01*
G01X3929634Y4232148D01*
G01X3932682Y4247388D01*
G01X3938778Y4256786D01*
G01X3948176Y4259834D01*
G01X3954272Y4259834D01*
G01X4107180Y4958334D02*
G01X4107180Y4893310D01*
G01X4107180Y4958334D02*
G01X4079240Y4958334D01*
G01X4070096Y4955286D01*
G01X4067048Y4952238D01*
G01X4063746Y4945888D01*
G01X4063746Y4939792D01*
G01X4067048Y4933696D01*
G01X4070096Y4930648D01*
G01X4079240Y4927346D01*
G01X4107180Y4927346D01*
G01X4085590Y4927346D02*
G01X4063746Y4893310D01*
G01X4030472Y4942840D02*
G01X4030472Y4945888D01*
G01X4027424Y4952238D01*
G01X4024376Y4955286D01*
G01X4018280Y4958334D01*
G01X4005834Y4958334D01*
G01X3999484Y4955286D01*
G01X3996436Y4952238D01*
G01X3993388Y4945888D01*
G01X3993388Y4939792D01*
G01X3996436Y4933696D01*
G01X4002786Y4924298D01*
G01X4033520Y4893310D01*
G01X3990340Y4893310D01*
G01X3960114Y4945888D02*
G01X3954018Y4949190D01*
G01X3944874Y4958334D01*
G01X3944874Y4893310D01*
G01X4919980Y8019034D02*
G01X4919980Y7954010D01*
G01X4919980Y8019034D02*
G01X4892040Y8019034D01*
G01X4882896Y8015986D01*
G01X4879848Y8012938D01*
G01X4876546Y8006588D01*
G01X4876546Y8000492D01*
G01X4879848Y7994396D01*
G01X4882896Y7991348D01*
G01X4892040Y7988046D01*
G01X4919980Y7988046D01*
G01X4898390Y7988046D02*
G01X4876546Y7954010D01*
G01X4843272Y8003540D02*
G01X4843272Y8006588D01*
G01X4840224Y8012938D01*
G01X4837176Y8015986D01*
G01X4831080Y8019034D01*
G01X4818634Y8019034D01*
G01X4812284Y8015986D01*
G01X4809236Y8012938D01*
G01X4806188Y8006588D01*
G01X4806188Y8000492D01*
G01X4809236Y7994396D01*
G01X4815586Y7984998D01*
G01X4846320Y7954010D01*
G01X4803140Y7954010D01*
G01X4769866Y8003540D02*
G01X4769866Y8006588D01*
G01X4766818Y8012938D01*
G01X4763770Y8015986D01*
G01X4757674Y8019034D01*
G01X4745228Y8019034D01*
G01X4738878Y8015986D01*
G01X4735830Y8012938D01*
G01X4732782Y8006588D01*
G01X4732782Y8000492D01*
G01X4735830Y7994396D01*
G01X4742180Y7984998D01*
G01X4772914Y7954010D01*
G01X4729734Y7954010D01*
G01X4919980Y8171434D02*
G01X4919980Y8106410D01*
G01X4919980Y8171434D02*
G01X4892040Y8171434D01*
G01X4882896Y8168386D01*
G01X4879848Y8165338D01*
G01X4876546Y8158988D01*
G01X4876546Y8152892D01*
G01X4879848Y8146796D01*
G01X4882896Y8143748D01*
G01X4892040Y8140446D01*
G01X4919980Y8140446D01*
G01X4898390Y8140446D02*
G01X4876546Y8106410D01*
G01X4843272Y8155940D02*
G01X4843272Y8158988D01*
G01X4840224Y8165338D01*
G01X4837176Y8168386D01*
G01X4831080Y8171434D01*
G01X4818634Y8171434D01*
G01X4812284Y8168386D01*
G01X4809236Y8165338D01*
G01X4806188Y8158988D01*
G01X4806188Y8152892D01*
G01X4809236Y8146796D01*
G01X4815586Y8137398D01*
G01X4846320Y8106410D01*
G01X4803140Y8106410D01*
G01X4766818Y8171434D02*
G01X4732782Y8171434D01*
G01X4751324Y8146796D01*
G01X4742180Y8146796D01*
G01X4735830Y8143748D01*
G01X4732782Y8140446D01*
G01X4729734Y8131302D01*
G01X4729734Y8124952D01*
G01X4732782Y8115808D01*
G01X4738878Y8109458D01*
G01X4748276Y8106410D01*
G01X4757674Y8106410D01*
G01X4766818Y8109458D01*
G01X4769866Y8112760D01*
G01X4772914Y8118856D01*
G01X2405380Y5796534D02*
G01X2405380Y5750052D01*
G01X2402332Y5740908D01*
G01X2395982Y5734558D01*
G01X2386838Y5731510D01*
G01X2380488Y5731510D01*
G01X2371344Y5734558D01*
G01X2365248Y5740908D01*
G01X2361946Y5750052D01*
G01X2361946Y5796534D01*
G01X2325624Y5796534D02*
G01X2291588Y5796534D01*
G01X2310130Y5771896D01*
G01X2300986Y5771896D01*
G01X2294636Y5768848D01*
G01X2291588Y5765546D01*
G01X2288540Y5756402D01*
G01X2288540Y5750052D01*
G01X2291588Y5740908D01*
G01X2297684Y5734558D01*
G01X2307082Y5731510D01*
G01X2316480Y5731510D01*
G01X2325624Y5734558D01*
G01X2328672Y5737860D01*
G01X2331720Y5743956D01*
G01X640080Y5809234D02*
G01X640080Y5762752D01*
G01X637032Y5753608D01*
G01X630682Y5747258D01*
G01X621538Y5744210D01*
G01X615188Y5744210D01*
G01X606044Y5747258D01*
G01X599948Y5753608D01*
G01X596646Y5762752D01*
G01X596646Y5809234D01*
G01X535686Y5809234D02*
G01X566420Y5766054D01*
G01X520192Y5766054D01*
G01X535686Y5809234D02*
G01X535686Y5744210D01*
G01X4538726Y8209534D02*
G01X4538726Y8163052D01*
G01X4535678Y8153908D01*
G01X4529328Y8147558D01*
G01X4520184Y8144510D01*
G01X4513834Y8144510D01*
G01X4504690Y8147558D01*
G01X4498594Y8153908D01*
G01X4495292Y8163052D01*
G01X4495292Y8209534D01*
G01X4465066Y8197088D02*
G01X4458970Y8200390D01*
G01X4449826Y8209534D01*
G01X4449826Y8144510D01*
G01X4401058Y8209534D02*
G01X4410456Y8206486D01*
G01X4416552Y8197088D01*
G01X4419600Y8181848D01*
G01X4419600Y8172450D01*
G01X4416552Y8156956D01*
G01X4410456Y8147558D01*
G01X4401058Y8144510D01*
G01X4394962Y8144510D01*
G01X4385564Y8147558D01*
G01X4379468Y8156956D01*
G01X4376420Y8172450D01*
G01X4376420Y8181848D01*
G01X4379468Y8197088D01*
G01X4385564Y8206486D01*
G01X4394962Y8209534D01*
G01X4401058Y8209534D01*
G01X4119880Y4374134D02*
G01X4119880Y4309110D01*
G01X4119880Y4374134D02*
G01X4091940Y4374134D01*
G01X4082796Y4371086D01*
G01X4079748Y4368038D01*
G01X4076446Y4361688D01*
G01X4076446Y4355592D01*
G01X4079748Y4349496D01*
G01X4082796Y4346448D01*
G01X4091940Y4343146D01*
G01X4119880Y4343146D01*
G01X4098290Y4343146D02*
G01X4076446Y4309110D01*
G01X4043172Y4358640D02*
G01X4043172Y4361688D01*
G01X4040124Y4368038D01*
G01X4037076Y4371086D01*
G01X4030980Y4374134D01*
G01X4018534Y4374134D01*
G01X4012184Y4371086D01*
G01X4009136Y4368038D01*
G01X4006088Y4361688D01*
G01X4006088Y4355592D01*
G01X4009136Y4349496D01*
G01X4015486Y4340098D01*
G01X4046220Y4309110D01*
G01X4003040Y4309110D01*
G01X3935730Y4364990D02*
G01X3938778Y4371086D01*
G01X3948176Y4374134D01*
G01X3954272Y4374134D01*
G01X3963670Y4371086D01*
G01X3969766Y4361688D01*
G01X3972814Y4346448D01*
G01X3972814Y4330954D01*
G01X3969766Y4318508D01*
G01X3963670Y4312158D01*
G01X3954272Y4309110D01*
G01X3951224Y4309110D01*
G01X3942080Y4312158D01*
G01X3935730Y4318508D01*
G01X3932682Y4327652D01*
G01X3932682Y4330954D01*
G01X3935730Y4340098D01*
G01X3942080Y4346448D01*
G01X3951224Y4349496D01*
G01X3954272Y4349496D01*
G01X3963670Y4346448D01*
G01X3969766Y4340098D01*
G01X3972814Y4330954D01*
G01X4107180Y4831334D02*
G01X4107180Y4766310D01*
G01X4107180Y4831334D02*
G01X4079240Y4831334D01*
G01X4070096Y4828286D01*
G01X4067048Y4825238D01*
G01X4063746Y4818888D01*
G01X4063746Y4812792D01*
G01X4067048Y4806696D01*
G01X4070096Y4803648D01*
G01X4079240Y4800346D01*
G01X4107180Y4800346D01*
G01X4085590Y4800346D02*
G01X4063746Y4766310D01*
G01X4030472Y4815840D02*
G01X4030472Y4818888D01*
G01X4027424Y4825238D01*
G01X4024376Y4828286D01*
G01X4018280Y4831334D01*
G01X4005834Y4831334D01*
G01X3999484Y4828286D01*
G01X3996436Y4825238D01*
G01X3993388Y4818888D01*
G01X3993388Y4812792D01*
G01X3996436Y4806696D01*
G01X4002786Y4797298D01*
G01X4033520Y4766310D01*
G01X3990340Y4766310D01*
G01X3916934Y4831334D02*
G01X3947922Y4766310D01*
G01X3960114Y4831334D02*
G01X3916934Y4831334D01*
G01X9635998Y6250940D02*
G01X9639046Y6257290D01*
G01X9645396Y6263386D01*
G01X9651492Y6266434D01*
G01X9663938Y6266434D01*
G01X9670034Y6263386D01*
G01X9676384Y6257290D01*
G01X9679432Y6250940D01*
G01X9682480Y6241796D01*
G01X9682480Y6226302D01*
G01X9679432Y6216904D01*
G01X9676384Y6210808D01*
G01X9670034Y6204458D01*
G01X9663938Y6201410D01*
G01X9651492Y6201410D01*
G01X9645396Y6204458D01*
G01X9639046Y6210808D01*
G01X9635998Y6216904D01*
G01X9581134Y6266434D02*
G01X9605772Y6201410D01*
G01X9581134Y6266434D02*
G01X9556242Y6201410D01*
G01X9596628Y6223254D02*
G01X9565640Y6223254D01*
G01X9526016Y6266434D02*
G01X9526016Y6201410D01*
G01X9526016Y6266434D02*
G01X9498330Y6266434D01*
G01X9488932Y6263386D01*
G01X9485884Y6260338D01*
G01X9482836Y6253988D01*
G01X9482836Y6247892D01*
G01X9485884Y6241796D01*
G01X9488932Y6238748D01*
G01X9498330Y6235446D01*
G01X9526016Y6235446D01*
G01X9504426Y6235446D02*
G01X9482836Y6201410D01*
G01X9452610Y6266434D02*
G01X9452610Y6201410D01*
G01X9452610Y6266434D02*
G01X9431020Y6266434D01*
G01X9421876Y6263386D01*
G01X9415526Y6257290D01*
G01X9412478Y6250940D01*
G01X9409430Y6241796D01*
G01X9409430Y6226302D01*
G01X9412478Y6216904D01*
G01X9415526Y6210808D01*
G01X9421876Y6204458D01*
G01X9431020Y6201410D01*
G01X9452610Y6201410D01*
G01X9379204Y6253988D02*
G01X9373108Y6257290D01*
G01X9363964Y6266434D01*
G01X9363964Y6201410D01*
G01X6113780Y1516634D02*
G01X6113780Y1470152D01*
G01X6110732Y1461008D01*
G01X6104382Y1454658D01*
G01X6095238Y1451610D01*
G01X6088888Y1451610D01*
G01X6079744Y1454658D01*
G01X6073648Y1461008D01*
G01X6070346Y1470152D01*
G01X6070346Y1516634D01*
G01X6040120Y1504188D02*
G01X6034024Y1507490D01*
G01X6024880Y1516634D01*
G01X6024880Y1451610D01*
G01X5963920Y1516634D02*
G01X5994654Y1473454D01*
G01X5948426Y1473454D01*
G01X5963920Y1516634D02*
G01X5963920Y1451610D01*
G01X3730498Y4015740D02*
G01X3733546Y4022090D01*
G01X3739896Y4028186D01*
G01X3745992Y4031234D01*
G01X3758438Y4031234D01*
G01X3764534Y4028186D01*
G01X3770884Y4022090D01*
G01X3773932Y4015740D01*
G01X3776980Y4006596D01*
G01X3776980Y3991102D01*
G01X3773932Y3981704D01*
G01X3770884Y3975608D01*
G01X3764534Y3969258D01*
G01X3758438Y3966210D01*
G01X3745992Y3966210D01*
G01X3739896Y3969258D01*
G01X3733546Y3975608D01*
G01X3730498Y3981704D01*
G01X3697224Y4015740D02*
G01X3697224Y4018788D01*
G01X3694176Y4025138D01*
G01X3691128Y4028186D01*
G01X3685032Y4031234D01*
G01X3672586Y4031234D01*
G01X3666236Y4028186D01*
G01X3663188Y4025138D01*
G01X3660140Y4018788D01*
G01X3660140Y4012692D01*
G01X3663188Y4006596D01*
G01X3669538Y3997198D01*
G01X3700272Y3966210D01*
G01X3657092Y3966210D01*
G01X3611626Y4031234D02*
G01X3620770Y4028186D01*
G01X3623818Y4022090D01*
G01X3623818Y4015740D01*
G01X3620770Y4009644D01*
G01X3614674Y4006596D01*
G01X3602228Y4003548D01*
G01X3592830Y4000246D01*
G01X3586734Y3994150D01*
G01X3583686Y3988054D01*
G01X3583686Y3978656D01*
G01X3586734Y3972560D01*
G01X3589782Y3969258D01*
G01X3599180Y3966210D01*
G01X3611626Y3966210D01*
G01X3620770Y3969258D01*
G01X3623818Y3972560D01*
G01X3626866Y3978656D01*
G01X3626866Y3988054D01*
G01X3623818Y3994150D01*
G01X3617722Y4000246D01*
G01X3608324Y4003548D01*
G01X3596132Y4006596D01*
G01X3589782Y4009644D01*
G01X3586734Y4015740D01*
G01X3586734Y4022090D01*
G01X3589782Y4028186D01*
G01X3599180Y4031234D01*
G01X3611626Y4031234D01*
G01X3730498Y5146040D02*
G01X3733546Y5152390D01*
G01X3739896Y5158486D01*
G01X3745992Y5161534D01*
G01X3758438Y5161534D01*
G01X3764534Y5158486D01*
G01X3770884Y5152390D01*
G01X3773932Y5146040D01*
G01X3776980Y5136896D01*
G01X3776980Y5121402D01*
G01X3773932Y5112004D01*
G01X3770884Y5105908D01*
G01X3764534Y5099558D01*
G01X3758438Y5096510D01*
G01X3745992Y5096510D01*
G01X3739896Y5099558D01*
G01X3733546Y5105908D01*
G01X3730498Y5112004D01*
G01X3697224Y5146040D02*
G01X3697224Y5149088D01*
G01X3694176Y5155438D01*
G01X3691128Y5158486D01*
G01X3685032Y5161534D01*
G01X3672586Y5161534D01*
G01X3666236Y5158486D01*
G01X3663188Y5155438D01*
G01X3660140Y5149088D01*
G01X3660140Y5142992D01*
G01X3663188Y5136896D01*
G01X3669538Y5127498D01*
G01X3700272Y5096510D01*
G01X3657092Y5096510D01*
G01X3586734Y5139944D02*
G01X3589782Y5130546D01*
G01X3596132Y5124450D01*
G01X3605276Y5121402D01*
G01X3608324Y5121402D01*
G01X3617722Y5124450D01*
G01X3623818Y5130546D01*
G01X3626866Y5139944D01*
G01X3626866Y5142992D01*
G01X3623818Y5152390D01*
G01X3617722Y5158486D01*
G01X3608324Y5161534D01*
G01X3605276Y5161534D01*
G01X3596132Y5158486D01*
G01X3589782Y5152390D01*
G01X3586734Y5139944D01*
G01X3586734Y5124450D01*
G01X3589782Y5108956D01*
G01X3596132Y5099558D01*
G01X3605276Y5096510D01*
G01X3611626Y5096510D01*
G01X3620770Y5099558D01*
G01X3623818Y5105908D01*
G01X1680316Y2524942D02*
G01X1686666Y2521894D01*
G01X1692762Y2515544D01*
G01X1695810Y2509448D01*
G01X1695810Y2497002D01*
G01X1692762Y2490906D01*
G01X1686666Y2484556D01*
G01X1680316Y2481508D01*
G01X1671172Y2478460D01*
G01X1655678Y2478460D01*
G01X1646280Y2481508D01*
G01X1640184Y2484556D01*
G01X1633834Y2490906D01*
G01X1630786Y2497002D01*
G01X1630786Y2509448D01*
G01X1633834Y2515544D01*
G01X1640184Y2521894D01*
G01X1646280Y2524942D01*
G01X1695810Y2585902D02*
G01X1652630Y2555168D01*
G01X1652630Y2601396D01*
G01X1695810Y2585902D02*
G01X1630786Y2585902D01*
G01X1680316Y2634670D02*
G01X1683364Y2634670D01*
G01X1689714Y2637718D01*
G01X1692762Y2640766D01*
G01X1695810Y2646862D01*
G01X1695810Y2659308D01*
G01X1692762Y2665658D01*
G01X1689714Y2668706D01*
G01X1683364Y2671754D01*
G01X1677268Y2671754D01*
G01X1671172Y2668706D01*
G01X1661774Y2662356D01*
G01X1630786Y2631622D01*
G01X1630786Y2674802D01*
G01X1781916Y2524942D02*
G01X1788266Y2521894D01*
G01X1794362Y2515544D01*
G01X1797410Y2509448D01*
G01X1797410Y2497002D01*
G01X1794362Y2490906D01*
G01X1788266Y2484556D01*
G01X1781916Y2481508D01*
G01X1772772Y2478460D01*
G01X1757278Y2478460D01*
G01X1747880Y2481508D01*
G01X1741784Y2484556D01*
G01X1735434Y2490906D01*
G01X1732386Y2497002D01*
G01X1732386Y2509448D01*
G01X1735434Y2515544D01*
G01X1741784Y2521894D01*
G01X1747880Y2524942D01*
G01X1797410Y2585902D02*
G01X1754230Y2555168D01*
G01X1754230Y2601396D01*
G01X1797410Y2585902D02*
G01X1732386Y2585902D01*
G01X1797410Y2637718D02*
G01X1797410Y2671754D01*
G01X1772772Y2653212D01*
G01X1772772Y2662356D01*
G01X1769724Y2668706D01*
G01X1766422Y2671754D01*
G01X1757278Y2674802D01*
G01X1750928Y2674802D01*
G01X1741784Y2671754D01*
G01X1735434Y2665658D01*
G01X1732386Y2656260D01*
G01X1732386Y2646862D01*
G01X1735434Y2637718D01*
G01X1738736Y2634670D01*
G01X1744832Y2631622D01*
G01X2142998Y2809240D02*
G01X2146046Y2815590D01*
G01X2152396Y2821686D01*
G01X2158492Y2824734D01*
G01X2170938Y2824734D01*
G01X2177034Y2821686D01*
G01X2183384Y2815590D01*
G01X2186432Y2809240D01*
G01X2189480Y2800096D01*
G01X2189480Y2784602D01*
G01X2186432Y2775204D01*
G01X2183384Y2769108D01*
G01X2177034Y2762758D01*
G01X2170938Y2759710D01*
G01X2158492Y2759710D01*
G01X2152396Y2762758D01*
G01X2146046Y2769108D01*
G01X2142998Y2775204D01*
G01X2082038Y2824734D02*
G01X2112772Y2781554D01*
G01X2066544Y2781554D01*
G01X2082038Y2824734D02*
G01X2082038Y2759710D01*
G01X2005584Y2824734D02*
G01X2036318Y2781554D01*
G01X1990090Y2781554D01*
G01X2005584Y2824734D02*
G01X2005584Y2759710D01*
G01X1406398Y2809240D02*
G01X1409446Y2815590D01*
G01X1415796Y2821686D01*
G01X1421892Y2824734D01*
G01X1434338Y2824734D01*
G01X1440434Y2821686D01*
G01X1446784Y2815590D01*
G01X1449832Y2809240D01*
G01X1452880Y2800096D01*
G01X1452880Y2784602D01*
G01X1449832Y2775204D01*
G01X1446784Y2769108D01*
G01X1440434Y2762758D01*
G01X1434338Y2759710D01*
G01X1421892Y2759710D01*
G01X1415796Y2762758D01*
G01X1409446Y2769108D01*
G01X1406398Y2775204D01*
G01X1345438Y2824734D02*
G01X1376172Y2781554D01*
G01X1329944Y2781554D01*
G01X1345438Y2824734D02*
G01X1345438Y2759710D01*
G01X1262634Y2824734D02*
G01X1293622Y2824734D01*
G01X1296670Y2797048D01*
G01X1293622Y2800096D01*
G01X1284478Y2803144D01*
G01X1275080Y2803144D01*
G01X1265682Y2800096D01*
G01X1259586Y2793746D01*
G01X1256538Y2784602D01*
G01X1256538Y2778252D01*
G01X1259586Y2769108D01*
G01X1265682Y2762758D01*
G01X1275080Y2759710D01*
G01X1284478Y2759710D01*
G01X1293622Y2762758D01*
G01X1296670Y2766060D01*
G01X1299718Y2772156D01*
G01X1444498Y4345940D02*
G01X1447546Y4352290D01*
G01X1453896Y4358386D01*
G01X1459992Y4361434D01*
G01X1472438Y4361434D01*
G01X1478534Y4358386D01*
G01X1484884Y4352290D01*
G01X1487932Y4345940D01*
G01X1490980Y4336796D01*
G01X1490980Y4321302D01*
G01X1487932Y4311904D01*
G01X1484884Y4305808D01*
G01X1478534Y4299458D01*
G01X1472438Y4296410D01*
G01X1459992Y4296410D01*
G01X1453896Y4299458D01*
G01X1447546Y4305808D01*
G01X1444498Y4311904D01*
G01X1383538Y4361434D02*
G01X1414272Y4318254D01*
G01X1368044Y4318254D01*
G01X1383538Y4361434D02*
G01X1383538Y4296410D01*
G01X1322578Y4361434D02*
G01X1331722Y4358386D01*
G01X1334770Y4352290D01*
G01X1334770Y4345940D01*
G01X1331722Y4339844D01*
G01X1325626Y4336796D01*
G01X1313180Y4333748D01*
G01X1303782Y4330446D01*
G01X1297686Y4324350D01*
G01X1294638Y4318254D01*
G01X1294638Y4308856D01*
G01X1297686Y4302760D01*
G01X1300734Y4299458D01*
G01X1310132Y4296410D01*
G01X1322578Y4296410D01*
G01X1331722Y4299458D01*
G01X1334770Y4302760D01*
G01X1337818Y4308856D01*
G01X1337818Y4318254D01*
G01X1334770Y4324350D01*
G01X1328674Y4330446D01*
G01X1319276Y4333748D01*
G01X1307084Y4336796D01*
G01X1300734Y4339844D01*
G01X1297686Y4345940D01*
G01X1297686Y4352290D01*
G01X1300734Y4358386D01*
G01X1310132Y4361434D01*
G01X1322578Y4361434D01*
G01X1685798Y4345940D02*
G01X1688846Y4352290D01*
G01X1695196Y4358386D01*
G01X1701292Y4361434D01*
G01X1713738Y4361434D01*
G01X1719834Y4358386D01*
G01X1726184Y4352290D01*
G01X1729232Y4345940D01*
G01X1732280Y4336796D01*
G01X1732280Y4321302D01*
G01X1729232Y4311904D01*
G01X1726184Y4305808D01*
G01X1719834Y4299458D01*
G01X1713738Y4296410D01*
G01X1701292Y4296410D01*
G01X1695196Y4299458D01*
G01X1688846Y4305808D01*
G01X1685798Y4311904D01*
G01X1624838Y4361434D02*
G01X1655572Y4318254D01*
G01X1609344Y4318254D01*
G01X1624838Y4361434D02*
G01X1624838Y4296410D01*
G01X1538986Y4339844D02*
G01X1542034Y4330446D01*
G01X1548384Y4324350D01*
G01X1557528Y4321302D01*
G01X1560576Y4321302D01*
G01X1569974Y4324350D01*
G01X1576070Y4330446D01*
G01X1579118Y4339844D01*
G01X1579118Y4342892D01*
G01X1576070Y4352290D01*
G01X1569974Y4358386D01*
G01X1560576Y4361434D01*
G01X1557528Y4361434D01*
G01X1548384Y4358386D01*
G01X1542034Y4352290D01*
G01X1538986Y4339844D01*
G01X1538986Y4324350D01*
G01X1542034Y4308856D01*
G01X1548384Y4299458D01*
G01X1557528Y4296410D01*
G01X1563878Y4296410D01*
G01X1573022Y4299458D01*
G01X1576070Y4305808D01*
G01X1927098Y4345940D02*
G01X1930146Y4352290D01*
G01X1936496Y4358386D01*
G01X1942592Y4361434D01*
G01X1955038Y4361434D01*
G01X1961134Y4358386D01*
G01X1967484Y4352290D01*
G01X1970532Y4345940D01*
G01X1973580Y4336796D01*
G01X1973580Y4321302D01*
G01X1970532Y4311904D01*
G01X1967484Y4305808D01*
G01X1961134Y4299458D01*
G01X1955038Y4296410D01*
G01X1942592Y4296410D01*
G01X1936496Y4299458D01*
G01X1930146Y4305808D01*
G01X1927098Y4311904D01*
G01X1859788Y4361434D02*
G01X1890776Y4361434D01*
G01X1893824Y4333748D01*
G01X1890776Y4336796D01*
G01X1881632Y4339844D01*
G01X1872234Y4339844D01*
G01X1862836Y4336796D01*
G01X1856740Y4330446D01*
G01X1853692Y4321302D01*
G01X1853692Y4314952D01*
G01X1856740Y4305808D01*
G01X1862836Y4299458D01*
G01X1872234Y4296410D01*
G01X1881632Y4296410D01*
G01X1890776Y4299458D01*
G01X1893824Y4302760D01*
G01X1896872Y4308856D01*
G01X1804924Y4361434D02*
G01X1814322Y4358386D01*
G01X1820418Y4348988D01*
G01X1823466Y4333748D01*
G01X1823466Y4324350D01*
G01X1820418Y4308856D01*
G01X1814322Y4299458D01*
G01X1804924Y4296410D01*
G01X1798828Y4296410D01*
G01X1789430Y4299458D01*
G01X1783334Y4308856D01*
G01X1780286Y4324350D01*
G01X1780286Y4333748D01*
G01X1783334Y4348988D01*
G01X1789430Y4358386D01*
G01X1798828Y4361434D01*
G01X1804924Y4361434D01*
G01X4843780Y7053834D02*
G01X4843780Y6988810D01*
G01X4843780Y7053834D02*
G01X4815840Y7053834D01*
G01X4806696Y7050786D01*
G01X4803648Y7047738D01*
G01X4800346Y7041388D01*
G01X4800346Y7035292D01*
G01X4803648Y7029196D01*
G01X4806696Y7026148D01*
G01X4815840Y7022846D01*
G01X4843780Y7022846D01*
G01X4822190Y7022846D02*
G01X4800346Y6988810D01*
G01X4764024Y7053834D02*
G01X4729988Y7053834D01*
G01X4748530Y7029196D01*
G01X4739386Y7029196D01*
G01X4733036Y7026148D01*
G01X4729988Y7022846D01*
G01X4726940Y7013702D01*
G01X4726940Y7007352D01*
G01X4729988Y6998208D01*
G01X4736084Y6991858D01*
G01X4745482Y6988810D01*
G01X4754880Y6988810D01*
G01X4764024Y6991858D01*
G01X4767072Y6995160D01*
G01X4770120Y7001256D01*
G01X4690618Y7053834D02*
G01X4656582Y7053834D01*
G01X4675124Y7029196D01*
G01X4665980Y7029196D01*
G01X4659630Y7026148D01*
G01X4656582Y7022846D01*
G01X4653534Y7013702D01*
G01X4653534Y7007352D01*
G01X4656582Y6998208D01*
G01X4662678Y6991858D01*
G01X4672076Y6988810D01*
G01X4681474Y6988810D01*
G01X4690618Y6991858D01*
G01X4693666Y6995160D01*
G01X4696714Y7001256D01*
G01X4843780Y6850634D02*
G01X4843780Y6785610D01*
G01X4843780Y6850634D02*
G01X4815840Y6850634D01*
G01X4806696Y6847586D01*
G01X4803648Y6844538D01*
G01X4800346Y6838188D01*
G01X4800346Y6832092D01*
G01X4803648Y6825996D01*
G01X4806696Y6822948D01*
G01X4815840Y6819646D01*
G01X4843780Y6819646D01*
G01X4822190Y6819646D02*
G01X4800346Y6785610D01*
G01X4764024Y6850634D02*
G01X4729988Y6850634D01*
G01X4748530Y6825996D01*
G01X4739386Y6825996D01*
G01X4733036Y6822948D01*
G01X4729988Y6819646D01*
G01X4726940Y6810502D01*
G01X4726940Y6804152D01*
G01X4729988Y6795008D01*
G01X4736084Y6788658D01*
G01X4745482Y6785610D01*
G01X4754880Y6785610D01*
G01X4764024Y6788658D01*
G01X4767072Y6791960D01*
G01X4770120Y6798056D01*
G01X4665980Y6850634D02*
G01X4696714Y6807454D01*
G01X4650486Y6807454D01*
G01X4665980Y6850634D02*
G01X4665980Y6785610D01*
G01X4843780Y6952234D02*
G01X4843780Y6887210D01*
G01X4843780Y6952234D02*
G01X4815840Y6952234D01*
G01X4806696Y6949186D01*
G01X4803648Y6946138D01*
G01X4800346Y6939788D01*
G01X4800346Y6933692D01*
G01X4803648Y6927596D01*
G01X4806696Y6924548D01*
G01X4815840Y6921246D01*
G01X4843780Y6921246D01*
G01X4822190Y6921246D02*
G01X4800346Y6887210D01*
G01X4764024Y6952234D02*
G01X4729988Y6952234D01*
G01X4748530Y6927596D01*
G01X4739386Y6927596D01*
G01X4733036Y6924548D01*
G01X4729988Y6921246D01*
G01X4726940Y6912102D01*
G01X4726940Y6905752D01*
G01X4729988Y6896608D01*
G01X4736084Y6890258D01*
G01X4745482Y6887210D01*
G01X4754880Y6887210D01*
G01X4764024Y6890258D01*
G01X4767072Y6893560D01*
G01X4770120Y6899656D01*
G01X4659630Y6952234D02*
G01X4690618Y6952234D01*
G01X4693666Y6924548D01*
G01X4690618Y6927596D01*
G01X4681474Y6930644D01*
G01X4672076Y6930644D01*
G01X4662678Y6927596D01*
G01X4656582Y6921246D01*
G01X4653534Y6912102D01*
G01X4653534Y6905752D01*
G01X4656582Y6896608D01*
G01X4662678Y6890258D01*
G01X4672076Y6887210D01*
G01X4681474Y6887210D01*
G01X4690618Y6890258D01*
G01X4693666Y6893560D01*
G01X4696714Y6899656D01*
G01X8183880Y8031734D02*
G01X8183880Y7966710D01*
G01X8183880Y8031734D02*
G01X8155940Y8031734D01*
G01X8146796Y8028686D01*
G01X8143748Y8025638D01*
G01X8140446Y8019288D01*
G01X8140446Y8013192D01*
G01X8143748Y8007096D01*
G01X8146796Y8004048D01*
G01X8155940Y8000746D01*
G01X8183880Y8000746D01*
G01X8162290Y8000746D02*
G01X8140446Y7966710D01*
G01X8079486Y8031734D02*
G01X8110220Y7988554D01*
G01X8063992Y7988554D01*
G01X8079486Y8031734D02*
G01X8079486Y7966710D01*
G01X7990586Y8031734D02*
G01X8021574Y7966710D01*
G01X8033766Y8031734D02*
G01X7990586Y8031734D01*
G01X4691380Y487934D02*
G01X4691380Y422910D01*
G01X4691380Y487934D02*
G01X4663440Y487934D01*
G01X4654296Y484886D01*
G01X4651248Y481838D01*
G01X4647946Y475488D01*
G01X4647946Y469392D01*
G01X4651248Y463296D01*
G01X4654296Y460248D01*
G01X4663440Y456946D01*
G01X4691380Y456946D01*
G01X4669790Y456946D02*
G01X4647946Y422910D01*
G01X4586986Y487934D02*
G01X4617720Y444754D01*
G01X4571492Y444754D01*
G01X4586986Y487934D02*
G01X4586986Y422910D01*
G01X4526026Y487934D02*
G01X4535170Y484886D01*
G01X4538218Y478790D01*
G01X4538218Y472440D01*
G01X4535170Y466344D01*
G01X4529074Y463296D01*
G01X4516628Y460248D01*
G01X4507230Y456946D01*
G01X4501134Y450850D01*
G01X4498086Y444754D01*
G01X4498086Y435356D01*
G01X4501134Y429260D01*
G01X4504182Y425958D01*
G01X4513580Y422910D01*
G01X4526026Y422910D01*
G01X4535170Y425958D01*
G01X4538218Y429260D01*
G01X4541266Y435356D01*
G01X4541266Y444754D01*
G01X4538218Y450850D01*
G01X4532122Y456946D01*
G01X4522724Y460248D01*
G01X4510532Y463296D01*
G01X4504182Y466344D01*
G01X4501134Y472440D01*
G01X4501134Y478790D01*
G01X4504182Y484886D01*
G01X4513580Y487934D01*
G01X4526026Y487934D01*
G01X5516880Y487934D02*
G01X5516880Y422910D01*
G01X5516880Y487934D02*
G01X5488940Y487934D01*
G01X5479796Y484886D01*
G01X5476748Y481838D01*
G01X5473446Y475488D01*
G01X5473446Y469392D01*
G01X5476748Y463296D01*
G01X5479796Y460248D01*
G01X5488940Y456946D01*
G01X5516880Y456946D01*
G01X5495290Y456946D02*
G01X5473446Y422910D01*
G01X5412486Y487934D02*
G01X5443220Y444754D01*
G01X5396992Y444754D01*
G01X5412486Y487934D02*
G01X5412486Y422910D01*
G01X5326634Y466344D02*
G01X5329682Y456946D01*
G01X5336032Y450850D01*
G01X5345176Y447802D01*
G01X5348224Y447802D01*
G01X5357622Y450850D01*
G01X5363718Y456946D01*
G01X5366766Y466344D01*
G01X5366766Y469392D01*
G01X5363718Y478790D01*
G01X5357622Y484886D01*
G01X5348224Y487934D01*
G01X5345176Y487934D01*
G01X5336032Y484886D01*
G01X5329682Y478790D01*
G01X5326634Y466344D01*
G01X5326634Y450850D01*
G01X5329682Y435356D01*
G01X5336032Y425958D01*
G01X5345176Y422910D01*
G01X5351526Y422910D01*
G01X5360670Y425958D01*
G01X5363718Y432308D01*
G01X7769098Y4841240D02*
G01X7772146Y4847590D01*
G01X7778496Y4853686D01*
G01X7784592Y4856734D01*
G01X7797038Y4856734D01*
G01X7803134Y4853686D01*
G01X7809484Y4847590D01*
G01X7812532Y4841240D01*
G01X7815580Y4832096D01*
G01X7815580Y4816602D01*
G01X7812532Y4807204D01*
G01X7809484Y4801108D01*
G01X7803134Y4794758D01*
G01X7797038Y4791710D01*
G01X7784592Y4791710D01*
G01X7778496Y4794758D01*
G01X7772146Y4801108D01*
G01X7769098Y4807204D01*
G01X7701788Y4847590D02*
G01X7704836Y4853686D01*
G01X7714234Y4856734D01*
G01X7720330Y4856734D01*
G01X7729728Y4853686D01*
G01X7735824Y4844288D01*
G01X7738872Y4829048D01*
G01X7738872Y4813554D01*
G01X7735824Y4801108D01*
G01X7729728Y4794758D01*
G01X7720330Y4791710D01*
G01X7717282Y4791710D01*
G01X7708138Y4794758D01*
G01X7701788Y4801108D01*
G01X7698740Y4810252D01*
G01X7698740Y4813554D01*
G01X7701788Y4822698D01*
G01X7708138Y4829048D01*
G01X7717282Y4832096D01*
G01X7720330Y4832096D01*
G01X7729728Y4829048D01*
G01X7735824Y4822698D01*
G01X7738872Y4813554D01*
G01X7662418Y4856734D02*
G01X7628382Y4856734D01*
G01X7646924Y4832096D01*
G01X7637780Y4832096D01*
G01X7631430Y4829048D01*
G01X7628382Y4825746D01*
G01X7625334Y4816602D01*
G01X7625334Y4810252D01*
G01X7628382Y4801108D01*
G01X7634478Y4794758D01*
G01X7643876Y4791710D01*
G01X7653274Y4791710D01*
G01X7662418Y4794758D01*
G01X7665466Y4798060D01*
G01X7668514Y4804156D01*
G01X7769098Y4955540D02*
G01X7772146Y4961890D01*
G01X7778496Y4967986D01*
G01X7784592Y4971034D01*
G01X7797038Y4971034D01*
G01X7803134Y4967986D01*
G01X7809484Y4961890D01*
G01X7812532Y4955540D01*
G01X7815580Y4946396D01*
G01X7815580Y4930902D01*
G01X7812532Y4921504D01*
G01X7809484Y4915408D01*
G01X7803134Y4909058D01*
G01X7797038Y4906010D01*
G01X7784592Y4906010D01*
G01X7778496Y4909058D01*
G01X7772146Y4915408D01*
G01X7769098Y4921504D01*
G01X7701788Y4961890D02*
G01X7704836Y4967986D01*
G01X7714234Y4971034D01*
G01X7720330Y4971034D01*
G01X7729728Y4967986D01*
G01X7735824Y4958588D01*
G01X7738872Y4943348D01*
G01X7738872Y4927854D01*
G01X7735824Y4915408D01*
G01X7729728Y4909058D01*
G01X7720330Y4906010D01*
G01X7717282Y4906010D01*
G01X7708138Y4909058D01*
G01X7701788Y4915408D01*
G01X7698740Y4924552D01*
G01X7698740Y4927854D01*
G01X7701788Y4936998D01*
G01X7708138Y4943348D01*
G01X7717282Y4946396D01*
G01X7720330Y4946396D01*
G01X7729728Y4943348D01*
G01X7735824Y4936998D01*
G01X7738872Y4927854D01*
G01X7637780Y4971034D02*
G01X7668514Y4927854D01*
G01X7622286Y4927854D01*
G01X7637780Y4971034D02*
G01X7637780Y4906010D01*
G01X7439660Y5470398D02*
G01X7433310Y5473446D01*
G01X7427214Y5479796D01*
G01X7424166Y5485892D01*
G01X7424166Y5498338D01*
G01X7427214Y5504434D01*
G01X7433310Y5510784D01*
G01X7439660Y5513832D01*
G01X7448804Y5516880D01*
G01X7464298Y5516880D01*
G01X7473696Y5513832D01*
G01X7479792Y5510784D01*
G01X7486142Y5504434D01*
G01X7489190Y5498338D01*
G01X7489190Y5485892D01*
G01X7486142Y5479796D01*
G01X7479792Y5473446D01*
G01X7473696Y5470398D01*
G01X7433310Y5403088D02*
G01X7427214Y5406136D01*
G01X7424166Y5415534D01*
G01X7424166Y5421630D01*
G01X7427214Y5431028D01*
G01X7436612Y5437124D01*
G01X7451852Y5440172D01*
G01X7467346Y5440172D01*
G01X7479792Y5437124D01*
G01X7486142Y5431028D01*
G01X7489190Y5421630D01*
G01X7489190Y5418582D01*
G01X7486142Y5409438D01*
G01X7479792Y5403088D01*
G01X7470648Y5400040D01*
G01X7467346Y5400040D01*
G01X7458202Y5403088D01*
G01X7451852Y5409438D01*
G01X7448804Y5418582D01*
G01X7448804Y5421630D01*
G01X7451852Y5431028D01*
G01X7458202Y5437124D01*
G01X7467346Y5440172D01*
G01X7424166Y5332730D02*
G01X7424166Y5363718D01*
G01X7451852Y5366766D01*
G01X7448804Y5363718D01*
G01X7445756Y5354574D01*
G01X7445756Y5345176D01*
G01X7448804Y5335778D01*
G01X7455154Y5329682D01*
G01X7464298Y5326634D01*
G01X7470648Y5326634D01*
G01X7479792Y5329682D01*
G01X7486142Y5335778D01*
G01X7489190Y5345176D01*
G01X7489190Y5354574D01*
G01X7486142Y5363718D01*
G01X7482840Y5366766D01*
G01X7476744Y5369814D01*
G01X7680960Y5470398D02*
G01X7674610Y5473446D01*
G01X7668514Y5479796D01*
G01X7665466Y5485892D01*
G01X7665466Y5498338D01*
G01X7668514Y5504434D01*
G01X7674610Y5510784D01*
G01X7680960Y5513832D01*
G01X7690104Y5516880D01*
G01X7705598Y5516880D01*
G01X7714996Y5513832D01*
G01X7721092Y5510784D01*
G01X7727442Y5504434D01*
G01X7730490Y5498338D01*
G01X7730490Y5485892D01*
G01X7727442Y5479796D01*
G01X7721092Y5473446D01*
G01X7714996Y5470398D01*
G01X7674610Y5403088D02*
G01X7668514Y5406136D01*
G01X7665466Y5415534D01*
G01X7665466Y5421630D01*
G01X7668514Y5431028D01*
G01X7677912Y5437124D01*
G01X7693152Y5440172D01*
G01X7708646Y5440172D01*
G01X7721092Y5437124D01*
G01X7727442Y5431028D01*
G01X7730490Y5421630D01*
G01X7730490Y5418582D01*
G01X7727442Y5409438D01*
G01X7721092Y5403088D01*
G01X7711948Y5400040D01*
G01X7708646Y5400040D01*
G01X7699502Y5403088D01*
G01X7693152Y5409438D01*
G01X7690104Y5418582D01*
G01X7690104Y5421630D01*
G01X7693152Y5431028D01*
G01X7699502Y5437124D01*
G01X7708646Y5440172D01*
G01X7674610Y5332730D02*
G01X7668514Y5335778D01*
G01X7665466Y5345176D01*
G01X7665466Y5351272D01*
G01X7668514Y5360670D01*
G01X7677912Y5366766D01*
G01X7693152Y5369814D01*
G01X7708646Y5369814D01*
G01X7721092Y5366766D01*
G01X7727442Y5360670D01*
G01X7730490Y5351272D01*
G01X7730490Y5348224D01*
G01X7727442Y5339080D01*
G01X7721092Y5332730D01*
G01X7711948Y5329682D01*
G01X7708646Y5329682D01*
G01X7699502Y5332730D01*
G01X7693152Y5339080D01*
G01X7690104Y5348224D01*
G01X7690104Y5351272D01*
G01X7693152Y5360670D01*
G01X7699502Y5366766D01*
G01X7708646Y5369814D01*
G01X7566660Y5470398D02*
G01X7560310Y5473446D01*
G01X7554214Y5479796D01*
G01X7551166Y5485892D01*
G01X7551166Y5498338D01*
G01X7554214Y5504434D01*
G01X7560310Y5510784D01*
G01X7566660Y5513832D01*
G01X7575804Y5516880D01*
G01X7591298Y5516880D01*
G01X7600696Y5513832D01*
G01X7606792Y5510784D01*
G01X7613142Y5504434D01*
G01X7616190Y5498338D01*
G01X7616190Y5485892D01*
G01X7613142Y5479796D01*
G01X7606792Y5473446D01*
G01X7600696Y5470398D01*
G01X7560310Y5403088D02*
G01X7554214Y5406136D01*
G01X7551166Y5415534D01*
G01X7551166Y5421630D01*
G01X7554214Y5431028D01*
G01X7563612Y5437124D01*
G01X7578852Y5440172D01*
G01X7594346Y5440172D01*
G01X7606792Y5437124D01*
G01X7613142Y5431028D01*
G01X7616190Y5421630D01*
G01X7616190Y5418582D01*
G01X7613142Y5409438D01*
G01X7606792Y5403088D01*
G01X7597648Y5400040D01*
G01X7594346Y5400040D01*
G01X7585202Y5403088D01*
G01X7578852Y5409438D01*
G01X7575804Y5418582D01*
G01X7575804Y5421630D01*
G01X7578852Y5431028D01*
G01X7585202Y5437124D01*
G01X7594346Y5440172D01*
G01X7551166Y5326634D02*
G01X7616190Y5357622D01*
G01X7551166Y5369814D02*
G01X7551166Y5326634D01*
G01X6669532Y4574540D02*
G01X6672580Y4580890D01*
G01X6678930Y4586986D01*
G01X6685026Y4590034D01*
G01X6697472Y4590034D01*
G01X6703568Y4586986D01*
G01X6709918Y4580890D01*
G01X6712966Y4574540D01*
G01X6716014Y4565396D01*
G01X6716014Y4549902D01*
G01X6712966Y4540504D01*
G01X6709918Y4534408D01*
G01X6703568Y4528058D01*
G01X6697472Y4525010D01*
G01X6685026Y4525010D01*
G01X6678930Y4528058D01*
G01X6672580Y4534408D01*
G01X6669532Y4540504D01*
G01X6596126Y4590034D02*
G01X6627114Y4525010D01*
G01X6639306Y4590034D02*
G01X6596126Y4590034D01*
G01X6547358Y4590034D02*
G01X6556756Y4586986D01*
G01X6562852Y4577588D01*
G01X6565900Y4562348D01*
G01X6565900Y4552950D01*
G01X6562852Y4537456D01*
G01X6556756Y4528058D01*
G01X6547358Y4525010D01*
G01X6541262Y4525010D01*
G01X6531864Y4528058D01*
G01X6525768Y4537456D01*
G01X6522720Y4552950D01*
G01X6522720Y4562348D01*
G01X6525768Y4577588D01*
G01X6531864Y4586986D01*
G01X6541262Y4590034D01*
G01X6547358Y4590034D01*
G01X7756398Y4371340D02*
G01X7759446Y4377690D01*
G01X7765796Y4383786D01*
G01X7771892Y4386834D01*
G01X7784338Y4386834D01*
G01X7790434Y4383786D01*
G01X7796784Y4377690D01*
G01X7799832Y4371340D01*
G01X7802880Y4362196D01*
G01X7802880Y4346702D01*
G01X7799832Y4337304D01*
G01X7796784Y4331208D01*
G01X7790434Y4324858D01*
G01X7784338Y4321810D01*
G01X7771892Y4321810D01*
G01X7765796Y4324858D01*
G01X7759446Y4331208D01*
G01X7756398Y4337304D01*
G01X7682992Y4386834D02*
G01X7713980Y4321810D01*
G01X7726172Y4386834D02*
G01X7682992Y4386834D01*
G01X7652766Y4374388D02*
G01X7646670Y4377690D01*
G01X7637526Y4386834D01*
G01X7637526Y4321810D01*
G01X7108698Y4130040D02*
G01X7111746Y4136390D01*
G01X7118096Y4142486D01*
G01X7124192Y4145534D01*
G01X7136638Y4145534D01*
G01X7142734Y4142486D01*
G01X7149084Y4136390D01*
G01X7152132Y4130040D01*
G01X7155180Y4120896D01*
G01X7155180Y4105402D01*
G01X7152132Y4096004D01*
G01X7149084Y4089908D01*
G01X7142734Y4083558D01*
G01X7136638Y4080510D01*
G01X7124192Y4080510D01*
G01X7118096Y4083558D01*
G01X7111746Y4089908D01*
G01X7108698Y4096004D01*
G01X7035292Y4145534D02*
G01X7066280Y4080510D01*
G01X7078472Y4145534D02*
G01X7035292Y4145534D01*
G01X7002018Y4130040D02*
G01X7002018Y4133088D01*
G01X6998970Y4139438D01*
G01X6995922Y4142486D01*
G01X6989826Y4145534D01*
G01X6977380Y4145534D01*
G01X6971030Y4142486D01*
G01X6967982Y4139438D01*
G01X6964934Y4133088D01*
G01X6964934Y4126992D01*
G01X6967982Y4120896D01*
G01X6974332Y4111498D01*
G01X7005066Y4080510D01*
G01X6961886Y4080510D01*
G01X6765798Y5184140D02*
G01X6768846Y5190490D01*
G01X6775196Y5196586D01*
G01X6781292Y5199634D01*
G01X6793738Y5199634D01*
G01X6799834Y5196586D01*
G01X6806184Y5190490D01*
G01X6809232Y5184140D01*
G01X6812280Y5174996D01*
G01X6812280Y5159502D01*
G01X6809232Y5150104D01*
G01X6806184Y5144008D01*
G01X6799834Y5137658D01*
G01X6793738Y5134610D01*
G01X6781292Y5134610D01*
G01X6775196Y5137658D01*
G01X6768846Y5144008D01*
G01X6765798Y5150104D01*
G01X6692392Y5199634D02*
G01X6723380Y5134610D01*
G01X6735572Y5199634D02*
G01X6692392Y5199634D01*
G01X6656070Y5199634D02*
G01X6622034Y5199634D01*
G01X6640576Y5174996D01*
G01X6631432Y5174996D01*
G01X6625082Y5171948D01*
G01X6622034Y5168646D01*
G01X6618986Y5159502D01*
G01X6618986Y5153152D01*
G01X6622034Y5144008D01*
G01X6628130Y5137658D01*
G01X6637528Y5134610D01*
G01X6646926Y5134610D01*
G01X6656070Y5137658D01*
G01X6659118Y5140960D01*
G01X6662166Y5147056D01*
G01X6725539Y5021199D02*
G01X6728587Y5027549D01*
G01X6734937Y5033645D01*
G01X6741033Y5036693D01*
G01X6753479Y5036693D01*
G01X6759575Y5033645D01*
G01X6765925Y5027549D01*
G01X6768973Y5021199D01*
G01X6772021Y5012055D01*
G01X6772021Y4996561D01*
G01X6768973Y4987163D01*
G01X6765925Y4981067D01*
G01X6759575Y4974717D01*
G01X6753479Y4971669D01*
G01X6741033Y4971669D01*
G01X6734937Y4974717D01*
G01X6728587Y4981067D01*
G01X6725539Y4987163D01*
G01X6652133Y5036693D02*
G01X6683121Y4971669D01*
G01X6695313Y5036693D02*
G01X6652133Y5036693D01*
G01X6591173Y5036693D02*
G01X6621907Y4993513D01*
G01X6575679Y4993513D01*
G01X6591173Y5036693D02*
G01X6591173Y4971669D01*
G01X7211060Y5419598D02*
G01X7204710Y5422646D01*
G01X7198614Y5428996D01*
G01X7195566Y5435092D01*
G01X7195566Y5447538D01*
G01X7198614Y5453634D01*
G01X7204710Y5459984D01*
G01X7211060Y5463032D01*
G01X7220204Y5466080D01*
G01X7235698Y5466080D01*
G01X7245096Y5463032D01*
G01X7251192Y5459984D01*
G01X7257542Y5453634D01*
G01X7260590Y5447538D01*
G01X7260590Y5435092D01*
G01X7257542Y5428996D01*
G01X7251192Y5422646D01*
G01X7245096Y5419598D01*
G01X7195566Y5346192D02*
G01X7260590Y5377180D01*
G01X7195566Y5389372D02*
G01X7195566Y5346192D01*
G01X7195566Y5278882D02*
G01X7195566Y5309870D01*
G01X7223252Y5312918D01*
G01X7220204Y5309870D01*
G01X7217156Y5300726D01*
G01X7217156Y5291328D01*
G01X7220204Y5281930D01*
G01X7226554Y5275834D01*
G01X7235698Y5272786D01*
G01X7242048Y5272786D01*
G01X7251192Y5275834D01*
G01X7257542Y5281930D01*
G01X7260590Y5291328D01*
G01X7260590Y5300726D01*
G01X7257542Y5309870D01*
G01X7254240Y5312918D01*
G01X7248144Y5315966D01*
G01X7325360Y5470398D02*
G01X7319010Y5473446D01*
G01X7312914Y5479796D01*
G01X7309866Y5485892D01*
G01X7309866Y5498338D01*
G01X7312914Y5504434D01*
G01X7319010Y5510784D01*
G01X7325360Y5513832D01*
G01X7334504Y5516880D01*
G01X7349998Y5516880D01*
G01X7359396Y5513832D01*
G01X7365492Y5510784D01*
G01X7371842Y5504434D01*
G01X7374890Y5498338D01*
G01X7374890Y5485892D01*
G01X7371842Y5479796D01*
G01X7365492Y5473446D01*
G01X7359396Y5470398D01*
G01X7309866Y5396992D02*
G01X7374890Y5427980D01*
G01X7309866Y5440172D02*
G01X7309866Y5396992D01*
G01X7319010Y5329682D02*
G01X7312914Y5332730D01*
G01X7309866Y5342128D01*
G01X7309866Y5348224D01*
G01X7312914Y5357622D01*
G01X7322312Y5363718D01*
G01X7337552Y5366766D01*
G01X7353046Y5366766D01*
G01X7365492Y5363718D01*
G01X7371842Y5357622D01*
G01X7374890Y5348224D01*
G01X7374890Y5345176D01*
G01X7371842Y5336032D01*
G01X7365492Y5329682D01*
G01X7356348Y5326634D01*
G01X7353046Y5326634D01*
G01X7343902Y5329682D01*
G01X7337552Y5336032D01*
G01X7334504Y5345176D01*
G01X7334504Y5348224D01*
G01X7337552Y5357622D01*
G01X7343902Y5363718D01*
G01X7353046Y5366766D01*
G01X7756398Y4574540D02*
G01X7759446Y4580890D01*
G01X7765796Y4586986D01*
G01X7771892Y4590034D01*
G01X7784338Y4590034D01*
G01X7790434Y4586986D01*
G01X7796784Y4580890D01*
G01X7799832Y4574540D01*
G01X7802880Y4565396D01*
G01X7802880Y4549902D01*
G01X7799832Y4540504D01*
G01X7796784Y4534408D01*
G01X7790434Y4528058D01*
G01X7784338Y4525010D01*
G01X7771892Y4525010D01*
G01X7765796Y4528058D01*
G01X7759446Y4534408D01*
G01X7756398Y4540504D01*
G01X7682992Y4590034D02*
G01X7713980Y4525010D01*
G01X7726172Y4590034D02*
G01X7682992Y4590034D01*
G01X7637526Y4590034D02*
G01X7646670Y4586986D01*
G01X7649718Y4580890D01*
G01X7649718Y4574540D01*
G01X7646670Y4568444D01*
G01X7640574Y4565396D01*
G01X7628128Y4562348D01*
G01X7618730Y4559046D01*
G01X7612634Y4552950D01*
G01X7609586Y4546854D01*
G01X7609586Y4537456D01*
G01X7612634Y4531360D01*
G01X7615682Y4528058D01*
G01X7625080Y4525010D01*
G01X7637526Y4525010D01*
G01X7646670Y4528058D01*
G01X7649718Y4531360D01*
G01X7652766Y4537456D01*
G01X7652766Y4546854D01*
G01X7649718Y4552950D01*
G01X7643622Y4559046D01*
G01X7634224Y4562348D01*
G01X7622032Y4565396D01*
G01X7615682Y4568444D01*
G01X7612634Y4574540D01*
G01X7612634Y4580890D01*
G01X7615682Y4586986D01*
G01X7625080Y4590034D01*
G01X7637526Y4590034D01*
G01X7292340Y5032502D02*
G01X7298690Y5029454D01*
G01X7304786Y5023104D01*
G01X7307834Y5017008D01*
G01X7307834Y5004562D01*
G01X7304786Y4998466D01*
G01X7298690Y4992116D01*
G01X7292340Y4989068D01*
G01X7283196Y4986020D01*
G01X7267702Y4986020D01*
G01X7258304Y4989068D01*
G01X7252208Y4992116D01*
G01X7245858Y4998466D01*
G01X7242810Y5004562D01*
G01X7242810Y5017008D01*
G01X7245858Y5023104D01*
G01X7252208Y5029454D01*
G01X7258304Y5032502D01*
G01X7307834Y5105908D02*
G01X7242810Y5074920D01*
G01X7307834Y5062728D02*
G01X7307834Y5105908D01*
G01X7286244Y5176266D02*
G01X7276846Y5173218D01*
G01X7270750Y5166868D01*
G01X7267702Y5157724D01*
G01X7267702Y5154676D01*
G01X7270750Y5145278D01*
G01X7276846Y5139182D01*
G01X7286244Y5136134D01*
G01X7289292Y5136134D01*
G01X7298690Y5139182D01*
G01X7304786Y5145278D01*
G01X7307834Y5154676D01*
G01X7307834Y5157724D01*
G01X7304786Y5166868D01*
G01X7298690Y5173218D01*
G01X7286244Y5176266D01*
G01X7270750Y5176266D01*
G01X7255256Y5173218D01*
G01X7245858Y5166868D01*
G01X7242810Y5157724D01*
G01X7242810Y5151374D01*
G01X7245858Y5142230D01*
G01X7252208Y5139182D01*
G01X8308340Y3381502D02*
G01X8314690Y3378454D01*
G01X8320786Y3372104D01*
G01X8323834Y3366008D01*
G01X8323834Y3353562D01*
G01X8320786Y3347466D01*
G01X8314690Y3341116D01*
G01X8308340Y3338068D01*
G01X8299196Y3335020D01*
G01X8283702Y3335020D01*
G01X8274304Y3338068D01*
G01X8268208Y3341116D01*
G01X8261858Y3347466D01*
G01X8258810Y3353562D01*
G01X8258810Y3366008D01*
G01X8261858Y3372104D01*
G01X8268208Y3378454D01*
G01X8274304Y3381502D01*
G01X8323834Y3426968D02*
G01X8320786Y3417824D01*
G01X8314690Y3414776D01*
G01X8308340Y3414776D01*
G01X8302244Y3417824D01*
G01X8299196Y3423920D01*
G01X8296148Y3436366D01*
G01X8292846Y3445764D01*
G01X8286750Y3451860D01*
G01X8280654Y3454908D01*
G01X8271256Y3454908D01*
G01X8265160Y3451860D01*
G01X8261858Y3448812D01*
G01X8258810Y3439414D01*
G01X8258810Y3426968D01*
G01X8261858Y3417824D01*
G01X8265160Y3414776D01*
G01X8271256Y3411728D01*
G01X8280654Y3411728D01*
G01X8286750Y3414776D01*
G01X8292846Y3420872D01*
G01X8296148Y3430270D01*
G01X8299196Y3442462D01*
G01X8302244Y3448812D01*
G01X8308340Y3451860D01*
G01X8314690Y3451860D01*
G01X8320786Y3448812D01*
G01X8323834Y3439414D01*
G01X8323834Y3426968D01*
G01X8314690Y3522218D02*
G01X8320786Y3519170D01*
G01X8323834Y3509772D01*
G01X8323834Y3503676D01*
G01X8320786Y3494278D01*
G01X8311388Y3488182D01*
G01X8296148Y3485134D01*
G01X8280654Y3485134D01*
G01X8268208Y3488182D01*
G01X8261858Y3494278D01*
G01X8258810Y3503676D01*
G01X8258810Y3506724D01*
G01X8261858Y3515868D01*
G01X8268208Y3522218D01*
G01X8277352Y3525266D01*
G01X8280654Y3525266D01*
G01X8289798Y3522218D01*
G01X8296148Y3515868D01*
G01X8299196Y3506724D01*
G01X8299196Y3503676D01*
G01X8296148Y3494278D01*
G01X8289798Y3488182D01*
G01X8280654Y3485134D01*
G01X8886698Y3190240D02*
G01X8889746Y3196590D01*
G01X8896096Y3202686D01*
G01X8902192Y3205734D01*
G01X8914638Y3205734D01*
G01X8920734Y3202686D01*
G01X8927084Y3196590D01*
G01X8930132Y3190240D01*
G01X8933180Y3181096D01*
G01X8933180Y3165602D01*
G01X8930132Y3156204D01*
G01X8927084Y3150108D01*
G01X8920734Y3143758D01*
G01X8914638Y3140710D01*
G01X8902192Y3140710D01*
G01X8896096Y3143758D01*
G01X8889746Y3150108D01*
G01X8886698Y3156204D01*
G01X8841232Y3205734D02*
G01X8850376Y3202686D01*
G01X8853424Y3196590D01*
G01X8853424Y3190240D01*
G01X8850376Y3184144D01*
G01X8844280Y3181096D01*
G01X8831834Y3178048D01*
G01X8822436Y3174746D01*
G01X8816340Y3168650D01*
G01X8813292Y3162554D01*
G01X8813292Y3153156D01*
G01X8816340Y3147060D01*
G01X8819388Y3143758D01*
G01X8828786Y3140710D01*
G01X8841232Y3140710D01*
G01X8850376Y3143758D01*
G01X8853424Y3147060D01*
G01X8856472Y3153156D01*
G01X8856472Y3162554D01*
G01X8853424Y3168650D01*
G01X8847328Y3174746D01*
G01X8837930Y3178048D01*
G01X8825738Y3181096D01*
G01X8819388Y3184144D01*
G01X8816340Y3190240D01*
G01X8816340Y3196590D01*
G01X8819388Y3202686D01*
G01X8828786Y3205734D01*
G01X8841232Y3205734D01*
G01X8742934Y3184144D02*
G01X8745982Y3174746D01*
G01X8752332Y3168650D01*
G01X8761476Y3165602D01*
G01X8764524Y3165602D01*
G01X8773922Y3168650D01*
G01X8780018Y3174746D01*
G01X8783066Y3184144D01*
G01X8783066Y3187192D01*
G01X8780018Y3196590D01*
G01X8773922Y3202686D01*
G01X8764524Y3205734D01*
G01X8761476Y3205734D01*
G01X8752332Y3202686D01*
G01X8745982Y3196590D01*
G01X8742934Y3184144D01*
G01X8742934Y3168650D01*
G01X8745982Y3153156D01*
G01X8752332Y3143758D01*
G01X8761476Y3140710D01*
G01X8767826Y3140710D01*
G01X8776970Y3143758D01*
G01X8780018Y3150108D01*
G01X8937498Y3914140D02*
G01X8940546Y3920490D01*
G01X8946896Y3926586D01*
G01X8952992Y3929634D01*
G01X8965438Y3929634D01*
G01X8971534Y3926586D01*
G01X8977884Y3920490D01*
G01X8980932Y3914140D01*
G01X8983980Y3904996D01*
G01X8983980Y3889502D01*
G01X8980932Y3880104D01*
G01X8977884Y3874008D01*
G01X8971534Y3867658D01*
G01X8965438Y3864610D01*
G01X8952992Y3864610D01*
G01X8946896Y3867658D01*
G01X8940546Y3874008D01*
G01X8937498Y3880104D01*
G01X8867140Y3908044D02*
G01X8870188Y3898646D01*
G01X8876538Y3892550D01*
G01X8885682Y3889502D01*
G01X8888730Y3889502D01*
G01X8898128Y3892550D01*
G01X8904224Y3898646D01*
G01X8907272Y3908044D01*
G01X8907272Y3911092D01*
G01X8904224Y3920490D01*
G01X8898128Y3926586D01*
G01X8888730Y3929634D01*
G01X8885682Y3929634D01*
G01X8876538Y3926586D01*
G01X8870188Y3920490D01*
G01X8867140Y3908044D01*
G01X8867140Y3892550D01*
G01X8870188Y3877056D01*
G01X8876538Y3867658D01*
G01X8885682Y3864610D01*
G01X8892032Y3864610D01*
G01X8901176Y3867658D01*
G01X8904224Y3874008D01*
G01X8818372Y3929634D02*
G01X8827770Y3926586D01*
G01X8833866Y3917188D01*
G01X8836914Y3901948D01*
G01X8836914Y3892550D01*
G01X8833866Y3877056D01*
G01X8827770Y3867658D01*
G01X8818372Y3864610D01*
G01X8812276Y3864610D01*
G01X8802878Y3867658D01*
G01X8796782Y3877056D01*
G01X8793734Y3892550D01*
G01X8793734Y3901948D01*
G01X8796782Y3917188D01*
G01X8802878Y3926586D01*
G01X8812276Y3929634D01*
G01X8818372Y3929634D01*
G01X8429498Y3241040D02*
G01X8432546Y3247390D01*
G01X8438896Y3253486D01*
G01X8444992Y3256534D01*
G01X8457438Y3256534D01*
G01X8463534Y3253486D01*
G01X8469884Y3247390D01*
G01X8472932Y3241040D01*
G01X8475980Y3231896D01*
G01X8475980Y3216402D01*
G01X8472932Y3207004D01*
G01X8469884Y3200908D01*
G01X8463534Y3194558D01*
G01X8457438Y3191510D01*
G01X8444992Y3191510D01*
G01X8438896Y3194558D01*
G01X8432546Y3200908D01*
G01X8429498Y3207004D01*
G01X8359140Y3234944D02*
G01X8362188Y3225546D01*
G01X8368538Y3219450D01*
G01X8377682Y3216402D01*
G01X8380730Y3216402D01*
G01X8390128Y3219450D01*
G01X8396224Y3225546D01*
G01X8399272Y3234944D01*
G01X8399272Y3237992D01*
G01X8396224Y3247390D01*
G01X8390128Y3253486D01*
G01X8380730Y3256534D01*
G01X8377682Y3256534D01*
G01X8368538Y3253486D01*
G01X8362188Y3247390D01*
G01X8359140Y3234944D01*
G01X8359140Y3219450D01*
G01X8362188Y3203956D01*
G01X8368538Y3194558D01*
G01X8377682Y3191510D01*
G01X8384032Y3191510D01*
G01X8393176Y3194558D01*
G01X8396224Y3200908D01*
G01X8328914Y3244088D02*
G01X8322818Y3247390D01*
G01X8313674Y3256534D01*
G01X8313674Y3191510D01*
G01X8048498Y3368040D02*
G01X8051546Y3374390D01*
G01X8057896Y3380486D01*
G01X8063992Y3383534D01*
G01X8076438Y3383534D01*
G01X8082534Y3380486D01*
G01X8088884Y3374390D01*
G01X8091932Y3368040D01*
G01X8094980Y3358896D01*
G01X8094980Y3343402D01*
G01X8091932Y3334004D01*
G01X8088884Y3327908D01*
G01X8082534Y3321558D01*
G01X8076438Y3318510D01*
G01X8063992Y3318510D01*
G01X8057896Y3321558D01*
G01X8051546Y3327908D01*
G01X8048498Y3334004D01*
G01X7978140Y3361944D02*
G01X7981188Y3352546D01*
G01X7987538Y3346450D01*
G01X7996682Y3343402D01*
G01X7999730Y3343402D01*
G01X8009128Y3346450D01*
G01X8015224Y3352546D01*
G01X8018272Y3361944D01*
G01X8018272Y3364992D01*
G01X8015224Y3374390D01*
G01X8009128Y3380486D01*
G01X7999730Y3383534D01*
G01X7996682Y3383534D01*
G01X7987538Y3380486D01*
G01X7981188Y3374390D01*
G01X7978140Y3361944D01*
G01X7978140Y3346450D01*
G01X7981188Y3330956D01*
G01X7987538Y3321558D01*
G01X7996682Y3318510D01*
G01X8003032Y3318510D01*
G01X8012176Y3321558D01*
G01X8015224Y3327908D01*
G01X7941818Y3383534D02*
G01X7907782Y3383534D01*
G01X7926324Y3358896D01*
G01X7917180Y3358896D01*
G01X7910830Y3355848D01*
G01X7907782Y3352546D01*
G01X7904734Y3343402D01*
G01X7904734Y3337052D01*
G01X7907782Y3327908D01*
G01X7913878Y3321558D01*
G01X7923276Y3318510D01*
G01X7932674Y3318510D01*
G01X7941818Y3321558D01*
G01X7944866Y3324860D01*
G01X7947914Y3330956D01*
G01X7485824Y3631515D02*
G01X7485824Y3566491D01*
G01X7485824Y3631515D02*
G01X7457884Y3631515D01*
G01X7448740Y3628467D01*
G01X7445692Y3625419D01*
G01X7442390Y3619069D01*
G01X7442390Y3612973D01*
G01X7445692Y3606877D01*
G01X7448740Y3603829D01*
G01X7457884Y3600527D01*
G01X7485824Y3600527D01*
G01X7464234Y3600527D02*
G01X7442390Y3566491D01*
G01X7396924Y3631515D02*
G01X7406068Y3628467D01*
G01X7409116Y3622371D01*
G01X7409116Y3616021D01*
G01X7406068Y3609925D01*
G01X7399972Y3606877D01*
G01X7387526Y3603829D01*
G01X7378128Y3600527D01*
G01X7372032Y3594431D01*
G01X7368984Y3588335D01*
G01X7368984Y3578937D01*
G01X7372032Y3572841D01*
G01X7375080Y3569539D01*
G01X7384478Y3566491D01*
G01X7396924Y3566491D01*
G01X7406068Y3569539D01*
G01X7409116Y3572841D01*
G01X7412164Y3578937D01*
G01X7412164Y3588335D01*
G01X7409116Y3594431D01*
G01X7403020Y3600527D01*
G01X7393622Y3603829D01*
G01X7381430Y3606877D01*
G01X7375080Y3609925D01*
G01X7372032Y3616021D01*
G01X7372032Y3622371D01*
G01X7375080Y3628467D01*
G01X7384478Y3631515D01*
G01X7396924Y3631515D01*
G01X7335710Y3616021D02*
G01X7335710Y3619069D01*
G01X7332662Y3625419D01*
G01X7329614Y3628467D01*
G01X7323518Y3631515D01*
G01X7311072Y3631515D01*
G01X7304722Y3628467D01*
G01X7301674Y3625419D01*
G01X7298626Y3619069D01*
G01X7298626Y3612973D01*
G01X7301674Y3606877D01*
G01X7308024Y3597479D01*
G01X7338758Y3566491D01*
G01X7295578Y3566491D01*
G01X8184134Y3360420D02*
G01X8119110Y3360420D01*
G01X8184134Y3360420D02*
G01X8184134Y3388360D01*
G01X8181086Y3397504D01*
G01X8178038Y3400552D01*
G01X8171688Y3403854D01*
G01X8165592Y3403854D01*
G01X8159496Y3400552D01*
G01X8156448Y3397504D01*
G01X8153146Y3388360D01*
G01X8153146Y3360420D01*
G01X8153146Y3382010D02*
G01X8119110Y3403854D01*
G01X8184134Y3449320D02*
G01X8181086Y3440176D01*
G01X8174990Y3437128D01*
G01X8168640Y3437128D01*
G01X8162544Y3440176D01*
G01X8159496Y3446272D01*
G01X8156448Y3458718D01*
G01X8153146Y3468116D01*
G01X8147050Y3474212D01*
G01X8140954Y3477260D01*
G01X8131556Y3477260D01*
G01X8125460Y3474212D01*
G01X8122158Y3471164D01*
G01X8119110Y3461766D01*
G01X8119110Y3449320D01*
G01X8122158Y3440176D01*
G01X8125460Y3437128D01*
G01X8131556Y3434080D01*
G01X8140954Y3434080D01*
G01X8147050Y3437128D01*
G01X8153146Y3443224D01*
G01X8156448Y3452622D01*
G01X8159496Y3464814D01*
G01X8162544Y3471164D01*
G01X8168640Y3474212D01*
G01X8174990Y3474212D01*
G01X8181086Y3471164D01*
G01X8184134Y3461766D01*
G01X8184134Y3449320D01*
G01X8184134Y3538220D02*
G01X8140954Y3507486D01*
G01X8140954Y3553714D01*
G01X8184134Y3538220D02*
G01X8119110Y3538220D01*
G01X7853680Y3370834D02*
G01X7853680Y3305810D01*
G01X7853680Y3370834D02*
G01X7825740Y3370834D01*
G01X7816596Y3367786D01*
G01X7813548Y3364738D01*
G01X7810246Y3358388D01*
G01X7810246Y3352292D01*
G01X7813548Y3346196D01*
G01X7816596Y3343148D01*
G01X7825740Y3339846D01*
G01X7853680Y3339846D01*
G01X7832090Y3339846D02*
G01X7810246Y3305810D01*
G01X7764780Y3370834D02*
G01X7773924Y3367786D01*
G01X7776972Y3361690D01*
G01X7776972Y3355340D01*
G01X7773924Y3349244D01*
G01X7767828Y3346196D01*
G01X7755382Y3343148D01*
G01X7745984Y3339846D01*
G01X7739888Y3333750D01*
G01X7736840Y3327654D01*
G01X7736840Y3318256D01*
G01X7739888Y3312160D01*
G01X7742936Y3308858D01*
G01X7752334Y3305810D01*
G01X7764780Y3305810D01*
G01X7773924Y3308858D01*
G01X7776972Y3312160D01*
G01X7780020Y3318256D01*
G01X7780020Y3327654D01*
G01X7776972Y3333750D01*
G01X7770876Y3339846D01*
G01X7761478Y3343148D01*
G01X7749286Y3346196D01*
G01X7742936Y3349244D01*
G01X7739888Y3355340D01*
G01X7739888Y3361690D01*
G01X7742936Y3367786D01*
G01X7752334Y3370834D01*
G01X7764780Y3370834D01*
G01X7669530Y3370834D02*
G01X7700518Y3370834D01*
G01X7703566Y3343148D01*
G01X7700518Y3346196D01*
G01X7691374Y3349244D01*
G01X7681976Y3349244D01*
G01X7672578Y3346196D01*
G01X7666482Y3339846D01*
G01X7663434Y3330702D01*
G01X7663434Y3324352D01*
G01X7666482Y3315208D01*
G01X7672578Y3308858D01*
G01X7681976Y3305810D01*
G01X7691374Y3305810D01*
G01X7700518Y3308858D01*
G01X7703566Y3312160D01*
G01X7706614Y3318256D01*
G01X7841234Y3982720D02*
G01X7776210Y3982720D01*
G01X7841234Y3982720D02*
G01X7841234Y4010660D01*
G01X7838186Y4019804D01*
G01X7835138Y4022852D01*
G01X7828788Y4026154D01*
G01X7822692Y4026154D01*
G01X7816596Y4022852D01*
G01X7813548Y4019804D01*
G01X7810246Y4010660D01*
G01X7810246Y3982720D01*
G01X7810246Y4004310D02*
G01X7776210Y4026154D01*
G01X7841234Y4071620D02*
G01X7838186Y4062476D01*
G01X7832090Y4059428D01*
G01X7825740Y4059428D01*
G01X7819644Y4062476D01*
G01X7816596Y4068572D01*
G01X7813548Y4081018D01*
G01X7810246Y4090416D01*
G01X7804150Y4096512D01*
G01X7798054Y4099560D01*
G01X7788656Y4099560D01*
G01X7782560Y4096512D01*
G01X7779258Y4093464D01*
G01X7776210Y4084066D01*
G01X7776210Y4071620D01*
G01X7779258Y4062476D01*
G01X7782560Y4059428D01*
G01X7788656Y4056380D01*
G01X7798054Y4056380D01*
G01X7804150Y4059428D01*
G01X7810246Y4065524D01*
G01X7813548Y4074922D01*
G01X7816596Y4087114D01*
G01X7819644Y4093464D01*
G01X7825740Y4096512D01*
G01X7832090Y4096512D01*
G01X7838186Y4093464D01*
G01X7841234Y4084066D01*
G01X7841234Y4071620D01*
G01X7832090Y4166870D02*
G01X7838186Y4163822D01*
G01X7841234Y4154424D01*
G01X7841234Y4148328D01*
G01X7838186Y4138930D01*
G01X7828788Y4132834D01*
G01X7813548Y4129786D01*
G01X7798054Y4129786D01*
G01X7785608Y4132834D01*
G01X7779258Y4138930D01*
G01X7776210Y4148328D01*
G01X7776210Y4151376D01*
G01X7779258Y4160520D01*
G01X7785608Y4166870D01*
G01X7794752Y4169918D01*
G01X7798054Y4169918D01*
G01X7807198Y4166870D01*
G01X7813548Y4160520D01*
G01X7816596Y4151376D01*
G01X7816596Y4148328D01*
G01X7813548Y4138930D01*
G01X7807198Y4132834D01*
G01X7798054Y4129786D01*
G01X7942834Y4008120D02*
G01X7877810Y4008120D01*
G01X7942834Y4008120D02*
G01X7942834Y4036060D01*
G01X7939786Y4045204D01*
G01X7936738Y4048252D01*
G01X7930388Y4051554D01*
G01X7924292Y4051554D01*
G01X7918196Y4048252D01*
G01X7915148Y4045204D01*
G01X7911846Y4036060D01*
G01X7911846Y4008120D01*
G01X7911846Y4029710D02*
G01X7877810Y4051554D01*
G01X7942834Y4097020D02*
G01X7939786Y4087876D01*
G01X7933690Y4084828D01*
G01X7927340Y4084828D01*
G01X7921244Y4087876D01*
G01X7918196Y4093972D01*
G01X7915148Y4106418D01*
G01X7911846Y4115816D01*
G01X7905750Y4121912D01*
G01X7899654Y4124960D01*
G01X7890256Y4124960D01*
G01X7884160Y4121912D01*
G01X7880858Y4118864D01*
G01X7877810Y4109466D01*
G01X7877810Y4097020D01*
G01X7880858Y4087876D01*
G01X7884160Y4084828D01*
G01X7890256Y4081780D01*
G01X7899654Y4081780D01*
G01X7905750Y4084828D01*
G01X7911846Y4090924D01*
G01X7915148Y4100322D01*
G01X7918196Y4112514D01*
G01X7921244Y4118864D01*
G01X7927340Y4121912D01*
G01X7933690Y4121912D01*
G01X7939786Y4118864D01*
G01X7942834Y4109466D01*
G01X7942834Y4097020D01*
G01X7942834Y4198366D02*
G01X7877810Y4167378D01*
G01X7942834Y4155186D02*
G01X7942834Y4198366D01*
G01X6880098Y4193540D02*
G01X6883146Y4199890D01*
G01X6889496Y4205986D01*
G01X6895592Y4209034D01*
G01X6908038Y4209034D01*
G01X6914134Y4205986D01*
G01X6920484Y4199890D01*
G01X6923532Y4193540D01*
G01X6926580Y4184396D01*
G01X6926580Y4168902D01*
G01X6923532Y4159504D01*
G01X6920484Y4153408D01*
G01X6914134Y4147058D01*
G01X6908038Y4144010D01*
G01X6895592Y4144010D01*
G01X6889496Y4147058D01*
G01X6883146Y4153408D01*
G01X6880098Y4159504D01*
G01X6809740Y4187444D02*
G01X6812788Y4178046D01*
G01X6819138Y4171950D01*
G01X6828282Y4168902D01*
G01X6831330Y4168902D01*
G01X6840728Y4171950D01*
G01X6846824Y4178046D01*
G01X6849872Y4187444D01*
G01X6849872Y4190492D01*
G01X6846824Y4199890D01*
G01X6840728Y4205986D01*
G01X6831330Y4209034D01*
G01X6828282Y4209034D01*
G01X6819138Y4205986D01*
G01X6812788Y4199890D01*
G01X6809740Y4187444D01*
G01X6809740Y4171950D01*
G01X6812788Y4156456D01*
G01X6819138Y4147058D01*
G01X6828282Y4144010D01*
G01X6834632Y4144010D01*
G01X6843776Y4147058D01*
G01X6846824Y4153408D01*
G01X6742430Y4199890D02*
G01X6745478Y4205986D01*
G01X6754876Y4209034D01*
G01X6760972Y4209034D01*
G01X6770370Y4205986D01*
G01X6776466Y4196588D01*
G01X6779514Y4181348D01*
G01X6779514Y4165854D01*
G01X6776466Y4153408D01*
G01X6770370Y4147058D01*
G01X6760972Y4144010D01*
G01X6757924Y4144010D01*
G01X6748780Y4147058D01*
G01X6742430Y4153408D01*
G01X6739382Y4162552D01*
G01X6739382Y4165854D01*
G01X6742430Y4174998D01*
G01X6748780Y4181348D01*
G01X6757924Y4184396D01*
G01X6760972Y4184396D01*
G01X6770370Y4181348D01*
G01X6776466Y4174998D01*
G01X6779514Y4165854D01*
G01X7451598Y4130040D02*
G01X7454646Y4136390D01*
G01X7460996Y4142486D01*
G01X7467092Y4145534D01*
G01X7479538Y4145534D01*
G01X7485634Y4142486D01*
G01X7491984Y4136390D01*
G01X7495032Y4130040D01*
G01X7498080Y4120896D01*
G01X7498080Y4105402D01*
G01X7495032Y4096004D01*
G01X7491984Y4089908D01*
G01X7485634Y4083558D01*
G01X7479538Y4080510D01*
G01X7467092Y4080510D01*
G01X7460996Y4083558D01*
G01X7454646Y4089908D01*
G01X7451598Y4096004D01*
G01X7381240Y4123944D02*
G01X7384288Y4114546D01*
G01X7390638Y4108450D01*
G01X7399782Y4105402D01*
G01X7402830Y4105402D01*
G01X7412228Y4108450D01*
G01X7418324Y4114546D01*
G01X7421372Y4123944D01*
G01X7421372Y4126992D01*
G01X7418324Y4136390D01*
G01X7412228Y4142486D01*
G01X7402830Y4145534D01*
G01X7399782Y4145534D01*
G01X7390638Y4142486D01*
G01X7384288Y4136390D01*
G01X7381240Y4123944D01*
G01X7381240Y4108450D01*
G01X7384288Y4092956D01*
G01X7390638Y4083558D01*
G01X7399782Y4080510D01*
G01X7406132Y4080510D01*
G01X7415276Y4083558D01*
G01X7418324Y4089908D01*
G01X7307834Y4145534D02*
G01X7338822Y4080510D01*
G01X7351014Y4145534D02*
G01X7307834Y4145534D01*
G01X7756398Y4472940D02*
G01X7759446Y4479290D01*
G01X7765796Y4485386D01*
G01X7771892Y4488434D01*
G01X7784338Y4488434D01*
G01X7790434Y4485386D01*
G01X7796784Y4479290D01*
G01X7799832Y4472940D01*
G01X7802880Y4463796D01*
G01X7802880Y4448302D01*
G01X7799832Y4438904D01*
G01X7796784Y4432808D01*
G01X7790434Y4426458D01*
G01X7784338Y4423410D01*
G01X7771892Y4423410D01*
G01X7765796Y4426458D01*
G01X7759446Y4432808D01*
G01X7756398Y4438904D01*
G01X7686040Y4466844D02*
G01X7689088Y4457446D01*
G01X7695438Y4451350D01*
G01X7704582Y4448302D01*
G01X7707630Y4448302D01*
G01X7717028Y4451350D01*
G01X7723124Y4457446D01*
G01X7726172Y4466844D01*
G01X7726172Y4469892D01*
G01X7723124Y4479290D01*
G01X7717028Y4485386D01*
G01X7707630Y4488434D01*
G01X7704582Y4488434D01*
G01X7695438Y4485386D01*
G01X7689088Y4479290D01*
G01X7686040Y4466844D01*
G01X7686040Y4451350D01*
G01X7689088Y4435856D01*
G01X7695438Y4426458D01*
G01X7704582Y4423410D01*
G01X7710932Y4423410D01*
G01X7720076Y4426458D01*
G01X7723124Y4432808D01*
G01X7640574Y4488434D02*
G01X7649718Y4485386D01*
G01X7652766Y4479290D01*
G01X7652766Y4472940D01*
G01X7649718Y4466844D01*
G01X7643622Y4463796D01*
G01X7631176Y4460748D01*
G01X7621778Y4457446D01*
G01X7615682Y4451350D01*
G01X7612634Y4445254D01*
G01X7612634Y4435856D01*
G01X7615682Y4429760D01*
G01X7618730Y4426458D01*
G01X7628128Y4423410D01*
G01X7640574Y4423410D01*
G01X7649718Y4426458D01*
G01X7652766Y4429760D01*
G01X7655814Y4435856D01*
G01X7655814Y4445254D01*
G01X7652766Y4451350D01*
G01X7646670Y4457446D01*
G01X7637272Y4460748D01*
G01X7625080Y4463796D01*
G01X7618730Y4466844D01*
G01X7615682Y4472940D01*
G01X7615682Y4479290D01*
G01X7618730Y4485386D01*
G01X7628128Y4488434D01*
G01X7640574Y4488434D01*
G01X7138670Y3938524D02*
G01X7138670Y3873500D01*
G01X7138670Y3938524D02*
G01X7117080Y3938524D01*
G01X7107682Y3935476D01*
G01X7101586Y3929380D01*
G01X7098538Y3923030D01*
G01X7095236Y3913886D01*
G01X7095236Y3898392D01*
G01X7098538Y3888994D01*
G01X7101586Y3882898D01*
G01X7107682Y3876548D01*
G01X7117080Y3873500D01*
G01X7138670Y3873500D01*
G01X7027926Y3938524D02*
G01X7058914Y3938524D01*
G01X7061962Y3910838D01*
G01X7058914Y3913886D01*
G01X7049770Y3916934D01*
G01X7040372Y3916934D01*
G01X7030974Y3913886D01*
G01X7024878Y3907536D01*
G01X7021830Y3898392D01*
G01X7021830Y3892042D01*
G01X7024878Y3882898D01*
G01X7030974Y3876548D01*
G01X7040372Y3873500D01*
G01X7049770Y3873500D01*
G01X7058914Y3876548D01*
G01X7061962Y3879850D01*
G01X7065010Y3885946D01*
G01X8996680Y4780534D02*
G01X8996680Y4715510D01*
G01X8996680Y4780534D02*
G01X8968740Y4780534D01*
G01X8959596Y4777486D01*
G01X8956548Y4774438D01*
G01X8953246Y4768088D01*
G01X8953246Y4761992D01*
G01X8956548Y4755896D01*
G01X8959596Y4752848D01*
G01X8968740Y4749546D01*
G01X8996680Y4749546D01*
G01X8975090Y4749546D02*
G01X8953246Y4715510D01*
G01X8882888Y4758944D02*
G01X8885936Y4749546D01*
G01X8892286Y4743450D01*
G01X8901430Y4740402D01*
G01X8904478Y4740402D01*
G01X8913876Y4743450D01*
G01X8919972Y4749546D01*
G01X8923020Y4758944D01*
G01X8923020Y4761992D01*
G01X8919972Y4771390D01*
G01X8913876Y4777486D01*
G01X8904478Y4780534D01*
G01X8901430Y4780534D01*
G01X8892286Y4777486D01*
G01X8885936Y4771390D01*
G01X8882888Y4758944D01*
G01X8882888Y4743450D01*
G01X8885936Y4727956D01*
G01X8892286Y4718558D01*
G01X8901430Y4715510D01*
G01X8907780Y4715510D01*
G01X8916924Y4718558D01*
G01X8919972Y4724908D01*
G01X8837422Y4780534D02*
G01X8846566Y4777486D01*
G01X8849614Y4771390D01*
G01X8849614Y4765040D01*
G01X8846566Y4758944D01*
G01X8840470Y4755896D01*
G01X8828024Y4752848D01*
G01X8818626Y4749546D01*
G01X8812530Y4743450D01*
G01X8809482Y4737354D01*
G01X8809482Y4727956D01*
G01X8812530Y4721860D01*
G01X8815578Y4718558D01*
G01X8824976Y4715510D01*
G01X8837422Y4715510D01*
G01X8846566Y4718558D01*
G01X8849614Y4721860D01*
G01X8852662Y4727956D01*
G01X8852662Y4737354D01*
G01X8849614Y4743450D01*
G01X8843518Y4749546D01*
G01X8834120Y4752848D01*
G01X8821928Y4755896D01*
G01X8815578Y4758944D01*
G01X8812530Y4765040D01*
G01X8812530Y4771390D01*
G01X8815578Y4777486D01*
G01X8824976Y4780534D01*
G01X8837422Y4780534D01*
G01X7553198Y7457440D02*
G01X7556246Y7463790D01*
G01X7562596Y7469886D01*
G01X7568692Y7472934D01*
G01X7581138Y7472934D01*
G01X7587234Y7469886D01*
G01X7593584Y7463790D01*
G01X7596632Y7457440D01*
G01X7599680Y7448296D01*
G01X7599680Y7432802D01*
G01X7596632Y7423404D01*
G01X7593584Y7417308D01*
G01X7587234Y7410958D01*
G01X7581138Y7407910D01*
G01X7568692Y7407910D01*
G01X7562596Y7410958D01*
G01X7556246Y7417308D01*
G01X7553198Y7423404D01*
G01X7522972Y7460488D02*
G01X7516876Y7463790D01*
G01X7507732Y7472934D01*
G01X7507732Y7407910D01*
G01X7458964Y7472934D02*
G01X7468362Y7469886D01*
G01X7474458Y7460488D01*
G01X7477506Y7445248D01*
G01X7477506Y7435850D01*
G01X7474458Y7420356D01*
G01X7468362Y7410958D01*
G01X7458964Y7407910D01*
G01X7452868Y7407910D01*
G01X7443470Y7410958D01*
G01X7437374Y7420356D01*
G01X7434326Y7435850D01*
G01X7434326Y7445248D01*
G01X7437374Y7460488D01*
G01X7443470Y7469886D01*
G01X7452868Y7472934D01*
G01X7458964Y7472934D01*
G01X7404100Y7460488D02*
G01X7398004Y7463790D01*
G01X7388860Y7472934D01*
G01X7388860Y7407910D01*
G01X7929880Y8742934D02*
G01X7929880Y8677910D01*
G01X7929880Y8742934D02*
G01X7901940Y8742934D01*
G01X7892796Y8739886D01*
G01X7889748Y8736838D01*
G01X7886446Y8730488D01*
G01X7886446Y8724392D01*
G01X7889748Y8718296D01*
G01X7892796Y8715248D01*
G01X7901940Y8711946D01*
G01X7929880Y8711946D01*
G01X7908290Y8711946D02*
G01X7886446Y8677910D01*
G01X7856220Y8730488D02*
G01X7850124Y8733790D01*
G01X7840980Y8742934D01*
G01X7840980Y8677910D01*
G01X7792212Y8742934D02*
G01X7801610Y8739886D01*
G01X7807706Y8730488D01*
G01X7810754Y8715248D01*
G01X7810754Y8705850D01*
G01X7807706Y8690356D01*
G01X7801610Y8680958D01*
G01X7792212Y8677910D01*
G01X7786116Y8677910D01*
G01X7776718Y8680958D01*
G01X7770622Y8690356D01*
G01X7767574Y8705850D01*
G01X7767574Y8715248D01*
G01X7770622Y8730488D01*
G01X7776718Y8739886D01*
G01X7786116Y8742934D01*
G01X7792212Y8742934D01*
G01X7731252Y8742934D02*
G01X7697216Y8742934D01*
G01X7715758Y8718296D01*
G01X7706614Y8718296D01*
G01X7700264Y8715248D01*
G01X7697216Y8711946D01*
G01X7694168Y8702802D01*
G01X7694168Y8696452D01*
G01X7697216Y8687308D01*
G01X7703312Y8680958D01*
G01X7712710Y8677910D01*
G01X7722108Y8677910D01*
G01X7731252Y8680958D01*
G01X7734300Y8684260D01*
G01X7737348Y8690356D01*
G01X7625080Y8742934D02*
G01X7625080Y8677910D01*
G01X7625080Y8742934D02*
G01X7597140Y8742934D01*
G01X7587996Y8739886D01*
G01X7584948Y8736838D01*
G01X7581646Y8730488D01*
G01X7581646Y8724392D01*
G01X7584948Y8718296D01*
G01X7587996Y8715248D01*
G01X7597140Y8711946D01*
G01X7625080Y8711946D01*
G01X7603490Y8711946D02*
G01X7581646Y8677910D01*
G01X7551420Y8730488D02*
G01X7545324Y8733790D01*
G01X7536180Y8742934D01*
G01X7536180Y8677910D01*
G01X7487412Y8742934D02*
G01X7496810Y8739886D01*
G01X7502906Y8730488D01*
G01X7505954Y8715248D01*
G01X7505954Y8705850D01*
G01X7502906Y8690356D01*
G01X7496810Y8680958D01*
G01X7487412Y8677910D01*
G01X7481316Y8677910D01*
G01X7471918Y8680958D01*
G01X7465822Y8690356D01*
G01X7462774Y8705850D01*
G01X7462774Y8715248D01*
G01X7465822Y8730488D01*
G01X7471918Y8739886D01*
G01X7481316Y8742934D01*
G01X7487412Y8742934D01*
G01X7401814Y8742934D02*
G01X7432548Y8699754D01*
G01X7386320Y8699754D01*
G01X7401814Y8742934D02*
G01X7401814Y8677910D01*
G01X7489785Y6766981D02*
G01X7489785Y6701957D01*
G01X7489785Y6766981D02*
G01X7461845Y6766981D01*
G01X7452701Y6763933D01*
G01X7449653Y6760885D01*
G01X7446351Y6754535D01*
G01X7446351Y6748439D01*
G01X7449653Y6742343D01*
G01X7452701Y6739295D01*
G01X7461845Y6735993D01*
G01X7489785Y6735993D01*
G01X7468195Y6735993D02*
G01X7446351Y6701957D01*
G01X7416125Y6754535D02*
G01X7410029Y6757837D01*
G01X7400885Y6766981D01*
G01X7400885Y6701957D01*
G01X7352117Y6766981D02*
G01X7361515Y6763933D01*
G01X7367611Y6754535D01*
G01X7370659Y6739295D01*
G01X7370659Y6729897D01*
G01X7367611Y6714403D01*
G01X7361515Y6705005D01*
G01X7352117Y6701957D01*
G01X7346021Y6701957D01*
G01X7336623Y6705005D01*
G01X7330527Y6714403D01*
G01X7327479Y6729897D01*
G01X7327479Y6739295D01*
G01X7330527Y6754535D01*
G01X7336623Y6763933D01*
G01X7346021Y6766981D01*
G01X7352117Y6766981D01*
G01X7260169Y6766981D02*
G01X7291157Y6766981D01*
G01X7294205Y6739295D01*
G01X7291157Y6742343D01*
G01X7282013Y6745391D01*
G01X7272615Y6745391D01*
G01X7263217Y6742343D01*
G01X7257121Y6735993D01*
G01X7254073Y6726849D01*
G01X7254073Y6720499D01*
G01X7257121Y6711355D01*
G01X7263217Y6705005D01*
G01X7272615Y6701957D01*
G01X7282013Y6701957D01*
G01X7291157Y6705005D01*
G01X7294205Y6708307D01*
G01X7297253Y6714403D01*
G01X7383780Y6368034D02*
G01X7383780Y6303010D01*
G01X7383780Y6368034D02*
G01X7355840Y6368034D01*
G01X7346696Y6364986D01*
G01X7343648Y6361938D01*
G01X7340346Y6355588D01*
G01X7340346Y6349492D01*
G01X7343648Y6343396D01*
G01X7346696Y6340348D01*
G01X7355840Y6337046D01*
G01X7383780Y6337046D01*
G01X7362190Y6337046D02*
G01X7340346Y6303010D01*
G01X7310120Y6355588D02*
G01X7304024Y6358890D01*
G01X7294880Y6368034D01*
G01X7294880Y6303010D01*
G01X7246112Y6368034D02*
G01X7255510Y6364986D01*
G01X7261606Y6355588D01*
G01X7264654Y6340348D01*
G01X7264654Y6330950D01*
G01X7261606Y6315456D01*
G01X7255510Y6306058D01*
G01X7246112Y6303010D01*
G01X7240016Y6303010D01*
G01X7230618Y6306058D01*
G01X7224522Y6315456D01*
G01X7221474Y6330950D01*
G01X7221474Y6340348D01*
G01X7224522Y6355588D01*
G01X7230618Y6364986D01*
G01X7240016Y6368034D01*
G01X7246112Y6368034D01*
G01X7154164Y6358890D02*
G01X7157212Y6364986D01*
G01X7166610Y6368034D01*
G01X7172706Y6368034D01*
G01X7182104Y6364986D01*
G01X7188200Y6355588D01*
G01X7191248Y6340348D01*
G01X7191248Y6324854D01*
G01X7188200Y6312408D01*
G01X7182104Y6306058D01*
G01X7172706Y6303010D01*
G01X7169658Y6303010D01*
G01X7160514Y6306058D01*
G01X7154164Y6312408D01*
G01X7151116Y6321552D01*
G01X7151116Y6324854D01*
G01X7154164Y6333998D01*
G01X7160514Y6340348D01*
G01X7169658Y6343396D01*
G01X7172706Y6343396D01*
G01X7182104Y6340348D01*
G01X7188200Y6333998D01*
G01X7191248Y6324854D01*
G01X6316980Y373634D02*
G01X6316980Y308610D01*
G01X6316980Y373634D02*
G01X6289040Y373634D01*
G01X6279896Y370586D01*
G01X6276848Y367538D01*
G01X6273546Y361188D01*
G01X6273546Y355092D01*
G01X6276848Y348996D01*
G01X6279896Y345948D01*
G01X6289040Y342646D01*
G01X6316980Y342646D01*
G01X6295390Y342646D02*
G01X6273546Y308610D01*
G01X6243320Y361188D02*
G01X6237224Y364490D01*
G01X6228080Y373634D01*
G01X6228080Y308610D01*
G01X6179312Y373634D02*
G01X6188710Y370586D01*
G01X6194806Y361188D01*
G01X6197854Y345948D01*
G01X6197854Y336550D01*
G01X6194806Y321056D01*
G01X6188710Y311658D01*
G01X6179312Y308610D01*
G01X6173216Y308610D01*
G01X6163818Y311658D01*
G01X6157722Y321056D01*
G01X6154674Y336550D01*
G01X6154674Y345948D01*
G01X6157722Y361188D01*
G01X6163818Y370586D01*
G01X6173216Y373634D01*
G01X6179312Y373634D01*
G01X6081268Y373634D02*
G01X6112256Y308610D01*
G01X6124448Y373634D02*
G01X6081268Y373634D01*
G01X6697980Y373634D02*
G01X6697980Y308610D01*
G01X6697980Y373634D02*
G01X6670040Y373634D01*
G01X6660896Y370586D01*
G01X6657848Y367538D01*
G01X6654546Y361188D01*
G01X6654546Y355092D01*
G01X6657848Y348996D01*
G01X6660896Y345948D01*
G01X6670040Y342646D01*
G01X6697980Y342646D01*
G01X6676390Y342646D02*
G01X6654546Y308610D01*
G01X6624320Y361188D02*
G01X6618224Y364490D01*
G01X6609080Y373634D01*
G01X6609080Y308610D01*
G01X6560312Y373634D02*
G01X6569710Y370586D01*
G01X6575806Y361188D01*
G01X6578854Y345948D01*
G01X6578854Y336550D01*
G01X6575806Y321056D01*
G01X6569710Y311658D01*
G01X6560312Y308610D01*
G01X6554216Y308610D01*
G01X6544818Y311658D01*
G01X6538722Y321056D01*
G01X6535674Y336550D01*
G01X6535674Y345948D01*
G01X6538722Y361188D01*
G01X6544818Y370586D01*
G01X6554216Y373634D01*
G01X6560312Y373634D01*
G01X6490208Y373634D02*
G01X6499352Y370586D01*
G01X6502400Y364490D01*
G01X6502400Y358140D01*
G01X6499352Y352044D01*
G01X6493256Y348996D01*
G01X6480810Y345948D01*
G01X6471412Y342646D01*
G01X6465316Y336550D01*
G01X6462268Y330454D01*
G01X6462268Y321056D01*
G01X6465316Y314960D01*
G01X6468364Y311658D01*
G01X6477762Y308610D01*
G01X6490208Y308610D01*
G01X6499352Y311658D01*
G01X6502400Y314960D01*
G01X6505448Y321056D01*
G01X6505448Y330454D01*
G01X6502400Y336550D01*
G01X6496304Y342646D01*
G01X6486906Y345948D01*
G01X6474714Y348996D01*
G01X6468364Y352044D01*
G01X6465316Y358140D01*
G01X6465316Y364490D01*
G01X6468364Y370586D01*
G01X6477762Y373634D01*
G01X6490208Y373634D01*
G01X7447280Y7815834D02*
G01X7447280Y7769352D01*
G01X7444232Y7760208D01*
G01X7437882Y7753858D01*
G01X7428738Y7750810D01*
G01X7422388Y7750810D01*
G01X7413244Y7753858D01*
G01X7407148Y7760208D01*
G01X7403846Y7769352D01*
G01X7403846Y7815834D01*
G01X7373620Y7803388D02*
G01X7367524Y7806690D01*
G01X7358380Y7815834D01*
G01X7358380Y7750810D01*
G01X7291070Y7806690D02*
G01X7294118Y7812786D01*
G01X7303516Y7815834D01*
G01X7309612Y7815834D01*
G01X7319010Y7812786D01*
G01X7325106Y7803388D01*
G01X7328154Y7788148D01*
G01X7328154Y7772654D01*
G01X7325106Y7760208D01*
G01X7319010Y7753858D01*
G01X7309612Y7750810D01*
G01X7306564Y7750810D01*
G01X7297420Y7753858D01*
G01X7291070Y7760208D01*
G01X7288022Y7769352D01*
G01X7288022Y7772654D01*
G01X7291070Y7781798D01*
G01X7297420Y7788148D01*
G01X7306564Y7791196D01*
G01X7309612Y7791196D01*
G01X7319010Y7788148D01*
G01X7325106Y7781798D01*
G01X7328154Y7772654D01*
G01X7447280Y7701534D02*
G01X7447280Y7655052D01*
G01X7444232Y7645908D01*
G01X7437882Y7639558D01*
G01X7428738Y7636510D01*
G01X7422388Y7636510D01*
G01X7413244Y7639558D01*
G01X7407148Y7645908D01*
G01X7403846Y7655052D01*
G01X7403846Y7701534D01*
G01X7373620Y7689088D02*
G01X7367524Y7692390D01*
G01X7358380Y7701534D01*
G01X7358380Y7636510D01*
G01X7284974Y7701534D02*
G01X7315962Y7636510D01*
G01X7328154Y7701534D02*
G01X7284974Y7701534D01*
G01X5504180Y1211834D02*
G01X5504180Y1165352D01*
G01X5501132Y1156208D01*
G01X5494782Y1149858D01*
G01X5485638Y1146810D01*
G01X5479288Y1146810D01*
G01X5470144Y1149858D01*
G01X5464048Y1156208D01*
G01X5460746Y1165352D01*
G01X5460746Y1211834D01*
G01X5387340Y1211834D02*
G01X5418328Y1146810D01*
G01X5430520Y1211834D02*
G01X5387340Y1211834D01*
G01X4932680Y1199134D02*
G01X4932680Y1152652D01*
G01X4929632Y1143508D01*
G01X4923282Y1137158D01*
G01X4914138Y1134110D01*
G01X4907788Y1134110D01*
G01X4898644Y1137158D01*
G01X4892548Y1143508D01*
G01X4889246Y1152652D01*
G01X4889246Y1199134D01*
G01X4859020Y1186688D02*
G01X4852924Y1189990D01*
G01X4843780Y1199134D01*
G01X4843780Y1134110D01*
G01X4798314Y1199134D02*
G01X4807458Y1196086D01*
G01X4810506Y1189990D01*
G01X4810506Y1183640D01*
G01X4807458Y1177544D01*
G01X4801362Y1174496D01*
G01X4788916Y1171448D01*
G01X4779518Y1168146D01*
G01X4773422Y1162050D01*
G01X4770374Y1155954D01*
G01X4770374Y1146556D01*
G01X4773422Y1140460D01*
G01X4776470Y1137158D01*
G01X4785868Y1134110D01*
G01X4798314Y1134110D01*
G01X4807458Y1137158D01*
G01X4810506Y1140460D01*
G01X4813554Y1146556D01*
G01X4813554Y1155954D01*
G01X4810506Y1162050D01*
G01X4804410Y1168146D01*
G01X4795012Y1171448D01*
G01X4782820Y1174496D01*
G01X4776470Y1177544D01*
G01X4773422Y1183640D01*
G01X4773422Y1189990D01*
G01X4776470Y1196086D01*
G01X4785868Y1199134D01*
G01X4798314Y1199134D01*
G04 Text End*

G04 PolygonModel Start*
G01X3868438Y1446324D02*
G01X3868438Y1396324D01*
G01X3952916Y1461567D02*
G01X3883675Y1461567D01*
G01X3968156Y1396324D02*
G01X3968156Y1446324D01*
G01X3967942Y1302047D02*
G01X3967942Y1352047D01*
G01X3868230Y1352047D02*
G01X3868230Y1302047D01*
G01X3883464Y1286805D02*
G01X3952707Y1286805D01*
G01X3868227Y1302047D02*
G03X3883467Y1286807I15240J0D01*
G01X3952707Y1286807D02*
G03X3967947Y1302047I0J15240D01*
G01X3968156Y1446324D02*
G03X3952916Y1461564I-15240J0D01*
G01X3883675Y1461564D02*
G03X3868435Y1446324I0J-15240D01*
G54D11*
G01X2153757Y5666819D02*
G01X2153757Y5746816D01*
G01X2153803Y5610774D02*
G01X2153803Y5530776D01*
G01X2011789Y5666819D02*
G01X2011789Y5746816D01*
G01X2011837Y5610774D02*
G01X2011837Y5530776D01*
G01X2122775Y5777791D02*
G01X2042770Y5777791D01*
G01X2042823Y5499799D02*
G01X2122825Y5499799D01*
G01X2011837Y5530781D02*
G03X2042823Y5499799I30983J0D01*
G01X2122820Y5499799D02*
G03X2153803Y5530781I0J30983D01*
G01X2153757Y5746811D02*
G03X2122775Y5777791I-30983J-3D01*
G01X2042777Y5777791D02*
G03X2011789Y5746811I-5J-30983D01*
G01X2564498Y5609248D02*
G01X2564498Y5529251D01*
G01X2564452Y5665293D02*
G01X2564452Y5745291D01*
G01X2706466Y5609248D02*
G01X2706466Y5529251D01*
G01X2706418Y5665293D02*
G01X2706418Y5745291D01*
G01X2595481Y5498276D02*
G01X2675486Y5498276D01*
G01X2675433Y5776268D02*
G01X2595430Y5776268D01*
G01X2706418Y5745285D02*
G03X2675433Y5776268I-30983J0D01*
G01X2595435Y5776268D02*
G03X2564452Y5745285I0J-30983D01*
G01X2564498Y5529256D02*
G03X2595481Y5498276I30983J3D01*
G01X2675478Y5498276D02*
G03X2706466Y5529256I5J30983D01*
G54D10*
G01X593580Y6084761D02*
G01X734581Y6084761D01*
G01X734581Y5904040D02*
G01X593580Y5904040D01*
G01X578340Y5919280D02*
G01X578340Y6069521D01*
G01X955820Y6084761D02*
G01X814819Y6084761D01*
G01X814819Y5904040D02*
G01X955820Y5904040D01*
G01X971060Y5919280D02*
G01X971060Y6069521D01*
G01X593580Y5904040D02*
G02X578340Y5919280I0J15240D01*
G01X578340Y6069521D02*
G02X593580Y6084761I15240J0D01*
G01X955820Y5904040D02*
G03X971060Y5919280I0J15240D01*
G01X971060Y6069521D02*
G03X955820Y6084761I-15240J0D01*
G54D11*
G01X543590Y5306112D02*
G01X463593Y5306112D01*
G01X599635Y5306158D02*
G01X679632Y5306158D01*
G01X543590Y5164144D02*
G01X463593Y5164144D01*
G01X599635Y5164192D02*
G01X679632Y5164192D01*
G01X432617Y5275129D02*
G01X432617Y5195124D01*
G01X710610Y5195177D02*
G01X710610Y5275180D01*
G01X679627Y5164192D02*
G03X710610Y5195177I0J30983D01*
G01X710610Y5275175D02*
G03X679627Y5306158I-30983J0D01*
G01X463598Y5306112D02*
G03X432617Y5275129I3J-30983D01*
G01X432617Y5195132D02*
G03X463598Y5164144I30983J-5D01*
G54D12*
G01X817437Y5433857D02*
G01X817437Y5507629D01*
G01X617437Y5433857D02*
G01X617437Y5507629D01*
G54D10*
G01X3740412Y940867D02*
G01X3562571Y940867D01*
G01X3740412Y1248705D02*
G01X3562571Y1248705D01*
G01X3715931Y1351564D02*
G01X3715931Y1279761D01*
G01X3715931Y1279761D02*
G01X3815652Y1279761D01*
G01X3815652Y1279761D02*
G01X3815652Y1351564D01*
G01X3715931Y1396807D02*
G01X3715931Y1468610D01*
G01X3715931Y1468610D02*
G01X3815652Y1468610D01*
G01X3815652Y1468610D02*
G01X3815652Y1396807D01*
G01X3347631Y1214201D02*
G01X3347631Y1142398D01*
G01X3347631Y1142398D02*
G01X3447352Y1142398D01*
G01X3447352Y1142398D02*
G01X3447352Y1214201D01*
G01X3347631Y1259444D02*
G01X3347631Y1331247D01*
G01X3347631Y1331247D02*
G01X3447352Y1331247D01*
G01X3447352Y1331247D02*
G01X3447352Y1259444D01*
G01X3731021Y813740D02*
G01X3802825Y813740D01*
G01X3802825Y813740D02*
G01X3802825Y913460D01*
G01X3802825Y913460D02*
G01X3731021Y913460D01*
G01X3685779Y813740D02*
G01X3613976Y813740D01*
G01X3613976Y813740D02*
G01X3613976Y913460D01*
G01X3613976Y913460D02*
G01X3685779Y913460D01*
G01X3355579Y938860D02*
G01X3283776Y938860D01*
G01X3283776Y938860D02*
G01X3283776Y839140D01*
G01X3283776Y839140D02*
G01X3355579Y839140D01*
G01X3400821Y938860D02*
G01X3472625Y938860D01*
G01X3472625Y938860D02*
G01X3472625Y839140D01*
G01X3472625Y839140D02*
G01X3400821Y839140D01*
G01X1240079Y5763240D02*
G01X1144191Y5763240D01*
G01X1144191Y5763240D02*
G01X1144191Y5895360D01*
G01X1144191Y5895360D02*
G01X1240079Y5895360D01*
G01X1325321Y5763240D02*
G01X1421209Y5763240D01*
G01X1421209Y5763240D02*
G01X1421209Y5895360D01*
G01X1421209Y5895360D02*
G01X1325321Y5895360D01*
G01X1240079Y5915640D02*
G01X1144191Y5915640D01*
G01X1144191Y5915640D02*
G01X1144191Y6047760D01*
G01X1144191Y6047760D02*
G01X1240079Y6047760D01*
G01X1325321Y5915640D02*
G01X1421209Y5915640D01*
G01X1421209Y5915640D02*
G01X1421209Y6047760D01*
G01X1421209Y6047760D02*
G01X1325321Y6047760D01*
G01X3774505Y4241051D02*
G01X3774505Y4169248D01*
G01X3774505Y4169248D02*
G01X3874226Y4169248D01*
G01X3874226Y4169248D02*
G01X3874226Y4241051D01*
G01X3774505Y4286294D02*
G01X3774505Y4358097D01*
G01X3774505Y4358097D02*
G01X3874226Y4358097D01*
G01X3874226Y4358097D02*
G01X3874226Y4286294D01*
G01X3872983Y4897715D02*
G01X3872983Y4969518D01*
G01X3872983Y4969518D02*
G01X3773262Y4969518D01*
G01X3773262Y4969518D02*
G01X3773262Y4897715D01*
G01X3872983Y4852473D02*
G01X3872983Y4780669D01*
G01X3872983Y4780669D02*
G01X3773262Y4780669D01*
G01X3773262Y4780669D02*
G01X3773262Y4852473D01*
G01X5088179Y7922240D02*
G01X4992291Y7922240D01*
G01X4992291Y7922240D02*
G01X4992291Y8054360D01*
G01X4992291Y8054360D02*
G01X5088179Y8054360D01*
G01X5173421Y7922240D02*
G01X5269309Y7922240D01*
G01X5269309Y7922240D02*
G01X5269309Y8054360D01*
G01X5269309Y8054360D02*
G01X5173421Y8054360D01*
G01X5088179Y8078224D02*
G01X4992291Y8078224D01*
G01X4992291Y8078224D02*
G01X4992291Y8210345D01*
G01X4992291Y8210345D02*
G01X5088179Y8210345D01*
G01X5173421Y8078224D02*
G01X5269309Y8078224D01*
G01X5269309Y8078224D02*
G01X5269309Y8210345D01*
G01X5269309Y8210345D02*
G01X5173421Y8210345D01*
G01X2440472Y5609533D02*
G01X2270231Y5609533D01*
G01X2440472Y5304291D02*
G01X2270231Y5304291D01*
G01X2270231Y5409272D02*
G01X2270231Y5504552D01*
G54D13*
G01X1112422Y5610390D02*
G01X1127017Y5610390D01*
G01X1017423Y5610390D02*
G01X1021592Y5610390D01*
G01X922430Y5610390D02*
G01X926596Y5610390D01*
G01X817015Y5610390D02*
G01X831600Y5610390D01*
G01X1112422Y5790392D02*
G01X1127017Y5790392D01*
G01X922430Y5790392D02*
G01X1021594Y5790392D01*
G01X817015Y5790392D02*
G01X831602Y5790392D01*
G01X817015Y5790392D02*
G01X817015Y5610390D01*
G01X1127017Y5790392D02*
G01X1127017Y5610390D01*
G36*
G01X1073611Y5679986D02*
G03X1073611Y5644586I-212J-17700D01*
G03X1073611Y5679986I212J17700D01*
G37*
G54D11*
G01X3146308Y7578049D02*
G01X3091104Y7578049D01*
G01X3273308Y7578049D02*
G01X3253669Y7578049D01*
G01X3400308Y7578049D02*
G01X3380669Y7578049D01*
G01X3527308Y7578049D02*
G01X3507669Y7578049D01*
G01X3654308Y7578049D02*
G01X3634669Y7578049D01*
G01X3781308Y7578049D02*
G01X3761669Y7578049D01*
G01X4274873Y7578049D02*
G01X3978669Y7578049D01*
G01X4297987Y8726434D02*
G01X4297987Y7782662D01*
G01X3091104Y8928047D02*
G01X4274873Y8928047D01*
G01X3067990Y7782662D02*
G01X3067990Y8726434D01*
G54D10*
G01X3874226Y4464094D02*
G01X3874226Y4535897D01*
G01X3874226Y4535897D02*
G01X3774505Y4535897D01*
G01X3774505Y4535897D02*
G01X3774505Y4464094D01*
G01X3874226Y4418851D02*
G01X3874226Y4347048D01*
G01X3874226Y4347048D02*
G01X3774505Y4347048D01*
G01X3774505Y4347048D02*
G01X3774505Y4418851D01*
G01X3773262Y4651609D02*
G01X3773262Y4579806D01*
G01X3773262Y4579806D02*
G01X3872983Y4579806D01*
G01X3872983Y4579806D02*
G01X3872983Y4651609D01*
G01X3773262Y4696852D02*
G01X3773262Y4768655D01*
G01X3773262Y4768655D02*
G01X3872983Y4768655D01*
G01X3872983Y4768655D02*
G01X3872983Y4696852D01*
G54D11*
G01X9970003Y7923994D02*
G01X9676001Y7923994D01*
G01X8470004Y6729785D02*
G01X8470004Y6915002D01*
G01X8470029Y6729795D02*
G01X8470029Y6651055D01*
G01X8470029Y6651055D02*
G01X8680087Y6651055D01*
G01X8680087Y6651055D02*
G01X8680003Y6649999D01*
G01X9396885Y6401998D02*
G01X8680006Y6401998D01*
G01X8680006Y6401998D02*
G01X8680003Y6650999D01*
G01X8675007Y7925998D02*
G01X9391008Y7925998D01*
G01X9970003Y7923994D02*
G01X9970003Y6400002D01*
G01X9970003Y6400002D02*
G01X9671002Y6400002D01*
G01X6188901Y1323437D02*
G01X6188901Y1621399D01*
G01X6688900Y1409700D02*
G01X6688900Y1323437D01*
G01X6688836Y1536700D02*
G01X6688836Y1621399D01*
G01X6688900Y1323437D02*
G01X6188901Y1323437D01*
G01X6688900Y1621399D02*
G01X6188901Y1621399D01*
G01X6688900Y1409700D02*
G02X6688836Y1536700I-32J63500D01*
G01X3611634Y4198263D02*
G01X3611634Y4118265D01*
G01X3611589Y4254308D02*
G01X3611589Y4334305D01*
G01X3753603Y4198263D02*
G01X3753603Y4118265D01*
G01X3753554Y4254308D02*
G01X3753554Y4334305D01*
G01X3642617Y4087290D02*
G01X3722622Y4087290D01*
G01X3722569Y4365283D02*
G01X3642567Y4365283D01*
G01X3753554Y4334300D02*
G03X3722569Y4365283I-30983J0D01*
G01X3642572Y4365283D02*
G03X3611589Y4334300I0J-30983D01*
G01X3611634Y4118270D02*
G03X3642617Y4087290I30983J3D01*
G01X3722615Y4087290D02*
G03X3753603Y4118270I5J30983D01*
G01X3754380Y4928513D02*
G01X3754380Y5008510D01*
G01X3754426Y4872468D02*
G01X3754426Y4792470D01*
G01X3612412Y4928513D02*
G01X3612412Y5008510D01*
G01X3612460Y4872468D02*
G01X3612460Y4792470D01*
G01X3723397Y5039485D02*
G01X3643392Y5039485D01*
G01X3643445Y4761492D02*
G01X3723448Y4761492D01*
G01X3612460Y4792475D02*
G03X3643445Y4761492I30983J0D01*
G01X3723443Y4761492D02*
G03X3754426Y4792475I0J30983D01*
G01X3754380Y5008505D02*
G03X3723397Y5039485I-30983J-3D01*
G01X3643400Y5039485D02*
G03X3612412Y5008505I-5J-30983D01*
G54D10*
G01X1702129Y2728901D02*
G01X1702129Y2778901D01*
G01X1617651Y2713659D02*
G01X1686892Y2713659D01*
G01X1602411Y2778901D02*
G01X1602411Y2728901D01*
G01X1602625Y2873178D02*
G01X1602625Y2823179D01*
G01X1702337Y2823179D02*
G01X1702337Y2873178D01*
G01X1687103Y2888421D02*
G01X1617860Y2888421D01*
G01X1702340Y2873178D02*
G03X1687100Y2888418I-15240J0D01*
G01X1617860Y2888418D02*
G03X1602620Y2873178I0J-15240D01*
G01X1602411Y2728901D02*
G03X1617651Y2713661I15240J0D01*
G01X1686892Y2713661D02*
G03X1702132Y2728901I0J15240D01*
G01X1816429Y2728901D02*
G01X1816429Y2778901D01*
G01X1731951Y2713659D02*
G01X1801192Y2713659D01*
G01X1716711Y2778901D02*
G01X1716711Y2728901D01*
G01X1716925Y2873178D02*
G01X1716925Y2823179D01*
G01X1816637Y2823179D02*
G01X1816637Y2873178D01*
G01X1801403Y2888421D02*
G01X1732160Y2888421D01*
G01X1816640Y2873178D02*
G03X1801400Y2888418I-15240J0D01*
G01X1732160Y2888418D02*
G03X1716920Y2873178I0J-15240D01*
G01X1716711Y2728901D02*
G03X1731951Y2713661I15240J0D01*
G01X1801192Y2713661D02*
G03X1816432Y2728901I0J15240D01*
G01X1930729Y2728901D02*
G01X1930729Y2778901D01*
G01X1846251Y2713659D02*
G01X1915492Y2713659D01*
G01X1831011Y2778901D02*
G01X1831011Y2728901D01*
G01X1831225Y2873178D02*
G01X1831225Y2823179D01*
G01X1930937Y2823179D02*
G01X1930937Y2873178D01*
G01X1915703Y2888421D02*
G01X1846460Y2888421D01*
G01X1930940Y2873178D02*
G03X1915700Y2888418I-15240J0D01*
G01X1846460Y2888418D02*
G03X1831220Y2873178I0J-15240D01*
G01X1831011Y2728901D02*
G03X1846251Y2713661I15240J0D01*
G01X1915492Y2713661D02*
G03X1930732Y2728901I0J15240D01*
G01X1587829Y2728901D02*
G01X1587829Y2778901D01*
G01X1503351Y2713659D02*
G01X1572592Y2713659D01*
G01X1488111Y2778901D02*
G01X1488111Y2728901D01*
G01X1488325Y2873178D02*
G01X1488325Y2823179D01*
G01X1588037Y2823179D02*
G01X1588037Y2873178D01*
G01X1572803Y2888421D02*
G01X1503560Y2888421D01*
G01X1588040Y2873178D02*
G03X1572800Y2888418I-15240J0D01*
G01X1503560Y2888418D02*
G03X1488320Y2873178I0J-15240D01*
G01X1488111Y2728901D02*
G03X1503351Y2713661I15240J0D01*
G01X1572592Y2713661D02*
G03X1587832Y2728901I0J15240D01*
G01X1524329Y4087801D02*
G01X1524329Y4137801D01*
G01X1439851Y4072559D02*
G01X1509092Y4072559D01*
G01X1424611Y4137801D02*
G01X1424611Y4087801D01*
G01X1424825Y4232078D02*
G01X1424825Y4182079D01*
G01X1524537Y4182079D02*
G01X1524537Y4232078D01*
G01X1509303Y4247321D02*
G01X1440060Y4247321D01*
G01X1524540Y4232078D02*
G03X1509300Y4247318I-15240J0D01*
G01X1440060Y4247318D02*
G03X1424820Y4232078I0J-15240D01*
G01X1424611Y4087801D02*
G03X1439851Y4072561I15240J0D01*
G01X1509092Y4072561D02*
G03X1524332Y4087801I0J15240D01*
G01X1638629Y4087801D02*
G01X1638629Y4137801D01*
G01X1554151Y4072559D02*
G01X1623392Y4072559D01*
G01X1538911Y4137801D02*
G01X1538911Y4087801D01*
G01X1539125Y4232078D02*
G01X1539125Y4182079D01*
G01X1638837Y4182079D02*
G01X1638837Y4232078D01*
G01X1623603Y4247321D02*
G01X1554360Y4247321D01*
G01X1638840Y4232078D02*
G03X1623600Y4247318I-15240J0D01*
G01X1554360Y4247318D02*
G03X1539120Y4232078I0J-15240D01*
G01X1538911Y4087801D02*
G03X1554151Y4072561I15240J0D01*
G01X1623392Y4072561D02*
G03X1638632Y4087801I0J15240D01*
G01X1752929Y4087801D02*
G01X1752929Y4137801D01*
G01X1668451Y4072559D02*
G01X1737692Y4072559D01*
G01X1653211Y4137801D02*
G01X1653211Y4087801D01*
G01X1653425Y4232078D02*
G01X1653425Y4182079D01*
G01X1753137Y4182079D02*
G01X1753137Y4232078D01*
G01X1737903Y4247321D02*
G01X1668660Y4247321D01*
G01X1753140Y4232078D02*
G03X1737900Y4247318I-15240J0D01*
G01X1668660Y4247318D02*
G03X1653420Y4232078I0J-15240D01*
G01X1653211Y4087801D02*
G03X1668451Y4072561I15240J0D01*
G01X1737692Y4072561D02*
G03X1752932Y4087801I0J15240D01*
G01X5051821Y6985940D02*
G01X5123625Y6985940D01*
G01X5123625Y6985940D02*
G01X5123625Y7085660D01*
G01X5123625Y7085660D02*
G01X5051821Y7085660D01*
G01X5006579Y6985940D02*
G01X4934776Y6985940D01*
G01X4934776Y6985940D02*
G01X4934776Y7085660D01*
G01X4934776Y7085660D02*
G01X5006579Y7085660D01*
G01X5051821Y6757340D02*
G01X5123625Y6757340D01*
G01X5123625Y6757340D02*
G01X5123625Y6857060D01*
G01X5123625Y6857060D02*
G01X5051821Y6857060D01*
G01X5006579Y6757340D02*
G01X4934776Y6757340D01*
G01X4934776Y6757340D02*
G01X4934776Y6857060D01*
G01X4934776Y6857060D02*
G01X5006579Y6857060D01*
G01X5051821Y6871640D02*
G01X5123625Y6871640D01*
G01X5123625Y6871640D02*
G01X5123625Y6971360D01*
G01X5123625Y6971360D02*
G01X5051821Y6971360D01*
G01X5006579Y6871640D02*
G01X4934776Y6871640D01*
G01X4934776Y6871640D02*
G01X4934776Y6971360D01*
G01X4934776Y6971360D02*
G01X5006579Y6971360D01*
G01X8052740Y7787879D02*
G01X8052740Y7716076D01*
G01X8052740Y7716076D02*
G01X8152460Y7716076D01*
G01X8152460Y7716076D02*
G01X8152460Y7787879D01*
G01X8052740Y7833121D02*
G01X8052740Y7904925D01*
G01X8052740Y7904925D02*
G01X8152460Y7904925D01*
G01X8152460Y7904925D02*
G01X8152460Y7833121D01*
G01X4813399Y218679D02*
G01X4813399Y146876D01*
G01X4813399Y146876D02*
G01X4913120Y146876D01*
G01X4913120Y146876D02*
G01X4913120Y218679D01*
G01X4813399Y263921D02*
G01X4813399Y335725D01*
G01X4813399Y335725D02*
G01X4913120Y335725D01*
G01X4913120Y335725D02*
G01X4913120Y263921D01*
G01X5106340Y218679D02*
G01X5106340Y146876D01*
G01X5106340Y146876D02*
G01X5206060Y146876D01*
G01X5206060Y146876D02*
G01X5206060Y218679D01*
G01X5106340Y263921D02*
G01X5106340Y335725D01*
G01X5106340Y335725D02*
G01X5206060Y335725D01*
G01X5206060Y335725D02*
G01X5206060Y263921D01*
G01X7581750Y4820227D02*
G01X7531750Y4820227D01*
G01X7596993Y4735749D02*
G01X7596993Y4804989D01*
G01X7531750Y4720509D02*
G01X7581750Y4720509D01*
G01X7437473Y4720722D02*
G01X7487473Y4720722D01*
G01X7487473Y4820435D02*
G01X7437473Y4820435D01*
G01X7422231Y4805200D02*
G01X7422231Y4735957D01*
G01X7437473Y4820438D02*
G03X7422233Y4805198I0J-15240D01*
G01X7422233Y4735957D02*
G03X7437473Y4720717I15240J0D01*
G01X7581750Y4720509D02*
G03X7596990Y4735749I0J15240D01*
G01X7596990Y4804989D02*
G03X7581750Y4820229I-15240J0D01*
G01X7581750Y4934527D02*
G01X7531750Y4934527D01*
G01X7596993Y4850049D02*
G01X7596993Y4919289D01*
G01X7531750Y4834809D02*
G01X7581750Y4834809D01*
G01X7437473Y4835022D02*
G01X7487473Y4835022D01*
G01X7487473Y4934735D02*
G01X7437473Y4934735D01*
G01X7422231Y4919500D02*
G01X7422231Y4850257D01*
G01X7437473Y4934738D02*
G03X7422233Y4919498I0J-15240D01*
G01X7422233Y4850257D02*
G03X7437473Y4835017I15240J0D01*
G01X7581750Y4834809D02*
G03X7596990Y4850049I0J15240D01*
G01X7596990Y4919289D02*
G03X7581750Y4934529I-15240J0D01*
G01X7581750Y5032065D02*
G01X7531750Y5032065D01*
G01X7596993Y4947587D02*
G01X7596993Y5016828D01*
G01X7531750Y4932347D02*
G01X7581750Y4932347D01*
G01X7437473Y4932561D02*
G01X7487473Y4932561D01*
G01X7487473Y5032273D02*
G01X7437473Y5032273D01*
G01X7422231Y5017038D02*
G01X7422231Y4947796D01*
G01X7437473Y5032276D02*
G03X7422233Y5017036I0J-15240D01*
G01X7422233Y4947796D02*
G03X7437473Y4932556I15240J0D01*
G01X7581750Y4932347D02*
G03X7596990Y4947587I0J15240D01*
G01X7596990Y5016828D02*
G03X7581750Y5032068I-15240J0D01*
G01X7417846Y5266439D02*
G01X7417846Y5216439D01*
G01X7502324Y5281681D02*
G01X7433084Y5281681D01*
G01X7517564Y5216439D02*
G01X7517564Y5266439D01*
G01X7517351Y5122161D02*
G01X7517351Y5172161D01*
G01X7417638Y5172161D02*
G01X7417638Y5122161D01*
G01X7432873Y5106919D02*
G01X7502116Y5106919D01*
G01X7417636Y5122161D02*
G03X7432876Y5106921I15240J0D01*
G01X7502116Y5106921D02*
G03X7517356Y5122161I0J15240D01*
G01X7517564Y5266439D02*
G03X7502324Y5281679I-15240J0D01*
G01X7433084Y5281679D02*
G03X7417844Y5266439I0J-15240D01*
G01X7646446Y5266439D02*
G01X7646446Y5216439D01*
G01X7730924Y5281681D02*
G01X7661684Y5281681D01*
G01X7746164Y5216439D02*
G01X7746164Y5266439D01*
G01X7745951Y5122161D02*
G01X7745951Y5172161D01*
G01X7646238Y5172161D02*
G01X7646238Y5122161D01*
G01X7661473Y5106919D02*
G01X7730716Y5106919D01*
G01X7646236Y5122161D02*
G03X7661476Y5106921I15240J0D01*
G01X7730716Y5106921D02*
G03X7745956Y5122161I0J15240D01*
G01X7746164Y5266439D02*
G03X7730924Y5281679I-15240J0D01*
G01X7661684Y5281679D02*
G03X7646444Y5266439I0J-15240D01*
G01X7532146Y5266439D02*
G01X7532146Y5216439D01*
G01X7616624Y5281681D02*
G01X7547384Y5281681D01*
G01X7631864Y5216439D02*
G01X7631864Y5266439D01*
G01X7631651Y5122161D02*
G01X7631651Y5172161D01*
G01X7531938Y5172161D02*
G01X7531938Y5122161D01*
G01X7547173Y5106919D02*
G01X7616416Y5106919D01*
G01X7531936Y5122161D02*
G03X7547176Y5106921I15240J0D01*
G01X7616416Y5106921D02*
G03X7631656Y5122161I0J15240D01*
G01X7631864Y5266439D02*
G03X7616624Y5281679I-15240J0D01*
G01X7547384Y5281679D02*
G03X7532144Y5266439I0J-15240D01*
G01X6897146Y4707639D02*
G01X6897146Y4657639D01*
G01X6981624Y4722881D02*
G01X6912384Y4722881D01*
G01X6996864Y4657639D02*
G01X6996864Y4707639D01*
G01X6996651Y4563361D02*
G01X6996651Y4613361D01*
G01X6896938Y4613361D02*
G01X6896938Y4563361D01*
G01X6912173Y4548119D02*
G01X6981416Y4548119D01*
G01X6896936Y4563361D02*
G03X6912176Y4548121I15240J0D01*
G01X6981416Y4548121D02*
G03X6996656Y4563361I0J15240D01*
G01X6996864Y4707639D02*
G03X6981624Y4722879I-15240J0D01*
G01X6912384Y4722879D02*
G03X6897144Y4707639I0J-15240D01*
G01X7011446Y4707639D02*
G01X7011446Y4657639D01*
G01X7095924Y4722881D02*
G01X7026684Y4722881D01*
G01X7111164Y4657639D02*
G01X7111164Y4707639D01*
G01X7110951Y4563361D02*
G01X7110951Y4613361D01*
G01X7011238Y4613361D02*
G01X7011238Y4563361D01*
G01X7026473Y4548119D02*
G01X7095716Y4548119D01*
G01X7011236Y4563361D02*
G03X7026476Y4548121I15240J0D01*
G01X7095716Y4548121D02*
G03X7110956Y4563361I0J15240D01*
G01X7111164Y4707639D02*
G03X7095924Y4722879I-15240J0D01*
G01X7026684Y4722879D02*
G03X7011444Y4707639I0J-15240D01*
G01X6795546Y4707639D02*
G01X6795546Y4657639D01*
G01X6880024Y4722881D02*
G01X6810784Y4722881D01*
G01X6895264Y4657639D02*
G01X6895264Y4707639D01*
G01X6895051Y4563361D02*
G01X6895051Y4613361D01*
G01X6795338Y4613361D02*
G01X6795338Y4563361D01*
G01X6810573Y4548119D02*
G01X6879816Y4548119D01*
G01X6795336Y4563361D02*
G03X6810576Y4548121I15240J0D01*
G01X6879816Y4548121D02*
G03X6895056Y4563361I0J15240D01*
G01X6895264Y4707639D02*
G03X6880024Y4722879I-15240J0D01*
G01X6810784Y4722879D02*
G03X6795544Y4707639I0J-15240D01*
G01X7581750Y4397065D02*
G01X7531750Y4397065D01*
G01X7596993Y4312587D02*
G01X7596993Y4381828D01*
G01X7531750Y4297347D02*
G01X7581750Y4297347D01*
G01X7437473Y4297561D02*
G01X7487473Y4297561D01*
G01X7487473Y4397273D02*
G01X7437473Y4397273D01*
G01X7422231Y4382038D02*
G01X7422231Y4312796D01*
G01X7437473Y4397276D02*
G03X7422233Y4382036I0J-15240D01*
G01X7422233Y4312796D02*
G03X7437473Y4297556I15240J0D01*
G01X7581750Y4297347D02*
G03X7596990Y4312587I0J15240D01*
G01X7596990Y4381828D02*
G03X7581750Y4397068I-15240J0D01*
G01X7149054Y4220461D02*
G01X7149054Y4270461D01*
G01X7064576Y4205219D02*
G01X7133816Y4205219D01*
G01X7049336Y4270461D02*
G01X7049336Y4220461D01*
G01X7049549Y4364739D02*
G01X7049549Y4314739D01*
G01X7149262Y4314739D02*
G01X7149262Y4364739D01*
G01X7134027Y4379981D02*
G01X7064784Y4379981D01*
G01X7149264Y4364739D02*
G03X7134024Y4379979I-15240J0D01*
G01X7064784Y4379979D02*
G03X7049544Y4364739I0J-15240D01*
G01X7049336Y4220461D02*
G03X7064576Y4205221I15240J0D01*
G01X7133816Y4205221D02*
G03X7149056Y4220461I0J15240D01*
G01X6884446Y5152139D02*
G01X6884446Y5102139D01*
G01X6968924Y5167381D02*
G01X6899684Y5167381D01*
G01X6984164Y5102139D02*
G01X6984164Y5152139D01*
G01X6983951Y5007861D02*
G01X6983951Y5057861D01*
G01X6884238Y5057861D02*
G01X6884238Y5007861D01*
G01X6899473Y4992619D02*
G01X6968716Y4992619D01*
G01X6884236Y5007861D02*
G03X6899476Y4992621I15240J0D01*
G01X6968716Y4992621D02*
G03X6983956Y5007861I0J15240D01*
G01X6984164Y5152139D02*
G03X6968924Y5167379I-15240J0D01*
G01X6899684Y5167379D02*
G03X6884444Y5152139I0J-15240D01*
G01X7085554Y4753861D02*
G01X7085554Y4803861D01*
G01X7001076Y4738619D02*
G01X7070316Y4738619D01*
G01X6985836Y4803861D02*
G01X6985836Y4753861D01*
G01X6986049Y4898139D02*
G01X6986049Y4848139D01*
G01X7085762Y4848139D02*
G01X7085762Y4898139D01*
G01X7070527Y4913381D02*
G01X7001284Y4913381D01*
G01X7085764Y4898139D02*
G03X7070524Y4913379I-15240J0D01*
G01X7001284Y4913379D02*
G03X6986044Y4898139I0J-15240D01*
G01X6985836Y4753861D02*
G03X7001076Y4738621I15240J0D01*
G01X7070316Y4738621D02*
G03X7085556Y4753861I0J15240D01*
G01X6986046Y5152139D02*
G01X6986046Y5102139D01*
G01X7070524Y5167381D02*
G01X7001284Y5167381D01*
G01X7085764Y5102139D02*
G01X7085764Y5152139D01*
G01X7085551Y5007861D02*
G01X7085551Y5057861D01*
G01X6985838Y5057861D02*
G01X6985838Y5007861D01*
G01X7001073Y4992619D02*
G01X7070316Y4992619D01*
G01X6985836Y5007861D02*
G03X7001076Y4992621I15240J0D01*
G01X7070316Y4992621D02*
G03X7085556Y5007861I0J15240D01*
G01X7085764Y5152139D02*
G03X7070524Y5167379I-15240J0D01*
G01X7001284Y5167379D02*
G03X6986044Y5152139I0J-15240D01*
G01X7087646Y5152139D02*
G01X7087646Y5102139D01*
G01X7172124Y5167381D02*
G01X7102884Y5167381D01*
G01X7187364Y5102139D02*
G01X7187364Y5152139D01*
G01X7187151Y5007861D02*
G01X7187151Y5057861D01*
G01X7087438Y5057861D02*
G01X7087438Y5007861D01*
G01X7102673Y4992619D02*
G01X7171916Y4992619D01*
G01X7087436Y5007861D02*
G03X7102676Y4992621I15240J0D01*
G01X7171916Y4992621D02*
G03X7187156Y5007861I0J15240D01*
G01X7187364Y5152139D02*
G03X7172124Y5167379I-15240J0D01*
G01X7102884Y5167379D02*
G03X7087644Y5152139I0J-15240D01*
G01X7575372Y4707290D02*
G01X7525372Y4707290D01*
G01X7590615Y4622812D02*
G01X7590615Y4692052D01*
G01X7525372Y4607572D02*
G01X7575372Y4607572D01*
G01X7431095Y4607785D02*
G01X7481095Y4607785D01*
G01X7481095Y4707498D02*
G01X7431095Y4707498D01*
G01X7415853Y4692263D02*
G01X7415853Y4623020D01*
G01X7431095Y4707500D02*
G03X7415855Y4692260I0J-15240D01*
G01X7415855Y4623020D02*
G03X7431095Y4607780I15240J0D01*
G01X7575372Y4607572D02*
G03X7590612Y4622812I0J15240D01*
G01X7590612Y4692052D02*
G03X7575372Y4707292I-15240J0D01*
G01X7576071Y4605690D02*
G01X7526071Y4605690D01*
G01X7591313Y4521212D02*
G01X7591313Y4590452D01*
G01X7526071Y4505972D02*
G01X7576071Y4505972D01*
G01X7431794Y4506185D02*
G01X7481794Y4506185D01*
G01X7481794Y4605898D02*
G01X7431794Y4605898D01*
G01X7416551Y4590663D02*
G01X7416551Y4521420D01*
G01X7431794Y4605900D02*
G03X7416554Y4590660I0J-15240D01*
G01X7416554Y4521420D02*
G03X7431794Y4506180I15240J0D01*
G01X7576071Y4505972D02*
G03X7591311Y4521212I0J15240D01*
G01X7591311Y4590452D02*
G03X7576071Y4605692I-15240J0D01*
G01X7237954Y4753861D02*
G01X7237954Y4803861D01*
G01X7153476Y4738619D02*
G01X7222716Y4738619D01*
G01X7138236Y4803861D02*
G01X7138236Y4753861D01*
G01X7138449Y4898139D02*
G01X7138449Y4848139D01*
G01X7238162Y4848139D02*
G01X7238162Y4898139D01*
G01X7222927Y4913381D02*
G01X7153684Y4913381D01*
G01X7238164Y4898139D02*
G03X7222924Y4913379I-15240J0D01*
G01X7153684Y4913379D02*
G03X7138444Y4898139I0J-15240D01*
G01X7138236Y4753861D02*
G03X7153476Y4738621I15240J0D01*
G01X7222716Y4738621D02*
G03X7237956Y4753861I0J15240D01*
G01X8221858Y3809850D02*
G01X8221858Y3759850D01*
G01X8306336Y3825093D02*
G01X8237096Y3825093D01*
G01X8321576Y3759850D02*
G01X8321576Y3809850D01*
G01X8321363Y3665573D02*
G01X8321363Y3715573D01*
G01X8221650Y3715573D02*
G01X8221650Y3665573D01*
G01X8236885Y3650331D02*
G01X8306128Y3650331D01*
G01X8221647Y3665573D02*
G03X8236887Y3650333I15240J0D01*
G01X8306128Y3650333D02*
G03X8321368Y3665573I0J15240D01*
G01X8321576Y3809850D02*
G03X8306336Y3825090I-15240J0D01*
G01X8237096Y3825090D02*
G03X8221856Y3809850I0J-15240D01*
G01X8536705Y3384636D02*
G01X8586705Y3384636D01*
G01X8521462Y3469113D02*
G01X8521462Y3399873D01*
G01X8586705Y3484353D02*
G01X8536705Y3484353D01*
G01X8680982Y3484140D02*
G01X8630982Y3484140D01*
G01X8630982Y3384427D02*
G01X8680982Y3384427D01*
G01X8696224Y3399662D02*
G01X8696224Y3468905D01*
G01X8680982Y3384425D02*
G03X8696222Y3399665I0J15240D01*
G01X8696222Y3468905D02*
G03X8680982Y3484145I-15240J0D01*
G01X8536705Y3484353D02*
G03X8521465Y3469113I0J-15240D01*
G01X8521465Y3399873D02*
G03X8536705Y3384633I15240J0D01*
G01X8538461Y2820446D02*
G01X8588461Y2820446D01*
G01X8523219Y2904924D02*
G01X8523219Y2835684D01*
G01X8588461Y2920164D02*
G01X8538461Y2920164D01*
G01X8682739Y2919951D02*
G01X8632739Y2919951D01*
G01X8632739Y2820238D02*
G01X8682739Y2820238D01*
G01X8697981Y2835473D02*
G01X8697981Y2904716D01*
G01X8682739Y2820236D02*
G03X8697979Y2835476I0J15240D01*
G01X8697979Y2904716D02*
G03X8682739Y2919956I-15240J0D01*
G01X8538461Y2920164D02*
G03X8523221Y2904924I0J-15240D01*
G01X8523221Y2835684D02*
G03X8538461Y2820444I15240J0D01*
G01X8536705Y3283036D02*
G01X8586705Y3283036D01*
G01X8521462Y3367513D02*
G01X8521462Y3298273D01*
G01X8586705Y3382753D02*
G01X8536705Y3382753D01*
G01X8680982Y3382540D02*
G01X8630982Y3382540D01*
G01X8630982Y3282827D02*
G01X8680982Y3282827D01*
G01X8696224Y3298062D02*
G01X8696224Y3367305D01*
G01X8680982Y3282825D02*
G03X8696222Y3298065I0J15240D01*
G01X8696222Y3367305D02*
G03X8680982Y3382545I-15240J0D01*
G01X8536705Y3382753D02*
G03X8521465Y3367513I0J-15240D01*
G01X8521465Y3298273D02*
G03X8536705Y3283033I15240J0D01*
G01X8680982Y3585743D02*
G01X8630982Y3585743D01*
G01X8696224Y3501265D02*
G01X8696224Y3570505D01*
G01X8630982Y3486025D02*
G01X8680982Y3486025D01*
G01X8536705Y3486238D02*
G01X8586705Y3486238D01*
G01X8586705Y3585951D02*
G01X8536705Y3585951D01*
G01X8521462Y3570716D02*
G01X8521462Y3501473D01*
G01X8536705Y3585953D02*
G03X8521465Y3570713I0J-15240D01*
G01X8521465Y3501473D02*
G03X8536705Y3486233I15240J0D01*
G01X8680982Y3486025D02*
G03X8696222Y3501265I0J15240D01*
G01X8696222Y3570505D02*
G03X8680982Y3585745I-15240J0D01*
G01X8680982Y3280943D02*
G01X8630982Y3280943D01*
G01X8696224Y3196465D02*
G01X8696224Y3265705D01*
G01X8630982Y3181225D02*
G01X8680982Y3181225D01*
G01X8536705Y3181438D02*
G01X8586705Y3181438D01*
G01X8586705Y3281151D02*
G01X8536705Y3281151D01*
G01X8521462Y3265916D02*
G01X8521462Y3196673D01*
G01X8536705Y3281153D02*
G03X8521465Y3265913I0J-15240D01*
G01X8521465Y3196673D02*
G03X8536705Y3181433I15240J0D01*
G01X8680982Y3181225D02*
G03X8696222Y3196465I0J15240D01*
G01X8696222Y3265705D02*
G03X8680982Y3280945I-15240J0D01*
G01X9148061Y3163346D02*
G01X9198061Y3163346D01*
G01X9132819Y3247824D02*
G01X9132819Y3178584D01*
G01X9198061Y3263064D02*
G01X9148061Y3263064D01*
G01X9292339Y3262851D02*
G01X9242339Y3262851D01*
G01X9242339Y3163138D02*
G01X9292339Y3163138D01*
G01X9307581Y3178373D02*
G01X9307581Y3247616D01*
G01X9292339Y3163136D02*
G03X9307579Y3178376I0J15240D01*
G01X9307579Y3247616D02*
G03X9292339Y3262856I-15240J0D01*
G01X9148061Y3263064D02*
G03X9132821Y3247824I0J-15240D01*
G01X9132821Y3178584D02*
G03X9148061Y3163344I15240J0D01*
G01X8099556Y3290374D02*
G01X8049556Y3290374D01*
G01X8114799Y3205896D02*
G01X8114799Y3275136D01*
G01X8049556Y3190656D02*
G01X8099556Y3190656D01*
G01X7955279Y3190869D02*
G01X8005279Y3190869D01*
G01X8005279Y3290582D02*
G01X7955279Y3290582D01*
G01X7940036Y3275347D02*
G01X7940036Y3206104D01*
G01X7955279Y3290584D02*
G03X7940039Y3275344I0J-15240D01*
G01X7940039Y3206104D02*
G03X7955279Y3190864I15240J0D01*
G01X8099556Y3190656D02*
G03X8114796Y3205896I0J15240D01*
G01X8114796Y3275136D02*
G03X8099556Y3290376I-15240J0D01*
G01X9242821Y3404540D02*
G01X9314625Y3404540D01*
G01X9314625Y3404540D02*
G01X9314625Y3504260D01*
G01X9314625Y3504260D02*
G01X9242821Y3504260D01*
G01X9197579Y3404540D02*
G01X9125776Y3404540D01*
G01X9125776Y3404540D02*
G01X9125776Y3504260D01*
G01X9125776Y3504260D02*
G01X9197579Y3504260D01*
G01X9242821Y3302940D02*
G01X9314625Y3302940D01*
G01X9314625Y3302940D02*
G01X9314625Y3402660D01*
G01X9314625Y3402660D02*
G01X9242821Y3402660D01*
G01X9197579Y3302940D02*
G01X9125776Y3302940D01*
G01X9125776Y3302940D02*
G01X9125776Y3402660D01*
G01X9125776Y3402660D02*
G01X9197579Y3402660D01*
G01X7414021Y3417240D02*
G01X7485825Y3417240D01*
G01X7485825Y3417240D02*
G01X7485825Y3516960D01*
G01X7485825Y3516960D02*
G01X7414021Y3516960D01*
G01X7368779Y3417240D02*
G01X7296976Y3417240D01*
G01X7296976Y3417240D02*
G01X7296976Y3516960D01*
G01X7296976Y3516960D02*
G01X7368779Y3516960D01*
G01X8103540Y3660379D02*
G01X8103540Y3588576D01*
G01X8103540Y3588576D02*
G01X8203260Y3588576D01*
G01X8203260Y3588576D02*
G01X8203260Y3660379D01*
G01X8103540Y3705621D02*
G01X8103540Y3777425D01*
G01X8103540Y3777425D02*
G01X8203260Y3777425D01*
G01X8203260Y3777425D02*
G01X8203260Y3705621D01*
G01X7858521Y3417240D02*
G01X7930325Y3417240D01*
G01X7930325Y3417240D02*
G01X7930325Y3516960D01*
G01X7930325Y3516960D02*
G01X7858521Y3516960D01*
G01X7813279Y3417240D02*
G01X7741476Y3417240D01*
G01X7741476Y3417240D02*
G01X7741476Y3516960D01*
G01X7741476Y3516960D02*
G01X7813279Y3516960D01*
G01X7709840Y3800079D02*
G01X7709840Y3728276D01*
G01X7709840Y3728276D02*
G01X7809560Y3728276D01*
G01X7809560Y3728276D02*
G01X7809560Y3800079D01*
G01X7709840Y3845321D02*
G01X7709840Y3917125D01*
G01X7709840Y3917125D02*
G01X7809560Y3917125D01*
G01X7809560Y3917125D02*
G01X7809560Y3845321D01*
G01X7887640Y3800079D02*
G01X7887640Y3728276D01*
G01X7887640Y3728276D02*
G01X7987360Y3728276D01*
G01X7987360Y3728276D02*
G01X7987360Y3800079D01*
G01X7887640Y3845321D02*
G01X7887640Y3917125D01*
G01X7887640Y3917125D02*
G01X7987360Y3917125D01*
G01X7987360Y3917125D02*
G01X7987360Y3845321D01*
G01X6904739Y4355054D02*
G01X6854739Y4355054D01*
G01X6919981Y4270576D02*
G01X6919981Y4339816D01*
G01X6854739Y4255336D02*
G01X6904739Y4255336D01*
G01X6760461Y4255549D02*
G01X6810461Y4255549D01*
G01X6810461Y4355262D02*
G01X6760461Y4355262D01*
G01X6745219Y4340027D02*
G01X6745219Y4270784D01*
G01X6760461Y4355264D02*
G03X6745221Y4340024I0J-15240D01*
G01X6745221Y4270784D02*
G03X6760461Y4255544I15240J0D01*
G01X6904739Y4255336D02*
G03X6919979Y4270576I0J15240D01*
G01X6919979Y4339816D02*
G03X6904739Y4355056I-15240J0D01*
G01X7349239Y4278854D02*
G01X7299239Y4278854D01*
G01X7364481Y4194376D02*
G01X7364481Y4263616D01*
G01X7299239Y4179136D02*
G01X7349239Y4179136D01*
G01X7204961Y4179349D02*
G01X7254961Y4179349D01*
G01X7254961Y4279062D02*
G01X7204961Y4279062D01*
G01X7189719Y4263827D02*
G01X7189719Y4194584D01*
G01X7204961Y4279064D02*
G03X7189721Y4263824I0J-15240D01*
G01X7189721Y4194584D02*
G03X7204961Y4179344I15240J0D01*
G01X7349239Y4179136D02*
G03X7364479Y4194376I0J15240D01*
G01X7364479Y4263616D02*
G03X7349239Y4278856I-15240J0D01*
G01X7577839Y4507454D02*
G01X7527839Y4507454D01*
G01X7593081Y4422976D02*
G01X7593081Y4492216D01*
G01X7527839Y4407736D02*
G01X7577839Y4407736D01*
G01X7433561Y4407949D02*
G01X7483561Y4407949D01*
G01X7483561Y4507662D02*
G01X7433561Y4507662D01*
G01X7418319Y4492427D02*
G01X7418319Y4423184D01*
G01X7433561Y4507664D02*
G03X7418321Y4492424I0J-15240D01*
G01X7418321Y4423184D02*
G03X7433561Y4407944I15240J0D01*
G01X7577839Y4407736D02*
G03X7593079Y4422976I0J15240D01*
G01X7593079Y4492216D02*
G03X7577839Y4507456I-15240J0D01*
G01X7116958Y4648050D02*
G01X7116958Y4598050D01*
G01X7201436Y4663293D02*
G01X7132196Y4663293D01*
G01X7216676Y4598050D02*
G01X7216676Y4648050D01*
G01X7216463Y4503773D02*
G01X7216463Y4553773D01*
G01X7116750Y4553773D02*
G01X7116750Y4503773D01*
G01X7131985Y4488531D02*
G01X7201228Y4488531D01*
G01X7116747Y4503773D02*
G03X7131987Y4488533I15240J0D01*
G01X7201228Y4488533D02*
G03X7216468Y4503773I0J15240D01*
G01X7216676Y4648050D02*
G03X7201436Y4663290I-15240J0D01*
G01X7132196Y4663290D02*
G03X7116956Y4648050I0J-15240D01*
G54D14*
G01X7195985Y3780881D02*
G01X7168871Y3780881D01*
G01X7309119Y3780881D02*
G01X7282015Y3780881D01*
G54D10*
G01X7309119Y3780881D02*
G01X7309119Y3966121D01*
G01X7168871Y3780892D02*
G01X7168871Y3966134D01*
G01X7309119Y3915641D02*
G01X7168881Y3915641D01*
G36*
G01X7270999Y3958500D02*
G01X7316740Y3958500D01*
G01X7316740Y3988980D01*
G01X7270999Y3988980D01*
G01X7270999Y3958500D01*
G37*
G36*
G01X7207001Y3958500D02*
G01X7207001Y3988980D01*
G01X7161260Y3988980D01*
G01X7161260Y3958500D01*
G01X7207001Y3958500D01*
G37*
G01X9166621Y4852340D02*
G01X9238425Y4852340D01*
G01X9238425Y4852340D02*
G01X9238425Y4952060D01*
G01X9238425Y4952060D02*
G01X9166621Y4952060D01*
G01X9121379Y4852340D02*
G01X9049576Y4852340D01*
G01X9049576Y4852340D02*
G01X9049576Y4952060D01*
G01X9049576Y4952060D02*
G01X9121379Y4952060D01*
G01X7700261Y7367046D02*
G01X7750261Y7367046D01*
G01X7685019Y7451524D02*
G01X7685019Y7382284D01*
G01X7750261Y7466764D02*
G01X7700261Y7466764D01*
G01X7844539Y7466551D02*
G01X7794539Y7466551D01*
G01X7794539Y7366838D02*
G01X7844539Y7366838D01*
G01X7859781Y7382073D02*
G01X7859781Y7451316D01*
G01X7844539Y7366836D02*
G03X7859779Y7382076I0J15240D01*
G01X7859779Y7451316D02*
G03X7844539Y7466556I-15240J0D01*
G01X7700261Y7466764D02*
G03X7685021Y7451524I0J-15240D01*
G01X7685021Y7382284D02*
G03X7700261Y7367044I15240J0D01*
G01X7860360Y8544321D02*
G01X7860360Y8616125D01*
G01X7860360Y8616125D02*
G01X7760640Y8616125D01*
G01X7760640Y8616125D02*
G01X7760640Y8544321D01*
G01X7860360Y8499079D02*
G01X7860360Y8427276D01*
G01X7860360Y8427276D02*
G01X7760640Y8427276D01*
G01X7760640Y8427276D02*
G01X7760640Y8499079D01*
G01X7455840Y8499079D02*
G01X7455840Y8427276D01*
G01X7455840Y8427276D02*
G01X7555560Y8427276D01*
G01X7555560Y8427276D02*
G01X7555560Y8499079D01*
G01X7455840Y8544321D02*
G01X7455840Y8616125D01*
G01X7455840Y8616125D02*
G01X7555560Y8616125D01*
G01X7555560Y8616125D02*
G01X7555560Y8544321D01*
G01X7349729Y6646407D02*
G01X7277926Y6646407D01*
G01X7277926Y6646407D02*
G01X7277926Y6546686D01*
G01X7277926Y6546686D02*
G01X7349729Y6546686D01*
G01X7394971Y6646407D02*
G01X7466775Y6646407D01*
G01X7466775Y6646407D02*
G01X7466775Y6546686D01*
G01X7466775Y6546686D02*
G01X7394971Y6546686D01*
G01X7349729Y6532107D02*
G01X7277926Y6532107D01*
G01X7277926Y6532107D02*
G01X7277926Y6432386D01*
G01X7277926Y6432386D02*
G01X7349729Y6432386D01*
G01X7394971Y6532107D02*
G01X7466775Y6532107D01*
G01X7466775Y6532107D02*
G01X7466775Y6432386D01*
G01X7466775Y6432386D02*
G01X7394971Y6432386D01*
G01X6223940Y498079D02*
G01X6223940Y426276D01*
G01X6223940Y426276D02*
G01X6323660Y426276D01*
G01X6323660Y426276D02*
G01X6323660Y498079D01*
G01X6223940Y543321D02*
G01X6223940Y615125D01*
G01X6223940Y615125D02*
G01X6323660Y615125D01*
G01X6323660Y615125D02*
G01X6323660Y543321D01*
G01X6619057Y541020D02*
G01X6619057Y612824D01*
G01X6619057Y612824D02*
G01X6519337Y612824D01*
G01X6519337Y612824D02*
G01X6519337Y541020D01*
G01X6619057Y495778D02*
G01X6619057Y423975D01*
G01X6619057Y423975D02*
G01X6519337Y423975D01*
G01X6519337Y423975D02*
G01X6519337Y495778D01*
G54D16*
G01X7489200Y7656200D02*
G01X7489200Y7676200D01*
G01X7489200Y7736200D02*
G01X7489200Y7716200D01*
G01X7649200Y7736200D02*
G01X7649200Y7716200D01*
G01X7649200Y7656200D02*
G01X7649200Y7676200D01*
G01X7589200Y7736200D02*
G01X7649200Y7736200D01*
G01X7489200Y7736200D02*
G01X7549200Y7736200D01*
G01X7549200Y7656200D02*
G01X7489200Y7656200D01*
G01X7589200Y7656200D02*
G01X7649200Y7656200D01*
G01X7489200Y7567300D02*
G01X7489200Y7587300D01*
G01X7489200Y7647300D02*
G01X7489200Y7627300D01*
G01X7649200Y7647300D02*
G01X7649200Y7627300D01*
G01X7649200Y7567300D02*
G01X7649200Y7587300D01*
G01X7589200Y7647300D02*
G01X7649200Y7647300D01*
G01X7489200Y7647300D02*
G01X7549200Y7647300D01*
G01X7549200Y7567300D02*
G01X7489200Y7567300D01*
G01X7589200Y7567300D02*
G01X7649200Y7567300D01*
G01X5350500Y1208400D02*
G01X5350500Y1188400D01*
G01X5350500Y1128400D02*
G01X5350500Y1148400D01*
G01X5190500Y1128400D02*
G01X5190500Y1148400D01*
G01X5190500Y1208400D02*
G01X5190500Y1188400D01*
G01X5250500Y1128400D02*
G01X5190500Y1128400D01*
G01X5350500Y1128400D02*
G01X5290500Y1128400D01*
G01X5290500Y1208400D02*
G01X5350500Y1208400D01*
G01X5250500Y1208400D02*
G01X5190500Y1208400D01*
G01X4991212Y1128400D02*
G01X4991212Y1148400D01*
G01X4991212Y1208400D02*
G01X4991212Y1188400D01*
G01X5151211Y1208400D02*
G01X5151211Y1188400D01*
G01X5151211Y1128400D02*
G01X5151211Y1148400D01*
G01X5091212Y1208400D02*
G01X5151211Y1208400D01*
G01X4991212Y1208400D02*
G01X5051212Y1208400D01*
G01X5051212Y1128400D02*
G01X4991212Y1128400D01*
G01X5091212Y1128400D02*
G01X5151211Y1128400D01*

G04 Circle Start*
G54D17*
G01X3766630Y1261613D02*
G03X3796652Y1261613I15011J0D01*
G03X3766630Y1261613I-15011J0D01*
G01X2454640Y5622012D02*
G03X2484663Y5622012I15011J0D01*
G03X2454640Y5622012I-15011J0D01*
G54D18*
G01X3682987Y7363041D02*
G03X3742982Y7363041I29997J0D01*
G03X3682987Y7363041I-29997J0D01*
G54D11*
G01X8539574Y6891288D02*
G03X8550039Y6891288I5232J0D01*
G03X8539574Y6891288I-5232J0D01*
G54D17*
G01X6614389Y1371600D02*
G03X6644411Y1371600I15011J0D01*
G03X6614389Y1371600I-15011J0D01*
G04 Circle End*

M02*

