G04 Layer: BottomPasteMaskLayer*
G04 EasyEDA Pro v3.2.80, 2026-01-29 23:02:20*
G04 Gerber Generator version 0.3*
G04 Scale: 100 percent, Rotated: No, Reflected: No*
G04 Dimensions in millimeters*
G04 Leading zeros omitted, absolute positions, 4 integers and 5 decimals*
G04 Generated by one-click*
%FSLAX45Y45*%
%MOMM*%
%ADD10R,0.54X0.5*%
%ADD11R,0.9X0.8*%
%ADD12R,0.8X0.9*%
%ADD13R,2.2X0.8*%
%ADD14R,1.07201X0.532*%
%ADD15R,1.1675X0.48999*%
%ADD16R,1.157X0.48999*%
%ADD17R,1.175X0.48999*%
%ADD18R,0.6X1.1*%
%ADD19R,0.8X1.13*%
%ADD20R,0.7X1.13*%
%ADD21R,0.7X2.1*%
%ADD22R,1.6X0.7*%
%ADD23R,1.5X1.2*%
%ADD24R,2.2X1.2*%
%ADD25R,1.5X1.6*%
%ADD26O,0.63X1.865*%
%ADD27R,0.5X0.54*%
%ADD28R,0.5X0.78001*%
%ADD29R,0.45001X0.55001*%
G75*


G04 PolygonModel Start*
G36*
G01X945198Y5930400D02*
G01X945198Y6058398D01*
G01X940196Y6063399D01*
G01X825195Y6063399D01*
G01X820196Y6058398D01*
G01X819694Y6017395D01*
G01X864695Y6017395D01*
G01X864695Y5972396D01*
G01X820694Y5972396D01*
G01X820196Y5930400D01*
G01X825195Y5925398D01*
G01X940196Y5925398D01*
G01X945198Y5930400D01*
G37*
G36*
G01X604203Y6058400D02*
G01X604203Y5930402D01*
G01X609204Y5925401D01*
G01X724205Y5925401D01*
G01X729204Y5930402D01*
G01X729706Y5971405D01*
G01X684705Y5971405D01*
G01X684705Y6016404D01*
G01X728706Y6016404D01*
G01X729204Y6058400D01*
G01X724205Y6063402D01*
G01X609204Y6063402D01*
G01X604203Y6058400D01*
G37*
G36*
G01X3742792Y1387686D02*
G01X3788791Y1387686D01*
G01X3792792Y1391686D01*
G01X3792792Y1441750D01*
G01X3788791Y1445750D01*
G01X3742792Y1445750D01*
G01X3738791Y1441750D01*
G01X3738791Y1391686D01*
G01X3742792Y1387686D01*
G37*
G36*
G01X3742792Y1360686D02*
G01X3738791Y1356685D01*
G01X3738791Y1306622D01*
G01X3742792Y1302621D01*
G01X3788791Y1302621D01*
G01X3792792Y1306622D01*
G01X3792792Y1356685D01*
G01X3788791Y1360686D01*
G01X3742792Y1360686D01*
G37*
G36*
G01X3374492Y1250323D02*
G01X3420491Y1250323D01*
G01X3424492Y1254323D01*
G01X3424492Y1304387D01*
G01X3420491Y1308387D01*
G01X3374492Y1308387D01*
G01X3370491Y1304387D01*
G01X3370491Y1254323D01*
G01X3374492Y1250323D01*
G37*
G36*
G01X3374492Y1223322D02*
G01X3370491Y1219322D01*
G01X3370491Y1169259D01*
G01X3374492Y1165258D01*
G01X3420491Y1165258D01*
G01X3424492Y1169259D01*
G01X3424492Y1219322D01*
G01X3420491Y1223322D01*
G01X3374492Y1223322D01*
G37*
G36*
G01X3694900Y840600D02*
G01X3694900Y886600D01*
G01X3690899Y890600D01*
G01X3640836Y890600D01*
G01X3636836Y886600D01*
G01X3636836Y840600D01*
G01X3640836Y836600D01*
G01X3690899Y836600D01*
G01X3694900Y840600D01*
G37*
G36*
G01X3721900Y840600D02*
G01X3725901Y836600D01*
G01X3775964Y836600D01*
G01X3779965Y840600D01*
G01X3779965Y886600D01*
G01X3775964Y890600D01*
G01X3725901Y890600D01*
G01X3721900Y886600D01*
G01X3721900Y840600D01*
G37*
G36*
G01X3391700Y912000D02*
G01X3391700Y866000D01*
G01X3395701Y862000D01*
G01X3445764Y862000D01*
G01X3449765Y866000D01*
G01X3449765Y912000D01*
G01X3445764Y916000D01*
G01X3395701Y916000D01*
G01X3391700Y912000D01*
G37*
G36*
G01X3364700Y912000D02*
G01X3360699Y916000D01*
G01X3310636Y916000D01*
G01X3306636Y912000D01*
G01X3306636Y866000D01*
G01X3310636Y862000D01*
G01X3360699Y862000D01*
G01X3364700Y866000D01*
G01X3364700Y912000D01*
G37*
G36*
G01X1163198Y5874299D02*
G01X1158199Y5869297D01*
G01X1158199Y5789298D01*
G01X1163198Y5784299D01*
G01X1243198Y5784299D01*
G01X1248199Y5789298D01*
G01X1248199Y5813501D01*
G01X1211199Y5813501D01*
G01X1211199Y5846501D01*
G01X1248199Y5846501D01*
G01X1248199Y5869297D01*
G01X1243198Y5874299D01*
G01X1163198Y5874299D01*
G37*
G36*
G01X1402202Y5784301D02*
G01X1407201Y5789303D01*
G01X1407201Y5869302D01*
G01X1402202Y5874301D01*
G01X1322202Y5874301D01*
G01X1317201Y5869302D01*
G01X1317201Y5845099D01*
G01X1354201Y5845099D01*
G01X1354201Y5812099D01*
G01X1317201Y5812099D01*
G01X1317201Y5789303D01*
G01X1322202Y5784301D01*
G01X1402202Y5784301D01*
G37*
G36*
G01X1163198Y6026699D02*
G01X1158199Y6021697D01*
G01X1158199Y5941698D01*
G01X1163198Y5936699D01*
G01X1243198Y5936699D01*
G01X1248199Y5941698D01*
G01X1248199Y5965901D01*
G01X1211199Y5965901D01*
G01X1211199Y5998901D01*
G01X1248199Y5998901D01*
G01X1248199Y6021697D01*
G01X1243198Y6026699D01*
G01X1163198Y6026699D01*
G37*
G36*
G01X1402202Y5936701D02*
G01X1407201Y5941703D01*
G01X1407201Y6021702D01*
G01X1402202Y6026701D01*
G01X1322202Y6026701D01*
G01X1317201Y6021702D01*
G01X1317201Y5997499D01*
G01X1354201Y5997499D01*
G01X1354201Y5964499D01*
G01X1317201Y5964499D01*
G01X1317201Y5941703D01*
G01X1322202Y5936701D01*
G01X1402202Y5936701D01*
G37*
G36*
G01X3801366Y4277173D02*
G01X3847365Y4277173D01*
G01X3851366Y4281173D01*
G01X3851366Y4331237D01*
G01X3847365Y4335237D01*
G01X3801366Y4335237D01*
G01X3797365Y4331237D01*
G01X3797365Y4281173D01*
G01X3801366Y4277173D01*
G37*
G36*
G01X3801366Y4250173D02*
G01X3797365Y4246172D01*
G01X3797365Y4196109D01*
G01X3801366Y4192108D01*
G01X3847365Y4192108D01*
G01X3851366Y4196109D01*
G01X3851366Y4246172D01*
G01X3847365Y4250173D01*
G01X3801366Y4250173D01*
G37*
G36*
G01X3846122Y4861594D02*
G01X3800123Y4861594D01*
G01X3796122Y4857593D01*
G01X3796122Y4807530D01*
G01X3800123Y4803529D01*
G01X3846122Y4803529D01*
G01X3850123Y4807530D01*
G01X3850123Y4857593D01*
G01X3846122Y4861594D01*
G37*
G36*
G01X3846122Y4888594D02*
G01X3850123Y4892594D01*
G01X3850123Y4942658D01*
G01X3846122Y4946658D01*
G01X3800123Y4946658D01*
G01X3796122Y4942658D01*
G01X3796122Y4892594D01*
G01X3800123Y4888594D01*
G01X3846122Y4888594D01*
G37*
G36*
G01X5011298Y8033299D02*
G01X5006299Y8028297D01*
G01X5006299Y7948298D01*
G01X5011298Y7943299D01*
G01X5091298Y7943299D01*
G01X5096299Y7948298D01*
G01X5096299Y7972501D01*
G01X5059299Y7972501D01*
G01X5059299Y8005501D01*
G01X5096299Y8005501D01*
G01X5096299Y8028297D01*
G01X5091298Y8033299D01*
G01X5011298Y8033299D01*
G37*
G36*
G01X5250302Y7943301D02*
G01X5255301Y7948303D01*
G01X5255301Y8028302D01*
G01X5250302Y8033301D01*
G01X5170302Y8033301D01*
G01X5165301Y8028302D01*
G01X5165301Y8004099D01*
G01X5202301Y8004099D01*
G01X5202301Y7971099D01*
G01X5165301Y7971099D01*
G01X5165301Y7948303D01*
G01X5170302Y7943301D01*
G01X5250302Y7943301D01*
G37*
G36*
G01X5011298Y8189283D02*
G01X5006299Y8184282D01*
G01X5006299Y8104282D01*
G01X5011298Y8099283D01*
G01X5091298Y8099283D01*
G01X5096299Y8104282D01*
G01X5096299Y8128485D01*
G01X5059299Y8128485D01*
G01X5059299Y8161485D01*
G01X5096299Y8161485D01*
G01X5096299Y8184282D01*
G01X5091298Y8189283D01*
G01X5011298Y8189283D01*
G37*
G36*
G01X5250302Y8099286D02*
G01X5255301Y8104287D01*
G01X5255301Y8184287D01*
G01X5250302Y8189285D01*
G01X5170302Y8189285D01*
G01X5165301Y8184287D01*
G01X5165301Y8160083D01*
G01X5202301Y8160083D01*
G01X5202301Y8127083D01*
G01X5165301Y8127083D01*
G01X5165301Y8104287D01*
G01X5170302Y8099286D01*
G01X5250302Y8099286D01*
G37*
G36*
G01X3847365Y4427973D02*
G01X3801366Y4427973D01*
G01X3797365Y4423972D01*
G01X3797365Y4373909D01*
G01X3801366Y4369908D01*
G01X3847365Y4369908D01*
G01X3851366Y4373909D01*
G01X3851366Y4423972D01*
G01X3847365Y4427973D01*
G37*
G36*
G01X3847365Y4454973D02*
G01X3851366Y4458973D01*
G01X3851366Y4509037D01*
G01X3847365Y4513037D01*
G01X3801366Y4513037D01*
G01X3797365Y4509037D01*
G01X3797365Y4458973D01*
G01X3801366Y4454973D01*
G01X3847365Y4454973D01*
G37*
G36*
G01X3800123Y4687731D02*
G01X3846122Y4687731D01*
G01X3850123Y4691731D01*
G01X3850123Y4741795D01*
G01X3846122Y4745795D01*
G01X3800123Y4745795D01*
G01X3796122Y4741795D01*
G01X3796122Y4691731D01*
G01X3800123Y4687731D01*
G37*
G36*
G01X3800123Y4660731D02*
G01X3796122Y4656730D01*
G01X3796122Y4606667D01*
G01X3800123Y4602666D01*
G01X3846122Y4602666D01*
G01X3850123Y4606667D01*
G01X3850123Y4656730D01*
G01X3846122Y4660731D01*
G01X3800123Y4660731D01*
G37*
G36*
G01X5015700Y7012800D02*
G01X5015700Y7058800D01*
G01X5011699Y7062800D01*
G01X4961636Y7062800D01*
G01X4957636Y7058800D01*
G01X4957636Y7012800D01*
G01X4961636Y7008800D01*
G01X5011699Y7008800D01*
G01X5015700Y7012800D01*
G37*
G36*
G01X5042700Y7012800D02*
G01X5046701Y7008800D01*
G01X5096764Y7008800D01*
G01X5100765Y7012800D01*
G01X5100765Y7058800D01*
G01X5096764Y7062800D01*
G01X5046701Y7062800D01*
G01X5042700Y7058800D01*
G01X5042700Y7012800D01*
G37*
G36*
G01X5015700Y6784200D02*
G01X5015700Y6830200D01*
G01X5011699Y6834200D01*
G01X4961636Y6834200D01*
G01X4957636Y6830200D01*
G01X4957636Y6784200D01*
G01X4961636Y6780200D01*
G01X5011699Y6780200D01*
G01X5015700Y6784200D01*
G37*
G36*
G01X5042700Y6784200D02*
G01X5046701Y6780200D01*
G01X5096764Y6780200D01*
G01X5100765Y6784200D01*
G01X5100765Y6830200D01*
G01X5096764Y6834200D01*
G01X5046701Y6834200D01*
G01X5042700Y6830200D01*
G01X5042700Y6784200D01*
G37*
G36*
G01X5015700Y6898500D02*
G01X5015700Y6944500D01*
G01X5011699Y6948500D01*
G01X4961636Y6948500D01*
G01X4957636Y6944500D01*
G01X4957636Y6898500D01*
G01X4961636Y6894500D01*
G01X5011699Y6894500D01*
G01X5015700Y6898500D01*
G37*
G36*
G01X5042700Y6898500D02*
G01X5046701Y6894500D01*
G01X5096764Y6894500D01*
G01X5100765Y6898500D01*
G01X5100765Y6944500D01*
G01X5096764Y6948500D01*
G01X5046701Y6948500D01*
G01X5042700Y6944500D01*
G01X5042700Y6898500D01*
G37*
G36*
G01X8079600Y7824000D02*
G01X8125600Y7824000D01*
G01X8129600Y7828001D01*
G01X8129600Y7878064D01*
G01X8125600Y7882065D01*
G01X8079600Y7882065D01*
G01X8075600Y7878064D01*
G01X8075600Y7828001D01*
G01X8079600Y7824000D01*
G37*
G36*
G01X8079600Y7797000D02*
G01X8075600Y7792999D01*
G01X8075600Y7742936D01*
G01X8079600Y7738936D01*
G01X8125600Y7738936D01*
G01X8129600Y7742936D01*
G01X8129600Y7792999D01*
G01X8125600Y7797000D01*
G01X8079600Y7797000D01*
G37*
G36*
G01X4840260Y254800D02*
G01X4886259Y254800D01*
G01X4890260Y258801D01*
G01X4890260Y308864D01*
G01X4886259Y312865D01*
G01X4840260Y312865D01*
G01X4836259Y308864D01*
G01X4836259Y258801D01*
G01X4840260Y254800D01*
G37*
G36*
G01X4840260Y227800D02*
G01X4836259Y223799D01*
G01X4836259Y173736D01*
G01X4840260Y169736D01*
G01X4886259Y169736D01*
G01X4890260Y173736D01*
G01X4890260Y223799D01*
G01X4886259Y227800D01*
G01X4840260Y227800D01*
G37*
G36*
G01X5133200Y254800D02*
G01X5179200Y254800D01*
G01X5183200Y258801D01*
G01X5183200Y308864D01*
G01X5179200Y312865D01*
G01X5133200Y312865D01*
G01X5129200Y308864D01*
G01X5129200Y258801D01*
G01X5133200Y254800D01*
G37*
G36*
G01X5133200Y227800D02*
G01X5129200Y223799D01*
G01X5129200Y173736D01*
G01X5133200Y169736D01*
G01X5179200Y169736D01*
G01X5183200Y173736D01*
G01X5183200Y223799D01*
G01X5179200Y227800D01*
G01X5133200Y227800D01*
G37*
G36*
G01X9206700Y3431400D02*
G01X9206700Y3477400D01*
G01X9202699Y3481400D01*
G01X9152636Y3481400D01*
G01X9148636Y3477400D01*
G01X9148636Y3431400D01*
G01X9152636Y3427400D01*
G01X9202699Y3427400D01*
G01X9206700Y3431400D01*
G37*
G36*
G01X9233700Y3431400D02*
G01X9237701Y3427400D01*
G01X9287764Y3427400D01*
G01X9291765Y3431400D01*
G01X9291765Y3477400D01*
G01X9287764Y3481400D01*
G01X9237701Y3481400D01*
G01X9233700Y3477400D01*
G01X9233700Y3431400D01*
G37*
G36*
G01X9206700Y3329800D02*
G01X9206700Y3375800D01*
G01X9202699Y3379800D01*
G01X9152636Y3379800D01*
G01X9148636Y3375800D01*
G01X9148636Y3329800D01*
G01X9152636Y3325800D01*
G01X9202699Y3325800D01*
G01X9206700Y3329800D01*
G37*
G36*
G01X9233700Y3329800D02*
G01X9237701Y3325800D01*
G01X9287764Y3325800D01*
G01X9291765Y3329800D01*
G01X9291765Y3375800D01*
G01X9287764Y3379800D01*
G01X9237701Y3379800D01*
G01X9233700Y3375800D01*
G01X9233700Y3329800D01*
G37*
G36*
G01X7377900Y3444100D02*
G01X7377900Y3490100D01*
G01X7373899Y3494100D01*
G01X7323836Y3494100D01*
G01X7319836Y3490100D01*
G01X7319836Y3444100D01*
G01X7323836Y3440100D01*
G01X7373899Y3440100D01*
G01X7377900Y3444100D01*
G37*
G36*
G01X7404900Y3444100D02*
G01X7408901Y3440100D01*
G01X7458964Y3440100D01*
G01X7462965Y3444100D01*
G01X7462965Y3490100D01*
G01X7458964Y3494100D01*
G01X7408901Y3494100D01*
G01X7404900Y3490100D01*
G01X7404900Y3444100D01*
G37*
G36*
G01X8130400Y3696500D02*
G01X8176400Y3696500D01*
G01X8180400Y3700501D01*
G01X8180400Y3750564D01*
G01X8176400Y3754565D01*
G01X8130400Y3754565D01*
G01X8126400Y3750564D01*
G01X8126400Y3700501D01*
G01X8130400Y3696500D01*
G37*
G36*
G01X8130400Y3669500D02*
G01X8126400Y3665499D01*
G01X8126400Y3615436D01*
G01X8130400Y3611436D01*
G01X8176400Y3611436D01*
G01X8180400Y3615436D01*
G01X8180400Y3665499D01*
G01X8176400Y3669500D01*
G01X8130400Y3669500D01*
G37*
G36*
G01X7822400Y3444100D02*
G01X7822400Y3490100D01*
G01X7818399Y3494100D01*
G01X7768336Y3494100D01*
G01X7764336Y3490100D01*
G01X7764336Y3444100D01*
G01X7768336Y3440100D01*
G01X7818399Y3440100D01*
G01X7822400Y3444100D01*
G37*
G36*
G01X7849400Y3444100D02*
G01X7853401Y3440100D01*
G01X7903464Y3440100D01*
G01X7907465Y3444100D01*
G01X7907465Y3490100D01*
G01X7903464Y3494100D01*
G01X7853401Y3494100D01*
G01X7849400Y3490100D01*
G01X7849400Y3444100D01*
G37*
G36*
G01X7736700Y3836200D02*
G01X7782700Y3836200D01*
G01X7786700Y3840201D01*
G01X7786700Y3890264D01*
G01X7782700Y3894265D01*
G01X7736700Y3894265D01*
G01X7732700Y3890264D01*
G01X7732700Y3840201D01*
G01X7736700Y3836200D01*
G37*
G36*
G01X7736700Y3809200D02*
G01X7732700Y3805199D01*
G01X7732700Y3755136D01*
G01X7736700Y3751136D01*
G01X7782700Y3751136D01*
G01X7786700Y3755136D01*
G01X7786700Y3805199D01*
G01X7782700Y3809200D01*
G01X7736700Y3809200D01*
G37*
G36*
G01X7914500Y3836200D02*
G01X7960500Y3836200D01*
G01X7964500Y3840201D01*
G01X7964500Y3890264D01*
G01X7960500Y3894265D01*
G01X7914500Y3894265D01*
G01X7910500Y3890264D01*
G01X7910500Y3840201D01*
G01X7914500Y3836200D01*
G37*
G36*
G01X7914500Y3809200D02*
G01X7910500Y3805199D01*
G01X7910500Y3755136D01*
G01X7914500Y3751136D01*
G01X7960500Y3751136D01*
G01X7964500Y3755136D01*
G01X7964500Y3805199D01*
G01X7960500Y3809200D01*
G01X7914500Y3809200D01*
G37*
G36*
G01X9130500Y4879200D02*
G01X9130500Y4925200D01*
G01X9126499Y4929200D01*
G01X9076436Y4929200D01*
G01X9072436Y4925200D01*
G01X9072436Y4879200D01*
G01X9076436Y4875200D01*
G01X9126499Y4875200D01*
G01X9130500Y4879200D01*
G37*
G36*
G01X9157500Y4879200D02*
G01X9161501Y4875200D01*
G01X9211564Y4875200D01*
G01X9215565Y4879200D01*
G01X9215565Y4925200D01*
G01X9211564Y4929200D01*
G01X9161501Y4929200D01*
G01X9157500Y4925200D01*
G01X9157500Y4879200D01*
G37*
G36*
G01X7833500Y8508200D02*
G01X7787500Y8508200D01*
G01X7783500Y8504199D01*
G01X7783500Y8454136D01*
G01X7787500Y8450136D01*
G01X7833500Y8450136D01*
G01X7837500Y8454136D01*
G01X7837500Y8504199D01*
G01X7833500Y8508200D01*
G37*
G36*
G01X7833500Y8535200D02*
G01X7837500Y8539201D01*
G01X7837500Y8589264D01*
G01X7833500Y8593265D01*
G01X7787500Y8593265D01*
G01X7783500Y8589264D01*
G01X7783500Y8539201D01*
G01X7787500Y8535200D01*
G01X7833500Y8535200D01*
G37*
G36*
G01X7482700Y8535200D02*
G01X7528700Y8535200D01*
G01X7532700Y8539201D01*
G01X7532700Y8589264D01*
G01X7528700Y8593265D01*
G01X7482700Y8593265D01*
G01X7478700Y8589264D01*
G01X7478700Y8539201D01*
G01X7482700Y8535200D01*
G37*
G36*
G01X7482700Y8508200D02*
G01X7478700Y8504199D01*
G01X7478700Y8454136D01*
G01X7482700Y8450136D01*
G01X7528700Y8450136D01*
G01X7532700Y8454136D01*
G01X7532700Y8504199D01*
G01X7528700Y8508200D01*
G01X7482700Y8508200D01*
G37*
G36*
G01X7385850Y6619546D02*
G01X7385850Y6573547D01*
G01X7389851Y6569546D01*
G01X7439914Y6569546D01*
G01X7443915Y6573547D01*
G01X7443915Y6619546D01*
G01X7439914Y6623547D01*
G01X7389851Y6623547D01*
G01X7385850Y6619546D01*
G37*
G36*
G01X7358850Y6619546D02*
G01X7354849Y6623547D01*
G01X7304786Y6623547D01*
G01X7300786Y6619546D01*
G01X7300786Y6573547D01*
G01X7304786Y6569546D01*
G01X7354849Y6569546D01*
G01X7358850Y6573547D01*
G01X7358850Y6619546D01*
G37*
G36*
G01X7385850Y6505246D02*
G01X7385850Y6459247D01*
G01X7389851Y6455246D01*
G01X7439914Y6455246D01*
G01X7443915Y6459247D01*
G01X7443915Y6505246D01*
G01X7439914Y6509247D01*
G01X7389851Y6509247D01*
G01X7385850Y6505246D01*
G37*
G36*
G01X7358850Y6505246D02*
G01X7354849Y6509247D01*
G01X7304786Y6509247D01*
G01X7300786Y6505246D01*
G01X7300786Y6459247D01*
G01X7304786Y6455246D01*
G01X7354849Y6455246D01*
G01X7358850Y6459247D01*
G01X7358850Y6505246D01*
G37*
G36*
G01X6250800Y534200D02*
G01X6296800Y534200D01*
G01X6300800Y538201D01*
G01X6300800Y588264D01*
G01X6296800Y592265D01*
G01X6250800Y592265D01*
G01X6246800Y588264D01*
G01X6246800Y538201D01*
G01X6250800Y534200D01*
G37*
G36*
G01X6250800Y507200D02*
G01X6246800Y503199D01*
G01X6246800Y453136D01*
G01X6250800Y449136D01*
G01X6296800Y449136D01*
G01X6300800Y453136D01*
G01X6300800Y503199D01*
G01X6296800Y507200D01*
G01X6250800Y507200D01*
G37*
G36*
G01X6592197Y504899D02*
G01X6546197Y504899D01*
G01X6542197Y500898D01*
G01X6542197Y450835D01*
G01X6546197Y446835D01*
G01X6592197Y446835D01*
G01X6596197Y450835D01*
G01X6596197Y500898D01*
G01X6592197Y504899D01*
G37*
G36*
G01X6592197Y531899D02*
G01X6596197Y535900D01*
G01X6596197Y585963D01*
G01X6592197Y589964D01*
G01X6546197Y589964D01*
G01X6542197Y585963D01*
G01X6542197Y535900D01*
G01X6546197Y531899D01*
G01X6592197Y531899D01*
G37*

G04 Pad Start*
G54D10*
G01X3918191Y1332174D03*
G01X3918191Y1416197D03*
G54D11*
G01X2082800Y5568798D03*
G01X2082800Y5708802D03*
G01X2635455Y5707269D03*
G01X2635455Y5567264D03*
G54D12*
G01X641611Y5235154D03*
G01X501606Y5235154D03*
G54D13*
G01X717437Y5570743D03*
G01X717437Y5370743D03*
G54D14*
G01X3766401Y1189782D03*
G01X3766401Y1094786D03*
G01X3766401Y999790D03*
G01X3536582Y999790D03*
G01X3536582Y1094786D03*
G01X3536582Y1189782D03*
G54D16*
G01X2470718Y5551908D03*
G01X2470718Y5456912D03*
G01X2470718Y5361916D03*
G54D17*
G01X2239984Y5361916D03*
G01X2239984Y5551908D03*
G54D18*
G01X1067007Y5830397D03*
G01X877015Y5830397D03*
G01X877015Y5570377D03*
G01X972011Y5570377D03*
G01X1067007Y5570377D03*
G54D19*
G01X3707981Y7503046D03*
G01X3453981Y7503046D03*
G01X3199981Y7503046D03*
G54D20*
G01X3929977Y7503046D03*
G54D19*
G01X3834981Y7503046D03*
G01X3580981Y7503046D03*
G01X3326981Y7503046D03*
G54D21*
G01X3033001Y7654557D03*
G01X4332999Y7654557D03*
G01X3033001Y8854554D03*
G01X4332999Y8854554D03*
G54D22*
G01X8470004Y7744982D03*
G01X8470004Y7635000D03*
G01X8470004Y7524993D03*
G01X8470004Y7414986D03*
G01X8470004Y7305004D03*
G01X8470004Y7194996D03*
G01X8470004Y7084989D03*
G01X8470004Y6974981D03*
G01X8470004Y7854990D03*
G54D23*
G01X8570003Y7975005D03*
G54D24*
G01X9529996Y7975005D03*
G01X9529996Y6424995D03*
G54D25*
G01X8570003Y6514987D03*
G54D26*
G01X6629400Y1204951D03*
G01X6502400Y1204951D03*
G01X6375400Y1204951D03*
G01X6248400Y1204951D03*
G01X6629400Y1741449D03*
G01X6502400Y1741449D03*
G01X6375400Y1741449D03*
G01X6248400Y1741449D03*
G54D11*
G01X3682592Y4296284D03*
G01X3682592Y4156279D03*
G01X3683422Y4830491D03*
G01X3683422Y4970496D03*
G54D10*
G01X1652376Y2843051D03*
G01X1652376Y2759028D03*
G01X1766676Y2843051D03*
G01X1766676Y2759028D03*
G01X1880976Y2843051D03*
G01X1880976Y2759028D03*
G01X1538076Y2843051D03*
G01X1538076Y2759028D03*
G01X1474576Y4201951D03*
G01X1474576Y4117928D03*
G01X1588876Y4201951D03*
G01X1588876Y4117928D03*
G01X1703176Y4201951D03*
G01X1703176Y4117928D03*
G54D27*
G01X7467600Y4770473D03*
G01X7551623Y4770473D03*
G01X7467600Y4884773D03*
G01X7551623Y4884773D03*
G01X7467600Y4982312D03*
G01X7551623Y4982312D03*
G54D10*
G01X7467600Y5152288D03*
G01X7467600Y5236312D03*
G01X7696200Y5152288D03*
G01X7696200Y5236312D03*
G01X7581900Y5152288D03*
G01X7581900Y5236312D03*
G01X6946900Y4593488D03*
G01X6946900Y4677512D03*
G01X7061200Y4593488D03*
G01X7061200Y4677512D03*
G01X6845300Y4593488D03*
G01X6845300Y4677512D03*
G54D27*
G01X7467600Y4347312D03*
G01X7551623Y4347312D03*
G54D10*
G01X7099300Y4334612D03*
G01X7099300Y4250588D03*
G01X6934200Y5037988D03*
G01X6934200Y5122012D03*
G01X7035800Y4868012D03*
G01X7035800Y4783988D03*
G01X7035800Y5037988D03*
G01X7035800Y5122012D03*
G01X7137400Y5037988D03*
G01X7137400Y5122012D03*
G54D27*
G01X7461222Y4657536D03*
G01X7545245Y4657536D03*
G01X7461921Y4555936D03*
G01X7545944Y4555936D03*
G54D10*
G01X7188200Y4868012D03*
G01X7188200Y4783988D03*
G01X8271612Y3695700D03*
G01X8271612Y3779723D03*
G54D27*
G01X8650855Y3434389D03*
G01X8566832Y3434389D03*
G01X8652612Y2870200D03*
G01X8568588Y2870200D03*
G01X8650855Y3332789D03*
G01X8566832Y3332789D03*
G01X8566832Y3535989D03*
G01X8650855Y3535989D03*
G01X8566832Y3231189D03*
G01X8650855Y3231189D03*
G01X9262212Y3213100D03*
G01X9178188Y3213100D03*
G01X7985406Y3240620D03*
G01X8069429Y3240620D03*
G01X6790588Y4305300D03*
G01X6874612Y4305300D03*
G01X7235088Y4229100D03*
G01X7319112Y4229100D03*
G01X7463688Y4457700D03*
G01X7547712Y4457700D03*
G54D10*
G01X7166712Y4533900D03*
G01X7166712Y4617923D03*
G54D28*
G01X7239000Y3769512D03*
G01X7239000Y3977488D03*
G54D27*
G01X7814412Y7416800D03*
G01X7730388Y7416800D03*
G54D29*
G01X7526706Y7696200D03*
G01X7611694Y7696200D03*
G01X7526706Y7607300D03*
G01X7611694Y7607300D03*
G01X5312994Y1168400D03*
G01X5228006Y1168400D03*
G01X5028717Y1168400D03*
G01X5113706Y1168400D03*
G04 Pad End*

M02*

