G04 Layer: TopPasteMaskLayer*
G04 EasyEDA Pro v3.2.80, 2026-01-29 23:02:20*
G04 Gerber Generator version 0.3*
G04 Scale: 100 percent, Rotated: No, Reflected: No*
G04 Dimensions in millimeters*
G04 Leading zeros omitted, absolute positions, 4 integers and 5 decimals*
G04 Generated by one-click*
%FSLAX45Y45*%
%MOMM*%
%ADD10R,0.9X0.8*%
%ADD11R,0.54X0.5*%
%ADD12R,0.8X0.9*%
%ADD13R,1.0X2.0*%
%ADD14R,0.65001X0.45001*%
%ADD15R,1.1018X1.9*%
%ADD16R,1.1X1.9*%
%ADD17R,1.55001X0.3*%
%ADD18R,2.75001X1.2*%
%ADD19R,0.9X1.3*%
%ADD20R,0.8X1.3*%
%ADD21R,0.7X1.3*%
%ADD22R,2.2X1.0*%
%ADD23R,2.0X1.4*%
%ADD24C,0.28001*%
%ADD25R,0.5X0.54*%
%ADD26R,1.2X1.4*%
%ADD27R,1.2X0.95001*%
%ADD28R,1.8X1.0*%
%ADD29R,1.0X1.7*%
%ADD30R,0.8X1.4*%
%ADD31R,0.8X1.2*%
%ADD32R,1.85999X1.23*%
%ADD33R,0.55999X2.15801*%
%ADD34O,1.62001X0.28001*%
%ADD35R,0.8X0.8*%
%ADD36R,0.7X1.25001*%
G75*


G04 PolygonModel Start*
G36*
G01X4463098Y2223000D02*
G01X4463098Y2095002D01*
G01X4458096Y2090001D01*
G01X4343095Y2090001D01*
G01X4338096Y2095002D01*
G01X4337594Y2136005D01*
G01X4382595Y2136005D01*
G01X4382595Y2181004D01*
G01X4338594Y2181004D01*
G01X4338096Y2223000D01*
G01X4343095Y2228002D01*
G01X4458096Y2228002D01*
G01X4463098Y2223000D01*
G37*
G36*
G01X4122103Y2095000D02*
G01X4122103Y2222998D01*
G01X4127104Y2227999D01*
G01X4242105Y2227999D01*
G01X4247104Y2222998D01*
G01X4247606Y2181995D01*
G01X4202605Y2181995D01*
G01X4202605Y2136996D01*
G01X4246606Y2136996D01*
G01X4247104Y2095000D01*
G01X4242105Y2089998D01*
G01X4127104Y2089998D01*
G01X4122103Y2095000D01*
G37*
G36*
G01X4580801Y1701599D02*
G01X4580801Y1738625D01*
G01X4590801Y1748625D01*
G01X4621291Y1748625D01*
G01X4631291Y1758625D01*
G01X4631291Y1797375D01*
G01X4621291Y1807375D01*
G01X4590801Y1807375D01*
G01X4580801Y1817375D01*
G01X4580801Y1854401D01*
G01X4590801Y1864401D01*
G01X4719300Y1864401D01*
G01X4729300Y1854401D01*
G01X4729300Y1701599D01*
G01X4719300Y1691599D01*
G01X4590801Y1691599D01*
G01X4580801Y1701599D01*
G37*
G36*
G01X4410799Y1701599D02*
G01X4400799Y1691599D01*
G01X4272300Y1691599D01*
G01X4262300Y1701599D01*
G01X4262300Y1854401D01*
G01X4272300Y1864401D01*
G01X4400799Y1864401D01*
G01X4410799Y1854401D01*
G01X4410799Y1817375D01*
G01X4400799Y1807375D01*
G01X4370309Y1807375D01*
G01X4360309Y1797375D01*
G01X4360309Y1758625D01*
G01X4370309Y1748625D01*
G01X4400799Y1748625D01*
G01X4410799Y1738625D01*
G01X4410799Y1701599D01*
G37*
G36*
G01X3387540Y3128751D02*
G01X3387540Y3000753D01*
G01X3382539Y2995752D01*
G01X3267538Y2995752D01*
G01X3262539Y3000753D01*
G01X3262036Y3041756D01*
G01X3307037Y3041756D01*
G01X3307037Y3086755D01*
G01X3263037Y3086755D01*
G01X3262539Y3128751D01*
G01X3267538Y3133753D01*
G01X3382539Y3133753D01*
G01X3387540Y3128751D01*
G37*
G36*
G01X3046545Y3000751D02*
G01X3046545Y3128749D01*
G01X3051546Y3133750D01*
G01X3166547Y3133750D01*
G01X3171546Y3128749D01*
G01X3172049Y3087746D01*
G01X3127048Y3087746D01*
G01X3127048Y3042747D01*
G01X3171048Y3042747D01*
G01X3171546Y3000751D01*
G01X3166547Y2995749D01*
G01X3051546Y2995749D01*
G01X3046545Y3000751D01*
G37*
G36*
G01X3479843Y2632750D02*
G01X3479843Y2669776D01*
G01X3489843Y2679776D01*
G01X3520334Y2679776D01*
G01X3530334Y2689776D01*
G01X3530334Y2728526D01*
G01X3520334Y2738526D01*
G01X3489843Y2738526D01*
G01X3479843Y2748526D01*
G01X3479843Y2785552D01*
G01X3489843Y2795552D01*
G01X3618342Y2795552D01*
G01X3628342Y2785552D01*
G01X3628342Y2632750D01*
G01X3618342Y2622750D01*
G01X3489843Y2622750D01*
G01X3479843Y2632750D01*
G37*
G36*
G01X3309841Y2632750D02*
G01X3299841Y2622750D01*
G01X3171343Y2622750D01*
G01X3161343Y2632750D01*
G01X3161343Y2785552D01*
G01X3171343Y2795552D01*
G01X3299841Y2795552D01*
G01X3309841Y2785552D01*
G01X3309841Y2748526D01*
G01X3299841Y2738526D01*
G01X3269351Y2738526D01*
G01X3259351Y2728526D01*
G01X3259351Y2689776D01*
G01X3269351Y2679776D01*
G01X3299841Y2679776D01*
G01X3309841Y2669776D01*
G01X3309841Y2632750D01*
G37*
G36*
G01X3579800Y2018602D02*
G01X3574801Y2023603D01*
G01X3574801Y2103603D01*
G01X3579800Y2108601D01*
G01X3659800Y2108601D01*
G01X3664801Y2103603D01*
G01X3664801Y2079399D01*
G01X3627801Y2079399D01*
G01X3627801Y2046399D01*
G01X3664801Y2046399D01*
G01X3664801Y2023603D01*
G01X3659800Y2018602D01*
G01X3579800Y2018602D01*
G37*
G36*
G01X3818804Y2108599D02*
G01X3823802Y2103598D01*
G01X3823802Y2023598D01*
G01X3818804Y2018599D01*
G01X3738804Y2018599D01*
G01X3733803Y2023598D01*
G01X3733803Y2047801D01*
G01X3770803Y2047801D01*
G01X3770803Y2080801D01*
G01X3733803Y2080801D01*
G01X3733803Y2103598D01*
G01X3738804Y2108599D01*
G01X3818804Y2108599D01*
G37*
G36*
G01X3818804Y1956199D02*
G01X3823802Y1951198D01*
G01X3823802Y1871198D01*
G01X3818804Y1866199D01*
G01X3738804Y1866199D01*
G01X3733803Y1871198D01*
G01X3733803Y1895401D01*
G01X3770803Y1895401D01*
G01X3770803Y1928401D01*
G01X3733803Y1928401D01*
G01X3733803Y1951198D01*
G01X3738804Y1956199D01*
G01X3818804Y1956199D01*
G37*
G36*
G01X3579800Y1866202D02*
G01X3574801Y1871203D01*
G01X3574801Y1951203D01*
G01X3579800Y1956201D01*
G01X3659800Y1956201D01*
G01X3664801Y1951203D01*
G01X3664801Y1926999D01*
G01X3627801Y1926999D01*
G01X3627801Y1893999D01*
G01X3664801Y1893999D01*
G01X3664801Y1871203D01*
G01X3659800Y1866202D01*
G01X3579800Y1866202D01*
G37*
G36*
G01X2500640Y2943552D02*
G01X2495642Y2948554D01*
G01X2495642Y3028554D01*
G01X2500640Y3033552D01*
G01X2580640Y3033552D01*
G01X2585642Y3028554D01*
G01X2585642Y3004350D01*
G01X2548641Y3004350D01*
G01X2548641Y2971350D01*
G01X2585642Y2971350D01*
G01X2585642Y2948554D01*
G01X2580640Y2943552D01*
G01X2500640Y2943552D01*
G37*
G36*
G01X2739644Y3033550D02*
G01X2744643Y3028548D01*
G01X2744643Y2948549D01*
G01X2739644Y2943550D01*
G01X2659644Y2943550D01*
G01X2654643Y2948549D01*
G01X2654643Y2972752D01*
G01X2691643Y2972752D01*
G01X2691643Y3005752D01*
G01X2654643Y3005752D01*
G01X2654643Y3028548D01*
G01X2659644Y3033550D01*
G01X2739644Y3033550D01*
G37*
G36*
G01X2739644Y2881150D02*
G01X2744643Y2876148D01*
G01X2744643Y2796149D01*
G01X2739644Y2791150D01*
G01X2659644Y2791150D01*
G01X2654643Y2796149D01*
G01X2654643Y2820352D01*
G01X2691643Y2820352D01*
G01X2691643Y2853352D01*
G01X2654643Y2853352D01*
G01X2654643Y2876148D01*
G01X2659644Y2881150D01*
G01X2739644Y2881150D01*
G37*
G36*
G01X2500640Y2791152D02*
G01X2495642Y2796154D01*
G01X2495642Y2876154D01*
G01X2500640Y2881152D01*
G01X2580640Y2881152D01*
G01X2585642Y2876154D01*
G01X2585642Y2851950D01*
G01X2548641Y2851950D01*
G01X2548641Y2818950D01*
G01X2585642Y2818950D01*
G01X2585642Y2796154D01*
G01X2580640Y2791152D01*
G01X2500640Y2791152D01*
G37*
G36*
G01X5507786Y4662562D02*
G01X5461786Y4662562D01*
G01X5457786Y4666563D01*
G01X5457786Y4716626D01*
G01X5461786Y4720627D01*
G01X5507786Y4720627D01*
G01X5511786Y4716626D01*
G01X5511786Y4666563D01*
G01X5507786Y4662562D01*
G37*
G36*
G01X5507786Y4635562D02*
G01X5511786Y4631561D01*
G01X5511786Y4581498D01*
G01X5507786Y4577498D01*
G01X5461786Y4577498D01*
G01X5457786Y4581498D01*
G01X5457786Y4631561D01*
G01X5461786Y4635562D01*
G01X5507786Y4635562D01*
G37*
G36*
G01X5461786Y4231801D02*
G01X5507786Y4231801D01*
G01X5511786Y4227801D01*
G01X5511786Y4177737D01*
G01X5507786Y4173737D01*
G01X5461786Y4173737D01*
G01X5457786Y4177737D01*
G01X5457786Y4227801D01*
G01X5461786Y4231801D01*
G37*
G36*
G01X5461786Y4258801D02*
G01X5457786Y4262802D01*
G01X5457786Y4312865D01*
G01X5461786Y4316866D01*
G01X5507786Y4316866D01*
G01X5511786Y4312865D01*
G01X5511786Y4262802D01*
G01X5507786Y4258801D01*
G01X5461786Y4258801D01*
G37*
G36*
G01X5461786Y4435090D02*
G01X5507786Y4435090D01*
G01X5511786Y4431090D01*
G01X5511786Y4381026D01*
G01X5507786Y4377026D01*
G01X5461786Y4377026D01*
G01X5457786Y4381026D01*
G01X5457786Y4431090D01*
G01X5461786Y4435090D01*
G37*
G36*
G01X5461786Y4462090D02*
G01X5457786Y4466091D01*
G01X5457786Y4516154D01*
G01X5461786Y4520155D01*
G01X5507786Y4520155D01*
G01X5511786Y4516154D01*
G01X5511786Y4466091D01*
G01X5507786Y4462090D01*
G01X5461786Y4462090D01*
G37*
G36*
G01X4428286Y4840362D02*
G01X4382286Y4840362D01*
G01X4378286Y4844363D01*
G01X4378286Y4894426D01*
G01X4382286Y4898427D01*
G01X4428286Y4898427D01*
G01X4432286Y4894426D01*
G01X4432286Y4844363D01*
G01X4428286Y4840362D01*
G37*
G36*
G01X4428286Y4813362D02*
G01X4432286Y4809361D01*
G01X4432286Y4759298D01*
G01X4428286Y4755298D01*
G01X4382286Y4755298D01*
G01X4378286Y4759298D01*
G01X4378286Y4809361D01*
G01X4382286Y4813362D01*
G01X4428286Y4813362D01*
G37*
G36*
G01X4428286Y4637162D02*
G01X4382286Y4637162D01*
G01X4378286Y4641163D01*
G01X4378286Y4691226D01*
G01X4382286Y4695227D01*
G01X4428286Y4695227D01*
G01X4432286Y4691226D01*
G01X4432286Y4641163D01*
G01X4428286Y4637162D01*
G37*
G36*
G01X4428286Y4610162D02*
G01X4432286Y4606161D01*
G01X4432286Y4556098D01*
G01X4428286Y4552098D01*
G01X4382286Y4552098D01*
G01X4378286Y4556098D01*
G01X4378286Y4606161D01*
G01X4382286Y4610162D01*
G01X4428286Y4610162D01*
G37*
G36*
G01X4428286Y4433962D02*
G01X4382286Y4433962D01*
G01X4378286Y4437963D01*
G01X4378286Y4488026D01*
G01X4382286Y4492027D01*
G01X4428286Y4492027D01*
G01X4432286Y4488026D01*
G01X4432286Y4437963D01*
G01X4428286Y4433962D01*
G37*
G36*
G01X4428286Y4406962D02*
G01X4432286Y4402961D01*
G01X4432286Y4352898D01*
G01X4428286Y4348898D01*
G01X4382286Y4348898D01*
G01X4378286Y4352898D01*
G01X4378286Y4402961D01*
G01X4382286Y4406962D01*
G01X4428286Y4406962D01*
G37*
G36*
G01X4382286Y4203762D02*
G01X4428286Y4203762D01*
G01X4432286Y4199761D01*
G01X4432286Y4149698D01*
G01X4428286Y4145698D01*
G01X4382286Y4145698D01*
G01X4378286Y4149698D01*
G01X4378286Y4199761D01*
G01X4382286Y4203762D01*
G37*
G36*
G01X4382286Y4230762D02*
G01X4378286Y4234763D01*
G01X4378286Y4284826D01*
G01X4382286Y4288827D01*
G01X4428286Y4288827D01*
G01X4432286Y4284826D01*
G01X4432286Y4234763D01*
G01X4428286Y4230762D01*
G01X4382286Y4230762D01*
G37*
G36*
G01X4835001Y4634173D02*
G01X5030997Y4634173D01*
G01X5030997Y4438174D01*
G01X4835001Y4438174D01*
G01X4835001Y4634173D01*
G37*
G36*
G01X4712999Y4673680D02*
G01X4772999Y4673680D01*
G01X4772999Y4648681D01*
G01X4712999Y4648681D01*
G01X4712999Y4673680D01*
G37*
G36*
G01X4712999Y4623693D02*
G01X4772999Y4623693D01*
G01X4772999Y4598694D01*
G01X4712999Y4598694D01*
G01X4712999Y4623693D01*
G37*
G36*
G01X4712999Y4573680D02*
G01X4772999Y4573680D01*
G01X4772999Y4548682D01*
G01X4712999Y4548682D01*
G01X4712999Y4573680D01*
G37*
G36*
G01X4712999Y4523693D02*
G01X4772999Y4523693D01*
G01X4772999Y4498694D01*
G01X4712999Y4498694D01*
G01X4712999Y4523693D01*
G37*
G36*
G01X4712999Y4473680D02*
G01X4772999Y4473680D01*
G01X4772999Y4448682D01*
G01X4712999Y4448682D01*
G01X4712999Y4473680D01*
G37*
G36*
G01X4712999Y4423693D02*
G01X4772999Y4423693D01*
G01X4772999Y4398695D01*
G01X4712999Y4398695D01*
G01X4712999Y4423693D01*
G37*
G36*
G01X4795481Y4376175D02*
G01X4820480Y4376175D01*
G01X4820480Y4316175D01*
G01X4795481Y4316175D01*
G01X4795481Y4376175D01*
G37*
G36*
G01X4845468Y4376175D02*
G01X4870467Y4376175D01*
G01X4870467Y4316175D01*
G01X4845468Y4316175D01*
G01X4845468Y4376175D01*
G37*
G36*
G01X4895481Y4376175D02*
G01X4920479Y4376175D01*
G01X4920479Y4316175D01*
G01X4895481Y4316175D01*
G01X4895481Y4376175D01*
G37*
G36*
G01X4945468Y4376175D02*
G01X4970467Y4376175D01*
G01X4970467Y4316175D01*
G01X4945468Y4316175D01*
G01X4945468Y4376175D01*
G37*
G36*
G01X4995480Y4376175D02*
G01X5020479Y4376175D01*
G01X5020479Y4316175D01*
G01X4995480Y4316175D01*
G01X4995480Y4376175D01*
G37*
G36*
G01X5045468Y4376175D02*
G01X5070466Y4376175D01*
G01X5070466Y4316175D01*
G01X5045468Y4316175D01*
G01X5045468Y4376175D01*
G37*
G36*
G01X5092999Y4423668D02*
G01X5152999Y4423668D01*
G01X5152999Y4398669D01*
G01X5092999Y4398669D01*
G01X5092999Y4423668D01*
G37*
G36*
G01X5092999Y4473680D02*
G01X5152999Y4473680D01*
G01X5152999Y4448682D01*
G01X5092999Y4448682D01*
G01X5092999Y4473680D01*
G37*
G36*
G01X5092999Y4523668D02*
G01X5152999Y4523668D01*
G01X5152999Y4498669D01*
G01X5092999Y4498669D01*
G01X5092999Y4523668D01*
G37*
G36*
G01X5092999Y4573680D02*
G01X5152999Y4573680D01*
G01X5152999Y4548682D01*
G01X5092999Y4548682D01*
G01X5092999Y4573680D01*
G37*
G36*
G01X5092999Y4623667D02*
G01X5152999Y4623667D01*
G01X5152999Y4598669D01*
G01X5092999Y4598669D01*
G01X5092999Y4623667D01*
G37*
G36*
G01X5092999Y4673680D02*
G01X5152999Y4673680D01*
G01X5152999Y4648681D01*
G01X5092999Y4648681D01*
G01X5092999Y4673680D01*
G37*
G36*
G01X5045468Y4756174D02*
G01X5070466Y4756174D01*
G01X5070466Y4696174D01*
G01X5045468Y4696174D01*
G01X5045468Y4756174D01*
G37*
G36*
G01X4995480Y4756174D02*
G01X5020479Y4756174D01*
G01X5020479Y4696174D01*
G01X4995480Y4696174D01*
G01X4995480Y4756174D01*
G37*
G36*
G01X4945468Y4756174D02*
G01X4970467Y4756174D01*
G01X4970467Y4696174D01*
G01X4945468Y4696174D01*
G01X4945468Y4756174D01*
G37*
G36*
G01X4895481Y4756174D02*
G01X4920479Y4756174D01*
G01X4920479Y4696174D01*
G01X4895481Y4696174D01*
G01X4895481Y4756174D01*
G37*
G36*
G01X4845468Y4756174D02*
G01X4870467Y4756174D01*
G01X4870467Y4696174D01*
G01X4845468Y4696174D01*
G01X4845468Y4756174D01*
G37*
G36*
G01X4795481Y4756174D02*
G01X4820480Y4756174D01*
G01X4820480Y4696174D01*
G01X4795481Y4696174D01*
G01X4795481Y4756174D01*
G37*
G36*
G01X1947465Y3269037D02*
G01X1947465Y3289037D01*
G01X2013965Y3289037D01*
G01X2013965Y3269037D01*
G01X1947465Y3269037D01*
G37*
G36*
G01X2013965Y3329017D02*
G01X2013965Y3309017D01*
G01X1947465Y3309017D01*
G01X1947465Y3329017D01*
G01X2013965Y3329017D01*
G37*
G36*
G01X1947465Y3709016D02*
G01X1947465Y3729016D01*
G01X2013965Y3729016D01*
G01X2013965Y3709016D01*
G01X1947465Y3709016D01*
G37*
G36*
G01X1947465Y3669037D02*
G01X1947465Y3689037D01*
G01X2013965Y3689037D01*
G01X2013965Y3669037D01*
G01X1947465Y3669037D01*
G37*
G36*
G01X1947465Y3629032D02*
G01X1947465Y3649032D01*
G01X2013965Y3649032D01*
G01X2013965Y3629032D01*
G01X1947465Y3629032D01*
G37*
G36*
G01X2013965Y3369022D02*
G01X2013965Y3349022D01*
G01X1947465Y3349022D01*
G01X1947465Y3369022D01*
G01X2013965Y3369022D01*
G37*
G36*
G01X1947465Y3589027D02*
G01X1947465Y3609027D01*
G01X2013965Y3609027D01*
G01X2013965Y3589027D01*
G01X1947465Y3589027D01*
G37*
G36*
G01X1947465Y3549022D02*
G01X1947465Y3569022D01*
G01X2013965Y3569022D01*
G01X2013965Y3549022D01*
G01X1947465Y3549022D01*
G37*
G36*
G01X1947465Y3509017D02*
G01X1947465Y3529017D01*
G01X2013965Y3529017D01*
G01X2013965Y3509017D01*
G01X1947465Y3509017D01*
G37*
G36*
G01X2013965Y3409027D02*
G01X2013965Y3389027D01*
G01X1947465Y3389027D01*
G01X1947465Y3409027D01*
G01X2013965Y3409027D01*
G37*
G36*
G01X1947465Y3469037D02*
G01X1947465Y3489037D01*
G01X2013965Y3489037D01*
G01X2013965Y3469037D01*
G01X1947465Y3469037D01*
G37*
G36*
G01X1947465Y3429032D02*
G01X1947465Y3449032D01*
G01X2013965Y3449032D01*
G01X2013965Y3429032D01*
G01X1947465Y3429032D01*
G37*
G36*
G01X1919952Y3823029D02*
G01X1919952Y3756529D01*
G01X1899952Y3756529D01*
G01X1899952Y3823029D01*
G01X1919952Y3823029D01*
G37*
G36*
G01X1899952Y3175022D02*
G01X1899952Y3241522D01*
G01X1919952Y3241522D01*
G01X1919952Y3175022D01*
G01X1899952Y3175022D01*
G37*
G36*
G01X1509963Y3319027D02*
G01X1509963Y3679026D01*
G01X1869962Y3679026D01*
G01X1869962Y3319027D01*
G01X1509963Y3319027D01*
G37*
G36*
G01X1879972Y3823029D02*
G01X1879972Y3756529D01*
G01X1859972Y3756529D01*
G01X1859972Y3823029D01*
G01X1879972Y3823029D01*
G37*
G36*
G01X1859972Y3175022D02*
G01X1859972Y3241522D01*
G01X1879972Y3241522D01*
G01X1879972Y3175022D01*
G01X1859972Y3175022D01*
G37*
G36*
G01X1839967Y3823029D02*
G01X1839967Y3756529D01*
G01X1819967Y3756529D01*
G01X1819967Y3823029D01*
G01X1839967Y3823029D01*
G37*
G36*
G01X1819967Y3175022D02*
G01X1819967Y3241522D01*
G01X1839967Y3241522D01*
G01X1839967Y3175022D01*
G01X1819967Y3175022D01*
G37*
G36*
G01X1799962Y3823029D02*
G01X1799962Y3756529D01*
G01X1779962Y3756529D01*
G01X1779962Y3823029D01*
G01X1799962Y3823029D01*
G37*
G36*
G01X1779962Y3175022D02*
G01X1779962Y3241522D01*
G01X1799962Y3241522D01*
G01X1799962Y3175022D01*
G01X1779962Y3175022D01*
G37*
G36*
G01X1759957Y3823029D02*
G01X1759957Y3756529D01*
G01X1739957Y3756529D01*
G01X1739957Y3823029D01*
G01X1759957Y3823029D01*
G37*
G36*
G01X1739957Y3175022D02*
G01X1739957Y3241522D01*
G01X1759957Y3241522D01*
G01X1759957Y3175022D01*
G01X1739957Y3175022D01*
G37*
G36*
G01X1719952Y3823029D02*
G01X1719952Y3756529D01*
G01X1699952Y3756529D01*
G01X1699952Y3823029D01*
G01X1719952Y3823029D01*
G37*
G36*
G01X1699952Y3175022D02*
G01X1699952Y3241522D01*
G01X1719952Y3241522D01*
G01X1719952Y3175022D01*
G01X1699952Y3175022D01*
G37*
G36*
G01X1659973Y3756529D02*
G01X1659973Y3823029D01*
G01X1679973Y3823029D01*
G01X1679973Y3756529D01*
G01X1659973Y3756529D01*
G37*
G36*
G01X1659973Y3175022D02*
G01X1659973Y3241522D01*
G01X1679973Y3241522D01*
G01X1679973Y3175022D01*
G01X1659973Y3175022D01*
G37*
G36*
G01X1639968Y3823029D02*
G01X1639968Y3756529D01*
G01X1619968Y3756529D01*
G01X1619968Y3823029D01*
G01X1639968Y3823029D01*
G37*
G36*
G01X1619968Y3175022D02*
G01X1619968Y3241522D01*
G01X1639968Y3241522D01*
G01X1639968Y3175022D01*
G01X1619968Y3175022D01*
G37*
G36*
G01X1599963Y3823029D02*
G01X1599963Y3756529D01*
G01X1579963Y3756529D01*
G01X1579963Y3823029D01*
G01X1599963Y3823029D01*
G37*
G36*
G01X1579963Y3175022D02*
G01X1579963Y3241522D01*
G01X1599963Y3241522D01*
G01X1599963Y3175022D01*
G01X1579963Y3175022D01*
G37*
G36*
G01X1559958Y3823029D02*
G01X1559958Y3756529D01*
G01X1539958Y3756529D01*
G01X1539958Y3823029D01*
G01X1559958Y3823029D01*
G37*
G36*
G01X1539958Y3175022D02*
G01X1539958Y3241522D01*
G01X1559958Y3241522D01*
G01X1559958Y3175022D01*
G01X1539958Y3175022D01*
G37*
G36*
G01X1519953Y3823029D02*
G01X1519953Y3756529D01*
G01X1499953Y3756529D01*
G01X1499953Y3823029D01*
G01X1519953Y3823029D01*
G37*
G36*
G01X1499953Y3175022D02*
G01X1499953Y3241522D01*
G01X1519953Y3241522D01*
G01X1519953Y3175022D01*
G01X1499953Y3175022D01*
G37*
G36*
G01X1479973Y3823029D02*
G01X1479973Y3756529D01*
G01X1459973Y3756529D01*
G01X1459973Y3823029D01*
G01X1479973Y3823029D01*
G37*
G36*
G01X1479973Y3241522D02*
G01X1479973Y3175022D01*
G01X1459973Y3175022D01*
G01X1459973Y3241522D01*
G01X1479973Y3241522D01*
G37*
G36*
G01X1365958Y3269037D02*
G01X1365958Y3289037D01*
G01X1432457Y3289037D01*
G01X1432457Y3269037D01*
G01X1365958Y3269037D01*
G37*
G36*
G01X1432457Y3729016D02*
G01X1432457Y3709016D01*
G01X1365958Y3709016D01*
G01X1365958Y3729016D01*
G01X1432457Y3729016D01*
G37*
G36*
G01X1365958Y3309017D02*
G01X1365958Y3329017D01*
G01X1432457Y3329017D01*
G01X1432457Y3309017D01*
G01X1365958Y3309017D01*
G37*
G36*
G01X1365958Y3349022D02*
G01X1365958Y3369022D01*
G01X1432457Y3369022D01*
G01X1432457Y3349022D01*
G01X1365958Y3349022D01*
G37*
G36*
G01X1365958Y3389027D02*
G01X1365958Y3409027D01*
G01X1432457Y3409027D01*
G01X1432457Y3389027D01*
G01X1365958Y3389027D01*
G37*
G36*
G01X1432457Y3689037D02*
G01X1432457Y3669037D01*
G01X1365958Y3669037D01*
G01X1365958Y3689037D01*
G01X1432457Y3689037D01*
G37*
G36*
G01X1365958Y3429032D02*
G01X1365958Y3449032D01*
G01X1432457Y3449032D01*
G01X1432457Y3429032D01*
G01X1365958Y3429032D01*
G37*
G36*
G01X1365958Y3469037D02*
G01X1365958Y3489037D01*
G01X1432457Y3489037D01*
G01X1432457Y3469037D01*
G01X1365958Y3469037D01*
G37*
G36*
G01X1365958Y3509017D02*
G01X1365958Y3529017D01*
G01X1432457Y3529017D01*
G01X1432457Y3509017D01*
G01X1365958Y3509017D01*
G37*
G36*
G01X1432457Y3649032D02*
G01X1432457Y3629032D01*
G01X1365958Y3629032D01*
G01X1365958Y3649032D01*
G01X1432457Y3649032D01*
G37*
G36*
G01X1365958Y3549022D02*
G01X1365958Y3569022D01*
G01X1432457Y3569022D01*
G01X1432457Y3549022D01*
G01X1365958Y3549022D01*
G37*
G36*
G01X1365958Y3589027D02*
G01X1365958Y3609027D01*
G01X1432457Y3609027D01*
G01X1432457Y3589027D01*
G01X1365958Y3589027D01*
G37*
G36*
G01X8365385Y3234197D02*
G01X8365385Y3530199D01*
G01X8661387Y3530199D01*
G01X8661387Y3234197D01*
G01X8365385Y3234197D01*
G37*
G36*
G01X8343376Y3172262D02*
G01X8343376Y3092262D01*
G01X8323376Y3092262D01*
G01X8323376Y3172262D01*
G01X8343376Y3172262D01*
G37*
G36*
G01X8383381Y3172265D02*
G01X8383381Y3092262D01*
G01X8363381Y3092262D01*
G01X8363381Y3172265D01*
G01X8383381Y3172265D01*
G37*
G36*
G01X8423386Y3172270D02*
G01X8423386Y3092262D01*
G01X8403386Y3092262D01*
G01X8403386Y3172270D01*
G01X8423386Y3172270D01*
G37*
G36*
G01X8463396Y3172265D02*
G01X8463396Y3092265D01*
G01X8443396Y3092265D01*
G01X8443396Y3172265D01*
G01X8463396Y3172265D01*
G37*
G36*
G01X8503396Y3172265D02*
G01X8503396Y3092262D01*
G01X8483396Y3092262D01*
G01X8483396Y3172265D01*
G01X8503396Y3172265D01*
G37*
G36*
G01X8543381Y3172262D02*
G01X8543381Y3092262D01*
G01X8523381Y3092262D01*
G01X8523381Y3172262D01*
G01X8543381Y3172262D01*
G37*
G36*
G01X8583381Y3172270D02*
G01X8583381Y3092265D01*
G01X8563381Y3092265D01*
G01X8563381Y3172270D01*
G01X8583381Y3172270D01*
G37*
G36*
G01X8623386Y3172262D02*
G01X8623386Y3092262D01*
G01X8603386Y3092262D01*
G01X8603386Y3172262D01*
G01X8623386Y3172262D01*
G37*
G36*
G01X8663391Y3172262D02*
G01X8663391Y3092262D01*
G01X8643391Y3092262D01*
G01X8643391Y3172262D01*
G01X8663391Y3172262D01*
G37*
G36*
G01X8703398Y3172262D02*
G01X8703398Y3092262D01*
G01X8683398Y3092262D01*
G01X8683398Y3172262D01*
G01X8703398Y3172262D01*
G37*
G36*
G01X8703398Y3672137D02*
G01X8703398Y3592134D01*
G01X8683398Y3592134D01*
G01X8683398Y3672137D01*
G01X8703398Y3672137D01*
G37*
G36*
G01X8663391Y3672137D02*
G01X8663391Y3592134D01*
G01X8643391Y3592134D01*
G01X8643391Y3672137D01*
G01X8663391Y3672137D01*
G37*
G36*
G01X8623386Y3672137D02*
G01X8623386Y3592134D01*
G01X8603386Y3592134D01*
G01X8603386Y3672137D01*
G01X8623386Y3672137D01*
G37*
G36*
G01X8583381Y3672142D02*
G01X8583381Y3592137D01*
G01X8563381Y3592137D01*
G01X8563381Y3672142D01*
G01X8583381Y3672142D01*
G37*
G36*
G01X8543381Y3672137D02*
G01X8543381Y3592134D01*
G01X8523381Y3592134D01*
G01X8523381Y3672137D01*
G01X8543381Y3672137D01*
G37*
G36*
G01X8503396Y3672137D02*
G01X8503396Y3592134D01*
G01X8483396Y3592134D01*
G01X8483396Y3672137D01*
G01X8503396Y3672137D01*
G37*
G36*
G01X8463396Y3672137D02*
G01X8463396Y3592137D01*
G01X8443396Y3592137D01*
G01X8443396Y3672137D01*
G01X8463396Y3672137D01*
G37*
G36*
G01X8423386Y3672142D02*
G01X8423386Y3592134D01*
G01X8403386Y3592134D01*
G01X8403386Y3672142D01*
G01X8423386Y3672142D01*
G37*
G36*
G01X8383381Y3672137D02*
G01X8383381Y3592134D01*
G01X8363381Y3592134D01*
G01X8363381Y3672137D01*
G01X8383381Y3672137D01*
G37*
G36*
G01X8343376Y3672137D02*
G01X8343376Y3592134D01*
G01X8323376Y3592134D01*
G01X8323376Y3672137D01*
G01X8343376Y3672137D01*
G37*
G36*
G01X8723325Y3572213D02*
G01X8803325Y3572213D01*
G01X8803325Y3552211D01*
G01X8723325Y3552211D01*
G01X8723325Y3572213D01*
G37*
G36*
G01X8723325Y3532206D02*
G01X8803325Y3532206D01*
G01X8803325Y3512208D01*
G01X8723325Y3512208D01*
G01X8723325Y3532206D01*
G37*
G36*
G01X8723325Y3492201D02*
G01X8803325Y3492201D01*
G01X8803325Y3472201D01*
G01X8723325Y3472201D01*
G01X8723325Y3492201D01*
G37*
G36*
G01X8723317Y3452196D02*
G01X8803325Y3452196D01*
G01X8803325Y3432193D01*
G01X8723317Y3432193D01*
G01X8723317Y3452196D01*
G37*
G36*
G01X8723325Y3412198D02*
G01X8803325Y3412198D01*
G01X8803325Y3392198D01*
G01X8723325Y3392198D01*
G01X8723325Y3412198D01*
G37*
G36*
G01X8723322Y3372211D02*
G01X8803325Y3372211D01*
G01X8803325Y3352208D01*
G01X8723322Y3352208D01*
G01X8723322Y3372211D01*
G37*
G36*
G01X8723322Y3332214D02*
G01X8803325Y3332214D01*
G01X8803325Y3312214D01*
G01X8723322Y3312214D01*
G01X8723322Y3332214D01*
G37*
G36*
G01X8723317Y3292203D02*
G01X8803325Y3292203D01*
G01X8803325Y3272201D01*
G01X8723317Y3272201D01*
G01X8723317Y3292203D01*
G37*
G36*
G01X8723322Y3252196D02*
G01X8803325Y3252196D01*
G01X8803325Y3232199D01*
G01X8723322Y3232199D01*
G01X8723322Y3252196D01*
G37*
G36*
G01X8723325Y3212193D02*
G01X8803325Y3212193D01*
G01X8803325Y3192191D01*
G01X8723325Y3192191D01*
G01X8723325Y3212193D01*
G37*
G36*
G01X8223450Y3572223D02*
G01X8303447Y3572223D01*
G01X8303447Y3552223D01*
G01X8223450Y3552223D01*
G01X8223450Y3572223D01*
G37*
G36*
G01X8223450Y3532216D02*
G01X8303447Y3532216D01*
G01X8303447Y3512216D01*
G01X8223450Y3512216D01*
G01X8223450Y3532216D01*
G37*
G36*
G01X8223450Y3492211D02*
G01X8303447Y3492211D01*
G01X8303447Y3472211D01*
G01X8223450Y3472211D01*
G01X8223450Y3492211D01*
G37*
G36*
G01X8223440Y3452206D02*
G01X8303445Y3452206D01*
G01X8303445Y3432206D01*
G01X8223440Y3432206D01*
G01X8223440Y3452206D01*
G37*
G36*
G01X8223450Y3412206D02*
G01X8303447Y3412206D01*
G01X8303447Y3392206D01*
G01X8223450Y3392206D01*
G01X8223450Y3412206D01*
G37*
G36*
G01X8223448Y3372221D02*
G01X8303447Y3372221D01*
G01X8303447Y3352221D01*
G01X8223448Y3352221D01*
G01X8223448Y3372221D01*
G37*
G36*
G01X8223448Y3332221D02*
G01X8303445Y3332221D01*
G01X8303445Y3312221D01*
G01X8223448Y3312221D01*
G01X8223448Y3332221D01*
G37*
G36*
G01X8223440Y3292211D02*
G01X8303447Y3292211D01*
G01X8303447Y3272211D01*
G01X8223440Y3272211D01*
G01X8223440Y3292211D01*
G37*
G36*
G01X8223448Y3252206D02*
G01X8303447Y3252206D01*
G01X8303447Y3232206D01*
G01X8223448Y3232206D01*
G01X8223448Y3252206D01*
G37*
G36*
G01X8223450Y3212201D02*
G01X8303447Y3212201D01*
G01X8303447Y3192199D01*
G01X8223450Y3192199D01*
G01X8223450Y3212201D01*
G37*
G36*
G01X5124107Y677804D02*
G01X5094105Y677804D01*
G01X5094105Y787804D01*
G01X5124107Y787804D01*
G01X5124107Y677804D01*
G37*
G36*
G01X5144117Y787804D02*
G01X5174120Y787804D01*
G01X5174120Y677804D01*
G01X5144117Y677804D01*
G01X5144117Y787804D01*
G37*
G36*
G01X4634098Y787804D02*
G01X4694098Y787804D01*
G01X4694098Y677804D01*
G01X4634098Y677804D01*
G01X4634098Y787804D01*
G37*
G36*
G01X5074095Y677804D02*
G01X5044092Y677804D01*
G01X5044092Y787804D01*
G01X5074095Y787804D01*
G01X5074095Y677804D01*
G37*
G36*
G01X5194117Y787804D02*
G01X5254117Y787804D01*
G01X5254117Y677804D01*
G01X5194117Y677804D01*
G01X5194117Y787804D01*
G37*
G36*
G01X5334102Y677804D02*
G01X5274102Y677804D01*
G01X5274102Y787804D01*
G01X5334102Y787804D01*
G01X5334102Y677804D01*
G37*
G36*
G01X5024108Y677804D02*
G01X4994105Y677804D01*
G01X4994105Y787804D01*
G01X5024108Y787804D01*
G01X5024108Y677804D01*
G37*
G36*
G01X4974095Y677804D02*
G01X4944092Y677804D01*
G01X4944092Y787804D01*
G01X4974095Y787804D01*
G01X4974095Y677804D01*
G37*
G36*
G01X4714108Y787804D02*
G01X4774108Y787804D01*
G01X4774108Y677804D01*
G01X4714108Y677804D01*
G01X4714108Y787804D01*
G37*
G36*
G01X4924108Y677804D02*
G01X4894105Y677804D01*
G01X4894105Y787804D01*
G01X4924108Y787804D01*
G01X4924108Y677804D01*
G37*
G36*
G01X4874121Y677804D02*
G01X4844118Y677804D01*
G01X4844118Y787804D01*
G01X4874121Y787804D01*
G01X4874121Y677804D01*
G37*
G36*
G01X4824108Y677804D02*
G01X4794105Y677804D01*
G01X4794105Y787804D01*
G01X4824108Y787804D01*
G01X4824108Y677804D01*
G37*
G36*
G01X5421082Y777644D02*
G01X5424058Y777347D01*
G01X5427018Y776900D01*
G01X5429949Y776308D01*
G01X5432849Y775569D01*
G01X5435707Y774687D01*
G01X5438519Y773664D01*
G01X5441275Y772503D01*
G01X5443972Y771205D01*
G01X5446598Y769772D01*
G01X5449151Y768213D01*
G01X5451623Y766529D01*
G01X5454008Y764720D01*
G01X5456299Y762798D01*
G01X5458493Y760763D01*
G01X5460581Y758622D01*
G01X5462562Y756379D01*
G01X5464427Y754040D01*
G01X5466172Y751611D01*
G01X5467795Y749097D01*
G01X5469291Y746506D01*
G01X5470657Y743844D01*
G01X5471887Y741119D01*
G01X5472979Y738332D01*
G01X5473934Y735498D01*
G01X5474744Y732617D01*
G01X5475410Y729701D01*
G01X5475928Y726755D01*
G01X5476301Y723786D01*
G01X5476525Y720801D01*
G01X5476598Y717812D01*
G01X5476598Y637812D01*
G01X5476525Y634822D01*
G01X5476301Y631838D01*
G01X5475928Y628868D01*
G01X5475410Y625922D01*
G01X5474744Y623006D01*
G01X5473934Y620126D01*
G01X5472979Y617291D01*
G01X5471887Y614505D01*
G01X5470657Y611779D01*
G01X5469291Y609117D01*
G01X5467795Y606527D01*
G01X5466172Y604012D01*
G01X5464427Y601584D01*
G01X5462562Y599244D01*
G01X5460581Y597002D01*
G01X5458493Y594860D01*
G01X5456299Y592826D01*
G01X5454008Y590903D01*
G01X5451623Y589095D01*
G01X5449151Y587411D01*
G01X5446598Y585851D01*
G01X5443972Y584418D01*
G01X5441275Y583121D01*
G01X5438519Y581960D01*
G01X5435707Y580936D01*
G01X5432849Y580055D01*
G01X5429949Y579316D01*
G01X5427018Y578724D01*
G01X5424058Y578277D01*
G01X5421082Y577980D01*
G01X5418095Y577830D01*
G01X5415102Y577830D01*
G01X5412115Y577980D01*
G01X5409139Y578277D01*
G01X5406179Y578724D01*
G01X5403248Y579316D01*
G01X5400348Y580055D01*
G01X5397490Y580936D01*
G01X5394678Y581960D01*
G01X5391922Y583121D01*
G01X5389225Y584418D01*
G01X5386599Y585851D01*
G01X5384046Y587411D01*
G01X5381574Y589095D01*
G01X5379189Y590903D01*
G01X5376898Y592826D01*
G01X5374704Y594860D01*
G01X5372616Y597002D01*
G01X5370635Y599244D01*
G01X5368770Y601584D01*
G01X5367025Y604012D01*
G01X5365402Y606527D01*
G01X5363906Y609117D01*
G01X5362540Y611779D01*
G01X5361310Y614505D01*
G01X5360218Y617291D01*
G01X5359263Y620126D01*
G01X5358453Y623006D01*
G01X5357787Y625922D01*
G01X5357269Y628868D01*
G01X5356896Y631838D01*
G01X5356672Y634822D01*
G01X5356599Y637812D01*
G01X5356599Y717812D01*
G01X5356672Y720801D01*
G01X5356896Y723786D01*
G01X5357269Y726755D01*
G01X5357787Y729701D01*
G01X5358453Y732617D01*
G01X5359263Y735498D01*
G01X5360218Y738332D01*
G01X5361310Y741119D01*
G01X5362540Y743844D01*
G01X5363906Y746506D01*
G01X5365402Y749097D01*
G01X5367025Y751611D01*
G01X5368770Y754040D01*
G01X5370635Y756379D01*
G01X5372616Y758622D01*
G01X5374704Y760763D01*
G01X5376898Y762798D01*
G01X5379189Y764720D01*
G01X5381574Y766529D01*
G01X5384046Y768213D01*
G01X5386599Y769772D01*
G01X5389225Y771205D01*
G01X5391922Y772503D01*
G01X5394678Y773664D01*
G01X5397490Y774687D01*
G01X5400348Y775569D01*
G01X5403248Y776308D01*
G01X5406179Y776900D01*
G01X5409139Y777347D01*
G01X5412115Y777644D01*
G01X5415102Y777794D01*
G01X5418095Y777794D01*
G01X5421082Y777644D01*
G37*
G36*
G01X4550105Y777794D02*
G01X4553098Y777794D01*
G01X4556085Y777644D01*
G01X4559061Y777347D01*
G01X4562021Y776900D01*
G01X4564952Y776308D01*
G01X4567852Y775569D01*
G01X4570710Y774687D01*
G01X4573522Y773664D01*
G01X4576278Y772503D01*
G01X4578975Y771205D01*
G01X4581601Y769772D01*
G01X4584154Y768213D01*
G01X4586626Y766529D01*
G01X4589011Y764720D01*
G01X4591302Y762798D01*
G01X4593496Y760763D01*
G01X4595584Y758622D01*
G01X4597565Y756379D01*
G01X4599430Y754040D01*
G01X4601175Y751611D01*
G01X4602798Y749097D01*
G01X4604294Y746506D01*
G01X4605660Y743844D01*
G01X4606890Y741119D01*
G01X4607982Y738332D01*
G01X4608937Y735498D01*
G01X4609747Y732617D01*
G01X4610413Y729701D01*
G01X4610931Y726755D01*
G01X4611304Y723786D01*
G01X4611528Y720801D01*
G01X4611601Y717812D01*
G01X4611601Y637812D01*
G01X4611528Y634822D01*
G01X4611304Y631838D01*
G01X4610931Y628868D01*
G01X4610413Y625922D01*
G01X4609747Y623006D01*
G01X4608937Y620126D01*
G01X4607982Y617291D01*
G01X4606890Y614505D01*
G01X4605660Y611779D01*
G01X4604294Y609117D01*
G01X4602798Y606527D01*
G01X4601175Y604012D01*
G01X4599430Y601584D01*
G01X4597565Y599244D01*
G01X4595584Y597002D01*
G01X4593496Y594860D01*
G01X4591302Y592826D01*
G01X4589011Y590903D01*
G01X4586626Y589095D01*
G01X4584154Y587411D01*
G01X4581601Y585851D01*
G01X4578975Y584418D01*
G01X4576278Y583121D01*
G01X4573522Y581960D01*
G01X4570710Y580936D01*
G01X4567852Y580055D01*
G01X4564952Y579316D01*
G01X4562021Y578724D01*
G01X4559061Y578277D01*
G01X4556085Y577980D01*
G01X4553098Y577830D01*
G01X4550105Y577830D01*
G01X4547118Y577980D01*
G01X4544142Y578277D01*
G01X4541182Y578724D01*
G01X4538251Y579316D01*
G01X4535351Y580055D01*
G01X4532493Y580936D01*
G01X4529681Y581960D01*
G01X4526925Y583121D01*
G01X4524228Y584418D01*
G01X4521602Y585851D01*
G01X4519049Y587411D01*
G01X4516577Y589095D01*
G01X4514192Y590903D01*
G01X4511901Y592826D01*
G01X4509707Y594860D01*
G01X4507619Y597002D01*
G01X4505638Y599244D01*
G01X4503773Y601584D01*
G01X4502028Y604012D01*
G01X4500405Y606527D01*
G01X4498909Y609117D01*
G01X4497543Y611779D01*
G01X4496313Y614505D01*
G01X4495221Y617291D01*
G01X4494266Y620126D01*
G01X4493456Y623006D01*
G01X4492790Y625922D01*
G01X4492272Y628868D01*
G01X4491899Y631838D01*
G01X4491675Y634822D01*
G01X4491602Y637812D01*
G01X4491602Y717812D01*
G01X4491675Y720801D01*
G01X4491899Y723786D01*
G01X4492272Y726755D01*
G01X4492790Y729701D01*
G01X4493456Y732617D01*
G01X4494266Y735498D01*
G01X4495221Y738332D01*
G01X4496313Y741119D01*
G01X4497543Y743844D01*
G01X4498909Y746506D01*
G01X4500405Y749097D01*
G01X4502028Y751611D01*
G01X4503773Y754040D01*
G01X4505638Y756379D01*
G01X4507619Y758622D01*
G01X4509707Y760763D01*
G01X4511901Y762798D01*
G01X4514192Y764720D01*
G01X4516577Y766529D01*
G01X4519049Y768213D01*
G01X4521602Y769772D01*
G01X4524228Y771205D01*
G01X4526925Y772503D01*
G01X4529681Y773664D01*
G01X4532493Y774687D01*
G01X4535351Y775569D01*
G01X4538251Y776308D01*
G01X4541182Y776900D01*
G01X4544142Y777347D01*
G01X4547118Y777644D01*
G01X4550105Y777794D01*
G37*
G36*
G01X4556085Y332628D02*
G01X4559061Y332331D01*
G01X4562021Y331884D01*
G01X4564952Y331292D01*
G01X4567852Y330553D01*
G01X4570710Y329672D01*
G01X4573522Y328648D01*
G01X4576278Y327487D01*
G01X4578975Y326189D01*
G01X4581601Y324757D01*
G01X4584154Y323197D01*
G01X4586626Y321513D01*
G01X4589011Y319705D01*
G01X4591302Y317782D01*
G01X4593496Y315747D01*
G01X4595584Y313606D01*
G01X4597565Y311363D01*
G01X4599430Y309024D01*
G01X4601175Y306596D01*
G01X4602798Y304081D01*
G01X4604294Y301490D01*
G01X4605660Y298828D01*
G01X4606890Y296103D01*
G01X4607982Y293317D01*
G01X4608937Y290482D01*
G01X4609747Y287602D01*
G01X4610413Y284686D01*
G01X4610931Y281739D01*
G01X4611304Y278770D01*
G01X4611528Y275786D01*
G01X4611601Y272796D01*
G01X4611601Y242796D01*
G01X4611528Y239806D01*
G01X4611304Y236822D01*
G01X4610931Y233853D01*
G01X4610413Y230906D01*
G01X4609747Y227990D01*
G01X4608937Y225110D01*
G01X4607982Y222275D01*
G01X4606890Y219489D01*
G01X4605660Y216764D01*
G01X4604294Y214102D01*
G01X4602798Y211511D01*
G01X4601175Y208996D01*
G01X4599430Y206568D01*
G01X4597565Y204229D01*
G01X4595584Y201986D01*
G01X4593496Y199845D01*
G01X4591302Y197810D01*
G01X4589011Y195887D01*
G01X4586626Y194079D01*
G01X4584154Y192395D01*
G01X4581601Y190835D01*
G01X4578975Y189403D01*
G01X4576278Y188105D01*
G01X4573522Y186944D01*
G01X4570710Y185920D01*
G01X4567852Y185039D01*
G01X4564952Y184300D01*
G01X4562021Y183708D01*
G01X4559061Y183261D01*
G01X4556085Y182964D01*
G01X4553098Y182814D01*
G01X4550105Y182814D01*
G01X4547118Y182964D01*
G01X4544142Y183261D01*
G01X4541182Y183708D01*
G01X4538251Y184300D01*
G01X4535351Y185039D01*
G01X4532493Y185920D01*
G01X4529681Y186944D01*
G01X4526925Y188105D01*
G01X4524228Y189403D01*
G01X4521602Y190835D01*
G01X4519049Y192395D01*
G01X4516577Y194079D01*
G01X4514192Y195887D01*
G01X4511901Y197810D01*
G01X4509707Y199845D01*
G01X4507619Y201986D01*
G01X4505638Y204229D01*
G01X4503773Y206568D01*
G01X4502028Y208996D01*
G01X4500405Y211511D01*
G01X4498909Y214102D01*
G01X4497543Y216764D01*
G01X4496313Y219489D01*
G01X4495221Y222275D01*
G01X4494266Y225110D01*
G01X4493456Y227990D01*
G01X4492790Y230906D01*
G01X4492272Y233853D01*
G01X4491899Y236822D01*
G01X4491675Y239806D01*
G01X4491602Y242796D01*
G01X4491602Y272796D01*
G01X4491675Y275786D01*
G01X4491899Y278770D01*
G01X4492272Y281739D01*
G01X4492790Y284686D01*
G01X4493456Y287602D01*
G01X4494266Y290482D01*
G01X4495221Y293317D01*
G01X4496313Y296103D01*
G01X4497543Y298828D01*
G01X4498909Y301490D01*
G01X4500405Y304081D01*
G01X4502028Y306596D01*
G01X4503773Y309024D01*
G01X4505638Y311363D01*
G01X4507619Y313606D01*
G01X4509707Y315747D01*
G01X4511901Y317782D01*
G01X4514192Y319705D01*
G01X4516577Y321513D01*
G01X4519049Y323197D01*
G01X4521602Y324757D01*
G01X4524228Y326189D01*
G01X4526925Y327487D01*
G01X4529681Y328648D01*
G01X4532493Y329672D01*
G01X4535351Y330553D01*
G01X4538251Y331292D01*
G01X4541182Y331884D01*
G01X4544142Y332331D01*
G01X4547118Y332628D01*
G01X4550105Y332778D01*
G01X4553098Y332778D01*
G01X4556085Y332628D01*
G37*
G36*
G01X5415102Y332778D02*
G01X5418095Y332778D01*
G01X5421082Y332628D01*
G01X5424058Y332331D01*
G01X5427018Y331884D01*
G01X5429949Y331292D01*
G01X5432849Y330553D01*
G01X5435707Y329672D01*
G01X5438519Y328648D01*
G01X5441275Y327487D01*
G01X5443972Y326189D01*
G01X5446598Y324757D01*
G01X5449151Y323197D01*
G01X5451623Y321513D01*
G01X5454008Y319705D01*
G01X5456299Y317782D01*
G01X5458493Y315747D01*
G01X5460581Y313606D01*
G01X5462562Y311363D01*
G01X5464427Y309024D01*
G01X5466172Y306596D01*
G01X5467795Y304081D01*
G01X5469291Y301490D01*
G01X5470657Y298828D01*
G01X5471887Y296103D01*
G01X5472979Y293317D01*
G01X5473934Y290482D01*
G01X5474744Y287602D01*
G01X5475410Y284686D01*
G01X5475928Y281739D01*
G01X5476301Y278770D01*
G01X5476525Y275786D01*
G01X5476598Y272796D01*
G01X5476598Y242796D01*
G01X5476525Y239806D01*
G01X5476301Y236822D01*
G01X5475928Y233853D01*
G01X5475410Y230906D01*
G01X5474744Y227990D01*
G01X5473934Y225110D01*
G01X5472979Y222275D01*
G01X5471887Y219489D01*
G01X5470657Y216764D01*
G01X5469291Y214102D01*
G01X5467795Y211511D01*
G01X5466172Y208996D01*
G01X5464427Y206568D01*
G01X5462562Y204229D01*
G01X5460581Y201986D01*
G01X5458493Y199845D01*
G01X5456299Y197810D01*
G01X5454008Y195887D01*
G01X5451623Y194079D01*
G01X5449151Y192395D01*
G01X5446598Y190835D01*
G01X5443972Y189403D01*
G01X5441275Y188105D01*
G01X5438519Y186944D01*
G01X5435707Y185920D01*
G01X5432849Y185039D01*
G01X5429949Y184300D01*
G01X5427018Y183708D01*
G01X5424058Y183261D01*
G01X5421082Y182964D01*
G01X5418095Y182814D01*
G01X5415102Y182814D01*
G01X5412115Y182964D01*
G01X5409139Y183261D01*
G01X5406179Y183708D01*
G01X5403248Y184300D01*
G01X5400348Y185039D01*
G01X5397490Y185920D01*
G01X5394678Y186944D01*
G01X5391922Y188105D01*
G01X5389225Y189403D01*
G01X5386599Y190835D01*
G01X5384046Y192395D01*
G01X5381574Y194079D01*
G01X5379189Y195887D01*
G01X5376898Y197810D01*
G01X5374704Y199845D01*
G01X5372616Y201986D01*
G01X5370635Y204229D01*
G01X5368770Y206568D01*
G01X5367025Y208996D01*
G01X5365402Y211511D01*
G01X5363906Y214102D01*
G01X5362540Y216764D01*
G01X5361310Y219489D01*
G01X5360218Y222275D01*
G01X5359263Y225110D01*
G01X5358453Y227990D01*
G01X5357787Y230906D01*
G01X5357269Y233853D01*
G01X5356896Y236822D01*
G01X5356672Y239806D01*
G01X5356599Y242796D01*
G01X5356599Y272796D01*
G01X5356672Y275786D01*
G01X5356896Y278770D01*
G01X5357269Y281739D01*
G01X5357787Y284686D01*
G01X5358453Y287602D01*
G01X5359263Y290482D01*
G01X5360218Y293317D01*
G01X5361310Y296103D01*
G01X5362540Y298828D01*
G01X5363906Y301490D01*
G01X5365402Y304081D01*
G01X5367025Y306596D01*
G01X5368770Y309024D01*
G01X5370635Y311363D01*
G01X5372616Y313606D01*
G01X5374704Y315747D01*
G01X5376898Y317782D01*
G01X5379189Y319705D01*
G01X5381574Y321513D01*
G01X5384046Y323197D01*
G01X5386599Y324757D01*
G01X5389225Y326189D01*
G01X5391922Y327487D01*
G01X5394678Y328648D01*
G01X5397490Y329672D01*
G01X5400348Y330553D01*
G01X5403248Y331292D01*
G01X5406179Y331884D01*
G01X5409139Y332331D01*
G01X5412115Y332628D01*
G01X5415102Y332778D01*
G37*
G36*
G01X7543493Y8313796D02*
G01X7573495Y8313796D01*
G01X7573495Y8203796D01*
G01X7543493Y8203796D01*
G01X7543493Y8313796D01*
G37*
G36*
G01X7523483Y8203796D02*
G01X7493480Y8203796D01*
G01X7493480Y8313796D01*
G01X7523483Y8313796D01*
G01X7523483Y8203796D01*
G37*
G36*
G01X8033502Y8203796D02*
G01X7973502Y8203796D01*
G01X7973502Y8313796D01*
G01X8033502Y8313796D01*
G01X8033502Y8203796D01*
G37*
G36*
G01X7593505Y8313796D02*
G01X7623508Y8313796D01*
G01X7623508Y8203796D01*
G01X7593505Y8203796D01*
G01X7593505Y8313796D01*
G37*
G36*
G01X7473483Y8203796D02*
G01X7413483Y8203796D01*
G01X7413483Y8313796D01*
G01X7473483Y8313796D01*
G01X7473483Y8203796D01*
G37*
G36*
G01X7333498Y8313796D02*
G01X7393498Y8313796D01*
G01X7393498Y8203796D01*
G01X7333498Y8203796D01*
G01X7333498Y8313796D01*
G37*
G36*
G01X7643492Y8313796D02*
G01X7673495Y8313796D01*
G01X7673495Y8203796D01*
G01X7643492Y8203796D01*
G01X7643492Y8313796D01*
G37*
G36*
G01X7693505Y8313796D02*
G01X7723508Y8313796D01*
G01X7723508Y8203796D01*
G01X7693505Y8203796D01*
G01X7693505Y8313796D01*
G37*
G36*
G01X7953492Y8203796D02*
G01X7893492Y8203796D01*
G01X7893492Y8313796D01*
G01X7953492Y8313796D01*
G01X7953492Y8203796D01*
G37*
G36*
G01X7743492Y8313796D02*
G01X7773495Y8313796D01*
G01X7773495Y8203796D01*
G01X7743492Y8203796D01*
G01X7743492Y8313796D01*
G37*
G36*
G01X7793479Y8313796D02*
G01X7823482Y8313796D01*
G01X7823482Y8203796D01*
G01X7793479Y8203796D01*
G01X7793479Y8313796D01*
G37*
G36*
G01X7843492Y8313796D02*
G01X7873495Y8313796D01*
G01X7873495Y8203796D01*
G01X7843492Y8203796D01*
G01X7843492Y8313796D01*
G37*
G36*
G01X7246518Y8213956D02*
G01X7243542Y8214253D01*
G01X7240582Y8214700D01*
G01X7237651Y8215292D01*
G01X7234751Y8216031D01*
G01X7231893Y8216913D01*
G01X7229081Y8217936D01*
G01X7226325Y8219097D01*
G01X7223628Y8220395D01*
G01X7221002Y8221828D01*
G01X7218449Y8223387D01*
G01X7215977Y8225071D01*
G01X7213592Y8226880D01*
G01X7211301Y8228802D01*
G01X7209107Y8230837D01*
G01X7207019Y8232978D01*
G01X7205038Y8235221D01*
G01X7203173Y8237560D01*
G01X7201428Y8239989D01*
G01X7199805Y8242503D01*
G01X7198309Y8245094D01*
G01X7196943Y8247756D01*
G01X7195713Y8250481D01*
G01X7194621Y8253268D01*
G01X7193666Y8256102D01*
G01X7192856Y8258983D01*
G01X7192190Y8261899D01*
G01X7191672Y8264845D01*
G01X7191299Y8267814D01*
G01X7191075Y8270799D01*
G01X7191002Y8273788D01*
G01X7191002Y8353788D01*
G01X7191075Y8356778D01*
G01X7191299Y8359762D01*
G01X7191672Y8362732D01*
G01X7192190Y8365678D01*
G01X7192856Y8368594D01*
G01X7193666Y8371474D01*
G01X7194621Y8374309D01*
G01X7195713Y8377095D01*
G01X7196943Y8379821D01*
G01X7198309Y8382483D01*
G01X7199805Y8385073D01*
G01X7201428Y8387588D01*
G01X7203173Y8390016D01*
G01X7205038Y8392356D01*
G01X7207019Y8394598D01*
G01X7209107Y8396740D01*
G01X7211301Y8398774D01*
G01X7213592Y8400697D01*
G01X7215977Y8402505D01*
G01X7218449Y8404189D01*
G01X7221002Y8405749D01*
G01X7223628Y8407182D01*
G01X7226325Y8408480D01*
G01X7229081Y8409640D01*
G01X7231893Y8410664D01*
G01X7234751Y8411545D01*
G01X7237651Y8412284D01*
G01X7240582Y8412876D01*
G01X7243542Y8413323D01*
G01X7246518Y8413620D01*
G01X7249505Y8413770D01*
G01X7252498Y8413770D01*
G01X7255485Y8413620D01*
G01X7258461Y8413323D01*
G01X7261421Y8412876D01*
G01X7264352Y8412284D01*
G01X7267252Y8411545D01*
G01X7270110Y8410664D01*
G01X7272922Y8409640D01*
G01X7275678Y8408480D01*
G01X7278375Y8407182D01*
G01X7281001Y8405749D01*
G01X7283554Y8404189D01*
G01X7286026Y8402505D01*
G01X7288411Y8400697D01*
G01X7290702Y8398774D01*
G01X7292896Y8396740D01*
G01X7294984Y8394598D01*
G01X7296965Y8392356D01*
G01X7298830Y8390016D01*
G01X7300575Y8387588D01*
G01X7302198Y8385073D01*
G01X7303694Y8382483D01*
G01X7305060Y8379821D01*
G01X7306290Y8377095D01*
G01X7307382Y8374309D01*
G01X7308337Y8371474D01*
G01X7309147Y8368594D01*
G01X7309813Y8365678D01*
G01X7310331Y8362732D01*
G01X7310704Y8359762D01*
G01X7310928Y8356778D01*
G01X7311001Y8353788D01*
G01X7311001Y8273788D01*
G01X7310928Y8270799D01*
G01X7310704Y8267814D01*
G01X7310331Y8264845D01*
G01X7309813Y8261899D01*
G01X7309147Y8258983D01*
G01X7308337Y8256102D01*
G01X7307382Y8253268D01*
G01X7306290Y8250481D01*
G01X7305060Y8247756D01*
G01X7303694Y8245094D01*
G01X7302198Y8242503D01*
G01X7300575Y8239989D01*
G01X7298830Y8237560D01*
G01X7296965Y8235221D01*
G01X7294984Y8232978D01*
G01X7292896Y8230837D01*
G01X7290702Y8228802D01*
G01X7288411Y8226880D01*
G01X7286026Y8225071D01*
G01X7283554Y8223387D01*
G01X7281001Y8221828D01*
G01X7278375Y8220395D01*
G01X7275678Y8219097D01*
G01X7272922Y8217936D01*
G01X7270110Y8216913D01*
G01X7267252Y8216031D01*
G01X7264352Y8215292D01*
G01X7261421Y8214700D01*
G01X7258461Y8214253D01*
G01X7255485Y8213956D01*
G01X7252498Y8213806D01*
G01X7249505Y8213806D01*
G01X7246518Y8213956D01*
G37*
G36*
G01X8117495Y8213806D02*
G01X8114502Y8213806D01*
G01X8111515Y8213956D01*
G01X8108539Y8214253D01*
G01X8105579Y8214700D01*
G01X8102648Y8215292D01*
G01X8099748Y8216031D01*
G01X8096890Y8216913D01*
G01X8094078Y8217936D01*
G01X8091322Y8219097D01*
G01X8088625Y8220395D01*
G01X8085999Y8221828D01*
G01X8083446Y8223387D01*
G01X8080974Y8225071D01*
G01X8078589Y8226880D01*
G01X8076298Y8228802D01*
G01X8074104Y8230837D01*
G01X8072016Y8232978D01*
G01X8070035Y8235221D01*
G01X8068170Y8237560D01*
G01X8066425Y8239989D01*
G01X8064802Y8242503D01*
G01X8063306Y8245094D01*
G01X8061940Y8247756D01*
G01X8060710Y8250481D01*
G01X8059618Y8253268D01*
G01X8058663Y8256102D01*
G01X8057853Y8258983D01*
G01X8057187Y8261899D01*
G01X8056669Y8264845D01*
G01X8056296Y8267814D01*
G01X8056072Y8270799D01*
G01X8055999Y8273788D01*
G01X8055999Y8353788D01*
G01X8056072Y8356778D01*
G01X8056296Y8359762D01*
G01X8056669Y8362732D01*
G01X8057187Y8365678D01*
G01X8057853Y8368594D01*
G01X8058663Y8371474D01*
G01X8059618Y8374309D01*
G01X8060710Y8377095D01*
G01X8061940Y8379821D01*
G01X8063306Y8382483D01*
G01X8064802Y8385073D01*
G01X8066425Y8387588D01*
G01X8068170Y8390016D01*
G01X8070035Y8392356D01*
G01X8072016Y8394598D01*
G01X8074104Y8396740D01*
G01X8076298Y8398774D01*
G01X8078589Y8400697D01*
G01X8080974Y8402505D01*
G01X8083446Y8404189D01*
G01X8085999Y8405749D01*
G01X8088625Y8407182D01*
G01X8091322Y8408480D01*
G01X8094078Y8409640D01*
G01X8096890Y8410664D01*
G01X8099748Y8411545D01*
G01X8102648Y8412284D01*
G01X8105579Y8412876D01*
G01X8108539Y8413323D01*
G01X8111515Y8413620D01*
G01X8114502Y8413770D01*
G01X8117495Y8413770D01*
G01X8120482Y8413620D01*
G01X8123458Y8413323D01*
G01X8126418Y8412876D01*
G01X8129349Y8412284D01*
G01X8132249Y8411545D01*
G01X8135107Y8410664D01*
G01X8137919Y8409640D01*
G01X8140675Y8408480D01*
G01X8143372Y8407182D01*
G01X8145998Y8405749D01*
G01X8148551Y8404189D01*
G01X8151023Y8402505D01*
G01X8153408Y8400697D01*
G01X8155699Y8398774D01*
G01X8157893Y8396740D01*
G01X8159981Y8394598D01*
G01X8161962Y8392356D01*
G01X8163827Y8390016D01*
G01X8165572Y8387588D01*
G01X8167195Y8385073D01*
G01X8168691Y8382483D01*
G01X8170057Y8379821D01*
G01X8171287Y8377095D01*
G01X8172379Y8374309D01*
G01X8173334Y8371474D01*
G01X8174144Y8368594D01*
G01X8174810Y8365678D01*
G01X8175328Y8362732D01*
G01X8175701Y8359762D01*
G01X8175925Y8356778D01*
G01X8175998Y8353788D01*
G01X8175998Y8273788D01*
G01X8175925Y8270799D01*
G01X8175701Y8267814D01*
G01X8175328Y8264845D01*
G01X8174810Y8261899D01*
G01X8174144Y8258983D01*
G01X8173334Y8256102D01*
G01X8172379Y8253268D01*
G01X8171287Y8250481D01*
G01X8170057Y8247756D01*
G01X8168691Y8245094D01*
G01X8167195Y8242503D01*
G01X8165572Y8239989D01*
G01X8163827Y8237560D01*
G01X8161962Y8235221D01*
G01X8159981Y8232978D01*
G01X8157893Y8230837D01*
G01X8155699Y8228802D01*
G01X8153408Y8226880D01*
G01X8151023Y8225071D01*
G01X8148551Y8223387D01*
G01X8145998Y8221828D01*
G01X8143372Y8220395D01*
G01X8140675Y8219097D01*
G01X8137919Y8217936D01*
G01X8135107Y8216913D01*
G01X8132249Y8216031D01*
G01X8129349Y8215292D01*
G01X8126418Y8214700D01*
G01X8123458Y8214253D01*
G01X8120482Y8213956D01*
G01X8117495Y8213806D01*
G37*
G36*
G01X8111515Y8658972D02*
G01X8108539Y8659269D01*
G01X8105579Y8659716D01*
G01X8102648Y8660308D01*
G01X8099748Y8661047D01*
G01X8096890Y8661928D01*
G01X8094078Y8662952D01*
G01X8091322Y8664113D01*
G01X8088625Y8665411D01*
G01X8085999Y8666843D01*
G01X8083446Y8668403D01*
G01X8080974Y8670087D01*
G01X8078589Y8671895D01*
G01X8076298Y8673818D01*
G01X8074104Y8675853D01*
G01X8072016Y8677994D01*
G01X8070035Y8680237D01*
G01X8068170Y8682576D01*
G01X8066425Y8685004D01*
G01X8064802Y8687519D01*
G01X8063306Y8690110D01*
G01X8061940Y8692772D01*
G01X8060710Y8695497D01*
G01X8059618Y8698283D01*
G01X8058663Y8701118D01*
G01X8057853Y8703998D01*
G01X8057187Y8706914D01*
G01X8056669Y8709861D01*
G01X8056296Y8712830D01*
G01X8056072Y8715814D01*
G01X8055999Y8718804D01*
G01X8055999Y8748804D01*
G01X8056072Y8751794D01*
G01X8056296Y8754778D01*
G01X8056669Y8757747D01*
G01X8057187Y8760694D01*
G01X8057853Y8763610D01*
G01X8058663Y8766490D01*
G01X8059618Y8769325D01*
G01X8060710Y8772111D01*
G01X8061940Y8774836D01*
G01X8063306Y8777498D01*
G01X8064802Y8780089D01*
G01X8066425Y8782604D01*
G01X8068170Y8785032D01*
G01X8070035Y8787371D01*
G01X8072016Y8789614D01*
G01X8074104Y8791755D01*
G01X8076298Y8793790D01*
G01X8078589Y8795713D01*
G01X8080974Y8797521D01*
G01X8083446Y8799205D01*
G01X8085999Y8800765D01*
G01X8088625Y8802197D01*
G01X8091322Y8803495D01*
G01X8094078Y8804656D01*
G01X8096890Y8805680D01*
G01X8099748Y8806561D01*
G01X8102648Y8807300D01*
G01X8105579Y8807892D01*
G01X8108539Y8808339D01*
G01X8111515Y8808636D01*
G01X8114502Y8808786D01*
G01X8117495Y8808786D01*
G01X8120482Y8808636D01*
G01X8123458Y8808339D01*
G01X8126418Y8807892D01*
G01X8129349Y8807300D01*
G01X8132249Y8806561D01*
G01X8135107Y8805680D01*
G01X8137919Y8804656D01*
G01X8140675Y8803495D01*
G01X8143372Y8802197D01*
G01X8145998Y8800765D01*
G01X8148551Y8799205D01*
G01X8151023Y8797521D01*
G01X8153408Y8795713D01*
G01X8155699Y8793790D01*
G01X8157893Y8791755D01*
G01X8159981Y8789614D01*
G01X8161962Y8787371D01*
G01X8163827Y8785032D01*
G01X8165572Y8782604D01*
G01X8167195Y8780089D01*
G01X8168691Y8777498D01*
G01X8170057Y8774836D01*
G01X8171287Y8772111D01*
G01X8172379Y8769325D01*
G01X8173334Y8766490D01*
G01X8174144Y8763610D01*
G01X8174810Y8760694D01*
G01X8175328Y8757747D01*
G01X8175701Y8754778D01*
G01X8175925Y8751794D01*
G01X8175998Y8748804D01*
G01X8175998Y8718804D01*
G01X8175925Y8715814D01*
G01X8175701Y8712830D01*
G01X8175328Y8709861D01*
G01X8174810Y8706914D01*
G01X8174144Y8703998D01*
G01X8173334Y8701118D01*
G01X8172379Y8698283D01*
G01X8171287Y8695497D01*
G01X8170057Y8692772D01*
G01X8168691Y8690110D01*
G01X8167195Y8687519D01*
G01X8165572Y8685004D01*
G01X8163827Y8682576D01*
G01X8161962Y8680237D01*
G01X8159981Y8677994D01*
G01X8157893Y8675853D01*
G01X8155699Y8673818D01*
G01X8153408Y8671895D01*
G01X8151023Y8670087D01*
G01X8148551Y8668403D01*
G01X8145998Y8666843D01*
G01X8143372Y8665411D01*
G01X8140675Y8664113D01*
G01X8137919Y8662952D01*
G01X8135107Y8661928D01*
G01X8132249Y8661047D01*
G01X8129349Y8660308D01*
G01X8126418Y8659716D01*
G01X8123458Y8659269D01*
G01X8120482Y8658972D01*
G01X8117495Y8658822D01*
G01X8114502Y8658822D01*
G01X8111515Y8658972D01*
G37*
G36*
G01X7252498Y8658822D02*
G01X7249505Y8658822D01*
G01X7246518Y8658972D01*
G01X7243542Y8659269D01*
G01X7240582Y8659716D01*
G01X7237651Y8660308D01*
G01X7234751Y8661047D01*
G01X7231893Y8661928D01*
G01X7229081Y8662952D01*
G01X7226325Y8664113D01*
G01X7223628Y8665411D01*
G01X7221002Y8666843D01*
G01X7218449Y8668403D01*
G01X7215977Y8670087D01*
G01X7213592Y8671895D01*
G01X7211301Y8673818D01*
G01X7209107Y8675853D01*
G01X7207019Y8677994D01*
G01X7205038Y8680237D01*
G01X7203173Y8682576D01*
G01X7201428Y8685004D01*
G01X7199805Y8687519D01*
G01X7198309Y8690110D01*
G01X7196943Y8692772D01*
G01X7195713Y8695497D01*
G01X7194621Y8698283D01*
G01X7193666Y8701118D01*
G01X7192856Y8703998D01*
G01X7192190Y8706914D01*
G01X7191672Y8709861D01*
G01X7191299Y8712830D01*
G01X7191075Y8715814D01*
G01X7191002Y8718804D01*
G01X7191002Y8748804D01*
G01X7191075Y8751794D01*
G01X7191299Y8754778D01*
G01X7191672Y8757747D01*
G01X7192190Y8760694D01*
G01X7192856Y8763610D01*
G01X7193666Y8766490D01*
G01X7194621Y8769325D01*
G01X7195713Y8772111D01*
G01X7196943Y8774836D01*
G01X7198309Y8777498D01*
G01X7199805Y8780089D01*
G01X7201428Y8782604D01*
G01X7203173Y8785032D01*
G01X7205038Y8787371D01*
G01X7207019Y8789614D01*
G01X7209107Y8791755D01*
G01X7211301Y8793790D01*
G01X7213592Y8795713D01*
G01X7215977Y8797521D01*
G01X7218449Y8799205D01*
G01X7221002Y8800765D01*
G01X7223628Y8802197D01*
G01X7226325Y8803495D01*
G01X7229081Y8804656D01*
G01X7231893Y8805680D01*
G01X7234751Y8806561D01*
G01X7237651Y8807300D01*
G01X7240582Y8807892D01*
G01X7243542Y8808339D01*
G01X7246518Y8808636D01*
G01X7249505Y8808786D01*
G01X7252498Y8808786D01*
G01X7255485Y8808636D01*
G01X7258461Y8808339D01*
G01X7261421Y8807892D01*
G01X7264352Y8807300D01*
G01X7267252Y8806561D01*
G01X7270110Y8805680D01*
G01X7272922Y8804656D01*
G01X7275678Y8803495D01*
G01X7278375Y8802197D01*
G01X7281001Y8800765D01*
G01X7283554Y8799205D01*
G01X7286026Y8797521D01*
G01X7288411Y8795713D01*
G01X7290702Y8793790D01*
G01X7292896Y8791755D01*
G01X7294984Y8789614D01*
G01X7296965Y8787371D01*
G01X7298830Y8785032D01*
G01X7300575Y8782604D01*
G01X7302198Y8780089D01*
G01X7303694Y8777498D01*
G01X7305060Y8774836D01*
G01X7306290Y8772111D01*
G01X7307382Y8769325D01*
G01X7308337Y8766490D01*
G01X7309147Y8763610D01*
G01X7309813Y8760694D01*
G01X7310331Y8757747D01*
G01X7310704Y8754778D01*
G01X7310928Y8751794D01*
G01X7311001Y8748804D01*
G01X7311001Y8718804D01*
G01X7310928Y8715814D01*
G01X7310704Y8712830D01*
G01X7310331Y8709861D01*
G01X7309813Y8706914D01*
G01X7309147Y8703998D01*
G01X7308337Y8701118D01*
G01X7307382Y8698283D01*
G01X7306290Y8695497D01*
G01X7305060Y8692772D01*
G01X7303694Y8690110D01*
G01X7302198Y8687519D01*
G01X7300575Y8685004D01*
G01X7298830Y8682576D01*
G01X7296965Y8680237D01*
G01X7294984Y8677994D01*
G01X7292896Y8675853D01*
G01X7290702Y8673818D01*
G01X7288411Y8671895D01*
G01X7286026Y8670087D01*
G01X7283554Y8668403D01*
G01X7281001Y8666843D01*
G01X7278375Y8665411D01*
G01X7275678Y8664113D01*
G01X7272922Y8662952D01*
G01X7270110Y8661928D01*
G01X7267252Y8661047D01*
G01X7264352Y8660308D01*
G01X7261421Y8659716D01*
G01X7258461Y8659269D01*
G01X7255485Y8658972D01*
G01X7252498Y8658822D01*
G37*
G36*
G01X6536807Y677804D02*
G01X6506805Y677804D01*
G01X6506805Y787804D01*
G01X6536807Y787804D01*
G01X6536807Y677804D01*
G37*
G36*
G01X6556817Y787804D02*
G01X6586820Y787804D01*
G01X6586820Y677804D01*
G01X6556817Y677804D01*
G01X6556817Y787804D01*
G37*
G36*
G01X6046798Y787804D02*
G01X6106798Y787804D01*
G01X6106798Y677804D01*
G01X6046798Y677804D01*
G01X6046798Y787804D01*
G37*
G36*
G01X6486795Y677804D02*
G01X6456792Y677804D01*
G01X6456792Y787804D01*
G01X6486795Y787804D01*
G01X6486795Y677804D01*
G37*
G36*
G01X6606817Y787804D02*
G01X6666817Y787804D01*
G01X6666817Y677804D01*
G01X6606817Y677804D01*
G01X6606817Y787804D01*
G37*
G36*
G01X6746802Y677804D02*
G01X6686802Y677804D01*
G01X6686802Y787804D01*
G01X6746802Y787804D01*
G01X6746802Y677804D01*
G37*
G36*
G01X6436808Y677804D02*
G01X6406805Y677804D01*
G01X6406805Y787804D01*
G01X6436808Y787804D01*
G01X6436808Y677804D01*
G37*
G36*
G01X6386795Y677804D02*
G01X6356792Y677804D01*
G01X6356792Y787804D01*
G01X6386795Y787804D01*
G01X6386795Y677804D01*
G37*
G36*
G01X6126808Y787804D02*
G01X6186808Y787804D01*
G01X6186808Y677804D01*
G01X6126808Y677804D01*
G01X6126808Y787804D01*
G37*
G36*
G01X6336808Y677804D02*
G01X6306805Y677804D01*
G01X6306805Y787804D01*
G01X6336808Y787804D01*
G01X6336808Y677804D01*
G37*
G36*
G01X6286821Y677804D02*
G01X6256818Y677804D01*
G01X6256818Y787804D01*
G01X6286821Y787804D01*
G01X6286821Y677804D01*
G37*
G36*
G01X6236808Y677804D02*
G01X6206805Y677804D01*
G01X6206805Y787804D01*
G01X6236808Y787804D01*
G01X6236808Y677804D01*
G37*
G36*
G01X6833782Y777644D02*
G01X6836758Y777347D01*
G01X6839718Y776900D01*
G01X6842649Y776308D01*
G01X6845549Y775569D01*
G01X6848407Y774687D01*
G01X6851219Y773664D01*
G01X6853975Y772503D01*
G01X6856672Y771205D01*
G01X6859298Y769772D01*
G01X6861851Y768213D01*
G01X6864323Y766529D01*
G01X6866708Y764720D01*
G01X6868999Y762798D01*
G01X6871193Y760763D01*
G01X6873281Y758622D01*
G01X6875262Y756379D01*
G01X6877127Y754040D01*
G01X6878872Y751611D01*
G01X6880495Y749097D01*
G01X6881991Y746506D01*
G01X6883357Y743844D01*
G01X6884587Y741119D01*
G01X6885679Y738332D01*
G01X6886634Y735498D01*
G01X6887444Y732617D01*
G01X6888110Y729701D01*
G01X6888628Y726755D01*
G01X6889001Y723786D01*
G01X6889225Y720801D01*
G01X6889298Y717812D01*
G01X6889298Y637812D01*
G01X6889225Y634822D01*
G01X6889001Y631838D01*
G01X6888628Y628868D01*
G01X6888110Y625922D01*
G01X6887444Y623006D01*
G01X6886634Y620126D01*
G01X6885679Y617291D01*
G01X6884587Y614505D01*
G01X6883357Y611779D01*
G01X6881991Y609117D01*
G01X6880495Y606527D01*
G01X6878872Y604012D01*
G01X6877127Y601584D01*
G01X6875262Y599244D01*
G01X6873281Y597002D01*
G01X6871193Y594860D01*
G01X6868999Y592826D01*
G01X6866708Y590903D01*
G01X6864323Y589095D01*
G01X6861851Y587411D01*
G01X6859298Y585851D01*
G01X6856672Y584418D01*
G01X6853975Y583121D01*
G01X6851219Y581960D01*
G01X6848407Y580936D01*
G01X6845549Y580055D01*
G01X6842649Y579316D01*
G01X6839718Y578724D01*
G01X6836758Y578277D01*
G01X6833782Y577980D01*
G01X6830795Y577830D01*
G01X6827802Y577830D01*
G01X6824815Y577980D01*
G01X6821839Y578277D01*
G01X6818879Y578724D01*
G01X6815948Y579316D01*
G01X6813048Y580055D01*
G01X6810190Y580936D01*
G01X6807378Y581960D01*
G01X6804622Y583121D01*
G01X6801925Y584418D01*
G01X6799299Y585851D01*
G01X6796746Y587411D01*
G01X6794274Y589095D01*
G01X6791889Y590903D01*
G01X6789598Y592826D01*
G01X6787404Y594860D01*
G01X6785316Y597002D01*
G01X6783335Y599244D01*
G01X6781470Y601584D01*
G01X6779725Y604012D01*
G01X6778102Y606527D01*
G01X6776606Y609117D01*
G01X6775240Y611779D01*
G01X6774010Y614505D01*
G01X6772918Y617291D01*
G01X6771963Y620126D01*
G01X6771153Y623006D01*
G01X6770487Y625922D01*
G01X6769969Y628868D01*
G01X6769596Y631838D01*
G01X6769372Y634822D01*
G01X6769299Y637812D01*
G01X6769299Y717812D01*
G01X6769372Y720801D01*
G01X6769596Y723786D01*
G01X6769969Y726755D01*
G01X6770487Y729701D01*
G01X6771153Y732617D01*
G01X6771963Y735498D01*
G01X6772918Y738332D01*
G01X6774010Y741119D01*
G01X6775240Y743844D01*
G01X6776606Y746506D01*
G01X6778102Y749097D01*
G01X6779725Y751611D01*
G01X6781470Y754040D01*
G01X6783335Y756379D01*
G01X6785316Y758622D01*
G01X6787404Y760763D01*
G01X6789598Y762798D01*
G01X6791889Y764720D01*
G01X6794274Y766529D01*
G01X6796746Y768213D01*
G01X6799299Y769772D01*
G01X6801925Y771205D01*
G01X6804622Y772503D01*
G01X6807378Y773664D01*
G01X6810190Y774687D01*
G01X6813048Y775569D01*
G01X6815948Y776308D01*
G01X6818879Y776900D01*
G01X6821839Y777347D01*
G01X6824815Y777644D01*
G01X6827802Y777794D01*
G01X6830795Y777794D01*
G01X6833782Y777644D01*
G37*
G36*
G01X5962805Y777794D02*
G01X5965798Y777794D01*
G01X5968785Y777644D01*
G01X5971761Y777347D01*
G01X5974721Y776900D01*
G01X5977652Y776308D01*
G01X5980552Y775569D01*
G01X5983410Y774687D01*
G01X5986222Y773664D01*
G01X5988978Y772503D01*
G01X5991675Y771205D01*
G01X5994301Y769772D01*
G01X5996854Y768213D01*
G01X5999326Y766529D01*
G01X6001711Y764720D01*
G01X6004002Y762798D01*
G01X6006196Y760763D01*
G01X6008284Y758622D01*
G01X6010265Y756379D01*
G01X6012130Y754040D01*
G01X6013875Y751611D01*
G01X6015498Y749097D01*
G01X6016994Y746506D01*
G01X6018360Y743844D01*
G01X6019590Y741119D01*
G01X6020682Y738332D01*
G01X6021637Y735498D01*
G01X6022447Y732617D01*
G01X6023113Y729701D01*
G01X6023631Y726755D01*
G01X6024004Y723786D01*
G01X6024228Y720801D01*
G01X6024301Y717812D01*
G01X6024301Y637812D01*
G01X6024228Y634822D01*
G01X6024004Y631838D01*
G01X6023631Y628868D01*
G01X6023113Y625922D01*
G01X6022447Y623006D01*
G01X6021637Y620126D01*
G01X6020682Y617291D01*
G01X6019590Y614505D01*
G01X6018360Y611779D01*
G01X6016994Y609117D01*
G01X6015498Y606527D01*
G01X6013875Y604012D01*
G01X6012130Y601584D01*
G01X6010265Y599244D01*
G01X6008284Y597002D01*
G01X6006196Y594860D01*
G01X6004002Y592826D01*
G01X6001711Y590903D01*
G01X5999326Y589095D01*
G01X5996854Y587411D01*
G01X5994301Y585851D01*
G01X5991675Y584418D01*
G01X5988978Y583121D01*
G01X5986222Y581960D01*
G01X5983410Y580936D01*
G01X5980552Y580055D01*
G01X5977652Y579316D01*
G01X5974721Y578724D01*
G01X5971761Y578277D01*
G01X5968785Y577980D01*
G01X5965798Y577830D01*
G01X5962805Y577830D01*
G01X5959818Y577980D01*
G01X5956842Y578277D01*
G01X5953882Y578724D01*
G01X5950951Y579316D01*
G01X5948051Y580055D01*
G01X5945193Y580936D01*
G01X5942381Y581960D01*
G01X5939625Y583121D01*
G01X5936928Y584418D01*
G01X5934302Y585851D01*
G01X5931749Y587411D01*
G01X5929277Y589095D01*
G01X5926892Y590903D01*
G01X5924601Y592826D01*
G01X5922407Y594860D01*
G01X5920319Y597002D01*
G01X5918338Y599244D01*
G01X5916473Y601584D01*
G01X5914728Y604012D01*
G01X5913105Y606527D01*
G01X5911609Y609117D01*
G01X5910243Y611779D01*
G01X5909013Y614505D01*
G01X5907921Y617291D01*
G01X5906966Y620126D01*
G01X5906156Y623006D01*
G01X5905490Y625922D01*
G01X5904972Y628868D01*
G01X5904599Y631838D01*
G01X5904375Y634822D01*
G01X5904302Y637812D01*
G01X5904302Y717812D01*
G01X5904375Y720801D01*
G01X5904599Y723786D01*
G01X5904972Y726755D01*
G01X5905490Y729701D01*
G01X5906156Y732617D01*
G01X5906966Y735498D01*
G01X5907921Y738332D01*
G01X5909013Y741119D01*
G01X5910243Y743844D01*
G01X5911609Y746506D01*
G01X5913105Y749097D01*
G01X5914728Y751611D01*
G01X5916473Y754040D01*
G01X5918338Y756379D01*
G01X5920319Y758622D01*
G01X5922407Y760763D01*
G01X5924601Y762798D01*
G01X5926892Y764720D01*
G01X5929277Y766529D01*
G01X5931749Y768213D01*
G01X5934302Y769772D01*
G01X5936928Y771205D01*
G01X5939625Y772503D01*
G01X5942381Y773664D01*
G01X5945193Y774687D01*
G01X5948051Y775569D01*
G01X5950951Y776308D01*
G01X5953882Y776900D01*
G01X5956842Y777347D01*
G01X5959818Y777644D01*
G01X5962805Y777794D01*
G37*
G36*
G01X5968785Y332628D02*
G01X5971761Y332331D01*
G01X5974721Y331884D01*
G01X5977652Y331292D01*
G01X5980552Y330553D01*
G01X5983410Y329672D01*
G01X5986222Y328648D01*
G01X5988978Y327487D01*
G01X5991675Y326189D01*
G01X5994301Y324757D01*
G01X5996854Y323197D01*
G01X5999326Y321513D01*
G01X6001711Y319705D01*
G01X6004002Y317782D01*
G01X6006196Y315747D01*
G01X6008284Y313606D01*
G01X6010265Y311363D01*
G01X6012130Y309024D01*
G01X6013875Y306596D01*
G01X6015498Y304081D01*
G01X6016994Y301490D01*
G01X6018360Y298828D01*
G01X6019590Y296103D01*
G01X6020682Y293317D01*
G01X6021637Y290482D01*
G01X6022447Y287602D01*
G01X6023113Y284686D01*
G01X6023631Y281739D01*
G01X6024004Y278770D01*
G01X6024228Y275786D01*
G01X6024301Y272796D01*
G01X6024301Y242796D01*
G01X6024228Y239806D01*
G01X6024004Y236822D01*
G01X6023631Y233853D01*
G01X6023113Y230906D01*
G01X6022447Y227990D01*
G01X6021637Y225110D01*
G01X6020682Y222275D01*
G01X6019590Y219489D01*
G01X6018360Y216764D01*
G01X6016994Y214102D01*
G01X6015498Y211511D01*
G01X6013875Y208996D01*
G01X6012130Y206568D01*
G01X6010265Y204229D01*
G01X6008284Y201986D01*
G01X6006196Y199845D01*
G01X6004002Y197810D01*
G01X6001711Y195887D01*
G01X5999326Y194079D01*
G01X5996854Y192395D01*
G01X5994301Y190835D01*
G01X5991675Y189403D01*
G01X5988978Y188105D01*
G01X5986222Y186944D01*
G01X5983410Y185920D01*
G01X5980552Y185039D01*
G01X5977652Y184300D01*
G01X5974721Y183708D01*
G01X5971761Y183261D01*
G01X5968785Y182964D01*
G01X5965798Y182814D01*
G01X5962805Y182814D01*
G01X5959818Y182964D01*
G01X5956842Y183261D01*
G01X5953882Y183708D01*
G01X5950951Y184300D01*
G01X5948051Y185039D01*
G01X5945193Y185920D01*
G01X5942381Y186944D01*
G01X5939625Y188105D01*
G01X5936928Y189403D01*
G01X5934302Y190835D01*
G01X5931749Y192395D01*
G01X5929277Y194079D01*
G01X5926892Y195887D01*
G01X5924601Y197810D01*
G01X5922407Y199845D01*
G01X5920319Y201986D01*
G01X5918338Y204229D01*
G01X5916473Y206568D01*
G01X5914728Y208996D01*
G01X5913105Y211511D01*
G01X5911609Y214102D01*
G01X5910243Y216764D01*
G01X5909013Y219489D01*
G01X5907921Y222275D01*
G01X5906966Y225110D01*
G01X5906156Y227990D01*
G01X5905490Y230906D01*
G01X5904972Y233853D01*
G01X5904599Y236822D01*
G01X5904375Y239806D01*
G01X5904302Y242796D01*
G01X5904302Y272796D01*
G01X5904375Y275786D01*
G01X5904599Y278770D01*
G01X5904972Y281739D01*
G01X5905490Y284686D01*
G01X5906156Y287602D01*
G01X5906966Y290482D01*
G01X5907921Y293317D01*
G01X5909013Y296103D01*
G01X5910243Y298828D01*
G01X5911609Y301490D01*
G01X5913105Y304081D01*
G01X5914728Y306596D01*
G01X5916473Y309024D01*
G01X5918338Y311363D01*
G01X5920319Y313606D01*
G01X5922407Y315747D01*
G01X5924601Y317782D01*
G01X5926892Y319705D01*
G01X5929277Y321513D01*
G01X5931749Y323197D01*
G01X5934302Y324757D01*
G01X5936928Y326189D01*
G01X5939625Y327487D01*
G01X5942381Y328648D01*
G01X5945193Y329672D01*
G01X5948051Y330553D01*
G01X5950951Y331292D01*
G01X5953882Y331884D01*
G01X5956842Y332331D01*
G01X5959818Y332628D01*
G01X5962805Y332778D01*
G01X5965798Y332778D01*
G01X5968785Y332628D01*
G37*
G36*
G01X6827802Y332778D02*
G01X6830795Y332778D01*
G01X6833782Y332628D01*
G01X6836758Y332331D01*
G01X6839718Y331884D01*
G01X6842649Y331292D01*
G01X6845549Y330553D01*
G01X6848407Y329672D01*
G01X6851219Y328648D01*
G01X6853975Y327487D01*
G01X6856672Y326189D01*
G01X6859298Y324757D01*
G01X6861851Y323197D01*
G01X6864323Y321513D01*
G01X6866708Y319705D01*
G01X6868999Y317782D01*
G01X6871193Y315747D01*
G01X6873281Y313606D01*
G01X6875262Y311363D01*
G01X6877127Y309024D01*
G01X6878872Y306596D01*
G01X6880495Y304081D01*
G01X6881991Y301490D01*
G01X6883357Y298828D01*
G01X6884587Y296103D01*
G01X6885679Y293317D01*
G01X6886634Y290482D01*
G01X6887444Y287602D01*
G01X6888110Y284686D01*
G01X6888628Y281739D01*
G01X6889001Y278770D01*
G01X6889225Y275786D01*
G01X6889298Y272796D01*
G01X6889298Y242796D01*
G01X6889225Y239806D01*
G01X6889001Y236822D01*
G01X6888628Y233853D01*
G01X6888110Y230906D01*
G01X6887444Y227990D01*
G01X6886634Y225110D01*
G01X6885679Y222275D01*
G01X6884587Y219489D01*
G01X6883357Y216764D01*
G01X6881991Y214102D01*
G01X6880495Y211511D01*
G01X6878872Y208996D01*
G01X6877127Y206568D01*
G01X6875262Y204229D01*
G01X6873281Y201986D01*
G01X6871193Y199845D01*
G01X6868999Y197810D01*
G01X6866708Y195887D01*
G01X6864323Y194079D01*
G01X6861851Y192395D01*
G01X6859298Y190835D01*
G01X6856672Y189403D01*
G01X6853975Y188105D01*
G01X6851219Y186944D01*
G01X6848407Y185920D01*
G01X6845549Y185039D01*
G01X6842649Y184300D01*
G01X6839718Y183708D01*
G01X6836758Y183261D01*
G01X6833782Y182964D01*
G01X6830795Y182814D01*
G01X6827802Y182814D01*
G01X6824815Y182964D01*
G01X6821839Y183261D01*
G01X6818879Y183708D01*
G01X6815948Y184300D01*
G01X6813048Y185039D01*
G01X6810190Y185920D01*
G01X6807378Y186944D01*
G01X6804622Y188105D01*
G01X6801925Y189403D01*
G01X6799299Y190835D01*
G01X6796746Y192395D01*
G01X6794274Y194079D01*
G01X6791889Y195887D01*
G01X6789598Y197810D01*
G01X6787404Y199845D01*
G01X6785316Y201986D01*
G01X6783335Y204229D01*
G01X6781470Y206568D01*
G01X6779725Y208996D01*
G01X6778102Y211511D01*
G01X6776606Y214102D01*
G01X6775240Y216764D01*
G01X6774010Y219489D01*
G01X6772918Y222275D01*
G01X6771963Y225110D01*
G01X6771153Y227990D01*
G01X6770487Y230906D01*
G01X6769969Y233853D01*
G01X6769596Y236822D01*
G01X6769372Y239806D01*
G01X6769299Y242796D01*
G01X6769299Y272796D01*
G01X6769372Y275786D01*
G01X6769596Y278770D01*
G01X6769969Y281739D01*
G01X6770487Y284686D01*
G01X6771153Y287602D01*
G01X6771963Y290482D01*
G01X6772918Y293317D01*
G01X6774010Y296103D01*
G01X6775240Y298828D01*
G01X6776606Y301490D01*
G01X6778102Y304081D01*
G01X6779725Y306596D01*
G01X6781470Y309024D01*
G01X6783335Y311363D01*
G01X6785316Y313606D01*
G01X6787404Y315747D01*
G01X6789598Y317782D01*
G01X6791889Y319705D01*
G01X6794274Y321513D01*
G01X6796746Y323197D01*
G01X6799299Y324757D01*
G01X6801925Y326189D01*
G01X6804622Y327487D01*
G01X6807378Y328648D01*
G01X6810190Y329672D01*
G01X6813048Y330553D01*
G01X6815948Y331292D01*
G01X6818879Y331884D01*
G01X6821839Y332331D01*
G01X6824815Y332628D01*
G01X6827802Y332778D01*
G37*
G36*
G01X5507786Y4865762D02*
G01X5461786Y4865762D01*
G01X5457786Y4869763D01*
G01X5457786Y4919826D01*
G01X5461786Y4923827D01*
G01X5507786Y4923827D01*
G01X5511786Y4919826D01*
G01X5511786Y4869763D01*
G01X5507786Y4865762D01*
G37*
G36*
G01X5507786Y4838762D02*
G01X5511786Y4834761D01*
G01X5511786Y4784698D01*
G01X5507786Y4780698D01*
G01X5461786Y4780698D01*
G01X5457786Y4784698D01*
G01X5457786Y4834761D01*
G01X5461786Y4838762D01*
G01X5507786Y4838762D01*
G37*
G36*
G01X5900318Y8733957D02*
G01X5900318Y8687957D01*
G01X5896318Y8683957D01*
G01X5838469Y8683957D01*
G01X5834469Y8687957D01*
G01X5834469Y8733957D01*
G01X5838469Y8737957D01*
G01X5896318Y8737957D01*
G01X5900318Y8733957D01*
G37*
G36*
G01X5939917Y8733957D02*
G01X5943918Y8737957D01*
G01X6001766Y8737957D01*
G01X6005767Y8733957D01*
G01X6005767Y8687957D01*
G01X6001766Y8683957D01*
G01X5943918Y8683957D01*
G01X5939917Y8687957D01*
G01X5939917Y8733957D01*
G37*
G36*
G01X5900318Y8568996D02*
G01X5900318Y8522997D01*
G01X5896318Y8518996D01*
G01X5838469Y8518996D01*
G01X5834469Y8522997D01*
G01X5834469Y8568996D01*
G01X5838469Y8572997D01*
G01X5896318Y8572997D01*
G01X5900318Y8568996D01*
G37*
G36*
G01X5939917Y8568996D02*
G01X5943918Y8572997D01*
G01X6001766Y8572997D01*
G01X6005767Y8568996D01*
G01X6005767Y8522997D01*
G01X6001766Y8518996D01*
G01X5943918Y8518996D01*
G01X5939917Y8522997D01*
G01X5939917Y8568996D01*
G37*
G36*
G01X1033451Y4495248D02*
G01X986632Y4533754D01*
G01X986632Y4602502D01*
G01X996631Y4612502D01*
G01X1114327Y4612502D01*
G01X1124327Y4602502D01*
G01X1124327Y4533754D01*
G01X1077513Y4495248D01*
G01X1033451Y4495248D01*
G37*
G36*
G01X1033451Y4423249D02*
G01X1077513Y4423249D01*
G01X1124327Y4384743D01*
G01X1124327Y4315995D01*
G01X1114327Y4305995D01*
G01X996631Y4305995D01*
G01X986632Y4315995D01*
G01X986632Y4384743D01*
G01X1033451Y4423249D01*
G37*
G36*
G01X739976Y4493699D02*
G01X693156Y4532206D01*
G01X693156Y4600953D01*
G01X703156Y4610953D01*
G01X820852Y4610953D01*
G01X830852Y4600953D01*
G01X830852Y4532206D01*
G01X784037Y4493699D01*
G01X739976Y4493699D01*
G37*
G36*
G01X739976Y4421701D02*
G01X784037Y4421701D01*
G01X830852Y4383194D01*
G01X830852Y4314447D01*
G01X820852Y4304447D01*
G01X703156Y4304447D01*
G01X693156Y4314447D01*
G01X693156Y4383194D01*
G01X739976Y4421701D01*
G37*
G36*
G01X1255334Y4849865D02*
G01X1255334Y4803865D01*
G01X1251334Y4799865D01*
G01X1201270Y4799865D01*
G01X1197270Y4803865D01*
G01X1197270Y4849865D01*
G01X1201270Y4853865D01*
G01X1251334Y4853865D01*
G01X1255334Y4849865D01*
G37*
G36*
G01X1282334Y4849865D02*
G01X1286335Y4853865D01*
G01X1336398Y4853865D01*
G01X1340399Y4849865D01*
G01X1340399Y4803865D01*
G01X1336398Y4799865D01*
G01X1286335Y4799865D01*
G01X1282334Y4803865D01*
G01X1282334Y4849865D01*
G37*
G36*
G01X1472555Y4803865D02*
G01X1472555Y4849865D01*
G01X1476555Y4853865D01*
G01X1526619Y4853865D01*
G01X1530619Y4849865D01*
G01X1530619Y4803865D01*
G01X1526619Y4799865D01*
G01X1476555Y4799865D01*
G01X1472555Y4803865D01*
G37*
G36*
G01X1445555Y4803865D02*
G01X1441554Y4799865D01*
G01X1391491Y4799865D01*
G01X1387490Y4803865D01*
G01X1387490Y4849865D01*
G01X1391491Y4853865D01*
G01X1441554Y4853865D01*
G01X1445555Y4849865D01*
G01X1445555Y4803865D01*
G37*
G36*
G01X1119776Y3870240D02*
G01X1119776Y3916240D01*
G01X1123776Y3920240D01*
G01X1173840Y3920240D01*
G01X1177840Y3916240D01*
G01X1177840Y3870240D01*
G01X1173840Y3866240D01*
G01X1123776Y3866240D01*
G01X1119776Y3870240D01*
G37*
G36*
G01X1092776Y3870240D02*
G01X1088775Y3866240D01*
G01X1038712Y3866240D01*
G01X1034711Y3870240D01*
G01X1034711Y3916240D01*
G01X1038712Y3920240D01*
G01X1088775Y3920240D01*
G01X1092776Y3916240D01*
G01X1092776Y3870240D01*
G37*
G36*
G01X1119776Y3755940D02*
G01X1119776Y3801940D01*
G01X1123776Y3805940D01*
G01X1173840Y3805940D01*
G01X1177840Y3801940D01*
G01X1177840Y3755940D01*
G01X1173840Y3751940D01*
G01X1123776Y3751940D01*
G01X1119776Y3755940D01*
G37*
G36*
G01X1092776Y3755940D02*
G01X1088775Y3751940D01*
G01X1038712Y3751940D01*
G01X1034711Y3755940D01*
G01X1034711Y3801940D01*
G01X1038712Y3805940D01*
G01X1088775Y3805940D01*
G01X1092776Y3801940D01*
G01X1092776Y3755940D01*
G37*
G36*
G01X1119776Y3628940D02*
G01X1119776Y3674940D01*
G01X1123776Y3678940D01*
G01X1173840Y3678940D01*
G01X1177840Y3674940D01*
G01X1177840Y3628940D01*
G01X1173840Y3624940D01*
G01X1123776Y3624940D01*
G01X1119776Y3628940D01*
G37*
G36*
G01X1092776Y3628940D02*
G01X1088775Y3624940D01*
G01X1038712Y3624940D01*
G01X1034711Y3628940D01*
G01X1034711Y3674940D01*
G01X1038712Y3678940D01*
G01X1088775Y3678940D01*
G01X1092776Y3674940D01*
G01X1092776Y3628940D01*
G37*
G36*
G01X1213078Y2960339D02*
G01X1218076Y2955337D01*
G01X1218076Y2875337D01*
G01X1213078Y2870339D01*
G01X1133078Y2870339D01*
G01X1128076Y2875337D01*
G01X1128076Y2899541D01*
G01X1165077Y2899541D01*
G01X1165077Y2932541D01*
G01X1128076Y2932541D01*
G01X1128076Y2955337D01*
G01X1133078Y2960339D01*
G01X1213078Y2960339D01*
G37*
G36*
G01X974074Y2870341D02*
G01X969075Y2875342D01*
G01X969075Y2955342D01*
G01X974074Y2960341D01*
G01X1054074Y2960341D01*
G01X1059075Y2955342D01*
G01X1059075Y2931139D01*
G01X1022075Y2931139D01*
G01X1022075Y2898139D01*
G01X1059075Y2898139D01*
G01X1059075Y2875342D01*
G01X1054074Y2870341D01*
G01X974074Y2870341D01*
G37*
G36*
G01X1661300Y4649000D02*
G01X1615300Y4649000D01*
G01X1611300Y4653001D01*
G01X1611300Y4703064D01*
G01X1615300Y4707065D01*
G01X1661300Y4707065D01*
G01X1665300Y4703064D01*
G01X1665300Y4653001D01*
G01X1661300Y4649000D01*
G37*
G36*
G01X1661300Y4622000D02*
G01X1665300Y4617999D01*
G01X1665300Y4567936D01*
G01X1661300Y4563936D01*
G01X1615300Y4563936D01*
G01X1611300Y4567936D01*
G01X1611300Y4617999D01*
G01X1615300Y4622000D01*
G01X1661300Y4622000D01*
G37*
G36*
G01X1780687Y4649000D02*
G01X1734688Y4649000D01*
G01X1730687Y4653001D01*
G01X1730687Y4703064D01*
G01X1734688Y4707065D01*
G01X1780687Y4707065D01*
G01X1784688Y4703064D01*
G01X1784688Y4653001D01*
G01X1780687Y4649000D01*
G37*
G36*
G01X1780687Y4622000D02*
G01X1784688Y4617999D01*
G01X1784688Y4567936D01*
G01X1780687Y4563936D01*
G01X1734688Y4563936D01*
G01X1730687Y4567936D01*
G01X1730687Y4617999D01*
G01X1734688Y4622000D01*
G01X1780687Y4622000D01*
G37*
G36*
G01X837400Y1064400D02*
G01X837400Y1018400D01*
G01X833399Y1014400D01*
G01X783336Y1014400D01*
G01X779336Y1018400D01*
G01X779336Y1064400D01*
G01X783336Y1068400D01*
G01X833399Y1068400D01*
G01X837400Y1064400D01*
G37*
G36*
G01X864400Y1064400D02*
G01X868401Y1068400D01*
G01X918464Y1068400D01*
G01X922465Y1064400D01*
G01X922465Y1018400D01*
G01X918464Y1014400D01*
G01X868401Y1014400D01*
G01X864400Y1018400D01*
G01X864400Y1064400D01*
G37*
G36*
G01X837400Y962800D02*
G01X837400Y916800D01*
G01X833399Y912800D01*
G01X783336Y912800D01*
G01X779336Y916800D01*
G01X779336Y962800D01*
G01X783336Y966800D01*
G01X833399Y966800D01*
G01X837400Y962800D01*
G37*
G36*
G01X864400Y962800D02*
G01X868401Y966800D01*
G01X918464Y966800D01*
G01X922465Y962800D01*
G01X922465Y916800D01*
G01X918464Y912800D01*
G01X868401Y912800D01*
G01X864400Y916800D01*
G01X864400Y962800D01*
G37*
G36*
G01X2742540Y665139D02*
G01X2696540Y665139D01*
G01X2692540Y669139D01*
G01X2692540Y719203D01*
G01X2696540Y723203D01*
G01X2742540Y723203D01*
G01X2746540Y719203D01*
G01X2746540Y669139D01*
G01X2742540Y665139D01*
G37*
G36*
G01X2742540Y638138D02*
G01X2746540Y634138D01*
G01X2746540Y584075D01*
G01X2742540Y580074D01*
G01X2696540Y580074D01*
G01X2692540Y584075D01*
G01X2692540Y634138D01*
G01X2696540Y638138D01*
G01X2742540Y638138D01*
G37*
G36*
G01X6741300Y5601500D02*
G01X6695300Y5601500D01*
G01X6691300Y5605501D01*
G01X6691300Y5655564D01*
G01X6695300Y5659565D01*
G01X6741300Y5659565D01*
G01X6745300Y5655564D01*
G01X6745300Y5605501D01*
G01X6741300Y5601500D01*
G37*
G36*
G01X6741300Y5574500D02*
G01X6745300Y5570499D01*
G01X6745300Y5520436D01*
G01X6741300Y5516436D01*
G01X6695300Y5516436D01*
G01X6691300Y5520436D01*
G01X6691300Y5570499D01*
G01X6695300Y5574500D01*
G01X6741300Y5574500D01*
G37*
G36*
G01X6209500Y4849000D02*
G01X6209500Y4803000D01*
G01X6205499Y4799000D01*
G01X6155436Y4799000D01*
G01X6151436Y4803000D01*
G01X6151436Y4849000D01*
G01X6155436Y4853000D01*
G01X6205499Y4853000D01*
G01X6209500Y4849000D01*
G37*
G36*
G01X6236500Y4849000D02*
G01X6240501Y4853000D01*
G01X6290564Y4853000D01*
G01X6294565Y4849000D01*
G01X6294565Y4803000D01*
G01X6290564Y4799000D01*
G01X6240501Y4799000D01*
G01X6236500Y4803000D01*
G01X6236500Y4849000D01*
G37*
G36*
G01X8061406Y5042094D02*
G01X8107405Y5042094D01*
G01X8111406Y5038093D01*
G01X8111406Y4988030D01*
G01X8107405Y4984029D01*
G01X8061406Y4984029D01*
G01X8057405Y4988030D01*
G01X8057405Y5038093D01*
G01X8061406Y5042094D01*
G37*
G36*
G01X8061406Y5069094D02*
G01X8057405Y5073095D01*
G01X8057405Y5123158D01*
G01X8061406Y5127158D01*
G01X8107405Y5127158D01*
G01X8111406Y5123158D01*
G01X8111406Y5073095D01*
G01X8107405Y5069094D01*
G01X8061406Y5069094D01*
G37*
G36*
G01X7769843Y2619189D02*
G01X7769843Y2573189D01*
G01X7765843Y2569189D01*
G01X7715779Y2569189D01*
G01X7711779Y2573189D01*
G01X7711779Y2619189D01*
G01X7715779Y2623189D01*
G01X7765843Y2623189D01*
G01X7769843Y2619189D01*
G37*
G36*
G01X7796843Y2619189D02*
G01X7800844Y2623189D01*
G01X7850907Y2623189D01*
G01X7854908Y2619189D01*
G01X7854908Y2573189D01*
G01X7850907Y2569189D01*
G01X7800844Y2569189D01*
G01X7796843Y2573189D01*
G01X7796843Y2619189D01*
G37*
G36*
G01X7885743Y2458889D02*
G01X7885743Y2504889D01*
G01X7889744Y2508889D01*
G01X7939807Y2508889D01*
G01X7943808Y2504889D01*
G01X7943808Y2458889D01*
G01X7939807Y2454889D01*
G01X7889744Y2454889D01*
G01X7885743Y2458889D01*
G37*
G36*
G01X7858743Y2458889D02*
G01X7854743Y2454889D01*
G01X7804679Y2454889D01*
G01X7800679Y2458889D01*
G01X7800679Y2504889D01*
G01X7804679Y2508889D01*
G01X7854743Y2508889D01*
G01X7858743Y2504889D01*
G01X7858743Y2458889D01*
G37*
G36*
G01X8192144Y2722389D02*
G01X8238143Y2722389D01*
G01X8242144Y2718389D01*
G01X8242144Y2668325D01*
G01X8238143Y2664325D01*
G01X8192144Y2664325D01*
G01X8188143Y2668325D01*
G01X8188143Y2718389D01*
G01X8192144Y2722389D01*
G37*
G36*
G01X8192144Y2749389D02*
G01X8188143Y2753390D01*
G01X8188143Y2803453D01*
G01X8192144Y2807454D01*
G01X8238143Y2807454D01*
G01X8242144Y2803453D01*
G01X8242144Y2753390D01*
G01X8238143Y2749389D01*
G01X8192144Y2749389D01*
G37*
G36*
G01X8293744Y2722389D02*
G01X8339743Y2722389D01*
G01X8343744Y2718389D01*
G01X8343744Y2668325D01*
G01X8339743Y2664325D01*
G01X8293744Y2664325D01*
G01X8289743Y2668325D01*
G01X8289743Y2718389D01*
G01X8293744Y2722389D01*
G37*
G36*
G01X8293744Y2749389D02*
G01X8289743Y2753390D01*
G01X8289743Y2803453D01*
G01X8293744Y2807454D01*
G01X8339743Y2807454D01*
G01X8343744Y2803453D01*
G01X8343744Y2753390D01*
G01X8339743Y2749389D01*
G01X8293744Y2749389D01*
G37*
G36*
G01X8395344Y2722389D02*
G01X8441343Y2722389D01*
G01X8445344Y2718389D01*
G01X8445344Y2668325D01*
G01X8441343Y2664325D01*
G01X8395344Y2664325D01*
G01X8391343Y2668325D01*
G01X8391343Y2718389D01*
G01X8395344Y2722389D01*
G37*
G36*
G01X8395344Y2749389D02*
G01X8391343Y2753390D01*
G01X8391343Y2803453D01*
G01X8395344Y2807454D01*
G01X8441343Y2807454D01*
G01X8445344Y2803453D01*
G01X8445344Y2753390D01*
G01X8441343Y2749389D01*
G01X8395344Y2749389D01*
G37*
G36*
G01X8090544Y2722389D02*
G01X8136543Y2722389D01*
G01X8140544Y2718389D01*
G01X8140544Y2668325D01*
G01X8136543Y2664325D01*
G01X8090544Y2664325D01*
G01X8086543Y2668325D01*
G01X8086543Y2718389D01*
G01X8090544Y2722389D01*
G37*
G36*
G01X8090544Y2749389D02*
G01X8086543Y2753390D01*
G01X8086543Y2803453D01*
G01X8090544Y2807454D01*
G01X8136543Y2807454D01*
G01X8140544Y2803453D01*
G01X8140544Y2753390D01*
G01X8136543Y2749389D01*
G01X8090544Y2749389D01*
G37*
G36*
G01X9136804Y4058771D02*
G01X9090805Y4058771D01*
G01X9086804Y4062771D01*
G01X9086804Y4112835D01*
G01X9090805Y4116835D01*
G01X9136804Y4116835D01*
G01X9140805Y4112835D01*
G01X9140805Y4062771D01*
G01X9136804Y4058771D01*
G37*
G36*
G01X9136804Y4031770D02*
G01X9140805Y4027770D01*
G01X9140805Y3977707D01*
G01X9136804Y3973706D01*
G01X9090805Y3973706D01*
G01X9086804Y3977707D01*
G01X9086804Y4027770D01*
G01X9090805Y4031770D01*
G01X9136804Y4031770D01*
G37*
G36*
G01X7341735Y3149362D02*
G01X7341735Y3103362D01*
G01X7337735Y3099362D01*
G01X7287671Y3099362D01*
G01X7283671Y3103362D01*
G01X7283671Y3149362D01*
G01X7287671Y3153362D01*
G01X7337735Y3153362D01*
G01X7341735Y3149362D01*
G37*
G36*
G01X7368735Y3149362D02*
G01X7372736Y3153362D01*
G01X7422799Y3153362D01*
G01X7426800Y3149362D01*
G01X7426800Y3103362D01*
G01X7422799Y3099362D01*
G01X7372736Y3099362D01*
G01X7368735Y3103362D01*
G01X7368735Y3149362D01*
G37*
G36*
G01X8725544Y2722389D02*
G01X8771543Y2722389D01*
G01X8775544Y2718389D01*
G01X8775544Y2668325D01*
G01X8771543Y2664325D01*
G01X8725544Y2664325D01*
G01X8721543Y2668325D01*
G01X8721543Y2718389D01*
G01X8725544Y2722389D01*
G37*
G36*
G01X8725544Y2749389D02*
G01X8721543Y2753390D01*
G01X8721543Y2803453D01*
G01X8725544Y2807454D01*
G01X8771543Y2807454D01*
G01X8775544Y2803453D01*
G01X8775544Y2753390D01*
G01X8771543Y2749389D01*
G01X8725544Y2749389D01*
G37*
G36*
G01X8623944Y2722389D02*
G01X8669943Y2722389D01*
G01X8673944Y2718389D01*
G01X8673944Y2668325D01*
G01X8669943Y2664325D01*
G01X8623944Y2664325D01*
G01X8619943Y2668325D01*
G01X8619943Y2718389D01*
G01X8623944Y2722389D01*
G37*
G36*
G01X8623944Y2749389D02*
G01X8619943Y2753390D01*
G01X8619943Y2803453D01*
G01X8623944Y2807454D01*
G01X8669943Y2807454D01*
G01X8673944Y2803453D01*
G01X8673944Y2753390D01*
G01X8669943Y2749389D01*
G01X8623944Y2749389D01*
G37*
G36*
G01X8911243Y4120989D02*
G01X8865244Y4120989D01*
G01X8861243Y4124990D01*
G01X8861243Y4175053D01*
G01X8865244Y4179054D01*
G01X8911243Y4179054D01*
G01X8915244Y4175053D01*
G01X8915244Y4124990D01*
G01X8911243Y4120989D01*
G37*
G36*
G01X8911243Y4093989D02*
G01X8915244Y4089989D01*
G01X8915244Y4039925D01*
G01X8911243Y4035925D01*
G01X8865244Y4035925D01*
G01X8861243Y4039925D01*
G01X8861243Y4089989D01*
G01X8865244Y4093989D01*
G01X8911243Y4093989D01*
G37*
G36*
G01X8827144Y2722389D02*
G01X8873143Y2722389D01*
G01X8877144Y2718389D01*
G01X8877144Y2668325D01*
G01X8873143Y2664325D01*
G01X8827144Y2664325D01*
G01X8823143Y2668325D01*
G01X8823143Y2718389D01*
G01X8827144Y2722389D01*
G37*
G36*
G01X8827144Y2749389D02*
G01X8823143Y2753390D01*
G01X8823143Y2803453D01*
G01X8827144Y2807454D01*
G01X8873143Y2807454D01*
G01X8877144Y2803453D01*
G01X8877144Y2753390D01*
G01X8873143Y2749389D01*
G01X8827144Y2749389D01*
G37*
G36*
G01X7341735Y3261500D02*
G01X7341735Y3215500D01*
G01X7337735Y3211500D01*
G01X7287671Y3211500D01*
G01X7283671Y3215500D01*
G01X7283671Y3261500D01*
G01X7287671Y3265500D01*
G01X7337735Y3265500D01*
G01X7341735Y3261500D01*
G37*
G36*
G01X7368735Y3261500D02*
G01X7372736Y3265500D01*
G01X7422799Y3265500D01*
G01X7426800Y3261500D01*
G01X7426800Y3215500D01*
G01X7422799Y3211500D01*
G01X7372736Y3211500D01*
G01X7368735Y3215500D01*
G01X7368735Y3261500D01*
G37*
G36*
G01X8522344Y2722389D02*
G01X8568343Y2722389D01*
G01X8572344Y2718389D01*
G01X8572344Y2668325D01*
G01X8568343Y2664325D01*
G01X8522344Y2664325D01*
G01X8518343Y2668325D01*
G01X8518343Y2718389D01*
G01X8522344Y2722389D01*
G37*
G36*
G01X8522344Y2749389D02*
G01X8518343Y2753390D01*
G01X8518343Y2803453D01*
G01X8522344Y2807454D01*
G01X8568343Y2807454D01*
G01X8572344Y2803453D01*
G01X8572344Y2753390D01*
G01X8568343Y2749389D01*
G01X8522344Y2749389D01*
G37*
G36*
G01X9012843Y4120989D02*
G01X8966844Y4120989D01*
G01X8962843Y4124990D01*
G01X8962843Y4175053D01*
G01X8966844Y4179054D01*
G01X9012843Y4179054D01*
G01X9016844Y4175053D01*
G01X9016844Y4124990D01*
G01X9012843Y4120989D01*
G37*
G36*
G01X9012843Y4093989D02*
G01X9016844Y4089989D01*
G01X9016844Y4039925D01*
G01X9012843Y4035925D01*
G01X8966844Y4035925D01*
G01X8962843Y4039925D01*
G01X8962843Y4089989D01*
G01X8966844Y4093989D01*
G01X9012843Y4093989D01*
G37*
G36*
G01X8152600Y4366400D02*
G01X8152600Y4320400D01*
G01X8148599Y4316400D01*
G01X8098536Y4316400D01*
G01X8094536Y4320400D01*
G01X8094536Y4366400D01*
G01X8098536Y4370400D01*
G01X8148599Y4370400D01*
G01X8152600Y4366400D01*
G37*
G36*
G01X8179600Y4366400D02*
G01X8183601Y4370400D01*
G01X8233664Y4370400D01*
G01X8237665Y4366400D01*
G01X8237665Y4320400D01*
G01X8233664Y4316400D01*
G01X8183601Y4316400D01*
G01X8179600Y4320400D01*
G01X8179600Y4366400D01*
G37*
G36*
G01X8051000Y4112400D02*
G01X8051000Y4066400D01*
G01X8046999Y4062400D01*
G01X7996936Y4062400D01*
G01X7992936Y4066400D01*
G01X7992936Y4112400D01*
G01X7996936Y4116400D01*
G01X8046999Y4116400D01*
G01X8051000Y4112400D01*
G37*
G36*
G01X8078000Y4112400D02*
G01X8082001Y4116400D01*
G01X8132064Y4116400D01*
G01X8136065Y4112400D01*
G01X8136065Y4066400D01*
G01X8132064Y4062400D01*
G01X8082001Y4062400D01*
G01X8078000Y4066400D01*
G01X8078000Y4112400D01*
G37*
G36*
G01X6394818Y5389918D02*
G01X6394818Y5343919D01*
G01X6390818Y5339918D01*
G01X6340754Y5339918D01*
G01X6336754Y5343919D01*
G01X6336754Y5389918D01*
G01X6340754Y5393919D01*
G01X6390818Y5393919D01*
G01X6394818Y5389918D01*
G37*
G36*
G01X6421819Y5389918D02*
G01X6425819Y5393919D01*
G01X6475882Y5393919D01*
G01X6479883Y5389918D01*
G01X6479883Y5343919D01*
G01X6475882Y5339918D01*
G01X6425819Y5339918D01*
G01X6421819Y5343919D01*
G01X6421819Y5389918D01*
G37*
G36*
G01X9371752Y1042692D02*
G01X9376750Y1037691D01*
G01X9376750Y957691D01*
G01X9371752Y952692D01*
G01X9291752Y952692D01*
G01X9286751Y957691D01*
G01X9286751Y981894D01*
G01X9323751Y981894D01*
G01X9323751Y1014894D01*
G01X9286751Y1014894D01*
G01X9286751Y1037691D01*
G01X9291752Y1042692D01*
G01X9371752Y1042692D01*
G37*
G36*
G01X9132748Y952695D02*
G01X9127749Y957696D01*
G01X9127749Y1037696D01*
G01X9132748Y1042694D01*
G01X9212748Y1042694D01*
G01X9217749Y1037696D01*
G01X9217749Y1013492D01*
G01X9180749Y1013492D01*
G01X9180749Y980492D01*
G01X9217749Y980492D01*
G01X9217749Y957696D01*
G01X9212748Y952695D01*
G01X9132748Y952695D01*
G37*
G36*
G01X7225830Y800559D02*
G01X7230831Y805557D01*
G01X7310831Y805557D01*
G01X7315830Y800559D01*
G01X7315830Y720559D01*
G01X7310831Y715558D01*
G01X7286628Y715558D01*
G01X7286628Y752558D01*
G01X7253628Y752558D01*
G01X7253628Y715558D01*
G01X7230831Y715558D01*
G01X7225830Y720559D01*
G01X7225830Y800559D01*
G37*
G36*
G01X7315827Y561555D02*
G01X7310826Y556556D01*
G01X7230826Y556556D01*
G01X7225828Y561555D01*
G01X7225828Y641555D01*
G01X7230826Y646556D01*
G01X7255030Y646556D01*
G01X7255030Y609556D01*
G01X7288030Y609556D01*
G01X7288030Y646556D01*
G01X7310826Y646556D01*
G01X7315827Y641555D01*
G01X7315827Y561555D01*
G37*
G36*
G01X6865099Y6441300D02*
G01X6865099Y6487300D01*
G01X6869100Y6491300D01*
G01X6926948Y6491300D01*
G01X6930949Y6487300D01*
G01X6930949Y6441300D01*
G01X6926948Y6437300D01*
G01X6869100Y6437300D01*
G01X6865099Y6441300D01*
G37*
G36*
G01X6825501Y6441300D02*
G01X6821500Y6437300D01*
G01X6763652Y6437300D01*
G01X6759651Y6441300D01*
G01X6759651Y6487300D01*
G01X6763652Y6491300D01*
G01X6821500Y6491300D01*
G01X6825501Y6487300D01*
G01X6825501Y6441300D01*
G37*
G36*
G01X6825501Y6373000D02*
G01X6825501Y6327000D01*
G01X6821500Y6323000D01*
G01X6763652Y6323000D01*
G01X6759651Y6327000D01*
G01X6759651Y6373000D01*
G01X6763652Y6377000D01*
G01X6821500Y6377000D01*
G01X6825501Y6373000D01*
G37*
G36*
G01X6865099Y6373000D02*
G01X6869100Y6377000D01*
G01X6926948Y6377000D01*
G01X6930949Y6373000D01*
G01X6930949Y6327000D01*
G01X6926948Y6323000D01*
G01X6869100Y6323000D01*
G01X6865099Y6327000D01*
G01X6865099Y6373000D01*
G37*
G36*
G01X5786501Y2561757D02*
G01X5786501Y2515757D01*
G01X5782501Y2511757D01*
G01X5724652Y2511757D01*
G01X5720652Y2515757D01*
G01X5720652Y2561757D01*
G01X5724652Y2565757D01*
G01X5782501Y2565757D01*
G01X5786501Y2561757D01*
G37*
G36*
G01X5826100Y2561757D02*
G01X5830100Y2565757D01*
G01X5887949Y2565757D01*
G01X5891949Y2561757D01*
G01X5891949Y2515757D01*
G01X5887949Y2511757D01*
G01X5830100Y2511757D01*
G01X5826100Y2515757D01*
G01X5826100Y2561757D01*
G37*
G36*
G01X5786501Y2396796D02*
G01X5786501Y2350797D01*
G01X5782501Y2346796D01*
G01X5724652Y2346796D01*
G01X5720652Y2350797D01*
G01X5720652Y2396796D01*
G01X5724652Y2400797D01*
G01X5782501Y2400797D01*
G01X5786501Y2396796D01*
G37*
G36*
G01X5826100Y2396796D02*
G01X5830100Y2400797D01*
G01X5887949Y2400797D01*
G01X5891949Y2396796D01*
G01X5891949Y2350797D01*
G01X5887949Y2346796D01*
G01X5830100Y2346796D01*
G01X5826100Y2350797D01*
G01X5826100Y2396796D01*
G37*
G36*
G01X6542900Y2323300D02*
G01X6588900Y2323300D01*
G01X6592900Y2319299D01*
G01X6592900Y2269236D01*
G01X6588900Y2265236D01*
G01X6542900Y2265236D01*
G01X6538900Y2269236D01*
G01X6538900Y2319299D01*
G01X6542900Y2323300D01*
G37*
G36*
G01X6542900Y2350300D02*
G01X6538900Y2354301D01*
G01X6538900Y2404364D01*
G01X6542900Y2408365D01*
G01X6588900Y2408365D01*
G01X6592900Y2404364D01*
G01X6592900Y2354301D01*
G01X6588900Y2350300D01*
G01X6542900Y2350300D01*
G37*
G36*
G01X6288900Y2323300D02*
G01X6334900Y2323300D01*
G01X6338900Y2319299D01*
G01X6338900Y2269236D01*
G01X6334900Y2265236D01*
G01X6288900Y2265236D01*
G01X6284900Y2269236D01*
G01X6284900Y2319299D01*
G01X6288900Y2323300D01*
G37*
G36*
G01X6288900Y2350300D02*
G01X6284900Y2354301D01*
G01X6284900Y2404364D01*
G01X6288900Y2408365D01*
G01X6334900Y2408365D01*
G01X6338900Y2404364D01*
G01X6338900Y2354301D01*
G01X6334900Y2350300D01*
G01X6288900Y2350300D01*
G37*
G36*
G01X6071845Y2350657D02*
G01X6071845Y2396657D01*
G01X6075845Y2400657D01*
G01X6125909Y2400657D01*
G01X6129909Y2396657D01*
G01X6129909Y2350657D01*
G01X6125909Y2346657D01*
G01X6075845Y2346657D01*
G01X6071845Y2350657D01*
G37*
G36*
G01X6044844Y2350657D02*
G01X6040844Y2346657D01*
G01X5990781Y2346657D01*
G01X5986780Y2350657D01*
G01X5986780Y2396657D01*
G01X5990781Y2400657D01*
G01X6040844Y2400657D01*
G01X6044844Y2396657D01*
G01X6044844Y2350657D01*
G37*
G36*
G01X6071400Y2517000D02*
G01X6071400Y2563000D01*
G01X6075401Y2567000D01*
G01X6125464Y2567000D01*
G01X6129465Y2563000D01*
G01X6129465Y2517000D01*
G01X6125464Y2513000D01*
G01X6075401Y2513000D01*
G01X6071400Y2517000D01*
G37*
G36*
G01X6044400Y2517000D02*
G01X6040399Y2513000D01*
G01X5990336Y2513000D01*
G01X5986336Y2517000D01*
G01X5986336Y2563000D01*
G01X5990336Y2567000D01*
G01X6040399Y2567000D01*
G01X6044400Y2563000D01*
G01X6044400Y2517000D01*
G37*
G36*
G01X6606400Y6501600D02*
G01X6652400Y6501600D01*
G01X6656400Y6497599D01*
G01X6656400Y6447536D01*
G01X6652400Y6443536D01*
G01X6606400Y6443536D01*
G01X6602400Y6447536D01*
G01X6602400Y6497599D01*
G01X6606400Y6501600D01*
G37*
G36*
G01X6606400Y6528600D02*
G01X6602400Y6532601D01*
G01X6602400Y6582664D01*
G01X6606400Y6586665D01*
G01X6652400Y6586665D01*
G01X6656400Y6582664D01*
G01X6656400Y6532601D01*
G01X6652400Y6528600D01*
G01X6606400Y6528600D01*
G37*
G36*
G01X6615900Y6373000D02*
G01X6615900Y6327000D01*
G01X6611899Y6323000D01*
G01X6561836Y6323000D01*
G01X6557836Y6327000D01*
G01X6557836Y6373000D01*
G01X6561836Y6377000D01*
G01X6611899Y6377000D01*
G01X6615900Y6373000D01*
G37*
G36*
G01X6642900Y6373000D02*
G01X6646901Y6377000D01*
G01X6696964Y6377000D01*
G01X6700965Y6373000D01*
G01X6700965Y6327000D01*
G01X6696964Y6323000D01*
G01X6646901Y6323000D01*
G01X6642900Y6327000D01*
G01X6642900Y6373000D01*
G37*
G36*
G01X5715800Y8689200D02*
G01X5715800Y8735200D01*
G01X5719801Y8739200D01*
G01X5769864Y8739200D01*
G01X5773865Y8735200D01*
G01X5773865Y8689200D01*
G01X5769864Y8685200D01*
G01X5719801Y8685200D01*
G01X5715800Y8689200D01*
G37*
G36*
G01X5688800Y8689200D02*
G01X5684799Y8685200D01*
G01X5634736Y8685200D01*
G01X5630736Y8689200D01*
G01X5630736Y8735200D01*
G01X5634736Y8739200D01*
G01X5684799Y8739200D01*
G01X5688800Y8735200D01*
G01X5688800Y8689200D01*
G37*
G36*
G01X5716245Y8522997D02*
G01X5716245Y8568996D01*
G01X5720245Y8572997D01*
G01X5770309Y8572997D01*
G01X5774309Y8568996D01*
G01X5774309Y8522997D01*
G01X5770309Y8518996D01*
G01X5720245Y8518996D01*
G01X5716245Y8522997D01*
G37*
G36*
G01X5689244Y8522997D02*
G01X5685244Y8518996D01*
G01X5635181Y8518996D01*
G01X5631180Y8522997D01*
G01X5631180Y8568996D01*
G01X5635181Y8572997D01*
G01X5685244Y8572997D01*
G01X5689244Y8568996D01*
G01X5689244Y8522997D01*
G37*
G36*
G01X4811367Y2847611D02*
G01X4816366Y2842610D01*
G01X4816366Y2762610D01*
G01X4811367Y2757611D01*
G01X4731367Y2757611D01*
G01X4726366Y2762610D01*
G01X4726366Y2786813D01*
G01X4763366Y2786813D01*
G01X4763366Y2819813D01*
G01X4726366Y2819813D01*
G01X4726366Y2842610D01*
G01X4731367Y2847611D01*
G01X4811367Y2847611D01*
G37*
G36*
G01X4572363Y2757613D02*
G01X4567365Y2762615D01*
G01X4567365Y2842615D01*
G01X4572363Y2847613D01*
G01X4652363Y2847613D01*
G01X4657364Y2842615D01*
G01X4657364Y2818411D01*
G01X4620364Y2818411D01*
G01X4620364Y2785411D01*
G01X4657364Y2785411D01*
G01X4657364Y2762615D01*
G01X4652363Y2757613D01*
G01X4572363Y2757613D01*
G37*
G36*
G01X4811367Y2673899D02*
G01X4816366Y2668897D01*
G01X4816366Y2588898D01*
G01X4811367Y2583899D01*
G01X4731367Y2583899D01*
G01X4726366Y2588898D01*
G01X4726366Y2613101D01*
G01X4763366Y2613101D01*
G01X4763366Y2646101D01*
G01X4726366Y2646101D01*
G01X4726366Y2668897D01*
G01X4731367Y2673899D01*
G01X4811367Y2673899D01*
G37*
G36*
G01X4572363Y2583901D02*
G01X4567365Y2588903D01*
G01X4567365Y2668902D01*
G01X4572363Y2673901D01*
G01X4652363Y2673901D01*
G01X4657364Y2668902D01*
G01X4657364Y2644699D01*
G01X4620364Y2644699D01*
G01X4620364Y2611699D01*
G01X4657364Y2611699D01*
G01X4657364Y2588903D01*
G01X4652363Y2583901D01*
G01X4572363Y2583901D01*
G37*
G36*
G01X906902Y5366299D02*
G01X911901Y5361297D01*
G01X911901Y5281298D01*
G01X906902Y5276299D01*
G01X826902Y5276299D01*
G01X821901Y5281298D01*
G01X821901Y5305501D01*
G01X858901Y5305501D01*
G01X858901Y5338501D01*
G01X821901Y5338501D01*
G01X821901Y5361297D01*
G01X826902Y5366299D01*
G01X906902Y5366299D01*
G37*
G36*
G01X667898Y5276301D02*
G01X662899Y5281303D01*
G01X662899Y5361302D01*
G01X667898Y5366301D01*
G01X747898Y5366301D01*
G01X752899Y5361302D01*
G01X752899Y5337099D01*
G01X715899Y5337099D01*
G01X715899Y5304099D01*
G01X752899Y5304099D01*
G01X752899Y5281303D01*
G01X747898Y5276301D01*
G01X667898Y5276301D01*
G37*
G36*
G01X906902Y5538936D02*
G01X911901Y5533935D01*
G01X911901Y5453935D01*
G01X906902Y5448937D01*
G01X826902Y5448937D01*
G01X821901Y5453935D01*
G01X821901Y5478139D01*
G01X858901Y5478139D01*
G01X858901Y5511139D01*
G01X821901Y5511139D01*
G01X821901Y5533935D01*
G01X826902Y5538936D01*
G01X906902Y5538936D01*
G37*
G36*
G01X667898Y5448939D02*
G01X662899Y5453940D01*
G01X662899Y5533940D01*
G01X667898Y5538939D01*
G01X747898Y5538939D01*
G01X752899Y5533940D01*
G01X752899Y5509737D01*
G01X715899Y5509737D01*
G01X715899Y5476737D01*
G01X752899Y5476737D01*
G01X752899Y5453940D01*
G01X747898Y5448939D01*
G01X667898Y5448939D01*
G37*
G36*
G01X240500Y5141100D02*
G01X240500Y5095100D01*
G01X236499Y5091100D01*
G01X186436Y5091100D01*
G01X182436Y5095100D01*
G01X182436Y5141100D01*
G01X186436Y5145100D01*
G01X236499Y5145100D01*
G01X240500Y5141100D01*
G37*
G36*
G01X267500Y5141100D02*
G01X271501Y5145100D01*
G01X321564Y5145100D01*
G01X325565Y5141100D01*
G01X325565Y5095100D01*
G01X321564Y5091100D01*
G01X271501Y5091100D01*
G01X267500Y5095100D01*
G01X267500Y5141100D01*
G37*
G36*
G01X7555700Y3045600D02*
G01X7555700Y2999600D01*
G01X7551699Y2995600D01*
G01X7501636Y2995600D01*
G01X7497636Y2999600D01*
G01X7497636Y3045600D01*
G01X7501636Y3049600D01*
G01X7551699Y3049600D01*
G01X7555700Y3045600D01*
G37*
G36*
G01X7582700Y3045600D02*
G01X7586701Y3049600D01*
G01X7636764Y3049600D01*
G01X7640765Y3045600D01*
G01X7640765Y2999600D01*
G01X7636764Y2995600D01*
G01X7586701Y2995600D01*
G01X7582700Y2999600D01*
G01X7582700Y3045600D01*
G37*

G04 Pad Start*
G54D10*
G01X3771900Y1606398D03*
G01X3771900Y1746402D03*
G01X2709042Y2537549D03*
G01X2709042Y2677553D03*
G54D11*
G01X4989486Y3941774D03*
G01X4989486Y3857750D03*
G01X4876800Y3940912D03*
G01X4876800Y3856888D03*
G01X4990841Y5135602D03*
G01X4990841Y5219625D03*
G01X4876541Y5134304D03*
G01X4876541Y5218327D03*
G54D12*
G01X5315102Y5080000D03*
G01X5175098Y5080000D03*
G01X5318187Y3993566D03*
G01X5178183Y3993566D03*
G01X4551183Y5080862D03*
G01X4691188Y5080862D03*
G01X4551488Y4001362D03*
G01X4691493Y4001362D03*
G01X3702202Y7505700D03*
G01X3562198Y7505700D03*
G54D13*
G01X5096993Y4876800D03*
G01X5317007Y4876800D03*
G01X5096993Y4203700D03*
G01X5317007Y4203700D03*
G01X4769293Y4877662D03*
G01X4549278Y4877662D03*
G01X4770907Y4203700D03*
G01X4550893Y4203700D03*
G54D14*
G01X4146398Y1781279D03*
G01X4146398Y1846277D03*
G01X4146398Y1911276D03*
G01X4146398Y1976275D03*
G01X3921379Y1846277D03*
G01X3921379Y1781279D03*
G54D16*
G01X4033876Y1878789D03*
G54D14*
G01X3921379Y1976275D03*
G01X3921379Y1911276D03*
G01X3071609Y2709202D03*
G01X3071609Y2774201D03*
G01X3071609Y2839199D03*
G01X3071609Y2904198D03*
G01X2846591Y2774201D03*
G01X2846591Y2709202D03*
G54D16*
G01X2959087Y2806713D03*
G54D14*
G01X2846591Y2904198D03*
G01X2846591Y2839199D03*
G54D17*
G01X6206800Y8214799D03*
G01X5451800Y8189798D03*
G01X6206800Y8164800D03*
G01X5451800Y8139798D03*
G01X6206800Y8114800D03*
G01X5451800Y8089798D03*
G01X6206800Y8064800D03*
G01X5451800Y8039799D03*
G01X6206800Y8014800D03*
G01X5451800Y7989799D03*
G01X6206800Y7964800D03*
G01X5451800Y7739799D03*
G01X6206800Y7714800D03*
G01X5451800Y7689799D03*
G01X6206800Y7664801D03*
G01X5451800Y7639799D03*
G01X6206800Y7614801D03*
G01X5451800Y7589799D03*
G01X6206800Y7564801D03*
G01X5451800Y7539800D03*
G01X6206800Y7514801D03*
G01X5451800Y7489800D03*
G01X6206800Y7464801D03*
G01X5451800Y7439800D03*
G01X6206800Y7414801D03*
G01X5451800Y7389800D03*
G01X6206800Y7364801D03*
G01X5451800Y7339800D03*
G01X6206800Y7314801D03*
G01X5451800Y7289800D03*
G01X6206800Y7264801D03*
G01X5451800Y7239800D03*
G01X6206800Y7214801D03*
G01X5451800Y7189800D03*
G01X6206800Y7164802D03*
G01X5451800Y7139800D03*
G01X6206800Y7114802D03*
G01X5451800Y7089800D03*
G01X6206800Y7064802D03*
G01X5451800Y7039801D03*
G01X6206800Y7014802D03*
G01X5451800Y6989801D03*
G01X6206800Y6964802D03*
G01X5451800Y6939801D03*
G01X6206800Y6914802D03*
G01X5451800Y6889801D03*
G01X6206800Y6864802D03*
G01X5451800Y6839801D03*
G01X6206800Y6814802D03*
G01X5451800Y6789801D03*
G01X6206800Y6764802D03*
G01X5451800Y6739801D03*
G01X6206800Y6714802D03*
G01X5451800Y6689801D03*
G01X6206800Y6664803D03*
G01X5451800Y6639801D03*
G01X6206800Y6614803D03*
G01X5451800Y6589801D03*
G01X6206800Y6564803D03*
G01X5451800Y6539802D03*
G01X6206800Y6514803D03*
G01X5451800Y6489802D03*
G01X6206800Y6464803D03*
G01X5451800Y6439802D03*
G01X6206800Y6414803D03*
G01X5451800Y6389802D03*
G01X6206800Y6364803D03*
G54D18*
G01X6129299Y8324799D03*
G01X6129299Y6254803D03*
G54D19*
G01X3340694Y645199D03*
G01X3890706Y645199D03*
G54D20*
G01X3463706Y645199D03*
G01X3767694Y645199D03*
G54D21*
G01X3565687Y645199D03*
G01X3665713Y645199D03*
G54D22*
G01X3088777Y640195D03*
G01X4142623Y640195D03*
G54D23*
G01X3083697Y280201D03*
G01X4147703Y280201D03*
G54D24*
G01X7626396Y5226101D03*
G01X7626396Y5161102D03*
G01X7626396Y5096104D03*
G01X7626396Y5031105D03*
G01X7626396Y4966106D03*
G01X7626396Y4836109D03*
G01X7626396Y4706112D03*
G01X7626396Y4576089D03*
G01X7626396Y4446092D03*
G01X7626396Y4316095D03*
G01X7626396Y4186098D03*
G01X7626396Y4121099D03*
G01X7561397Y5226101D03*
G01X7561397Y5161102D03*
G01X7561397Y5096104D03*
G01X7561397Y5031105D03*
G01X7561397Y4966106D03*
G01X7561397Y4901108D03*
G01X7561397Y4836109D03*
G01X7561397Y4771111D03*
G01X7561397Y4706112D03*
G01X7561397Y4641088D03*
G01X7561397Y4576089D03*
G01X7561397Y4511091D03*
G01X7561397Y4446092D03*
G01X7561397Y4381094D03*
G01X7561397Y4316095D03*
G01X7561397Y4251096D03*
G01X7561397Y4186098D03*
G01X7561397Y4121099D03*
G01X7496399Y5226101D03*
G01X7496399Y5161102D03*
G01X7496399Y5096104D03*
G01X7496399Y5031105D03*
G01X7496399Y4966106D03*
G01X7496399Y4901108D03*
G01X7496399Y4836109D03*
G01X7496399Y4771111D03*
G01X7496399Y4706112D03*
G01X7496399Y4641088D03*
G01X7496399Y4576089D03*
G01X7496399Y4511091D03*
G01X7496399Y4446092D03*
G01X7496399Y4381094D03*
G01X7496399Y4316095D03*
G01X7496399Y4251096D03*
G01X7496399Y4186098D03*
G01X7496399Y4121099D03*
G01X7431400Y5226101D03*
G01X7431400Y5161102D03*
G01X7431400Y5096104D03*
G01X7431400Y5031105D03*
G01X7431400Y4251096D03*
G01X7431400Y4186098D03*
G01X7366401Y5161102D03*
G01X7366401Y5096104D03*
G01X7366401Y4901108D03*
G01X7366401Y4836109D03*
G01X7366401Y4771111D03*
G01X7366401Y4706112D03*
G01X7366401Y4641088D03*
G01X7366401Y4576089D03*
G01X7366401Y4511091D03*
G01X7366401Y4446092D03*
G01X7366401Y4381094D03*
G01X7366401Y4251096D03*
G01X7366401Y4186098D03*
G01X7366401Y4121099D03*
G01X7301403Y5226101D03*
G01X7301403Y5161102D03*
G01X7301403Y5096104D03*
G01X7301403Y4966106D03*
G01X7301403Y4901108D03*
G01X7301403Y4836109D03*
G01X7301403Y4771111D03*
G01X7301403Y4706112D03*
G01X7301403Y4576089D03*
G01X7301403Y4511091D03*
G01X7301403Y4446092D03*
G01X7301403Y4381094D03*
G01X7301403Y4251096D03*
G01X7301403Y4186098D03*
G01X7236404Y5161102D03*
G01X7236404Y5096104D03*
G01X7236404Y4966106D03*
G01X7236404Y4901108D03*
G01X7236404Y4836109D03*
G01X7236404Y4771111D03*
G01X7236404Y4576089D03*
G01X7236404Y4511091D03*
G01X7236404Y4446092D03*
G01X7236404Y4251096D03*
G01X7236404Y4186098D03*
G01X7236404Y4121099D03*
G01X7171406Y5226101D03*
G01X7171406Y5161102D03*
G01X7171406Y5096104D03*
G01X7171406Y4901108D03*
G01X7171406Y4381094D03*
G01X7171406Y4251096D03*
G01X7171406Y4186098D03*
G01X7106407Y5161102D03*
G01X7106407Y5096104D03*
G01X7106407Y4966106D03*
G01X7106407Y4901108D03*
G01X7106407Y4771111D03*
G01X7106407Y4576089D03*
G01X7106407Y4446092D03*
G01X7106407Y4251096D03*
G01X7106407Y4186098D03*
G01X7106407Y4121099D03*
G01X7041383Y5226101D03*
G01X7041383Y5161102D03*
G01X7041383Y5096104D03*
G01X7041383Y4966106D03*
G01X7041383Y4576089D03*
G01X7041383Y4511091D03*
G01X7041383Y4381094D03*
G01X7041383Y4251096D03*
G01X7041383Y4186098D03*
G01X6976384Y5161102D03*
G01X6976384Y5096104D03*
G01X6976384Y4966106D03*
G01X6976384Y4706112D03*
G01X6976384Y4641088D03*
G01X6976384Y4576089D03*
G01X6976384Y4511091D03*
G01X6976384Y4381094D03*
G01X6976384Y4251096D03*
G01X6976384Y4186098D03*
G01X6976384Y4121099D03*
G01X6911386Y5161102D03*
G01X6911386Y5096104D03*
G01X6911386Y4966106D03*
G01X6911386Y4836109D03*
G01X6911386Y4771111D03*
G01X6911386Y4706112D03*
G01X6911386Y4641088D03*
G01X6911386Y4576089D03*
G01X6911386Y4511091D03*
G01X6911386Y4446092D03*
G01X6911386Y4381094D03*
G01X6911386Y4251096D03*
G01X6911386Y4186098D03*
G01X6846387Y5161102D03*
G01X6846387Y5096104D03*
G01X6846387Y4966106D03*
G01X6846387Y4901108D03*
G01X6846387Y4836109D03*
G01X6846387Y4771111D03*
G01X6846387Y4706112D03*
G01X6846387Y4641088D03*
G01X6846387Y4576089D03*
G01X6846387Y4511091D03*
G01X6846387Y4446092D03*
G01X6846387Y4381094D03*
G01X6846387Y4251096D03*
G01X6846387Y4186098D03*
G01X6846387Y4121099D03*
G01X6781389Y5161102D03*
G01X6781389Y5096104D03*
G01X6781389Y4966106D03*
G01X6781389Y4901108D03*
G01X6781389Y4836109D03*
G01X6781389Y4771111D03*
G01X6781389Y4706112D03*
G01X6781389Y4641088D03*
G01X6781389Y4576089D03*
G01X6781389Y4511091D03*
G01X6781389Y4446092D03*
G01X6781389Y4381094D03*
G01X6781389Y4251096D03*
G01X6781389Y4186098D03*
G01X6716390Y5161102D03*
G01X6716390Y5096104D03*
G01X6716390Y4251096D03*
G01X6716390Y4186098D03*
G01X6716390Y4121099D03*
G01X6651391Y5161102D03*
G01X6651391Y5096104D03*
G01X6651391Y5031105D03*
G01X6651391Y4966106D03*
G01X6651391Y4901108D03*
G01X6651391Y4836109D03*
G01X6651391Y4771111D03*
G01X6651391Y4706112D03*
G01X6651391Y4641088D03*
G01X6651391Y4576089D03*
G01X6651391Y4511091D03*
G01X6651391Y4446092D03*
G01X6651391Y4381094D03*
G01X6651391Y4316095D03*
G01X6651391Y4251096D03*
G01X6651391Y4186098D03*
G01X6651391Y4121099D03*
G01X6586393Y5226101D03*
G01X6586393Y5161102D03*
G01X6586393Y5096104D03*
G01X6586393Y5031105D03*
G01X6586393Y4966106D03*
G01X6586393Y4901108D03*
G01X6586393Y4836109D03*
G01X6586393Y4771111D03*
G01X6586393Y4706112D03*
G01X6586393Y4641088D03*
G01X6586393Y4576089D03*
G01X6586393Y4511091D03*
G01X6586393Y4446092D03*
G01X6586393Y4381094D03*
G01X6586393Y4316095D03*
G01X6586393Y4251096D03*
G01X6586393Y4186098D03*
G01X6586393Y4121099D03*
G01X6521394Y5226101D03*
G01X6521394Y5161102D03*
G01X6521394Y5096104D03*
G01X6521394Y4966106D03*
G01X6521394Y4836109D03*
G01X6521394Y4706112D03*
G01X6521394Y4576089D03*
G01X6521394Y4511091D03*
G01X6521394Y4381094D03*
G01X6521394Y4251096D03*
G01X6521394Y4186098D03*
G01X6521394Y4121099D03*
G01X6651391Y5226101D03*
G01X6781389Y5226101D03*
G01X6911386Y5226101D03*
G54D25*
G01X1152199Y3524940D03*
G01X1068176Y3524940D03*
G01X1190299Y3058951D03*
G01X1106276Y3058951D03*
G54D11*
G01X1904168Y4403822D03*
G01X1904168Y4319799D03*
G01X2018537Y4403822D03*
G01X2018537Y4319799D03*
G01X2185776Y4074951D03*
G01X2185776Y3990928D03*
G01X2071476Y4074951D03*
G01X2071476Y3990928D03*
G54D25*
G01X2367487Y3601140D03*
G01X2283464Y3601140D03*
G01X2366112Y3708400D03*
G01X2282088Y3708400D03*
G01X2367487Y3321740D03*
G01X2283464Y3321740D03*
G01X2367487Y3207440D03*
G01X2283464Y3207440D03*
G54D26*
G01X557386Y3455148D03*
G01X557386Y3235133D03*
G01X727388Y3235133D03*
G01X727388Y3455148D03*
G54D11*
G01X884986Y3457528D03*
G01X884986Y3541551D03*
G01X884986Y3236238D03*
G01X884986Y3152215D03*
G54D12*
G01X844702Y1993900D03*
G01X704698Y1993900D03*
G54D25*
G01X8670188Y7289800D03*
G01X8754212Y7289800D03*
G01X8670188Y7186572D03*
G01X8754212Y7186572D03*
G54D27*
G01X4274998Y914400D03*
G01X4615002Y914400D03*
G01X5681802Y901700D03*
G01X5341798Y901700D03*
G54D11*
G01X8085668Y5694718D03*
G01X8085668Y5610694D03*
G01X8085668Y5369481D03*
G01X8085668Y5453504D03*
G01X8204200Y4918812D03*
G01X8204200Y5002835D03*
G01X8204200Y5185512D03*
G01X8204200Y5101488D03*
G54D26*
G01X8409106Y5421203D03*
G01X8409106Y5641218D03*
G01X8239104Y5641218D03*
G01X8239104Y5421203D03*
G54D28*
G01X8369287Y5179606D03*
G01X8369287Y4929594D03*
G54D25*
G01X7827112Y2882900D03*
G01X7743088Y2882900D03*
G01X7827112Y2755900D03*
G01X7743088Y2755900D03*
G54D11*
G01X9228104Y4005595D03*
G01X9228104Y4089619D03*
G54D29*
G01X7979499Y3073400D03*
G01X8149499Y3073400D03*
G54D12*
G01X7245502Y1993900D03*
G01X7105498Y1993900D03*
G54D30*
G01X8549058Y8711618D03*
G01X8884058Y8711618D03*
G54D31*
G01X8491552Y8895107D03*
G01X8941538Y8895107D03*
G54D25*
G01X9101988Y5067300D03*
G01X9186012Y5067300D03*
G54D32*
G01X8877300Y5501691D03*
G01X8877300Y5064709D03*
G54D27*
G01X8372020Y8076236D03*
G01X8032016Y8076236D03*
G01X7018912Y8077859D03*
G01X7358916Y8077859D03*
G01X5684698Y1079500D03*
G01X6024702Y1079500D03*
G01X7104202Y1079500D03*
G01X6764198Y1079500D03*
G54D33*
G01X6743700Y6638290D03*
G01X6870700Y6638290D03*
G01X6870700Y7357110D03*
G01X6743700Y7357110D03*
G54D34*
G01X7357465Y7347138D03*
G01X7357465Y7297126D03*
G01X7357465Y7247139D03*
G01X7357465Y7197126D03*
G01X7357465Y7147139D03*
G01X7779461Y7347138D03*
G01X7779461Y7297126D03*
G01X7779461Y7247139D03*
G01X7779461Y7197126D03*
G01X7779461Y7147139D03*
G54D35*
G01X4910348Y2802599D03*
G01X5060147Y2802625D03*
G01X4910348Y2628439D03*
G01X5060147Y2628465D03*
G01X1017300Y5321287D03*
G01X1167100Y5321313D03*
G01X1017300Y5499087D03*
G01X1167100Y5499113D03*
G54D36*
G01X304800Y5509768D03*
G01X399796Y5259832D03*
G01X209804Y5259832D03*
G54D25*
G01X7179412Y2806700D03*
G01X7095388Y2806700D03*
G01X7179412Y2921000D03*
G01X7095388Y2921000D03*
G04 Pad End*

M02*

