G04 Layer: InnerLayer3*
G04 EasyEDA Pro v3.2.80, 2026-01-29 23:02:20*
G04 Gerber Generator version 0.3*
G04 Scale: 100 percent, Rotated: No, Reflected: No*
G04 Dimensions in millimeters*
G04 Leading zeros omitted, absolute positions, 4 integers and 5 decimals*
G04 Generated by one-click*
%FSLAX45Y45*%
%MOMM*%
%ADD10C,0.2032*%
%ADD11C,5.0*%
%ADD12R,1.524X1.524*%
%ADD13C,1.524*%
%ADD14C,2.159*%
%ADD15C,1.7*%
%ADD16O,1.1X2.0*%
%ADD17O,1.2X1.8*%
%ADD18R,1.7X1.7*%
%ADD19C,0.4623*%
%ADD20C,0.4572*%
%ADD21C,0.61*%
%ADD22C,0.6096*%
%ADD23C,0.7112*%
%ADD24C,0.6*%
%ADD25C,0.14224*%
%ADD26C,0.127*%
%ADD27C,0.1524*%
%ADD28C,0.3048*%
%ADD29C,0.254*%
G75*


G04 Copper Start*
G36*
G01X6996241Y4832350D02*
G01X7002094Y4844193D01*
G01X7005148Y4857045D01*
G01X7005250Y4870255D01*
G01X7002394Y4883153D01*
G01X6996725Y4895085D01*
G01X6988531Y4905446D01*
G01X6989671Y5019909D01*
G01X7176737Y5020291D01*
G01X7176737Y4774184D01*
G01X7177530Y4770199D01*
G01X7179787Y4766820D01*
G01X7215352Y4731255D01*
G01X7218731Y4728998D01*
G01X7222716Y4728205D01*
G01X7486239Y4728205D01*
G01X7486239Y4521251D01*
G01X7371043Y4521251D01*
G01X7360468Y4529171D01*
G01X7348388Y4534524D01*
G01X7335418Y4537038D01*
G01X7322213Y4536587D01*
G01X7322953Y4550366D01*
G01X7320454Y4563938D01*
G01X7314854Y4576550D01*
G01X7306464Y4587506D01*
G01X7295746Y4596199D01*
G01X7283295Y4602148D01*
G01X7269799Y4605025D01*
G01X7256004Y4604670D01*
G01X7242673Y4601103D01*
G01X7230545Y4594521D01*
G01X7220288Y4585289D01*
G01X7212472Y4573916D01*
G01X7207529Y4561032D01*
G01X7205731Y4547350D01*
G01X6986595Y4711139D01*
G01X6987060Y4757824D01*
G01X6995802Y4768177D01*
G01X7001935Y4780259D01*
G01X7005134Y4793426D01*
G01X7005227Y4806975D01*
G01X7002209Y4820185D01*
G01X6996241Y4832350D01*
G37*
G36*
G01X8961992Y5928360D02*
G01X6261100Y5928360D01*
G01X6257212Y5927587D01*
G01X6253916Y5925384D01*
G01X6050716Y5722184D01*
G01X6048513Y5718888D01*
G01X6047740Y5715000D01*
G01X6047740Y5306060D01*
G01X5661660Y5306060D01*
G01X5661660Y5990192D01*
G01X6011308Y6339840D01*
G01X8949292Y6339840D01*
G01X9057640Y6231492D01*
G01X9057640Y6024008D01*
G01X8961992Y5928360D01*
G37*
G54D10*
G01X6996241Y4832350D02*
G03X6988531Y4905446I-49341J31750D01*
G01X6989671Y5019909D01*
G01X7176737Y5020291D01*
G01X7176737Y4774184D01*
G03X7179787Y4766820I10414J0D01*
G01X7215352Y4731255D01*
G03X7222716Y4728205I7364J7364D01*
G01X7486239Y4728205D01*
G01X7486239Y4521251D01*
G01X7371043Y4521251D01*
G03X7322213Y4536587I-40235J-42705D01*
G03X7269799Y4605025I-57813J10013D01*
G03X7205731Y4547350I-5399J-58425D01*
G01X6986595Y4711139D01*
G01X6987060Y4757824D01*
G03X6996241Y4832350I-40160J42776D01*
G01X8961992Y5928360D02*
G01X6261100Y5928360D01*
G03X6253916Y5925384I0J-10160D01*
G01X6050716Y5722184D01*
G03X6047740Y5715000I7184J-7184D01*
G01X6047740Y5306060D01*
G01X5661660Y5306060D01*
G01X5661660Y5990192D01*
G01X6011308Y6339840D01*
G01X8949292Y6339840D01*
G01X9057640Y6231492D01*
G01X9057640Y6024008D01*
G01X8961992Y5928360D01*
G04 Copper End*

G04 TearDrop Start*
G36*
G01X6419850Y8697050D02*
G01X6407150Y8697050D01*
G03X6397625Y8716100I-23813J0D01*
G01X6429375Y8716100D01*
G03X6419850Y8697050I14288J-19050D01*
G37*
G36*
G01X5735320Y2179535D02*
G02X5826760Y2140165I0J-125873D01*
G01X5842000Y2185885D01*
G01X5826760Y2231605D01*
G02X5735320Y2192235I-91440J86503D01*
G01X5735320Y2179535D01*
G37*
G36*
G01X7583166Y3798397D02*
G01X7592146Y3789417D01*
G01X7591067Y3787026D01*
G01X7589985Y3782485D01*
G01X7589063Y3776673D01*
G01X7588464Y3770468D01*
G01X7564218Y3794715D01*
G01X7570422Y3795314D01*
G01X7576234Y3796236D01*
G01X7580775Y3797318D01*
G01X7583166Y3798397D01*
G37*
G36*
G01X7753350Y3613778D02*
G01X7740650Y3613778D01*
G01X7739722Y3616232D01*
G01X7737277Y3620207D01*
G01X7733819Y3624969D01*
G01X7729855Y3629780D01*
G01X7764145Y3629780D01*
G01X7760181Y3624969D01*
G01X7756723Y3620207D01*
G01X7754278Y3616232D01*
G01X7753350Y3613778D01*
G37*
G36*
G01X7488183Y3808903D02*
G01X7479203Y3817883D01*
G01X7480282Y3820274D01*
G01X7481364Y3824815D01*
G01X7482286Y3830627D01*
G01X7482885Y3836832D01*
G01X7507132Y3812585D01*
G01X7500927Y3811986D01*
G01X7495115Y3811064D01*
G01X7490574Y3809982D01*
G01X7488183Y3808903D01*
G37*
G36*
G01X7305604Y3333122D02*
G01X7318304Y3333122D01*
G01X7319231Y3330668D01*
G01X7321677Y3326693D01*
G01X7325135Y3321931D01*
G01X7329099Y3317120D01*
G01X7294809Y3317120D01*
G01X7298772Y3321931D01*
G01X7302230Y3326693D01*
G01X7304676Y3330668D01*
G01X7305604Y3333122D01*
G37*
G36*
G01X8756650Y2585078D02*
G01X8743950Y2585078D01*
G01X8743022Y2587532D01*
G01X8740577Y2591507D01*
G01X8737119Y2596269D01*
G01X8733155Y2601080D01*
G01X8767445Y2601080D01*
G01X8763481Y2596269D01*
G01X8760023Y2591507D01*
G01X8757578Y2587532D01*
G01X8756650Y2585078D01*
G37*
G36*
G01X8553450Y2585078D02*
G01X8540750Y2585078D01*
G01X8539822Y2587532D01*
G01X8537377Y2591507D01*
G01X8533919Y2596269D01*
G01X8529955Y2601080D01*
G01X8564245Y2601080D01*
G01X8560281Y2596269D01*
G01X8556823Y2591507D01*
G01X8554378Y2587532D01*
G01X8553450Y2585078D01*
G37*
G36*
G01X7713717Y3988897D02*
G01X7722697Y3979917D01*
G01X7721618Y3977526D01*
G01X7720536Y3972985D01*
G01X7719614Y3967173D01*
G01X7719015Y3960968D01*
G01X7694768Y3985215D01*
G01X7700973Y3985814D01*
G01X7706785Y3986736D01*
G01X7711326Y3987818D01*
G01X7713717Y3988897D01*
G37*
G36*
G01X8368203Y3789417D02*
G01X8377183Y3798397D01*
G01X8379574Y3797318D01*
G01X8384115Y3796236D01*
G01X8389927Y3795314D01*
G01X8396132Y3794715D01*
G01X8371885Y3770468D01*
G01X8371286Y3776673D01*
G01X8370364Y3782485D01*
G01X8369282Y3787026D01*
G01X8368203Y3789417D01*
G37*
G36*
G01X8316469Y4363720D02*
G01X8329652Y4351020D01*
G01X8327663Y4350740D01*
G01X8325483Y4349950D01*
G01X8320926Y4347129D01*
G01X8316732Y4343140D01*
G01X8313650Y4338567D01*
G01X8300467Y4370222D01*
G01X8303447Y4368736D01*
G01X8307294Y4366553D01*
G01X8311728Y4364579D01*
G01X8314078Y4363954D01*
G01X8316469Y4363720D01*
G37*
G36*
G01X7957189Y4283627D02*
G01X7957189Y4270927D01*
G01X7954735Y4269999D01*
G01X7950759Y4267554D01*
G01X7945998Y4264096D01*
G01X7941187Y4260132D01*
G01X7941187Y4294422D01*
G01X7945998Y4290458D01*
G01X7950759Y4287000D01*
G01X7954735Y4284555D01*
G01X7957189Y4283627D01*
G37*
G36*
G01X7930522Y4776368D02*
G01X7930522Y4763668D01*
G01X7928068Y4762741D01*
G01X7924093Y4760295D01*
G01X7919331Y4756837D01*
G01X7914520Y4752873D01*
G01X7914520Y4787163D01*
G01X7919331Y4783200D01*
G01X7924093Y4779742D01*
G01X7928068Y4777296D01*
G01X7930522Y4776368D01*
G37*
G36*
G01X8431703Y3878317D02*
G01X8440683Y3887297D01*
G01X8443074Y3886218D01*
G01X8447615Y3885136D01*
G01X8453427Y3884214D01*
G01X8459632Y3883615D01*
G01X8435385Y3859368D01*
G01X8434786Y3865573D01*
G01X8433864Y3871385D01*
G01X8432782Y3875926D01*
G01X8431703Y3878317D01*
G37*
G36*
G01X8571048Y3993522D02*
G01X8583748Y3993522D01*
G01X8584676Y3991068D01*
G01X8587122Y3987093D01*
G01X8590579Y3982331D01*
G01X8594543Y3977520D01*
G01X8560253Y3977520D01*
G01X8564217Y3982331D01*
G01X8567675Y3987093D01*
G01X8570120Y3991068D01*
G01X8571048Y3993522D01*
G37*
G36*
G01X8642350Y3993522D02*
G01X8655050Y3993522D01*
G01X8655978Y3991068D01*
G01X8658423Y3987093D01*
G01X8661881Y3982331D01*
G01X8665845Y3977520D01*
G01X8631555Y3977520D01*
G01X8635519Y3982331D01*
G01X8638977Y3987093D01*
G01X8641422Y3991068D01*
G01X8642350Y3993522D01*
G37*
G04 TearDrop End*

G04 Pad Start*
G54D11*
G01X635000Y7289800D03*
G01X500000Y8500000D03*
G01X9500000Y8500000D03*
G01X9500000Y500000D03*
G01X500000Y500000D03*
G54D12*
G01X1228500Y1992455D03*
G54D13*
G01X1355500Y1737845D03*
G01X1482500Y1991845D03*
G01X1609500Y1737845D03*
G01X1736500Y1991845D03*
G01X1863500Y1737845D03*
G01X1990500Y1991845D03*
G01X2117500Y1737845D03*
G54D14*
G01X1024995Y1407899D03*
G01X2575005Y1407899D03*
G54D15*
G01X2460400Y607545D03*
G01X2206400Y607545D03*
G01X1139600Y607545D03*
G01X1393600Y607545D03*
G54D13*
G01X2244500Y1991845D03*
G01X2371500Y1737845D03*
G54D16*
G01X4551602Y677812D03*
G01X5416599Y677812D03*
G54D17*
G01X4551602Y257797D03*
G01X5416599Y257797D03*
G54D16*
G01X8115999Y8313788D03*
G01X7251002Y8313788D03*
G54D17*
G01X8115999Y8733803D03*
G01X7251002Y8733803D03*
G54D16*
G01X5964302Y677812D03*
G01X6829299Y677812D03*
G54D17*
G01X5964302Y257797D03*
G01X6829299Y257797D03*
G54D12*
G01X7628500Y1992455D03*
G54D13*
G01X7755500Y1737845D03*
G01X7882500Y1991845D03*
G01X8009500Y1737845D03*
G01X8136500Y1991845D03*
G01X8263500Y1737845D03*
G01X8390500Y1991845D03*
G01X8517500Y1737845D03*
G54D14*
G01X7424995Y1407899D03*
G01X8975005Y1407899D03*
G54D15*
G01X8860400Y607545D03*
G01X8606400Y607545D03*
G01X7539600Y607545D03*
G01X7793600Y607545D03*
G54D13*
G01X8644500Y1991845D03*
G01X8771500Y1737845D03*
G54D18*
G01X6438900Y8801100D03*
G54D15*
G01X6692900Y8801100D03*
G01X6946900Y8801100D03*
G54D18*
G01X6567216Y2092281D03*
G54D15*
G01X6313216Y2092281D03*
G01X6059216Y2092281D03*
G04 Pad End*

G04 Via Start*
G54D20*
G01X6946562Y4533417D03*
G01X6877403Y4533480D03*
G01X6811546Y4537305D03*
G01X7010400Y4533900D03*
G01X6807200Y4800600D03*
G01X6883400Y4800600D03*
G01X6946900Y4800600D03*
G01X7137400Y4927600D03*
G01X7527981Y5071026D03*
G01X7461125Y5059671D03*
G01X7593502Y5072088D03*
G01X7660698Y5070266D03*
G01X7404100Y4610100D03*
G01X7404298Y4546786D03*
G01X6807200Y4864100D03*
G01X6883400Y4864100D03*
G01X6946900Y4864100D03*
G01X6807200Y4927600D03*
G01X7137400Y4991100D03*
G01X7010400Y4991100D03*
G01X7404100Y4800600D03*
G01X7404100Y4864100D03*
G01X7404100Y4927600D03*
G01X6819900Y4419600D03*
G01X6883400Y4419600D03*
G01X6946900Y4419600D03*
G01X7010400Y4419600D03*
G01X6743700Y4419600D03*
G01X6697530Y4376870D03*
G01X7264400Y4800600D03*
G01X7264400Y4864100D03*
G01X7264400Y4927600D03*
G01X7162800Y4445000D03*
G01X7239000Y4394200D03*
G01X6720144Y4301611D03*
G01X7188200Y4330700D03*
G01X7404100Y4406900D03*
G01X7404100Y4343400D03*
G01X7264400Y4546600D03*
G01X6883400Y4927600D03*
G01X7112000Y5219700D03*
G01X6985000Y5219700D03*
G01X7239000Y5219700D03*
G01X7302500Y4330700D03*
G01X4914940Y4804616D03*
G54D21*
G01X4889500Y5029200D03*
G01X4978932Y5029200D03*
G01X4889500Y4940300D03*
G01X4978932Y4940300D03*
G01X4889500Y4140200D03*
G01X4978932Y4140200D03*
G01X4889500Y4051300D03*
G01X4978932Y4051300D03*
G54D20*
G01X3911600Y4630949D03*
G01X7073900Y4991100D03*
G01X7073900Y4927600D03*
G01X6553200Y5270500D03*
G01X6616700Y5397500D03*
G01X6692900Y5448300D03*
G01X6832600Y5562600D03*
G01X6921500Y5410200D03*
G01X6908800Y5562600D03*
G01X6972300Y5499100D03*
G01X8039100Y5245100D03*
G01X7899400Y4770018D03*
G01X9029700Y4904690D03*
G01X7797800Y5740400D03*
G01X7747000Y5676900D03*
G01X7848600Y5676900D03*
G01X8089900Y5765800D03*
G01X8242300Y5765800D03*
G01X8407400Y5765800D03*
G01X8534400Y5765800D03*
G01X8534400Y5638800D03*
G01X8534400Y5499100D03*
G01X8534400Y5283200D03*
G01X8407400Y5283200D03*
G01X8242300Y5283200D03*
G01X7136300Y4217380D03*
G01X7504963Y7272539D03*
G01X7619263Y7272539D03*
G01X7492263Y7348739D03*
G01X7568463Y7310639D03*
G01X7644663Y7348739D03*
G01X6997700Y6642100D03*
G01X6743700Y7556500D03*
G01X6908800Y8077859D03*
G01X8305800Y8267700D03*
G01X7289800Y7594600D03*
G01X7886700Y7347138D03*
G01X7502906Y7157734D03*
G01X7627391Y7153105D03*
G01X7174578Y6996854D03*
G01X7228120Y7050396D03*
G01X7315200Y7048500D03*
G01X7188200Y6908800D03*
G01X7454900Y7099300D03*
G01X7675603Y7089519D03*
G01X8709812Y8483600D03*
G01X6718300Y4813300D03*
G01X7810500Y8394700D03*
G01X7508481Y8394700D03*
G01X7239000Y7429500D03*
G01X5302490Y6079730D03*
G01X5302490Y6155450D03*
G01X5232400Y6197600D03*
G01X5375072Y6197600D03*
G01X5372100Y6032500D03*
G01X5232400Y6019800D03*
G01X5791200Y7823200D03*
G01X5816600Y7721600D03*
G01X5829300Y7594600D03*
G01X5829300Y7467600D03*
G01X5829300Y7315200D03*
G01X5880100Y7188200D03*
G01X6477000Y965200D03*
G01X6400800Y965200D03*
G01X6426200Y901700D03*
G01X6565900Y965200D03*
G01X6299200Y965200D03*
G01X6201384Y2373797D03*
G01X6070600Y3467100D03*
G01X6019800Y3403600D03*
G01X6248400Y2540000D03*
G01X5956300Y3327400D03*
G01X6248400Y2476500D03*
G01X6311900Y2590800D03*
G01X6197600Y2298700D03*
G01X5994400Y2743200D03*
G54D22*
G01X6235700Y1892300D03*
G01X6616700Y1892300D03*
G01X7270829Y863600D03*
G54D20*
G01X6271819Y647700D03*
G01X6571819Y647700D03*
G01X4864100Y393700D03*
G01X5156200Y393700D03*
G01X3665713Y533400D03*
G01X3568700Y533400D03*
G01X7797800Y5829300D03*
G01X3505200Y1397000D03*
G54D22*
G01X3949700Y2451100D03*
G01X4038600Y2451100D03*
G01X4127500Y2451100D03*
G01X4216400Y2451100D03*
G01X3949700Y2362200D03*
G01X4038600Y2362200D03*
G01X4127500Y2362200D03*
G01X4216400Y2362200D03*
G01X2874911Y3379023D03*
G01X2963811Y3379023D03*
G01X3052711Y3379023D03*
G01X3141611Y3379023D03*
G01X2874911Y3290123D03*
G01X2963811Y3290123D03*
G01X3052711Y3290123D03*
G01X3141611Y3290123D03*
G54D20*
G01X2719540Y787400D03*
G01X800100Y787400D03*
G01X3517900Y4622800D03*
G01X4660900Y4559300D03*
G01X5600700Y8102498D03*
G01X5600700Y8027099D03*
G54D22*
G01X5359400Y8280400D03*
G01X5270500Y8280400D03*
G01X5448300Y8280400D03*
G01X5295900Y6362700D03*
G01X5207000Y6362700D03*
G01X5118100Y6362700D03*
G54D20*
G01X5156200Y8407400D03*
G01X6083300Y8710957D03*
G01X5740400Y6794500D03*
G01X5753100Y6731000D03*
G01X5588000Y7518400D03*
G01X5588000Y7439800D03*
G01X5588000Y7366000D03*
G01X5588000Y7289800D03*
G01X5600700Y6527800D03*
G01X3200400Y7315200D03*
G01X3326981Y7226300D03*
G01X3466681Y7366000D03*
G01X3929977Y7137400D03*
G01X3708400Y7607300D03*
G01X7264772Y4483591D03*
G01X4216400Y1041400D03*
G01X5664200Y1244600D03*
G01X7099300Y1244600D03*
G54D21*
G01X5842000Y5422900D03*
G01X5741163Y5422900D03*
G01X5942837Y5422900D03*
G54D20*
G01X9541348Y981548D03*
G54D21*
G01X8851900Y6134100D03*
G01X8851900Y6033263D03*
G01X8851900Y6234937D03*
G54D20*
G01X8585200Y7289800D03*
G01X9271000Y4909718D03*
G01X6489700Y5549900D03*
G01X6540500Y6807200D03*
G01X6553200Y5549900D03*
G01X6540500Y6883400D03*
G01X8801100Y8420100D03*
G01X8623300Y8420100D03*
G01X8712200Y8572500D03*
G01X5588000Y7023100D03*
G01X5588000Y6939801D03*
G01X5588000Y6858000D03*
G01X6070600Y6614803D03*
G01X7759700Y6908800D03*
G01X7759700Y6997700D03*
G01X7675194Y7607300D03*
G01X7675194Y7696200D03*
G01X7734300Y7543800D03*
G01X7734300Y7759700D03*
G01X7620000Y7505700D03*
G01X7619200Y7806407D03*
G01X7835900Y6858000D03*
G01X7835900Y7035800D03*
G01X7670800Y6959600D03*
G01X4946798Y4259986D03*
G01X3911600Y4483100D03*
G54D21*
G01X4660900Y3227325D03*
G01X4660900Y3328163D03*
G01X4660900Y3429000D03*
G01X4572000Y3227325D03*
G01X4572000Y3328163D03*
G01X4572000Y3429000D03*
G01X4660900Y5638800D03*
G01X4572000Y5638800D03*
G01X4572000Y5739637D03*
G01X4660900Y5739637D03*
G01X4660900Y5840475D03*
G01X4572000Y5840475D03*
G01X5334000Y5473700D03*
G01X5422900Y5473700D03*
G01X5422900Y5372863D03*
G01X5334000Y5372863D03*
G01X5334000Y5272025D03*
G01X5422900Y5272025D03*
G01X5338115Y3759200D03*
G01X5427015Y3759200D03*
G01X5427015Y3658363D03*
G01X5338115Y3658363D03*
G01X5338115Y3557525D03*
G01X5427015Y3557525D03*
G54D20*
G01X6070600Y3606800D03*
G01X6070600Y3733800D03*
G01X6070600Y3860800D03*
G01X6070600Y3987800D03*
G01X6121400Y4216400D03*
G01X6121400Y4394200D03*
G01X7330808Y4478546D03*
G01X6489700Y4025900D03*
G01X6756400Y4025900D03*
G01X6547686Y6464300D03*
G01X8884058Y8572500D03*
G01X4508500Y2628900D03*
G01X4508500Y2794000D03*
G01X5842000Y2185885D03*
G01X3200400Y7226300D03*
G01X3327400Y7150100D03*
G01X3200400Y7150100D03*
G01X3822700Y7137400D03*
G54D22*
G01X2959087Y2806713D03*
G01X4033876Y1878789D03*
G54D20*
G01X7366000Y5245100D03*
G01X6683015Y4025900D03*
G01X6261100Y4394200D03*
G01X6197600Y4394200D03*
G01X5212094Y1490966D03*
G01X5136374Y1490966D03*
G01X6121400Y4305300D03*
G01X6324600Y4419600D03*
G01X6223000Y4305300D03*
G01X6261100Y4114800D03*
G01X6400800Y4114800D03*
G01X6388100Y4356100D03*
G01X6426200Y4216400D03*
G01X6223000Y4216400D03*
G01X6477000Y4292600D03*
G01X4914900Y850900D03*
G01X5059094Y609600D03*
G01X4864100Y927100D03*
G01X4978400Y901700D03*
G01X4826000Y838200D03*
G01X5003800Y558800D03*
G01X5105400Y558800D03*
G01X5067300Y1549400D03*
G01X5283200Y1549400D03*
G01X5283200Y1409700D03*
G01X5067300Y1409700D03*
G01X5308600Y2120900D03*
G01X5308600Y2032000D03*
G01X5308600Y1943100D03*
G01X5308600Y1854200D03*
G01X5308600Y1765300D03*
G01X5308600Y1676400D03*
G01X5067300Y2120900D03*
G01X5067300Y2032000D03*
G01X5067300Y1943100D03*
G01X5067300Y1854200D03*
G01X5067300Y1765300D03*
G01X5067300Y1676400D03*
G01X6197600Y3835400D03*
G01X6197600Y3746500D03*
G01X6197600Y3657600D03*
G01X6197600Y3568700D03*
G01X6197600Y3479800D03*
G01X6197600Y3390900D03*
G01X6451600Y3835400D03*
G01X6451600Y3746500D03*
G01X6451600Y3657600D03*
G01X6451600Y3568700D03*
G01X6451600Y3479800D03*
G01X6451600Y3390900D03*
G01X3111500Y5562600D03*
G01X3035300Y5562600D03*
G01X2959100Y5562600D03*
G01X2882900Y5562600D03*
G01X2044700Y5422900D03*
G01X2044700Y5346700D03*
G01X2044700Y5270500D03*
G01X1669973Y4025900D03*
G01X1477491Y4025900D03*
G01X1471853Y3937000D03*
G01X1326084Y4908310D03*
G01X1401804Y4908310D03*
G01X1536700Y5245100D03*
G01X1435100Y5245100D03*
G01X1333500Y5168900D03*
G01X1257300Y5067300D03*
G01X1257300Y4965700D03*
G01X1460500Y4965700D03*
G01X2476500Y7848600D03*
G01X2565400Y7848600D03*
G01X2654300Y7848600D03*
G01X2743200Y7848600D03*
G01X2832100Y7848600D03*
G01X2921000Y7848600D03*
G01X2413000Y6946900D03*
G01X2413000Y6858000D03*
G01X2413000Y6769100D03*
G01X2413000Y6680200D03*
G01X2413000Y6591300D03*
G01X2413000Y6502400D03*
G01X2235200Y6946900D03*
G01X2235200Y6858000D03*
G01X2235200Y6769100D03*
G01X2235200Y6680200D03*
G01X2235200Y6591300D03*
G01X2235200Y6502400D03*
G01X1574800Y7289800D03*
G01X1574800Y7200900D03*
G01X1574800Y7112000D03*
G01X1574800Y7023100D03*
G01X1574800Y6934200D03*
G01X1574800Y6845300D03*
G01X1574800Y6756400D03*
G01X1574800Y6667500D03*
G01X1574800Y6578600D03*
G01X1816100Y7289800D03*
G01X1816100Y7200900D03*
G01X1816100Y7112000D03*
G01X1816100Y7023100D03*
G01X1816100Y6934200D03*
G01X1816100Y6845300D03*
G01X1816100Y6756400D03*
G01X1816100Y6667500D03*
G01X1816100Y6578600D03*
G01X1536700Y5067300D03*
G01X1803400Y5041900D03*
G01X1892300Y5041900D03*
G01X1981200Y5041900D03*
G01X2247900Y5041900D03*
G01X1803400Y5245100D03*
G01X1892300Y5245100D03*
G01X2159000Y5245100D03*
G01X2400300Y5232400D03*
G01X2489200Y5232400D03*
G01X2578100Y5232400D03*
G01X2667000Y5232400D03*
G01X3657600Y5473700D03*
G01X3746500Y5473700D03*
G01X3835400Y5473700D03*
G01X3924300Y5473700D03*
G01X4013200Y5473700D03*
G01X4102100Y5473700D03*
G01X4191000Y5473700D03*
G01X4279900Y5473700D03*
G01X4368800Y5473700D03*
G01X4013200Y6223000D03*
G01X4102100Y6223000D03*
G01X4191000Y6223000D03*
G01X4279900Y6223000D03*
G01X4368800Y6223000D03*
G01X4457700Y6223000D03*
G01X4546600Y6223000D03*
G01X4635500Y6223000D03*
G01X4724400Y6223000D03*
G01X1270000Y3524940D03*
G01X1193800Y3187700D03*
G01X1231900Y3695700D03*
G01X2120900Y3797300D03*
G01X1384300Y3848100D03*
G01X2082800Y3352800D03*
G01X2159000Y3439032D03*
G01X1549958Y2946400D03*
G01X1589963Y3060700D03*
G01X1829967Y3060700D03*
G01X1709952Y2946400D03*
G01X1894787Y2474704D03*
G01X1841245Y2421162D03*
G01X1955800Y3937000D03*
G01X2286000Y3492500D03*
G54D23*
G01X1104900Y4191000D03*
G01X762000Y4165600D03*
G01X711200Y5118100D03*
G01X711200Y4978400D03*
G54D20*
G01X1244600Y5638800D03*
G54D23*
G01X1054100Y5028254D03*
G01X1054100Y4913954D03*
G54D20*
G01X749300Y1219200D03*
G01X2286000Y3860800D03*
G01X1841500Y5549900D03*
G01X1841500Y6172200D03*
G01X1841500Y6083300D03*
G01X1841500Y5994400D03*
G01X1841500Y5905500D03*
G01X1841500Y5816600D03*
G01X1841500Y5727700D03*
G01X1841500Y5638800D03*
G01X2463800Y6248400D03*
G01X2463800Y6159500D03*
G01X2463800Y6070600D03*
G01X2463800Y5981700D03*
G01X2463800Y5892800D03*
G01X2209800Y6248400D03*
G01X2209800Y6159500D03*
G01X2209800Y6070600D03*
G01X2209800Y5981700D03*
G01X2209800Y5892800D03*
G01X2209800Y5803900D03*
G01X2209800Y5715000D03*
G01X1574800Y6172200D03*
G01X1574800Y6083300D03*
G01X1574800Y5994400D03*
G01X1574800Y5905500D03*
G01X1574800Y5816600D03*
G01X1574800Y5727700D03*
G01X1574800Y5638800D03*
G01X1447800Y4699000D03*
G01X1282700Y4699000D03*
G01X1549400Y4470400D03*
G01X1549400Y4699000D03*
G01X1866900Y4508500D03*
G01X1866900Y4699000D03*
G01X1549400Y4597400D03*
G01X1866900Y4597400D03*
G01X1981200Y2501900D03*
G01X1828800Y2324100D03*
G01X2006600Y2324100D03*
G01X1854200Y2654300D03*
G01X1892300Y2578100D03*
G01X1562100Y2679700D03*
G01X1562100Y2552700D03*
G01X1562100Y2425700D03*
G01X1409700Y2679700D03*
G01X1409700Y2552700D03*
G01X1409700Y2425700D03*
G01X1752600Y2400300D03*
G01X1562100Y2311400D03*
G01X533400Y3619500D03*
G01X660400Y3619500D03*
G01X914400Y3619500D03*
G01X419100Y3619500D03*
G01X419100Y3454400D03*
G01X419100Y3238500D03*
G01X419100Y3098800D03*
G01X660400Y3098800D03*
G01X914400Y3073400D03*
G54D22*
G01X5118100Y6464300D03*
G01X5207000Y6464300D03*
G01X5295900Y6464300D03*
G54D20*
G01X7962900Y5143500D03*
G01X7988300Y4914900D03*
G01X7962900Y5245100D03*
G01X7962900Y5359400D03*
G01X7810460Y5137250D03*
G01X7810500Y5232400D03*
G01X7759700Y4699000D03*
G01X8140700Y4546600D03*
G01X8013700Y4457700D03*
G01X8191500Y4457700D03*
G01X7926067Y4277277D03*
G01X7848600Y4394022D03*
G01X7772400Y4229100D03*
G01X7645400Y4051300D03*
G01X7431439Y4011787D03*
G01X7505700Y3835400D03*
G01X7565649Y3771900D03*
G01X7696200Y3962400D03*
G01X7848600Y3771900D03*
G01X8293100Y4348582D03*
G01X8750300Y2616200D03*
G01X8721848Y3724152D03*
G01X8648700Y3962400D03*
G01X8577398Y3962400D03*
G01X8458200Y3860800D03*
G01X8394700Y3771900D03*
G01X8724900Y4064000D03*
G01X7962900Y3467100D03*
G01X8115300Y3238500D03*
G01X8077200Y3632200D03*
G01X7747000Y3644900D03*
G01X7848600Y3213100D03*
G01X7644441Y3772333D03*
G01X7561560Y3462040D03*
G01X8547100Y2616200D03*
G01X8765786Y2870200D03*
G01X8316743Y2881143D03*
G01X8418343Y2881053D03*
G01X8267700Y3619500D03*
G01X8178800Y3937000D03*
G01X7988300Y3937000D03*
G01X8888243Y4241800D03*
G01X7645400Y2596189D03*
G01X8001000Y2481889D03*
G01X9004300Y3251200D03*
G01X9004300Y3517900D03*
G01X8750300Y3022600D03*
G01X9178188Y3111500D03*
G01X9113804Y4178300D03*
G01X9066004Y2270813D03*
G01X9012462Y2324355D03*
G01X8928100Y2286000D03*
G01X9055100Y2197100D03*
G54D22*
G01X7086600Y3769512D03*
G54D20*
G01X8216900Y2616200D03*
G01X8432800Y3390900D03*
G01X8432800Y3314700D03*
G01X8432800Y3467100D03*
G01X3467100Y1600200D03*
G01X3467100Y1727200D03*
G01X3581400Y1727200D03*
G01X3911600Y1600200D03*
G01X4013200Y1600200D03*
G01X1004499Y3951735D03*
G01X9118600Y4356100D03*
G01X8394700Y4102100D03*
G01X8496300Y4025900D03*
G01X8382000Y3860800D03*
G01X8750300Y3962400D03*
G01X8788400Y4155137D03*
G01X8928100Y4305300D03*
G01X8547100Y4318000D03*
G01X8432800Y4432300D03*
G01X8204200Y4559300D03*
G01X7975600Y4229100D03*
G01X7848600Y4292600D03*
G01X7581900Y3644900D03*
G01X7505700Y3683000D03*
G01X7429500Y3898900D03*
G01X7531100Y3390900D03*
G01X7581900Y3543300D03*
G01X8674100Y4419600D03*
G01X8572500Y4483100D03*
G01X8775700Y4305300D03*
G01X9118600Y4254500D03*
G01X8509000Y3911600D03*
G01X8839200Y3048000D03*
G01X8902700Y2882900D03*
G01X8826500Y2578100D03*
G01X8674100Y2540000D03*
G01X8458200Y2565400D03*
G01X8174249Y2565400D03*
G01X8298804Y2565400D03*
G01X7950200Y2590800D03*
G01X8483600Y2870200D03*
G01X9182100Y2311400D03*
G01X9347200Y2959100D03*
G01X9347200Y2781300D03*
G01X9347200Y2603500D03*
G01X9347200Y3111500D03*
G01X9486900Y2959100D03*
G01X9486900Y2781300D03*
G01X9486900Y2603500D03*
G01X9448800Y3657600D03*
G01X9486900Y3111500D03*
G01X8458200Y2463800D03*
G01X8648700Y2463800D03*
G01X8280400Y2463800D03*
G01X4140200Y6794500D03*
G01X4318000Y6794500D03*
G01X3873500Y6794500D03*
G01X3784600Y6794500D03*
G01X3962400Y6794500D03*
G01X4229100Y6794500D03*
G01X4051300Y6794500D03*
G01X4000500Y6921500D03*
G01X4178300Y6921500D03*
G01X4356100Y6921500D03*
G01X3733800Y6921500D03*
G01X3644900Y6921500D03*
G01X3822700Y6921500D03*
G01X4267200Y6921500D03*
G01X4089400Y6921500D03*
G01X3911600Y6921500D03*
G01X4546600Y7467600D03*
G01X4724400Y7467600D03*
G01X4902200Y7467600D03*
G01X4279900Y7467600D03*
G01X4191000Y7467600D03*
G01X4368800Y7467600D03*
G01X4813300Y7467600D03*
G01X4635500Y7467600D03*
G01X4457700Y7467600D03*
G01X9436100Y4343400D03*
G01X9436100Y4165600D03*
G01X9436100Y3987800D03*
G01X9436100Y4699000D03*
G01X9436100Y4521200D03*
G01X9321800Y5816600D03*
G01X9499600Y5816600D03*
G01X9677400Y5816600D03*
G01X9055100Y5816600D03*
G01X8966200Y5816600D03*
G01X9144000Y5816600D03*
G01X9588500Y5816600D03*
G01X9410700Y5816600D03*
G01X9232900Y5816600D03*
G01X8661400Y5359400D03*
G01X8661400Y5181600D03*
G01X8661400Y5003800D03*
G01X8661400Y5626100D03*
G01X8661400Y5715000D03*
G01X8661400Y5537200D03*
G01X8661400Y5092700D03*
G01X8661400Y5270500D03*
G01X8661400Y5448300D03*
G01X6959600Y2590800D03*
G01X6959600Y2857500D03*
G01X6959600Y2730500D03*
G01X7112000Y3263900D03*
G01X7112000Y3136900D03*
G01X6629400Y2921000D03*
G01X6629400Y2743200D03*
G01X6629400Y2565400D03*
G01X6629400Y3187700D03*
G01X6629400Y3276600D03*
G01X6629400Y3098800D03*
G01X6629400Y2654300D03*
G01X6629400Y2832100D03*
G01X6629400Y3009900D03*
G01X4927600Y3073400D03*
G01X5105400Y3073400D03*
G01X5283200Y3073400D03*
G01X4660900Y3073400D03*
G01X4572000Y3073400D03*
G01X4749800Y3073400D03*
G01X5194300Y3073400D03*
G01X5016500Y3073400D03*
G01X4838700Y3073400D03*
G01X3746500Y3225800D03*
G01X3746500Y3048000D03*
G01X3746500Y2870200D03*
G01X3746500Y3492500D03*
G01X3746500Y3581400D03*
G01X3746500Y3403600D03*
G01X3746500Y2959100D03*
G01X3746500Y3136900D03*
G01X3746500Y3314700D03*
G01X2730500Y1981200D03*
G01X2730500Y1803400D03*
G01X2730500Y1625600D03*
G01X2730500Y2247900D03*
G01X2730500Y2336800D03*
G01X2730500Y2159000D03*
G01X2730500Y1714500D03*
G01X2730500Y1892300D03*
G01X2730500Y2070100D03*
G01X2959100Y1981200D03*
G01X2959100Y1803400D03*
G01X2959100Y1625600D03*
G01X2959100Y2247900D03*
G01X2959100Y2336800D03*
G01X2959100Y2159000D03*
G01X2959100Y1714500D03*
G01X2959100Y1892300D03*
G01X2959100Y2070100D03*
G01X6337300Y6814802D03*
G01X6337300Y6964802D03*
G01X6337300Y7114802D03*
G01X6337300Y7264801D03*
G01X6337300Y7414801D03*
G01X6337300Y7564801D03*
G01X6362700Y7924800D03*
G01X6413500Y8140700D03*
G01X6375400Y8191500D03*
G01X4932999Y4536164D03*
G54D24*
G01X1639950Y3549014D03*
G01X1739950Y3549014D03*
G01X1639950Y3449014D03*
G01X1739950Y3449014D03*
G54D20*
G01X7912100Y3556000D03*
G01X7311954Y3302000D03*
G01X7797800Y3581400D03*
G01X7797800Y3683000D03*
G01X7391400Y3340100D03*
G01X7239000Y3340100D03*
G01X7962900Y3644900D03*
G01X8128000Y4229100D03*
G01X8674100Y4191000D03*
G01X9118600Y4457700D03*
G01X8775700Y4419600D03*
G01X8928100Y4419600D03*
G01X9182100Y2641600D03*
G01X9105900Y2463800D03*
G01X9309100Y2438400D03*
G01X8864600Y3657600D03*
G01X8280400Y4432300D03*
G01X7378700Y2908300D03*
G01X7378700Y2794000D03*
G01X7378700Y2654300D03*
G01X8140700Y2235200D03*
G01X8293100Y7378700D03*
G01X8648700Y7518400D03*
G01X5753100Y6946900D03*
G01X7175500Y3022600D03*
G04 Via End*

G04 Track Start*
G54D25*
G01X7582420Y7093911D02*
G01X7582420Y7068511D01*
G01X7627391Y7153105D02*
G01X7592478Y7118193D01*
G03X7582420Y7093911I24282J-24282D01*
G01X7582420Y7068511D02*
G02X7572303Y7044084I-34544J0D01*
G01X7567274Y7039055D01*
G02X7530707Y7023909I-36567J36567D01*
G01X7523595Y7023909D01*
G03X7382702Y6965549I0J-199253D01*
G01X7502906Y7157734D02*
G01X7537819Y7122821D01*
G02X7547876Y7098540I-24282J-24282D01*
G01X7530707Y7058453D02*
G01X7523595Y7058453D01*
G03X7358275Y6989975I0J-233797D01*
G01X7547876Y7075623D02*
G02X7542848Y7063482I-17170J0D01*
G02X7530707Y7058453I-12141J12141D01*
G01X7547876Y7098540D02*
G01X7547876Y7075623D01*
G01X7382702Y6965549D02*
G01X7377726Y6960574D01*
G02X7353300Y6950456I-24426J24427D01*
G01X7264400Y6950456D01*
G02X7239974Y6960574I-0J34544D01*
G03X7215692Y6970631I-24282J-24282D01*
G02X7190270Y6981162I0J35952D01*
G01X7174578Y6996854D01*
G01X7358275Y6989975D02*
G02X7346264Y6985000I-12011J12011D01*
G01X7271512Y6985000D01*
G02X7259371Y6990029I0J17170D01*
G02X7254342Y7002170I12141J12141D01*
G01X7238783Y7039733D02*
G01X7228120Y7050396D01*
G01X7254342Y7002170D02*
G03X7238783Y7039733I-53122J0D01*
G54D26*
G01X7239000Y7429500D02*
G01X7061200Y7429500D01*
G01X6997700Y6731000D02*
G01X6997700Y6642100D01*
G01X7061200Y7429500D02*
G01X7035800Y7404100D01*
G01X7035800Y6769100D01*
G01X6997700Y6731000D01*
G01X6019800Y3403600D02*
G01X6019800Y2806700D01*
G01X6201384Y2625116D01*
G01X6201384Y2373797D01*
G01X6248400Y2654300D02*
G01X6248400Y2540000D01*
G01X6070600Y3467100D02*
G01X6070600Y2832100D01*
G01X6248400Y2654300D01*
G54D27*
G01X3911600Y4630949D02*
G01X4554749Y4630949D01*
G01X4597400Y4673600D01*
G01X4879961Y4673600D01*
G54D26*
G01X5435600Y8534400D02*
G01X5308600Y8407400D01*
G01X5156200Y8407400D01*
G01X5207000Y7493000D02*
G01X5562600Y7493000D01*
G01X5588000Y7518400D01*
G01X5230000Y7439800D02*
G01X5588000Y7439800D01*
G01X5257800Y7378700D02*
G01X5575300Y7378700D01*
G01X5588000Y7366000D01*
G54D28*
G01X5842000Y2082800D02*
G01X6032500Y1892300D01*
G01X6235700Y1892300D01*
G01X6236691Y1891309D01*
G01X6615709Y1891309D01*
G01X6616700Y1892300D01*
G01X7099300Y1892300D01*
G01X7200900Y1790700D01*
G01X7200900Y1231900D01*
G01X7270829Y1161971D01*
G01X7270829Y863600D01*
G01X9423400Y863600D01*
G01X9541348Y981548D01*
G54D22*
G01X8851900Y6033263D02*
G01X8851900Y5715000D01*
G54D26*
G01X8331200Y7899400D02*
G01X8712200Y8280400D01*
G01X8712200Y8481212D01*
G01X8709812Y8483600D01*
G01X6604000Y7251700D02*
G01X7251700Y7899400D01*
G01X8331200Y7899400D01*
G01X4673600Y7023100D02*
G01X5588000Y7023100D01*
G01X5588000Y6939801D02*
G01X4679201Y6939801D01*
G01X5588000Y6858000D02*
G01X4699000Y6858000D01*
G01X5676900Y6604000D02*
G01X5600700Y6527800D01*
G01X5676900Y7086600D02*
G01X5676900Y6604000D01*
G54D29*
G01X5588000Y7289800D02*
G01X5651500Y7289800D01*
G01X5676900Y7315200D01*
G01X5676900Y7531100D01*
G54D26*
G01X3987800Y4406900D02*
G01X3911600Y4483100D01*
G01X3466681Y7366000D02*
G01X5080000Y7366000D01*
G01X5207000Y7493000D01*
G01X3326981Y7226300D02*
G01X5105400Y7226300D01*
G01X5257800Y7378700D01*
G01X3200400Y7315200D02*
G01X5105400Y7315200D01*
G01X5230000Y7439800D01*
G01X3929977Y7137400D02*
G01X5626100Y7137400D01*
G01X5676900Y7086600D01*
G01X6083300Y8710957D02*
G01X6083300Y8585200D01*
G01X6032500Y8534400D01*
G01X5435600Y8534400D01*
G01X4216400Y2451100D02*
G01X4318000Y2451100D01*
G01X4445000Y2794000D02*
G01X4508500Y2794000D01*
G01X4318000Y2451100D02*
G01X4381500Y2514600D01*
G01X4381500Y2730500D01*
G01X4445000Y2794000D01*
G01X5334000Y2489200D02*
G01X5435600Y2387600D01*
G54D28*
G01X5842000Y5422900D02*
G01X5842000Y2185885D01*
G01X5842000Y2082800D01*
G54D26*
G01X5435600Y2273300D02*
G01X5435600Y2387600D01*
G01X5842000Y2185885D02*
G01X5523015Y2185885D01*
G01X5435600Y2273300D01*
G01X4508500Y2628900D02*
G01X4508500Y2540000D01*
G01X4559300Y2489200D01*
G01X5334000Y2489200D01*
G54D28*
G01X8851900Y6234937D02*
G01X8851900Y6845300D01*
G01X8585200Y7112000D01*
G01X8585200Y7289800D01*
G54D26*
G01X5740400Y6794500D02*
G01X5930900Y6794500D01*
G01X6096000Y6959600D01*
G01X6096000Y8356600D01*
G01X6197600Y8458200D01*
G01X6337300Y8458200D01*
G01X6413500Y8534400D01*
G01X6413500Y8775700D01*
G01X6438900Y8801100D01*
G01X5753100Y6731000D02*
G01X5969000Y6731000D01*
G01X6172200Y6934200D01*
G01X6172200Y8267700D01*
G01X6197600Y8293100D01*
G01X6451600Y8293100D01*
G01X6692900Y8534400D01*
G01X6692900Y8801100D01*
G54D29*
G01X5676900Y7531100D02*
G01X5600700Y7607300D01*
G01X3708400Y7607300D01*
G54D26*
G01X4140200Y6299200D02*
G01X3810000Y6299200D01*
G01X3302000Y5791200D01*
G01X3302000Y3911600D01*
G01X3086100Y3695700D01*
G01X1231900Y3695700D01*
G01X4140200Y6299200D02*
G01X4699000Y6858000D01*
G01X4102100Y6362700D02*
G01X3619500Y6362700D01*
G01X3187700Y5930900D01*
G01X3187700Y3886200D02*
G01X3048000Y3746500D01*
G01X1485900Y3746500D01*
G01X1384300Y3848100D01*
G01X4102100Y6362700D02*
G01X4679201Y6939801D01*
G01X3187700Y5930900D02*
G01X3187700Y3886200D01*
G01X2120900Y3797300D02*
G01X2997200Y3797300D01*
G01X3035300Y3835400D01*
G01X3035300Y5207000D01*
G01X2781300Y5969000D02*
G01X3657600Y6845300D01*
G01X4495800Y6845300D01*
G01X4673600Y7023100D01*
G01X749300Y1219200D02*
G01X254331Y1714169D01*
G01X254331Y6083631D01*
G01X2578100Y8407400D01*
G01X5156200Y8407400D01*
G01X4946798Y4259986D02*
G01X4799884Y4406900D01*
G01X3987800Y4406900D01*
G54D27*
G01X4879961Y4673600D02*
G01X4914940Y4708579D01*
G01X4914940Y4804616D01*
G54D26*
G01X9029700Y4879137D02*
G01X9029700Y4904690D01*
G01X7899400Y4770018D02*
G01X8920582Y4770018D01*
G01X9029700Y4879137D01*
G01X7926067Y4277277D02*
G01X8511623Y4277277D01*
G01X8115300Y2514600D02*
G01X8521700Y2514600D01*
G01X8547100Y2540000D01*
G01X8547100Y2616200D01*
G54D22*
G01X8851900Y5715000D02*
G01X9271000Y5295900D01*
G01X9271000Y4909718D01*
G54D26*
G01X6540500Y6807200D02*
G01X6604000Y6870700D01*
G01X6604000Y7251700D01*
G01X7696200Y3962400D02*
G01X7721600Y3987800D01*
G01X7787618Y3987800D01*
G03X7806668Y4006850I0J19050D01*
G01X7806668Y4006850D02*
G02X7844768Y4006850I19050J0D01*
G01X7844768Y4006850D02*
G03X7882868Y4006850I19050J0D01*
G01X7882868Y4006850D02*
G02X7920968Y4006850I19050J0D01*
G01X7920968Y4006850D02*
G03X7959068Y4006850I19050J0D01*
G01X7959068Y4006850D02*
G02X7997168Y4006850I19050J0D01*
G01X7997168Y4006850D02*
G03X8035268Y4006850I19050J0D01*
G01X8035268Y4006850D02*
G02X8073368Y4006850I19050J0D01*
G01X8073368Y4006850D02*
G03X8111468Y4006850I19050J0D01*
G01X8111468Y4006850D02*
G02X8149568Y4006850I19050J0D01*
G01X8149568Y4006850D02*
G03X8187668Y4006850I19050J0D01*
G01X8187668Y4006850D02*
G02X8225768Y4006850I19050J0D01*
G01X8225768Y4006850D02*
G03X8244818Y3987800I19050J0D01*
G01X7565649Y3771900D02*
G01X7616449Y3822700D01*
G01X7718386Y3822700D01*
G03X7737436Y3841750I0J19050D01*
G01X7737436Y3841750D02*
G02X7775536Y3841750I19050J0D01*
G01X7775536Y3841750D02*
G03X7813636Y3841750I19050J0D01*
G01X7813636Y3841750D02*
G02X7851736Y3841750I19050J0D01*
G01X7851736Y3841750D02*
G03X7889836Y3841750I19050J0D01*
G01X7889836Y3841750D02*
G02X7927936Y3841750I19050J0D01*
G01X7927936Y3841750D02*
G03X7966036Y3841750I19050J0D01*
G01X7966036Y3841750D02*
G02X8004136Y3841750I19050J0D01*
G01X8004136Y3841750D02*
G03X8042236Y3841750I19050J0D01*
G01X8042236Y3841750D02*
G02X8080336Y3841750I19050J0D01*
G01X8080336Y3841750D02*
G03X8118436Y3841750I19050J0D01*
G01X8118436Y3841750D02*
G02X8156536Y3841750I19050J0D01*
G01X8156536Y3841750D02*
G03X8194636Y3841750I19050J0D01*
G01X8194636Y3841750D02*
G02X8232736Y3841750I19050J0D01*
G01X8232736Y3841750D02*
G03X8251786Y3822700I19050J0D01*
G01X8343900Y3822700D02*
G01X8394700Y3771900D01*
G01X8251786Y3822700D02*
G01X8343900Y3822700D01*
G01X8331200Y3987800D02*
G01X8458200Y3860800D01*
G01X8244818Y3987800D02*
G01X8331200Y3987800D01*
G01X7747000Y3644900D02*
G01X7747000Y2882900D01*
G01X8115300Y2514600D01*
G01X8826500Y2438400D02*
G01X8750300Y2514600D01*
G01X8750300Y2616200D01*
G01X9055100Y4292600D02*
G01X9055100Y2540000D01*
G01X8953500Y2438400D01*
G01X8826500Y2438400D01*
G01X7505700Y3835400D02*
G01X7311954Y3641654D01*
G01X7311954Y3302000D01*
G01X8990330Y4357370D02*
G01X9055100Y4292600D01*
G01X8293100Y4348582D02*
G01X8301888Y4357370D01*
G01X8990330Y4357370D01*
G01X8577398Y4097202D02*
G01X8577398Y3962400D01*
G01X7431439Y4011787D02*
G01X7585252Y4165600D01*
G01X8509000Y4165600D01*
G01X8577398Y4097202D01*
G01X8511623Y4277277D02*
G01X8648700Y4140200D01*
G01X8648700Y3962400D01*
G01X3035300Y5207000D02*
G01X2781300Y5461000D01*
G01X2781300Y5969000D01*
G04 Track End*

M02*

